<svg width="485" height="21" viewBox="0 0 485 21" fill="none" xmlns="http://www.w3.org/2000/svg">
<path d="M0.194406 16V0.599999H2.04241V14.526H9.21441V16H0.194406ZM16.1423 16.264C15.1157 16.264 14.1917 16.0293 13.3703 15.56C12.549 15.0907 11.8963 14.4307 11.4123 13.58C10.943 12.7147 10.7083 11.7027 10.7083 10.544C10.7083 9.38533 10.9503 8.38067 11.4343 7.53C11.9183 6.66467 12.571 5.99733 13.3923 5.528C14.2283 5.05867 15.1597 4.824 16.1863 4.824C17.213 4.824 18.137 5.05867 18.9583 5.528C19.7797 5.99733 20.425 6.66467 20.8943 7.53C21.3783 8.38067 21.6203 9.38533 21.6203 10.544C21.6203 11.7027 21.3783 12.7147 20.8943 13.58C20.4103 14.4307 19.7503 15.0907 18.9143 15.56C18.093 16.0293 17.169 16.264 16.1423 16.264ZM16.1423 14.68C16.773 14.68 17.3597 14.526 17.9023 14.218C18.445 13.91 18.885 13.448 19.2223 12.832C19.5597 12.216 19.7283 11.4533 19.7283 10.544C19.7283 9.63467 19.5597 8.872 19.2223 8.256C18.8997 7.64 18.467 7.178 17.9243 6.87C17.3817 6.562 16.8023 6.408 16.1863 6.408C15.5557 6.408 14.969 6.562 14.4263 6.87C13.8837 7.178 13.4437 7.64 13.1063 8.256C12.769 8.872 12.6003 9.63467 12.6003 10.544C12.6003 11.4533 12.769 12.216 13.1063 12.832C13.4437 13.448 13.8763 13.91 14.4043 14.218C14.947 14.526 15.5263 14.68 16.1423 14.68ZM29.1619 16.264C28.1352 16.264 27.2112 16.0293 26.3899 15.56C25.5685 15.0907 24.9159 14.4307 24.4319 13.58C23.9625 12.7147 23.7279 11.7027 23.7279 10.544C23.7279 9.38533 23.9699 8.38067 24.4539 7.53C24.9379 6.66467 25.5905 5.99733 26.4119 5.528C27.2479 5.05867 28.1792 4.824 29.2059 4.824C30.2325 4.824 31.1565 5.05867 31.9779 5.528C32.7992 5.99733 33.4445 6.66467 33.9139 7.53C34.3979 8.38067 34.6399 9.38533 34.6399 10.544C34.6399 11.7027 34.3979 12.7147 33.9139 13.58C33.4299 14.4307 32.7699 15.0907 31.9339 15.56C31.1125 16.0293 30.1885 16.264 29.1619 16.264ZM29.1619 14.68C29.7925 14.68 30.3792 14.526 30.9219 14.218C31.4645 13.91 31.9045 13.448 32.2419 12.832C32.5792 12.216 32.7479 11.4533 32.7479 10.544C32.7479 9.63467 32.5792 8.872 32.2419 8.256C31.9192 7.64 31.4865 7.178 30.9439 6.87C30.4012 6.562 29.8219 6.408 29.2059 6.408C28.5752 6.408 27.9885 6.562 27.4459 6.87C26.9032 7.178 26.4632 7.64 26.1259 8.256C25.7885 8.872 25.6199 9.63467 25.6199 10.544C25.6199 11.4533 25.7885 12.216 26.1259 12.832C26.4632 13.448 26.8959 13.91 27.4239 14.218C27.9665 14.526 28.5459 14.68 29.1619 14.68ZM37.2094 16V0.159999H39.0574V9.686L43.5234 5.088H45.7894L40.9494 10.016L46.4054 16H44.0514L39.0574 10.346V16H37.2094ZM57.7476 16.264C56.8383 16.264 56.0829 16.11 55.4816 15.802C54.8803 15.494 54.4329 15.0833 54.1396 14.57C53.8463 14.0567 53.6996 13.4993 53.6996 12.898C53.6996 11.7833 54.1249 10.9253 54.9756 10.324C55.8263 9.72267 56.9849 9.422 58.4516 9.422H61.3996V9.29C61.3996 8.33667 61.1503 7.618 60.6516 7.134C60.1529 6.63533 59.4856 6.386 58.6496 6.386C57.9309 6.386 57.3076 6.56933 56.7796 6.936C56.2663 7.288 55.9436 7.80867 55.8116 8.498H53.9196C53.9929 7.706 54.2569 7.03867 54.7116 6.496C55.1809 5.95333 55.7603 5.54267 56.4496 5.264C57.1389 4.97067 57.8723 4.824 58.6496 4.824C60.1749 4.824 61.3189 5.23467 62.0816 6.056C62.8589 6.86267 63.2476 7.94067 63.2476 9.29V16H61.5976L61.4876 14.042C61.1796 14.658 60.7249 15.186 60.1236 15.626C59.5369 16.0513 58.7449 16.264 57.7476 16.264ZM58.0336 14.702C58.7376 14.702 59.3389 14.5187 59.8376 14.152C60.3509 13.7853 60.7396 13.3087 61.0036 12.722C61.2676 12.1353 61.3996 11.5193 61.3996 10.874V10.852H58.6056C57.5203 10.852 56.7503 11.0427 56.2956 11.424C55.8556 11.7907 55.6356 12.2527 55.6356 12.81C55.6356 13.382 55.8409 13.844 56.2516 14.196C56.6769 14.5333 57.2709 14.702 58.0336 14.702ZM70.0312 16C69.0338 16 68.2492 15.758 67.6772 15.274C67.1052 14.79 66.8192 13.9173 66.8192 12.656V6.65H64.9272V5.088H66.8192L67.0612 2.47H68.6672V5.088H71.8792V6.65H68.6672V12.656C68.6672 13.3453 68.8065 13.8147 69.0852 14.064C69.3638 14.2987 69.8552 14.416 70.5592 14.416H71.7032V16H70.0312ZM82.2493 16L79.0593 5.088H80.9073L83.2173 13.646L85.7693 5.088H87.8593L90.4333 13.646L92.7213 5.088H94.5913L91.4013 16H89.5093L86.8253 7.002L84.1413 16H82.2493ZM96.6352 16V0.159999H98.4832V6.958C98.8499 6.28333 99.3705 5.76267 100.045 5.396C100.72 5.01467 101.453 4.824 102.245 4.824C103.507 4.824 104.519 5.22 105.281 6.012C106.044 6.78933 106.425 7.992 106.425 9.62V16H104.599V9.818C104.599 7.54467 103.683 6.408 101.849 6.408C100.896 6.408 100.097 6.75267 99.4512 7.442C98.8059 8.11667 98.4832 9.08467 98.4832 10.346V16H96.6352ZM112.855 16.264C111.946 16.264 111.19 16.11 110.589 15.802C109.988 15.494 109.54 15.0833 109.247 14.57C108.954 14.0567 108.807 13.4993 108.807 12.898C108.807 11.7833 109.232 10.9253 110.083 10.324C110.934 9.72267 112.092 9.422 113.559 9.422H116.507V9.29C116.507 8.33667 116.258 7.618 115.759 7.134C115.26 6.63533 114.593 6.386 113.757 6.386C113.038 6.386 112.415 6.56933 111.887 6.936C111.374 7.288 111.051 7.80867 110.919 8.498H109.027C109.1 7.706 109.364 7.03867 109.819 6.496C110.288 5.95333 110.868 5.54267 111.557 5.264C112.246 4.97067 112.98 4.824 113.757 4.824C115.282 4.824 116.426 5.23467 117.189 6.056C117.966 6.86267 118.355 7.94067 118.355 9.29V16H116.705L116.595 14.042C116.287 14.658 115.832 15.186 115.231 15.626C114.644 16.0513 113.852 16.264 112.855 16.264ZM113.141 14.702C113.845 14.702 114.446 14.5187 114.945 14.152C115.458 13.7853 115.847 13.3087 116.111 12.722C116.375 12.1353 116.507 11.5193 116.507 10.874V10.852H113.713C112.628 10.852 111.858 11.0427 111.403 11.424C110.963 11.7907 110.743 12.2527 110.743 12.81C110.743 13.382 110.948 13.844 111.359 14.196C111.784 14.5333 112.378 14.702 113.141 14.702ZM125.139 16C124.141 16 123.357 15.758 122.785 15.274C122.213 14.79 121.927 13.9173 121.927 12.656V6.65H120.035V5.088H121.927L122.169 2.47H123.775V5.088H126.987V6.65H123.775V12.656C123.775 13.3453 123.914 13.8147 124.193 14.064C124.471 14.2987 124.963 14.416 125.667 14.416H126.811V16H125.139ZM137.357 16L134.167 5.088H136.015L138.325 13.646L140.877 5.088H142.967L145.541 13.646L147.829 5.088H149.699L146.509 16H144.617L141.933 7.002L139.249 16H137.357ZM154.986 16.264C154.077 16.264 153.321 16.11 152.72 15.802C152.119 15.494 151.671 15.0833 151.378 14.57C151.085 14.0567 150.938 13.4993 150.938 12.898C150.938 11.7833 151.363 10.9253 152.214 10.324C153.065 9.72267 154.223 9.422 155.69 9.422H158.638V9.29C158.638 8.33667 158.389 7.618 157.89 7.134C157.391 6.63533 156.724 6.386 155.888 6.386C155.169 6.386 154.546 6.56933 154.018 6.936C153.505 7.288 153.182 7.80867 153.05 8.498H151.158C151.231 7.706 151.495 7.03867 151.95 6.496C152.419 5.95333 152.999 5.54267 153.688 5.264C154.377 4.97067 155.111 4.824 155.888 4.824C157.413 4.824 158.557 5.23467 159.32 6.056C160.097 6.86267 160.486 7.94067 160.486 9.29V16H158.836L158.726 14.042C158.418 14.658 157.963 15.186 157.362 15.626C156.775 16.0513 155.983 16.264 154.986 16.264ZM155.272 14.702C155.976 14.702 156.577 14.5187 157.076 14.152C157.589 13.7853 157.978 13.3087 158.242 12.722C158.506 12.1353 158.638 11.5193 158.638 10.874V10.852H155.844C154.759 10.852 153.989 11.0427 153.534 11.424C153.094 11.7907 152.874 12.2527 152.874 12.81C152.874 13.382 153.079 13.844 153.49 14.196C153.915 14.5333 154.509 14.702 155.272 14.702ZM167.438 16.264C166.133 16.264 165.048 15.934 164.182 15.274C163.317 14.614 162.811 13.7193 162.664 12.59H164.556C164.674 13.162 164.974 13.6607 165.458 14.086C165.957 14.4967 166.624 14.702 167.46 14.702C168.238 14.702 168.81 14.5407 169.176 14.218C169.543 13.8807 169.726 13.4847 169.726 13.03C169.726 12.37 169.484 11.93 169 11.71C168.531 11.49 167.864 11.292 166.998 11.116C166.412 10.9987 165.825 10.83 165.238 10.61C164.652 10.39 164.16 10.082 163.764 9.686C163.368 9.27533 163.17 8.74 163.17 8.08C163.17 7.12667 163.522 6.34933 164.226 5.748C164.945 5.132 165.913 4.824 167.13 4.824C168.289 4.824 169.235 5.11733 169.968 5.704C170.716 6.276 171.149 7.09733 171.266 8.168H169.44C169.367 7.61067 169.125 7.178 168.714 6.87C168.318 6.54733 167.783 6.386 167.108 6.386C166.448 6.386 165.935 6.52533 165.568 6.804C165.216 7.08267 165.04 7.44933 165.04 7.904C165.04 8.344 165.268 8.68867 165.722 8.938C166.192 9.18733 166.822 9.4 167.614 9.576C168.289 9.72267 168.927 9.906 169.528 10.126C170.144 10.3313 170.643 10.6467 171.024 11.072C171.42 11.4827 171.618 12.084 171.618 12.876C171.633 13.8587 171.259 14.6727 170.496 15.318C169.748 15.9487 168.729 16.264 167.438 16.264ZM181.203 2.668C180.836 2.668 180.528 2.55067 180.279 2.316C180.044 2.06667 179.927 1.75867 179.927 1.392C179.927 1.04 180.044 0.746666 180.279 0.511999C180.528 0.277333 180.836 0.159999 181.203 0.159999C181.555 0.159999 181.855 0.277333 182.105 0.511999C182.354 0.746666 182.479 1.04 182.479 1.392C182.479 1.75867 182.354 2.06667 182.105 2.316C181.855 2.55067 181.555 2.668 181.203 2.668ZM180.279 16V5.088H182.127V16H180.279ZM185.344 16V5.088H187.016L187.126 7.046C187.478 6.35667 187.984 5.814 188.644 5.418C189.304 5.022 190.052 4.824 190.888 4.824C192.179 4.824 193.206 5.22 193.968 6.012C194.746 6.78933 195.134 7.992 195.134 9.62V16H193.286V9.818C193.286 7.54467 192.348 6.408 190.47 6.408C189.532 6.408 188.747 6.75267 188.116 7.442C187.5 8.11667 187.192 9.08467 187.192 10.346V16H185.344ZM204.944 20.84L207.65 14.944H207.012L202.678 5.088H204.68L208.288 13.58L212.116 5.088H214.03L206.88 20.84H204.944ZM219.922 16.264C218.895 16.264 217.971 16.0293 217.15 15.56C216.328 15.0907 215.676 14.4307 215.192 13.58C214.722 12.7147 214.488 11.7027 214.488 10.544C214.488 9.38533 214.73 8.38067 215.214 7.53C215.698 6.66467 216.35 5.99733 217.172 5.528C218.008 5.05867 218.939 4.824 219.966 4.824C220.992 4.824 221.916 5.05867 222.738 5.528C223.559 5.99733 224.204 6.66467 224.674 7.53C225.158 8.38067 225.4 9.38533 225.4 10.544C225.4 11.7027 225.158 12.7147 224.674 13.58C224.19 14.4307 223.53 15.0907 222.694 15.56C221.872 16.0293 220.948 16.264 219.922 16.264ZM219.922 14.68C220.552 14.68 221.139 14.526 221.682 14.218C222.224 13.91 222.664 13.448 223.002 12.832C223.339 12.216 223.508 11.4533 223.508 10.544C223.508 9.63467 223.339 8.872 223.002 8.256C222.679 7.64 222.246 7.178 221.704 6.87C221.161 6.562 220.582 6.408 219.966 6.408C219.335 6.408 218.748 6.562 218.206 6.87C217.663 7.178 217.223 7.64 216.886 8.256C216.548 8.872 216.38 9.63467 216.38 10.544C216.38 11.4533 216.548 12.216 216.886 12.832C217.223 13.448 217.656 13.91 218.184 14.218C218.726 14.526 219.306 14.68 219.922 14.68ZM231.951 16.264C230.661 16.264 229.634 15.8753 228.871 15.098C228.109 14.306 227.727 13.096 227.727 11.468V5.088H229.575V11.27C229.575 13.5433 230.507 14.68 232.369 14.68C233.323 14.68 234.107 14.3427 234.723 13.668C235.354 12.9787 235.669 12.0033 235.669 10.742V5.088H237.517V16H235.845L235.713 14.042C235.376 14.7313 234.87 15.274 234.195 15.67C233.535 16.066 232.787 16.264 231.951 16.264ZM240.559 16V5.088H242.231L242.385 7.178C242.722 6.45933 243.236 5.88733 243.925 5.462C244.614 5.03667 245.465 4.824 246.477 4.824V6.76H245.971C245.326 6.76 244.732 6.87733 244.189 7.112C243.646 7.332 243.214 7.71333 242.891 8.256C242.568 8.79867 242.407 9.54667 242.407 10.5V16H240.559ZM258.685 16C257.688 16 256.903 15.758 256.331 15.274C255.759 14.79 255.473 13.9173 255.473 12.656V6.65H253.581V5.088H255.473L255.715 2.47H257.321V5.088H260.533V6.65H257.321V12.656C257.321 13.3453 257.461 13.8147 257.739 14.064C258.018 14.2987 258.509 14.416 259.213 14.416H260.357V16H258.685ZM267.553 16.264C266.526 16.264 265.602 16.0293 264.781 15.56C263.959 15.0907 263.307 14.4307 262.823 13.58C262.353 12.7147 262.119 11.7027 262.119 10.544C262.119 9.38533 262.361 8.38067 262.845 7.53C263.329 6.66467 263.981 5.99733 264.803 5.528C265.639 5.05867 266.57 4.824 267.597 4.824C268.623 4.824 269.547 5.05867 270.369 5.528C271.19 5.99733 271.835 6.66467 272.305 7.53C272.789 8.38067 273.031 9.38533 273.031 10.544C273.031 11.7027 272.789 12.7147 272.305 13.58C271.821 14.4307 271.161 15.0907 270.325 15.56C269.503 16.0293 268.579 16.264 267.553 16.264ZM267.553 14.68C268.183 14.68 268.77 14.526 269.313 14.218C269.855 13.91 270.295 13.448 270.633 12.832C270.97 12.216 271.139 11.4533 271.139 10.544C271.139 9.63467 270.97 8.872 270.633 8.256C270.31 7.64 269.877 7.178 269.335 6.87C268.792 6.562 268.213 6.408 267.597 6.408C266.966 6.408 266.379 6.562 265.837 6.87C265.294 7.178 264.854 7.64 264.517 8.256C264.179 8.872 264.011 9.63467 264.011 10.544C264.011 11.4533 264.179 12.216 264.517 12.832C264.854 13.448 265.287 13.91 265.815 14.218C266.357 14.526 266.937 14.68 267.553 14.68ZM275.6 20.84V5.088H277.272L277.448 6.892C277.8 6.364 278.299 5.88733 278.944 5.462C279.604 5.03667 280.44 4.824 281.452 4.824C282.537 4.824 283.483 5.07333 284.29 5.572C285.097 6.07067 285.72 6.75267 286.16 7.618C286.615 8.48333 286.842 9.466 286.842 10.566C286.842 11.666 286.615 12.6487 286.16 13.514C285.72 14.3647 285.089 15.0393 284.268 15.538C283.461 16.022 282.515 16.264 281.43 16.264C280.535 16.264 279.736 16.0807 279.032 15.714C278.343 15.3473 277.815 14.834 277.448 14.174V20.84H275.6ZM281.232 14.658C281.965 14.658 282.611 14.4893 283.168 14.152C283.725 13.8 284.165 13.316 284.488 12.7C284.811 12.084 284.972 11.3653 284.972 10.544C284.972 9.72267 284.811 9.004 284.488 8.388C284.165 7.772 283.725 7.29533 283.168 6.958C282.611 6.606 281.965 6.43 281.232 6.43C280.499 6.43 279.853 6.606 279.296 6.958C278.739 7.29533 278.299 7.772 277.976 8.388C277.653 9.004 277.492 9.72267 277.492 10.544C277.492 11.3653 277.653 12.084 277.976 12.7C278.299 13.316 278.739 13.8 279.296 14.152C279.853 14.4893 280.499 14.658 281.232 14.658ZM300.253 16.264C299.211 16.264 298.273 16.0293 297.437 15.56C296.615 15.076 295.963 14.4087 295.479 13.558C295.009 12.6927 294.775 11.688 294.775 10.544C294.775 9.4 295.009 8.40267 295.479 7.552C295.963 6.68667 296.615 6.01933 297.437 5.55C298.273 5.066 299.211 4.824 300.253 4.824C301.543 4.824 302.629 5.16133 303.509 5.836C304.403 6.51067 304.968 7.41267 305.203 8.542H303.311C303.164 7.86733 302.805 7.34667 302.233 6.98C301.661 6.59867 300.993 6.408 300.231 6.408C299.615 6.408 299.035 6.562 298.493 6.87C297.95 7.178 297.51 7.64 297.173 8.256C296.835 8.872 296.667 9.63467 296.667 10.544C296.667 11.4533 296.835 12.216 297.173 12.832C297.51 13.448 297.95 13.9173 298.493 14.24C299.035 14.548 299.615 14.702 300.231 14.702C300.993 14.702 301.661 14.5187 302.233 14.152C302.805 13.7707 303.164 13.2353 303.311 12.546H305.203C304.983 13.646 304.425 14.5407 303.531 15.23C302.636 15.9193 301.543 16.264 300.253 16.264ZM312.756 16.264C311.729 16.264 310.805 16.0293 309.984 15.56C309.162 15.0907 308.51 14.4307 308.026 13.58C307.556 12.7147 307.322 11.7027 307.322 10.544C307.322 9.38533 307.564 8.38067 308.048 7.53C308.532 6.66467 309.184 5.99733 310.006 5.528C310.842 5.05867 311.773 4.824 312.8 4.824C313.826 4.824 314.75 5.05867 315.572 5.528C316.393 5.99733 317.038 6.66467 317.508 7.53C317.992 8.38067 318.234 9.38533 318.234 10.544C318.234 11.7027 317.992 12.7147 317.508 13.58C317.024 14.4307 316.364 15.0907 315.528 15.56C314.706 16.0293 313.782 16.264 312.756 16.264ZM312.756 14.68C313.386 14.68 313.973 14.526 314.516 14.218C315.058 13.91 315.498 13.448 315.836 12.832C316.173 12.216 316.342 11.4533 316.342 10.544C316.342 9.63467 316.173 8.872 315.836 8.256C315.513 7.64 315.08 7.178 314.538 6.87C313.995 6.562 313.416 6.408 312.8 6.408C312.169 6.408 311.582 6.562 311.04 6.87C310.497 7.178 310.057 7.64 309.72 8.256C309.382 8.872 309.214 9.63467 309.214 10.544C309.214 11.4533 309.382 12.216 309.72 12.832C310.057 13.448 310.49 13.91 311.018 14.218C311.56 14.526 312.14 14.68 312.756 14.68ZM320.803 16V5.088H322.475L322.607 6.672C322.959 6.08533 323.428 5.63067 324.015 5.308C324.602 4.98533 325.262 4.824 325.995 4.824C326.86 4.824 327.601 5 328.217 5.352C328.848 5.704 329.332 6.23933 329.669 6.958C330.05 6.298 330.571 5.77733 331.231 5.396C331.906 5.01467 332.632 4.824 333.409 4.824C334.714 4.824 335.756 5.22 336.533 6.012C337.31 6.78933 337.699 7.992 337.699 9.62V16H335.873V9.818C335.873 8.68867 335.646 7.838 335.191 7.266C334.736 6.694 334.084 6.408 333.233 6.408C332.353 6.408 331.62 6.75267 331.033 7.442C330.461 8.11667 330.175 9.08467 330.175 10.346V16H328.327V9.818C328.327 8.68867 328.1 7.838 327.645 7.266C327.19 6.694 326.538 6.408 325.687 6.408C324.822 6.408 324.096 6.75267 323.509 7.442C322.937 8.11667 322.651 9.08467 322.651 10.346V16H320.803ZM340.483 16V5.088H342.155L342.287 6.672C342.639 6.08533 343.108 5.63067 343.695 5.308C344.282 4.98533 344.942 4.824 345.675 4.824C346.54 4.824 347.281 5 347.897 5.352C348.528 5.704 349.012 6.23933 349.349 6.958C349.73 6.298 350.251 5.77733 350.911 5.396C351.586 5.01467 352.312 4.824 353.089 4.824C354.394 4.824 355.436 5.22 356.213 6.012C356.99 6.78933 357.379 7.992 357.379 9.62V16H355.553V9.818C355.553 8.68867 355.326 7.838 354.871 7.266C354.416 6.694 353.764 6.408 352.913 6.408C352.033 6.408 351.3 6.75267 350.713 7.442C350.141 8.11667 349.855 9.08467 349.855 10.346V16H348.007V9.818C348.007 8.68867 347.78 7.838 347.325 7.266C346.87 6.694 346.218 6.408 345.367 6.408C344.502 6.408 343.776 6.75267 343.189 7.442C342.617 8.11667 342.331 9.08467 342.331 10.346V16H340.483ZM365.069 16.264C364.027 16.264 363.103 16.0293 362.297 15.56C361.49 15.076 360.852 14.4087 360.383 13.558C359.928 12.7073 359.701 11.7027 359.701 10.544C359.701 9.4 359.928 8.40267 360.383 7.552C360.837 6.68667 361.468 6.01933 362.275 5.55C363.096 5.066 364.042 4.824 365.113 4.824C366.169 4.824 367.078 5.066 367.841 5.55C368.618 6.01933 369.212 6.64267 369.623 7.42C370.033 8.19733 370.239 9.03333 370.239 9.928C370.239 10.0893 370.231 10.2507 370.217 10.412C370.217 10.5733 370.217 10.7567 370.217 10.962H361.527C361.571 11.798 361.761 12.4947 362.099 13.052C362.451 13.5947 362.883 14.0053 363.397 14.284C363.925 14.5627 364.482 14.702 365.069 14.702C365.831 14.702 366.469 14.526 366.983 14.174C367.496 13.822 367.87 13.3453 368.105 12.744H369.931C369.637 13.756 369.073 14.5993 368.237 15.274C367.415 15.934 366.359 16.264 365.069 16.264ZM365.069 6.386C364.189 6.386 363.404 6.65733 362.715 7.2C362.04 7.728 361.651 8.50533 361.549 9.532H368.413C368.369 8.54933 368.031 7.77933 367.401 7.222C366.77 6.66467 365.993 6.386 365.069 6.386ZM372.688 16V5.088H374.36L374.47 7.046C374.822 6.35667 375.328 5.814 375.988 5.418C376.648 5.022 377.396 4.824 378.232 4.824C379.523 4.824 380.549 5.22 381.312 6.012C382.089 6.78933 382.478 7.992 382.478 9.62V16H380.63V9.818C380.63 7.54467 379.691 6.408 377.814 6.408C376.875 6.408 376.091 6.75267 375.46 7.442C374.844 8.11667 374.536 9.08467 374.536 10.346V16H372.688ZM389.59 16C388.592 16 387.808 15.758 387.236 15.274C386.664 14.79 386.378 13.9173 386.378 12.656V6.65H384.486V5.088H386.378L386.62 2.47H388.226V5.088H391.438V6.65H388.226V12.656C388.226 13.3453 388.365 13.8147 388.644 14.064C388.922 14.2987 389.414 14.416 390.118 14.416H391.262V16H389.59ZM398.391 16.264C397.349 16.264 396.425 16.0293 395.619 15.56C394.812 15.076 394.174 14.4087 393.705 13.558C393.25 12.7073 393.023 11.7027 393.023 10.544C393.023 9.4 393.25 8.40267 393.705 7.552C394.159 6.68667 394.79 6.01933 395.597 5.55C396.418 5.066 397.364 4.824 398.435 4.824C399.491 4.824 400.4 5.066 401.163 5.55C401.94 6.01933 402.534 6.64267 402.945 7.42C403.355 8.19733 403.561 9.03333 403.561 9.928C403.561 10.0893 403.553 10.2507 403.539 10.412C403.539 10.5733 403.539 10.7567 403.539 10.962H394.849C394.893 11.798 395.083 12.4947 395.421 13.052C395.773 13.5947 396.205 14.0053 396.719 14.284C397.247 14.5627 397.804 14.702 398.391 14.702C399.153 14.702 399.791 14.526 400.305 14.174C400.818 13.822 401.192 13.3453 401.427 12.744H403.253C402.959 13.756 402.395 14.5993 401.559 15.274C400.737 15.934 399.681 16.264 398.391 16.264ZM398.391 6.386C397.511 6.386 396.726 6.65733 396.037 7.2C395.362 7.728 394.973 8.50533 394.871 9.532H401.735C401.691 8.54933 401.353 7.77933 400.723 7.222C400.092 6.66467 399.315 6.386 398.391 6.386ZM410.96 16.264C409.875 16.264 408.922 16.0147 408.1 15.516C407.294 15.0173 406.663 14.3353 406.208 13.47C405.768 12.6047 405.548 11.622 405.548 10.522C405.548 9.422 405.776 8.44667 406.23 7.596C406.685 6.73067 407.316 6.056 408.122 5.572C408.929 5.07333 409.882 4.824 410.982 4.824C411.877 4.824 412.669 5.00733 413.358 5.374C414.048 5.74067 414.583 6.254 414.964 6.914V0.159999H416.812V16H415.14L414.964 14.196C414.612 14.724 414.106 15.2007 413.446 15.626C412.786 16.0513 411.958 16.264 410.96 16.264ZM411.158 14.658C411.892 14.658 412.537 14.4893 413.094 14.152C413.666 13.8 414.106 13.316 414.414 12.7C414.737 12.084 414.898 11.3653 414.898 10.544C414.898 9.72267 414.737 9.004 414.414 8.388C414.106 7.772 413.666 7.29533 413.094 6.958C412.537 6.606 411.892 6.43 411.158 6.43C410.44 6.43 409.794 6.606 409.222 6.958C408.665 7.29533 408.225 7.772 407.902 8.388C407.594 9.004 407.44 9.72267 407.44 10.544C407.44 11.3653 407.594 12.084 407.902 12.7C408.225 13.316 408.665 13.8 409.222 14.152C409.794 14.4893 410.44 14.658 411.158 14.658ZM425.647 20.84V5.088H427.319L427.495 6.892C427.847 6.364 428.346 5.88733 428.991 5.462C429.651 5.03667 430.487 4.824 431.499 4.824C432.584 4.824 433.53 5.07333 434.337 5.572C435.144 6.07067 435.767 6.75267 436.207 7.618C436.662 8.48333 436.889 9.466 436.889 10.566C436.889 11.666 436.662 12.6487 436.207 13.514C435.767 14.3647 435.136 15.0393 434.315 15.538C433.508 16.022 432.562 16.264 431.477 16.264C430.582 16.264 429.783 16.0807 429.079 15.714C428.39 15.3473 427.862 14.834 427.495 14.174V20.84H425.647ZM431.279 14.658C432.012 14.658 432.658 14.4893 433.215 14.152C433.772 13.8 434.212 13.316 434.535 12.7C434.858 12.084 435.019 11.3653 435.019 10.544C435.019 9.72267 434.858 9.004 434.535 8.388C434.212 7.772 433.772 7.29533 433.215 6.958C432.658 6.606 432.012 6.43 431.279 6.43C430.546 6.43 429.9 6.606 429.343 6.958C428.786 7.29533 428.346 7.772 428.023 8.388C427.7 9.004 427.539 9.72267 427.539 10.544C427.539 11.3653 427.7 12.084 428.023 12.7C428.346 13.316 428.786 13.8 429.343 14.152C429.9 14.4893 430.546 14.658 431.279 14.658ZM444.433 16.264C443.407 16.264 442.483 16.0293 441.661 15.56C440.84 15.0907 440.187 14.4307 439.703 13.58C439.234 12.7147 438.999 11.7027 438.999 10.544C438.999 9.38533 439.241 8.38067 439.725 7.53C440.209 6.66467 440.862 5.99733 441.683 5.528C442.519 5.05867 443.451 4.824 444.477 4.824C445.504 4.824 446.428 5.05867 447.249 5.528C448.071 5.99733 448.716 6.66467 449.185 7.53C449.669 8.38067 449.911 9.38533 449.911 10.544C449.911 11.7027 449.669 12.7147 449.185 13.58C448.701 14.4307 448.041 15.0907 447.205 15.56C446.384 16.0293 445.46 16.264 444.433 16.264ZM444.433 14.68C445.064 14.68 445.651 14.526 446.193 14.218C446.736 13.91 447.176 13.448 447.513 12.832C447.851 12.216 448.019 11.4533 448.019 10.544C448.019 9.63467 447.851 8.872 447.513 8.256C447.191 7.64 446.758 7.178 446.215 6.87C445.673 6.562 445.093 6.408 444.477 6.408C443.847 6.408 443.26 6.562 442.717 6.87C442.175 7.178 441.735 7.64 441.397 8.256C441.06 8.872 440.891 9.63467 440.891 10.544C440.891 11.4533 441.06 12.216 441.397 12.832C441.735 13.448 442.167 13.91 442.695 14.218C443.238 14.526 443.817 14.68 444.433 14.68ZM456.661 16.264C455.356 16.264 454.27 15.934 453.405 15.274C452.54 14.614 452.034 13.7193 451.887 12.59H453.779C453.896 13.162 454.197 13.6607 454.681 14.086C455.18 14.4967 455.847 14.702 456.683 14.702C457.46 14.702 458.032 14.5407 458.399 14.218C458.766 13.8807 458.949 13.4847 458.949 13.03C458.949 12.37 458.707 11.93 458.223 11.71C457.754 11.49 457.086 11.292 456.221 11.116C455.634 10.9987 455.048 10.83 454.461 10.61C453.874 10.39 453.383 10.082 452.987 9.686C452.591 9.27533 452.393 8.74 452.393 8.08C452.393 7.12667 452.745 6.34933 453.449 5.748C454.168 5.132 455.136 4.824 456.353 4.824C457.512 4.824 458.458 5.11733 459.191 5.704C459.939 6.276 460.372 7.09733 460.489 8.168H458.663C458.59 7.61067 458.348 7.178 457.937 6.87C457.541 6.54733 457.006 6.386 456.331 6.386C455.671 6.386 455.158 6.52533 454.791 6.804C454.439 7.08267 454.263 7.44933 454.263 7.904C454.263 8.344 454.49 8.68867 454.945 8.938C455.414 9.18733 456.045 9.4 456.837 9.576C457.512 9.72267 458.15 9.906 458.751 10.126C459.367 10.3313 459.866 10.6467 460.247 11.072C460.643 11.4827 460.841 12.084 460.841 12.876C460.856 13.8587 460.482 14.6727 459.719 15.318C458.971 15.9487 457.952 16.264 456.661 16.264ZM467.299 16C466.301 16 465.517 15.758 464.945 15.274C464.373 14.79 464.087 13.9173 464.087 12.656V6.65H462.195V5.088H464.087L464.329 2.47H465.935V5.088H469.147V6.65H465.935V12.656C465.935 13.3453 466.074 13.8147 466.353 14.064C466.631 14.2987 467.123 14.416 467.827 14.416H468.971V16H467.299ZM475.675 16.264C474.369 16.264 473.284 15.934 472.419 15.274C471.553 14.614 471.047 13.7193 470.901 12.59H472.793C472.91 13.162 473.211 13.6607 473.695 14.086C474.193 14.4967 474.861 14.702 475.697 14.702C476.474 14.702 477.046 14.5407 477.413 14.218C477.779 13.8807 477.963 13.4847 477.963 13.03C477.963 12.37 477.721 11.93 477.237 11.71C476.767 11.49 476.1 11.292 475.235 11.116C474.648 10.9987 474.061 10.83 473.475 10.61C472.888 10.39 472.397 10.082 472.001 9.686C471.605 9.27533 471.407 8.74 471.407 8.08C471.407 7.12667 471.759 6.34933 472.463 5.748C473.181 5.132 474.149 4.824 475.367 4.824C476.525 4.824 477.471 5.11733 478.205 5.704C478.953 6.276 479.385 7.09733 479.503 8.168H477.677C477.603 7.61067 477.361 7.178 476.951 6.87C476.555 6.54733 476.019 6.386 475.345 6.386C474.685 6.386 474.171 6.52533 473.805 6.804C473.453 7.08267 473.277 7.44933 473.277 7.904C473.277 8.344 473.504 8.68867 473.959 8.938C474.428 9.18733 475.059 9.4 475.851 9.576C476.525 9.72267 477.163 9.906 477.765 10.126C478.381 10.3313 478.879 10.6467 479.261 11.072C479.657 11.4827 479.855 12.084 479.855 12.876C479.869 13.8587 479.495 14.6727 478.733 15.318C477.985 15.9487 476.965 16.264 475.675 16.264ZM482.891 11.732L482.671 0.599999H484.673L484.453 11.732H482.891ZM483.727 16.11C483.36 16.11 483.052 15.9927 482.803 15.758C482.568 15.5087 482.451 15.208 482.451 14.856C482.451 14.504 482.568 14.2107 482.803 13.976C483.052 13.7267 483.36 13.602 483.727 13.602C484.079 13.602 484.372 13.7267 484.607 13.976C484.856 14.2107 484.981 14.504 484.981 14.856C484.981 15.208 484.856 15.5087 484.607 15.758C484.372 15.9927 484.079 16.11 483.727 16.11Z" fill="black"/>
</svg>
