<svg width="85" height="24" viewBox="0 0 85 24" fill="none" xmlns="http://www.w3.org/2000/svg">
<path d="M6.44238 18.3C5.27572 18.3 4.22572 18.0333 3.29238 17.5C2.35905 16.9667 1.61738 16.2167 1.06738 15.25C0.53405 14.2667 0.267383 13.1167 0.267383 11.8C0.267383 10.4833 0.542383 9.34167 1.09238 8.375C1.64238 7.39167 2.38405 6.63333 3.31738 6.1C4.26738 5.56667 5.32572 5.3 6.49238 5.3C7.65905 5.3 8.70905 5.56667 9.64238 6.1C10.5757 6.63333 11.3091 7.39167 11.8424 8.375C12.3924 9.34167 12.6674 10.4833 12.6674 11.8C12.6674 13.1167 12.3924 14.2667 11.8424 15.25C11.2924 16.2167 10.5424 16.9667 9.59238 17.5C8.65905 18.0333 7.60905 18.3 6.44238 18.3ZM6.44238 16.5C7.15905 16.5 7.82572 16.325 8.44238 15.975C9.05905 15.625 9.55905 15.1 9.94238 14.4C10.3257 13.7 10.5174 12.8333 10.5174 11.8C10.5174 10.7667 10.3257 9.9 9.94238 9.2C9.57572 8.5 9.08405 7.975 8.46738 7.625C7.85072 7.275 7.19238 7.1 6.49238 7.1C5.77572 7.1 5.10905 7.275 4.49238 7.625C3.87572 7.975 3.37572 8.5 2.99238 9.2C2.60905 9.9 2.41738 10.7667 2.41738 11.8C2.41738 12.8333 2.60905 13.7 2.99238 14.4C3.37572 15.1 3.86738 15.625 4.46738 15.975C5.08405 16.325 5.74238 16.5 6.44238 16.5ZM22.2123 18.3C21.1956 18.3 20.2873 18.0917 19.4873 17.675C18.704 17.2583 18.104 16.675 17.6873 15.925L17.4873 18H15.5873V-7.15256e-07H17.6873V7.65C18.0873 7.05 18.654 6.50833 19.3873 6.025C20.1373 5.54167 21.0873 5.3 22.2373 5.3C23.4706 5.3 24.5456 5.58333 25.4623 6.15C26.379 6.71667 27.0873 7.49167 27.5873 8.475C28.104 9.45833 28.3623 10.575 28.3623 11.825C28.3623 13.075 28.104 14.1917 27.5873 15.175C27.0873 16.1417 26.3706 16.9083 25.4373 17.475C24.5206 18.025 23.4456 18.3 22.2123 18.3ZM21.9873 16.475C22.8206 16.475 23.554 16.2833 24.1873 15.9C24.8206 15.5 25.3206 14.95 25.6873 14.25C26.054 13.55 26.2373 12.7333 26.2373 11.8C26.2373 10.8667 26.054 10.05 25.6873 9.35C25.3206 8.65 24.8206 8.10833 24.1873 7.725C23.554 7.325 22.8206 7.125 21.9873 7.125C21.154 7.125 20.4206 7.325 19.7873 7.725C19.154 8.10833 18.654 8.65 18.2873 9.35C17.9206 10.05 17.7373 10.8667 17.7373 11.8C17.7373 12.7333 17.9206 13.55 18.2873 14.25C18.654 14.95 19.154 15.5 19.7873 15.9C20.4206 16.2833 21.154 16.475 21.9873 16.475ZM32.6605 2.85C32.2605 2.85 31.9189 2.71667 31.6355 2.45C31.3522 2.16667 31.2105 1.81667 31.2105 1.4C31.2105 0.999999 31.3522 0.666666 31.6355 0.399999C31.9189 0.133332 32.2605 -7.15256e-07 32.6605 -7.15256e-07C33.0605 -7.15256e-07 33.3939 0.133332 33.6605 0.399999C33.9439 0.666666 34.0855 0.999999 34.0855 1.4C34.0855 1.81667 33.9439 2.16667 33.6605 2.45C33.3939 2.71667 33.0605 2.85 32.6605 2.85ZM28.8605 23.5V21.7H29.8355C30.4522 21.7 30.8939 21.5667 31.1605 21.3C31.4439 21.05 31.5855 20.6167 31.5855 20V5.6H33.6855V20.05C33.6855 21.25 33.3855 22.125 32.7855 22.675C32.1855 23.225 31.3105 23.5 30.1605 23.5H28.8605ZM42.9152 18.3C41.7319 18.3 40.6819 18.0333 39.7652 17.5C38.8486 16.95 38.1236 16.1917 37.5902 15.225C37.0736 14.2583 36.8152 13.1167 36.8152 11.8C36.8152 10.5 37.0736 9.36667 37.5902 8.4C38.1069 7.41667 38.8236 6.65833 39.7402 6.125C40.6736 5.575 41.7486 5.3 42.9652 5.3C44.1652 5.3 45.1986 5.575 46.0652 6.125C46.9486 6.65833 47.6236 7.36667 48.0902 8.25C48.5569 9.13333 48.7902 10.0833 48.7902 11.1C48.7902 11.2833 48.7819 11.4667 48.7652 11.65C48.7652 11.8333 48.7652 12.0417 48.7652 12.275H38.8902C38.9402 13.225 39.1569 14.0167 39.5402 14.65C39.9402 15.2667 40.4319 15.7333 41.0152 16.05C41.6152 16.3667 42.2486 16.525 42.9152 16.525C43.7819 16.525 44.5069 16.325 45.0902 15.925C45.6736 15.525 46.0986 14.9833 46.3652 14.3H48.4402C48.1069 15.45 47.4652 16.4083 46.5152 17.175C45.5819 17.925 44.3819 18.3 42.9152 18.3ZM42.9152 7.075C41.9152 7.075 41.0236 7.38333 40.2402 8C39.4736 8.6 39.0319 9.48333 38.9152 10.65H46.7152C46.6652 9.53333 46.2819 8.65833 45.5652 8.025C44.8486 7.39167 43.9652 7.075 42.9152 7.075ZM57.2736 18.3C56.0903 18.3 55.0236 18.0333 54.0736 17.5C53.1403 16.95 52.3986 16.1917 51.8486 15.225C51.3153 14.2417 51.0486 13.1 51.0486 11.8C51.0486 10.5 51.3153 9.36667 51.8486 8.4C52.3986 7.41667 53.1403 6.65833 54.0736 6.125C55.0236 5.575 56.0903 5.3 57.2736 5.3C58.7403 5.3 59.9736 5.68333 60.9736 6.45C61.9903 7.21667 62.632 8.24167 62.8986 9.525H60.7486C60.582 8.75833 60.1736 8.16667 59.5236 7.75C58.8736 7.31667 58.1153 7.1 57.2486 7.1C56.5486 7.1 55.8903 7.275 55.2736 7.625C54.657 7.975 54.157 8.5 53.7736 9.2C53.3903 9.9 53.1986 10.7667 53.1986 11.8C53.1986 12.8333 53.3903 13.7 53.7736 14.4C54.157 15.1 54.657 15.6333 55.2736 16C55.8903 16.35 56.5486 16.525 57.2486 16.525C58.1153 16.525 58.8736 16.3167 59.5236 15.9C60.1736 15.4667 60.582 14.8583 60.7486 14.075H62.8986C62.6486 15.325 62.0153 16.3417 60.9986 17.125C59.982 17.9083 58.7403 18.3 57.2736 18.3ZM70.3896 18C69.2563 18 68.3646 17.725 67.7146 17.175C67.0646 16.625 66.7396 15.6333 66.7396 14.2V7.375H64.5896V5.6H66.7396L67.0146 2.625H68.8396V5.6H72.4896V7.375H68.8396V14.2C68.8396 14.9833 68.998 15.5167 69.3146 15.8C69.6313 16.0667 70.1896 16.2 70.9896 16.2H72.2896V18H70.3896ZM79.9076 18.3C78.4243 18.3 77.191 17.925 76.2076 17.175C75.2243 16.425 74.6493 15.4083 74.4826 14.125H76.6326C76.766 14.775 77.1076 15.3417 77.6576 15.825C78.2243 16.2917 78.9826 16.525 79.9326 16.525C80.816 16.525 81.466 16.3417 81.8826 15.975C82.2993 15.5917 82.5076 15.1417 82.5076 14.625C82.5076 13.875 82.2326 13.375 81.6826 13.125C81.1493 12.875 80.391 12.65 79.4076 12.45C78.741 12.3167 78.0743 12.125 77.4076 11.875C76.741 11.625 76.1826 11.275 75.7326 10.825C75.2826 10.3583 75.0576 9.75 75.0576 9C75.0576 7.91667 75.4576 7.03333 76.2576 6.35C77.0743 5.65 78.1743 5.3 79.5576 5.3C80.8743 5.3 81.9493 5.63333 82.7826 6.3C83.6326 6.95 84.1243 7.88333 84.2576 9.1H82.1826C82.0993 8.46667 81.8243 7.975 81.3576 7.625C80.9076 7.25833 80.2993 7.075 79.5326 7.075C78.7826 7.075 78.1993 7.23333 77.7826 7.55C77.3826 7.86667 77.1826 8.28333 77.1826 8.8C77.1826 9.3 77.441 9.69167 77.9576 9.975C78.491 10.2583 79.2076 10.5 80.1076 10.7C80.8743 10.8667 81.5993 11.075 82.2826 11.325C82.9826 11.5583 83.5493 11.9167 83.9826 12.4C84.4326 12.8667 84.6576 13.55 84.6576 14.45C84.6743 15.5667 84.2493 16.4917 83.3826 17.225C82.5326 17.9417 81.3743 18.3 79.9076 18.3Z" fill="#828282"/>
</svg>
