<svg width="69" height="19" viewBox="0 0 69 19" fill="none" xmlns="http://www.w3.org/2000/svg">
<path d="M6.43916 18.3C5.25583 18.3 4.18916 18.0333 3.23916 17.5C2.30583 16.95 1.56416 16.1917 1.01416 15.225C0.480827 14.2417 0.21416 13.1 0.21416 11.8C0.21416 10.5 0.480827 9.36667 1.01416 8.4C1.56416 7.41667 2.30583 6.65833 3.23916 6.125C4.18916 5.575 5.25583 5.3 6.43916 5.3C7.90583 5.3 9.13916 5.68333 10.1392 6.45C11.1558 7.21667 11.7975 8.24167 12.0642 9.525H9.91416C9.74749 8.75833 9.33916 8.16667 8.68916 7.75C8.03916 7.31667 7.28083 7.1 6.41416 7.1C5.71416 7.1 5.05583 7.275 4.43916 7.625C3.82249 7.975 3.32249 8.5 2.93916 9.2C2.55583 9.9 2.36416 10.7667 2.36416 11.8C2.36416 12.8333 2.55583 13.7 2.93916 14.4C3.32249 15.1 3.82249 15.6333 4.43916 16C5.05583 16.35 5.71416 16.525 6.41416 16.525C7.28083 16.525 8.03916 16.3167 8.68916 15.9C9.33916 15.4667 9.74749 14.8583 9.91416 14.075H12.0642C11.8142 15.325 11.1808 16.3417 10.1642 17.125C9.14749 17.9083 7.90583 18.3 6.43916 18.3ZM20.647 18.3C19.4803 18.3 18.4303 18.0333 17.497 17.5C16.5636 16.9667 15.822 16.2167 15.272 15.25C14.7386 14.2667 14.472 13.1167 14.472 11.8C14.472 10.4833 14.747 9.34167 15.297 8.375C15.847 7.39167 16.5886 6.63333 17.522 6.1C18.472 5.56667 19.5303 5.3 20.697 5.3C21.8636 5.3 22.9136 5.56667 23.847 6.1C24.7803 6.63333 25.5136 7.39167 26.047 8.375C26.597 9.34167 26.872 10.4833 26.872 11.8C26.872 13.1167 26.597 14.2667 26.047 15.25C25.497 16.2167 24.747 16.9667 23.797 17.5C22.8636 18.0333 21.8136 18.3 20.647 18.3ZM20.647 16.5C21.3636 16.5 22.0303 16.325 22.647 15.975C23.2636 15.625 23.7636 15.1 24.147 14.4C24.5303 13.7 24.722 12.8333 24.722 11.8C24.722 10.7667 24.5303 9.9 24.147 9.2C23.7803 8.5 23.2886 7.975 22.672 7.625C22.0553 7.275 21.397 7.1 20.697 7.1C19.9803 7.1 19.3136 7.275 18.697 7.625C18.0803 7.975 17.5803 8.5 17.197 9.2C16.8136 9.9 16.622 10.7667 16.622 11.8C16.622 12.8333 16.8136 13.7 17.197 14.4C17.5803 15.1 18.072 15.625 18.672 15.975C19.2886 16.325 19.947 16.5 20.647 16.5ZM29.7919 18V-7.15256e-07H31.8919V18H29.7919ZM40.9839 18.3C39.8172 18.3 38.7672 18.0333 37.8339 17.5C36.9006 16.9667 36.1589 16.2167 35.6089 15.25C35.0756 14.2667 34.8089 13.1167 34.8089 11.8C34.8089 10.4833 35.0839 9.34167 35.6339 8.375C36.1839 7.39167 36.9256 6.63333 37.8589 6.1C38.8089 5.56667 39.8672 5.3 41.0339 5.3C42.2006 5.3 43.2506 5.56667 44.1839 6.1C45.1172 6.63333 45.8506 7.39167 46.3839 8.375C46.9339 9.34167 47.2089 10.4833 47.2089 11.8C47.2089 13.1167 46.9339 14.2667 46.3839 15.25C45.8339 16.2167 45.0839 16.9667 44.1339 17.5C43.2006 18.0333 42.1506 18.3 40.9839 18.3ZM40.9839 16.5C41.7006 16.5 42.3672 16.325 42.9839 15.975C43.6006 15.625 44.1006 15.1 44.4839 14.4C44.8672 13.7 45.0589 12.8333 45.0589 11.8C45.0589 10.7667 44.8672 9.9 44.4839 9.2C44.1172 8.5 43.6256 7.975 43.0089 7.625C42.3922 7.275 41.7339 7.1 41.0339 7.1C40.3172 7.1 39.6506 7.275 39.0339 7.625C38.4172 7.975 37.9172 8.5 37.5339 9.2C37.1506 9.9 36.9589 10.7667 36.9589 11.8C36.9589 12.8333 37.1506 13.7 37.5339 14.4C37.9172 15.1 38.4089 15.625 39.0089 15.975C39.6256 16.325 40.2839 16.5 40.9839 16.5ZM50.1288 18V5.6H52.0288L52.2038 7.975C52.5871 7.15833 53.1705 6.50833 53.9538 6.025C54.7371 5.54167 55.7038 5.3 56.8538 5.3V7.5H56.2788C55.5455 7.5 54.8705 7.63333 54.2538 7.9C53.6371 8.15 53.1455 8.58333 52.7788 9.2C52.4121 9.81667 52.2288 10.6667 52.2288 11.75V18H50.1288ZM63.9608 18.3C62.4775 18.3 61.2442 17.925 60.2608 17.175C59.2775 16.425 58.7025 15.4083 58.5358 14.125H60.6858C60.8192 14.775 61.1608 15.3417 61.7108 15.825C62.2775 16.2917 63.0358 16.525 63.9858 16.525C64.8692 16.525 65.5192 16.3417 65.9358 15.975C66.3525 15.5917 66.5608 15.1417 66.5608 14.625C66.5608 13.875 66.2858 13.375 65.7358 13.125C65.2025 12.875 64.4442 12.65 63.4608 12.45C62.7942 12.3167 62.1275 12.125 61.4608 11.875C60.7942 11.625 60.2358 11.275 59.7858 10.825C59.3358 10.3583 59.1108 9.75 59.1108 9C59.1108 7.91667 59.5108 7.03333 60.3108 6.35C61.1275 5.65 62.2275 5.3 63.6108 5.3C64.9275 5.3 66.0025 5.63333 66.8358 6.3C67.6858 6.95 68.1775 7.88333 68.3108 9.1H66.2358C66.1525 8.46667 65.8775 7.975 65.4108 7.625C64.9608 7.25833 64.3525 7.075 63.5858 7.075C62.8358 7.075 62.2525 7.23333 61.8358 7.55C61.4358 7.86667 61.2358 8.28333 61.2358 8.8C61.2358 9.3 61.4942 9.69167 62.0108 9.975C62.5442 10.2583 63.2608 10.5 64.1608 10.7C64.9275 10.8667 65.6525 11.075 66.3358 11.325C67.0358 11.5583 67.6025 11.9167 68.0358 12.4C68.4858 12.8667 68.7108 13.55 68.7108 14.45C68.7275 15.5667 68.3025 16.4917 67.4358 17.225C66.5858 17.9417 65.4275 18.3 63.9608 18.3Z" fill="black"/>
<path d="M-0.98584 21.125H69.9858V22.375H-0.98584V21.125Z" fill="black"/>
</svg>
