<svg width="117" height="20" viewBox="0 0 117 20" fill="none" xmlns="http://www.w3.org/2000/svg">
<path d="M7.32124 19.312C6.02123 19.312 4.86857 19.0347 3.86323 18.48C2.8579 17.9253 2.06923 17.1453 1.49723 16.14C0.925234 15.1347 0.639234 13.9733 0.639234 12.656C0.639234 11.3213 0.916568 10.134 1.47123 9.094C2.04323 8.054 2.82323 7.248 3.81123 6.676C4.81657 6.08667 5.99523 5.792 7.34723 5.792C8.61257 5.792 9.73057 6.06933 10.7012 6.624C11.6719 7.17867 12.4259 7.94133 12.9632 8.912C13.5179 9.86533 13.7952 10.9313 13.7952 12.11C13.7952 12.3007 13.7866 12.5 13.7692 12.708C13.7692 12.916 13.7606 13.1327 13.7432 13.358H3.94123C4.01057 14.3633 4.35723 15.152 4.98123 15.724C5.62257 16.296 6.3939 16.582 7.29523 16.582C7.97123 16.582 8.53457 16.4347 8.98523 16.14C9.45323 15.828 9.7999 15.4293 10.0252 14.944H13.4052C13.1626 15.7587 12.7552 16.504 12.1832 17.18C11.6286 17.8387 10.9352 18.3587 10.1032 18.74C9.28857 19.1213 8.36124 19.312 7.32124 19.312ZM7.34723 8.496C6.53257 8.496 5.81323 8.73 5.18923 9.198C4.56523 9.64867 4.16657 10.342 3.99323 11.278H10.4152C10.3632 10.4287 10.0512 9.75267 9.47924 9.25C8.90723 8.74733 8.19657 8.496 7.34723 8.496ZM16.5943 19V6.104H19.5323L19.8183 7.846C20.2343 7.222 20.7803 6.728 21.4563 6.364C22.1496 5.98267 22.947 5.792 23.8483 5.792C25.8416 5.792 27.2543 6.56333 28.0863 8.106C28.5543 7.39533 29.1783 6.832 29.9583 6.416C30.7556 6 31.6223 5.792 32.5583 5.792C34.2396 5.792 35.531 6.29467 36.4323 7.3C37.3336 8.30533 37.7843 9.77867 37.7843 11.72V19H34.4563V12.032C34.4563 10.9227 34.2396 10.0733 33.8063 9.484C33.3903 8.89467 32.7403 8.6 31.8563 8.6C30.955 8.6 30.227 8.92933 29.6723 9.588C29.135 10.2467 28.8663 11.1653 28.8663 12.344V19H25.5383V12.032C25.5383 10.9227 25.3216 10.0733 24.8883 9.484C24.455 8.89467 23.7876 8.6 22.8863 8.6C22.0023 8.6 21.283 8.92933 20.7283 9.588C20.191 10.2467 19.9223 11.1653 19.9223 12.344V19H16.5943ZM47.1319 19.312C45.8839 19.312 44.7572 19.026 43.7519 18.454C42.7639 17.882 41.9752 17.0933 41.3859 16.088C40.8139 15.0653 40.5279 13.8867 40.5279 12.552C40.5279 11.2173 40.8226 10.0473 41.4119 9.042C42.0012 8.01933 42.7899 7.222 43.7779 6.65C44.7832 6.078 45.9099 5.792 47.1579 5.792C48.3886 5.792 49.4979 6.078 50.4859 6.65C51.4912 7.222 52.2799 8.01933 52.8519 9.042C53.4412 10.0473 53.7359 11.2173 53.7359 12.552C53.7359 13.8867 53.4412 15.0653 52.8519 16.088C52.2799 17.0933 51.4912 17.882 50.4859 18.454C49.4806 19.026 48.3626 19.312 47.1319 19.312ZM47.1319 16.426C47.9986 16.426 48.7526 16.1053 49.3939 15.464C50.0352 14.8053 50.3559 13.8347 50.3559 12.552C50.3559 11.2693 50.0352 10.3073 49.3939 9.666C48.7526 9.00733 48.0072 8.678 47.1579 8.678C46.2739 8.678 45.5112 9.00733 44.8699 9.666C44.2459 10.3073 43.9339 11.2693 43.9339 12.552C43.9339 13.8347 44.2459 14.8053 44.8699 15.464C45.5112 16.1053 46.2652 16.426 47.1319 16.426ZM61.9497 19C60.5977 19 59.5143 18.6707 58.6997 18.012C57.885 17.3533 57.4777 16.1833 57.4777 14.502V8.886H55.2677V6.104H57.4777L57.8677 2.646H60.8057V6.104H64.2897V8.886H60.8057V14.528C60.8057 15.152 60.9357 15.5853 61.1957 15.828C61.473 16.0533 61.941 16.166 62.5997 16.166H64.2117V19H61.9497ZM68.941 4.102C68.3344 4.102 67.8317 3.92 67.433 3.556C67.0517 3.192 66.861 2.73267 66.861 2.178C66.861 1.62333 67.0517 1.17267 67.433 0.825998C67.8317 0.461999 68.3344 0.279999 68.941 0.279999C69.5477 0.279999 70.0417 0.461999 70.423 0.825998C70.8217 1.17267 71.021 1.62333 71.021 2.178C71.021 2.73267 70.8217 3.192 70.423 3.556C70.0417 3.92 69.5477 4.102 68.941 4.102ZM67.277 19V6.104H70.605V19H67.277ZM80.2667 19.312C79.0187 19.312 77.892 19.026 76.8867 18.454C75.8987 17.882 75.11 17.0933 74.5207 16.088C73.9487 15.0653 73.6627 13.8867 73.6627 12.552C73.6627 11.2173 73.9573 10.0473 74.5467 9.042C75.136 8.01933 75.9247 7.222 76.9127 6.65C77.918 6.078 79.0447 5.792 80.2927 5.792C81.5233 5.792 82.6327 6.078 83.6207 6.65C84.626 7.222 85.4147 8.01933 85.9867 9.042C86.576 10.0473 86.8707 11.2173 86.8707 12.552C86.8707 13.8867 86.576 15.0653 85.9867 16.088C85.4147 17.0933 84.626 17.882 83.6207 18.454C82.6153 19.026 81.4973 19.312 80.2667 19.312ZM80.2667 16.426C81.1333 16.426 81.8873 16.1053 82.5287 15.464C83.17 14.8053 83.4907 13.8347 83.4907 12.552C83.4907 11.2693 83.17 10.3073 82.5287 9.666C81.8873 9.00733 81.142 8.678 80.2927 8.678C79.4087 8.678 78.646 9.00733 78.0047 9.666C77.3807 10.3073 77.0687 11.2693 77.0687 12.552C77.0687 13.8347 77.3807 14.8053 78.0047 15.464C78.646 16.1053 79.4 16.426 80.2667 16.426ZM89.8463 19V6.104H92.7843L93.0443 8.288C93.4429 7.52533 94.0149 6.91867 94.7603 6.468C95.5229 6.01733 96.4156 5.792 97.4383 5.792C99.0329 5.792 100.272 6.29467 101.156 7.3C102.04 8.30533 102.482 9.77867 102.482 11.72V19H99.1543V12.032C99.1543 10.9227 98.9289 10.0733 98.4783 9.484C98.0276 8.89467 97.3256 8.6 96.3723 8.6C95.4363 8.6 94.6649 8.92933 94.0583 9.588C93.4689 10.2467 93.1743 11.1653 93.1743 12.344V19H89.8463ZM110.995 19.312C109.851 19.312 108.845 19.13 107.979 18.766C107.112 18.3847 106.419 17.8647 105.899 17.206C105.379 16.5473 105.067 15.7847 104.963 14.918H108.317C108.421 15.4207 108.698 15.854 109.149 16.218C109.617 16.5647 110.215 16.738 110.943 16.738C111.671 16.738 112.199 16.5907 112.529 16.296C112.875 16.0013 113.049 15.6633 113.049 15.282C113.049 14.7273 112.806 14.3547 112.321 14.164C111.835 13.956 111.159 13.7567 110.293 13.566C109.738 13.4447 109.175 13.2973 108.603 13.124C108.031 12.9507 107.502 12.734 107.017 12.474C106.549 12.1967 106.167 11.85 105.873 11.434C105.578 11.0007 105.431 10.472 105.431 9.848C105.431 8.704 105.881 7.742 106.783 6.962C107.701 6.182 108.984 5.792 110.631 5.792C112.156 5.792 113.369 6.14733 114.271 6.858C115.189 7.56867 115.735 8.548 115.909 9.796H112.763C112.572 8.84267 111.853 8.366 110.605 8.366C109.981 8.366 109.495 8.48733 109.149 8.73C108.819 8.97267 108.655 9.276 108.655 9.64C108.655 10.0213 108.906 10.3247 109.409 10.55C109.911 10.7753 110.579 10.9833 111.411 11.174C112.312 11.382 113.135 11.616 113.881 11.876C114.643 12.1187 115.25 12.4913 115.701 12.994C116.151 13.4793 116.377 14.1813 116.377 15.1C116.394 15.8973 116.186 16.6167 115.753 17.258C115.319 17.8993 114.695 18.402 113.881 18.766C113.066 19.13 112.104 19.312 110.995 19.312Z" fill="black"/>
</svg>
