<svg width="383" height="374" viewBox="0 0 383 374" fill="none" xmlns="http://www.w3.org/2000/svg">
<g filter="url(#filter0_d_476_126)">
<rect x="20" y="20" width="343" height="334" rx="30" fill="#F7F7F7"/>
</g>
<path d="M81.976 69.5798C80.0533 69.5798 78.364 69.1598 76.908 68.3198C75.4707 67.4612 74.3413 66.2665 73.52 64.7358C72.7173 63.2052 72.316 61.4412 72.316 59.4438C72.316 57.4465 72.7173 55.6918 73.52 54.1798C74.3413 52.6492 75.4707 51.4545 76.908 50.5958C78.364 49.7372 80.0533 49.3078 81.976 49.3078C83.9173 49.3078 85.6067 49.7372 87.044 50.5958C88.5 51.4545 89.6293 52.6492 90.432 54.1798C91.2347 55.6918 91.636 57.4465 91.636 59.4438C91.636 61.4412 91.2347 63.2052 90.432 64.7358C89.6293 66.2665 88.5 67.4612 87.044 68.3198C85.6067 69.1598 83.9173 69.5798 81.976 69.5798ZM81.976 67.5078C83.4133 67.5078 84.6733 67.1905 85.756 66.5558C86.8573 65.9025 87.7067 64.9785 88.304 63.7838C88.92 62.5705 89.228 61.1238 89.228 59.4438C89.228 57.7638 88.92 56.3265 88.304 55.1318C87.7067 53.9372 86.8573 53.0225 85.756 52.3878C84.6733 51.7345 83.4133 51.4078 81.976 51.4078C80.5387 51.4078 79.2693 51.7345 78.168 52.3878C77.0853 53.0225 76.236 53.9372 75.62 55.1318C75.0227 56.3265 74.724 57.7638 74.724 59.4438C74.724 61.1238 75.0227 62.5705 75.62 63.7838C76.236 64.9785 77.0853 65.9025 78.168 66.5558C79.2693 67.1905 80.5387 67.5078 81.976 67.5078ZM98.893 69.2438L93.629 55.3558H96.093L100.265 66.9758L104.465 55.3558H106.873L101.609 69.2438H98.893ZM115.024 69.5798C113.698 69.5798 112.522 69.2812 111.496 68.6838C110.469 68.0678 109.657 67.2185 109.06 66.1358C108.481 65.0532 108.192 63.7745 108.192 62.2998C108.192 60.8438 108.481 59.5745 109.06 58.4918C109.638 57.3905 110.441 56.5412 111.468 55.9438C112.513 55.3278 113.717 55.0198 115.08 55.0198C116.424 55.0198 117.581 55.3278 118.552 55.9438C119.541 56.5412 120.297 57.3345 120.82 58.3238C121.342 59.3132 121.604 60.3772 121.604 61.5158C121.604 61.7212 121.594 61.9265 121.576 62.1318C121.576 62.3372 121.576 62.5705 121.576 62.8318H110.516C110.572 63.8958 110.814 64.7825 111.244 65.4918C111.692 66.1825 112.242 66.7052 112.896 67.0598C113.568 67.4145 114.277 67.5918 115.024 67.5918C115.994 67.5918 116.806 67.3678 117.46 66.9198C118.113 66.4718 118.589 65.8652 118.888 65.0998H121.212C120.838 66.3878 120.12 67.4612 119.056 68.3198C118.01 69.1598 116.666 69.5798 115.024 69.5798ZM115.024 57.0078C113.904 57.0078 112.905 57.3532 112.028 58.0438C111.169 58.7158 110.674 59.7052 110.544 61.0118H119.28C119.224 59.7612 118.794 58.7812 117.992 58.0718C117.189 57.3625 116.2 57.0078 115.024 57.0078ZM124.721 69.2438V55.3558H126.849L127.045 58.0158C127.474 57.1012 128.128 56.3732 129.005 55.8318C129.882 55.2905 130.965 55.0198 132.253 55.0198V57.4838H131.609C130.788 57.4838 130.032 57.6332 129.341 57.9318C128.65 58.2118 128.1 58.6972 127.689 59.3878C127.278 60.0785 127.073 61.0305 127.073 62.2438V69.2438H124.721ZM138.897 69.2438L133.633 55.3558H136.097L140.269 66.9758L144.469 55.3558H146.877L141.613 69.2438H138.897ZM150.923 52.2758C150.456 52.2758 150.064 52.1265 149.747 51.8278C149.448 51.5105 149.299 51.1185 149.299 50.6518C149.299 50.2038 149.448 49.8305 149.747 49.5318C150.064 49.2332 150.456 49.0838 150.923 49.0838C151.371 49.0838 151.753 49.2332 152.071 49.5318C152.388 49.8305 152.547 50.2038 152.547 50.6518C152.547 51.1185 152.388 51.5105 152.071 51.8278C151.753 52.1265 151.371 52.2758 150.923 52.2758ZM149.747 69.2438V55.3558H152.099V69.2438H149.747ZM162.438 69.5798C161.112 69.5798 159.936 69.2812 158.91 68.6838C157.883 68.0678 157.071 67.2185 156.474 66.1358C155.895 65.0532 155.606 63.7745 155.606 62.2998C155.606 60.8438 155.895 59.5745 156.474 58.4918C157.052 57.3905 157.855 56.5412 158.882 55.9438C159.927 55.3278 161.131 55.0198 162.494 55.0198C163.838 55.0198 164.995 55.3278 165.966 55.9438C166.955 56.5412 167.711 57.3345 168.234 58.3238C168.756 59.3132 169.018 60.3772 169.018 61.5158C169.018 61.7212 169.008 61.9265 168.99 62.1318C168.99 62.3372 168.99 62.5705 168.99 62.8318H157.93C157.986 63.8958 158.228 64.7825 158.658 65.4918C159.106 66.1825 159.656 66.7052 160.31 67.0598C160.982 67.4145 161.691 67.5918 162.438 67.5918C163.408 67.5918 164.22 67.3678 164.874 66.9198C165.527 66.4718 166.003 65.8652 166.302 65.0998H168.626C168.252 66.3878 167.534 67.4612 166.47 68.3198C165.424 69.1598 164.08 69.5798 162.438 69.5798ZM162.438 57.0078C161.318 57.0078 160.319 57.3532 159.442 58.0438C158.583 58.7158 158.088 59.7052 157.958 61.0118H166.694C166.638 59.7612 166.208 58.7812 165.406 58.0718C164.603 57.3625 163.614 57.0078 162.438 57.0078ZM174.388 69.2438L170.328 55.3558H172.68L175.62 66.2478L178.868 55.3558H181.528L184.804 66.2478L187.716 55.3558H190.096L186.036 69.2438H183.628L180.212 57.7918L176.796 69.2438H174.388ZM206.044 69.5798C204.7 69.5798 203.514 69.3372 202.488 68.8518C201.48 68.3478 200.686 67.6572 200.108 66.7798C199.548 65.8838 199.268 64.8292 199.268 63.6158C199.268 62.2905 199.65 61.1145 200.416 60.0878C201.2 59.0425 202.329 58.2212 203.804 57.6238C203.169 56.9332 202.712 56.2798 202.432 55.6638C202.152 55.0292 202.012 54.3478 202.012 53.6198C202.012 52.3692 202.45 51.3425 203.328 50.5398C204.224 49.7185 205.446 49.3078 206.996 49.3078C208.004 49.3078 208.881 49.5038 209.628 49.8958C210.374 50.2692 210.953 50.7918 211.364 51.4638C211.774 52.1358 211.961 52.9012 211.924 53.7598H209.6C209.618 52.9198 209.357 52.2852 208.816 51.8558C208.293 51.4265 207.686 51.2118 206.996 51.2118C206.156 51.2118 205.502 51.4358 205.036 51.8838C204.569 52.3318 204.336 52.9012 204.336 53.5918C204.336 54.1892 204.494 54.7678 204.812 55.3278C205.148 55.8878 205.642 56.5132 206.296 57.2038L212.484 63.4478C213.025 62.6638 213.613 61.7212 214.248 60.6198L215.116 59.1078H217.608L216.376 61.2918C215.554 62.7665 214.77 63.9985 214.024 64.9878L218.252 69.2438H215.284L212.68 66.6118C211.69 67.6758 210.664 68.4412 209.6 68.9078C208.536 69.3558 207.35 69.5798 206.044 69.5798ZM201.62 63.5318C201.62 64.6892 202.03 65.6505 202.852 66.4158C203.673 67.1812 204.746 67.5638 206.072 67.5638C207.061 67.5638 207.957 67.3772 208.76 67.0038C209.581 66.6118 210.384 65.9772 211.168 65.0998L205.232 59.0798C204 59.5652 203.085 60.1812 202.488 60.9278C201.909 61.6745 201.62 62.5425 201.62 63.5318ZM228.166 69.2438V49.6438H234.494C236.024 49.6438 237.275 49.8958 238.246 50.3998C239.216 50.9038 239.935 51.5945 240.402 52.4718C240.868 53.3492 241.102 54.3198 241.102 55.3838C241.102 56.6158 240.766 57.7265 240.094 58.7158C239.44 59.7052 238.414 60.4052 237.014 60.8158L241.298 69.2438H238.526L234.55 61.1518H234.382H230.518V69.2438H228.166ZM230.518 59.3038H234.326C235.838 59.3038 236.939 58.9398 237.63 58.2118C238.32 57.4838 238.666 56.5505 238.666 55.4118C238.666 54.2545 238.32 53.3398 237.63 52.6678C236.958 51.9772 235.847 51.6318 234.298 51.6318H230.518V59.3038ZM250.02 69.5798C248.694 69.5798 247.518 69.2812 246.492 68.6838C245.465 68.0678 244.653 67.2185 244.056 66.1358C243.477 65.0532 243.188 63.7745 243.188 62.2998C243.188 60.8438 243.477 59.5745 244.056 58.4918C244.634 57.3905 245.437 56.5412 246.464 55.9438C247.509 55.3278 248.713 55.0198 250.076 55.0198C251.42 55.0198 252.577 55.3278 253.548 55.9438C254.537 56.5412 255.293 57.3345 255.816 58.3238C256.338 59.3132 256.6 60.3772 256.6 61.5158C256.6 61.7212 256.59 61.9265 256.572 62.1318C256.572 62.3372 256.572 62.5705 256.572 62.8318H245.512C245.568 63.8958 245.81 64.7825 246.24 65.4918C246.688 66.1825 247.238 66.7052 247.892 67.0598C248.564 67.4145 249.273 67.5918 250.02 67.5918C250.99 67.5918 251.802 67.3678 252.456 66.9198C253.109 66.4718 253.585 65.8652 253.884 65.0998H256.208C255.834 66.3878 255.116 67.4612 254.052 68.3198C253.006 69.1598 251.662 69.5798 250.02 69.5798ZM250.02 57.0078C248.9 57.0078 247.901 57.3532 247.024 58.0438C246.165 58.7158 245.67 59.7052 245.54 61.0118H254.276C254.22 59.7612 253.79 58.7812 252.988 58.0718C252.185 57.3625 251.196 57.0078 250.02 57.0078ZM265.037 69.5798C263.376 69.5798 261.994 69.1598 260.893 68.3198C259.792 67.4798 259.148 66.3412 258.961 64.9038H261.369C261.518 65.6318 261.901 66.2665 262.517 66.8078C263.152 67.3305 264.001 67.5918 265.065 67.5918C266.054 67.5918 266.782 67.3865 267.249 66.9758C267.716 66.5465 267.949 66.0425 267.949 65.4638C267.949 64.6238 267.641 64.0638 267.025 63.7838C266.428 63.5038 265.578 63.2518 264.477 63.0278C263.73 62.8785 262.984 62.6638 262.237 62.3838C261.49 62.1038 260.865 61.7118 260.361 61.2078C259.857 60.6852 259.605 60.0038 259.605 59.1638C259.605 57.9505 260.053 56.9612 260.949 56.1958C261.864 55.4118 263.096 55.0198 264.645 55.0198C266.12 55.0198 267.324 55.3932 268.257 56.1398C269.209 56.8678 269.76 57.9132 269.909 59.2758H267.585C267.492 58.5665 267.184 58.0158 266.661 57.6238C266.157 57.2132 265.476 57.0078 264.617 57.0078C263.777 57.0078 263.124 57.1852 262.657 57.5398C262.209 57.8945 261.985 58.3612 261.985 58.9398C261.985 59.4998 262.274 59.9385 262.853 60.2558C263.45 60.5732 264.253 60.8438 265.261 61.0678C266.12 61.2545 266.932 61.4878 267.697 61.7678C268.481 62.0292 269.116 62.4305 269.601 62.9718C270.105 63.4945 270.357 64.2598 270.357 65.2678C270.376 66.5185 269.9 67.5545 268.929 68.3758C267.977 69.1785 266.68 69.5798 265.037 69.5798ZM278.785 69.5798C277.142 69.5798 275.836 69.0852 274.865 68.0958C273.894 67.0878 273.409 65.5478 273.409 63.4758V55.3558H275.761V63.2238C275.761 66.1172 276.946 67.5638 279.317 67.5638C280.53 67.5638 281.529 67.1345 282.313 66.2758C283.116 65.3985 283.517 64.1572 283.517 62.5518V55.3558H285.869V69.2438H283.741L283.573 66.7518C283.144 67.6292 282.5 68.3198 281.641 68.8238C280.801 69.3278 279.849 69.5798 278.785 69.5798ZM289.741 69.2438V49.0838H292.093V69.2438H289.741ZM301.436 69.2438C300.166 69.2438 299.168 68.9358 298.44 68.3198C297.712 67.7038 297.348 66.5932 297.348 64.9878V57.3438H294.94V55.3558H297.348L297.656 52.0238H299.7V55.3558H303.788V57.3438H299.7V64.9878C299.7 65.8652 299.877 66.4625 300.232 66.7798C300.586 67.0785 301.212 67.2278 302.108 67.2278H303.564V69.2438H301.436ZM312.096 69.5798C310.434 69.5798 309.053 69.1598 307.952 68.3198C306.85 67.4798 306.206 66.3412 306.02 64.9038H308.428C308.577 65.6318 308.96 66.2665 309.576 66.8078C310.21 67.3305 311.06 67.5918 312.124 67.5918C313.113 67.5918 313.841 67.3865 314.308 66.9758C314.774 66.5465 315.008 66.0425 315.008 65.4638C315.008 64.6238 314.7 64.0638 314.084 63.7838C313.486 63.5038 312.637 63.2518 311.536 63.0278C310.789 62.8785 310.042 62.6638 309.296 62.3838C308.549 62.1038 307.924 61.7118 307.42 61.2078C306.916 60.6852 306.664 60.0038 306.664 59.1638C306.664 57.9505 307.112 56.9612 308.008 56.1958C308.922 55.4118 310.154 55.0198 311.704 55.0198C313.178 55.0198 314.382 55.3932 315.316 56.1398C316.268 56.8678 316.818 57.9132 316.968 59.2758H314.644C314.55 58.5665 314.242 58.0158 313.72 57.6238C313.216 57.2132 312.534 57.0078 311.676 57.0078C310.836 57.0078 310.182 57.1852 309.716 57.5398C309.268 57.8945 309.044 58.3612 309.044 58.9398C309.044 59.4998 309.333 59.9385 309.912 60.2558C310.509 60.5732 311.312 60.8438 312.32 61.0678C313.178 61.2545 313.99 61.4878 314.756 61.7678C315.54 62.0292 316.174 62.4305 316.66 62.9718C317.164 63.4945 317.416 64.2598 317.416 65.2678C317.434 66.5185 316.958 67.5545 315.988 68.3758C315.036 69.1785 313.738 69.5798 312.096 69.5798Z" fill="black"/>
<path d="M48 69C46.3369 69.0046 44.6948 68.6283 43.1996 67.8999C42.6525 67.6338 42.1282 67.3229 41.6322 66.9704L41.4815 66.8604C40.1173 65.8535 39.002 64.5474 38.2211 63.0423C37.4134 61.4846 36.9945 59.7546 37.0001 58C37.0001 51.9248 41.9249 47 48 47C54.0751 47 58.9999 51.9248 58.9999 58C59.0054 59.7538 58.5869 61.483 57.78 63.0401C57.0002 64.5443 55.8865 65.85 54.524 66.8571C54.0101 67.2333 53.4647 67.5645 52.8939 67.8471L52.8059 67.8911C51.3098 68.6234 49.6657 69.0027 48 69ZM48 63.4999C46.3516 63.4967 44.8405 64.4174 44.0873 65.8836C46.5528 67.1048 49.4472 67.1048 51.9127 65.8836V65.8781C51.1586 64.4135 49.6474 63.4949 48 63.4999ZM48 61.2999C50.3827 61.3031 52.5797 62.5871 53.7518 64.6615L53.7683 64.6472L53.7837 64.634L53.765 64.6505L53.754 64.6593C56.5359 62.256 57.5306 58.3765 56.2484 54.9311C54.9662 51.4856 51.6774 49.2003 48.0011 49.2003C44.3248 49.2003 41.036 51.4856 39.7538 54.9311C38.4716 58.3765 39.4663 62.256 42.2482 64.6593C43.421 62.5859 45.6178 61.3028 48 61.2999ZM48 60.1999C45.57 60.1999 43.6 58.23 43.6 55.8C43.6 53.3699 45.57 51.4 48 51.4C50.43 51.4 52.4 53.3699 52.4 55.8C52.4 56.9669 51.9364 58.0861 51.1112 58.9112C50.2861 59.7364 49.1669 60.1999 48 60.1999ZM48 53.6C46.785 53.6 45.8 54.5849 45.8 55.8C45.8 57.015 46.785 58 48 58C49.215 58 50.2 57.015 50.2 55.8C50.2 54.5849 49.215 53.6 48 53.6Z" fill="black"/>
<defs>
<filter id="filter0_d_476_126" x="0" y="0" width="383" height="374" filterUnits="userSpaceOnUse" color-interpolation-filters="sRGB">
<feFlood flood-opacity="0" result="BackgroundImageFix"/>
<feColorMatrix in="SourceAlpha" type="matrix" values="0 0 0 0 0 0 0 0 0 0 0 0 0 0 0 0 0 0 127 0" result="hardAlpha"/>
<feOffset/>
<feGaussianBlur stdDeviation="10"/>
<feComposite in2="hardAlpha" operator="out"/>
<feColorMatrix type="matrix" values="0 0 0 0 0 0 0 0 0 0 0 0 0 0 0 0 0 0 0.25 0"/>
<feBlend mode="normal" in2="BackgroundImageFix" result="effect1_dropShadow_476_126"/>
<feBlend mode="normal" in="SourceGraphic" in2="effect1_dropShadow_476_126" result="shape"/>
</filter>
</defs>
</svg>
