<svg width="279" height="95" viewBox="0 0 279 95" fill="none" xmlns="http://www.w3.org/2000/svg">
<g filter="url(#filter0_d_498_216)">
<rect x="20" y="20" width="239" height="55" rx="20" fill="#C8DE9F"/>
</g>
<path d="M90.04 58V37H93.88V55H103.18V58H90.04ZM115.249 58.36C113.149 58.36 111.309 57.9 109.729 56.98C108.169 56.06 106.939 54.79 106.039 53.17C105.159 51.53 104.719 49.64 104.719 47.5C104.719 45.36 105.159 43.48 106.039 41.86C106.939 40.22 108.169 38.94 109.729 38.02C111.309 37.1 113.149 36.64 115.249 36.64C117.329 36.64 119.159 37.1 120.739 38.02C122.319 38.94 123.549 40.22 124.429 41.86C125.309 43.48 125.749 45.36 125.749 47.5C125.749 49.64 125.309 51.53 124.429 53.17C123.549 54.79 122.319 56.06 120.739 56.98C119.159 57.9 117.329 58.36 115.249 58.36ZM115.249 54.91C117.249 54.91 118.839 54.25 120.019 52.93C121.219 51.61 121.819 49.8 121.819 47.5C121.819 45.2 121.219 43.39 120.019 42.07C118.839 40.75 117.249 40.09 115.249 40.09C113.249 40.09 111.649 40.75 110.449 42.07C109.249 43.39 108.649 45.2 108.649 47.5C108.649 49.8 109.249 51.61 110.449 52.93C111.649 54.25 113.249 54.91 115.249 54.91ZM139.07 58.36C137.09 58.36 135.36 57.91 133.88 57.01C132.4 56.11 131.25 54.86 130.43 53.26C129.61 51.64 129.2 49.76 129.2 47.62C129.2 45.46 129.62 43.56 130.46 41.92C131.32 40.26 132.53 38.97 134.09 38.05C135.67 37.11 137.54 36.64 139.7 36.64C142.16 36.64 144.2 37.23 145.82 38.41C147.44 39.59 148.49 41.22 148.97 43.3H144.68C144.36 42.32 143.78 41.56 142.94 41.02C142.1 40.46 141.02 40.18 139.7 40.18C137.6 40.18 135.98 40.85 134.84 42.19C133.7 43.51 133.13 45.33 133.13 47.65C133.13 49.97 133.69 51.77 134.81 53.05C135.95 54.31 137.49 54.94 139.43 54.94C141.33 54.94 142.76 54.43 143.72 53.41C144.7 52.37 145.29 51.01 145.49 49.33H140.18V46.45H149.36V58H145.82L145.52 55.24C144.84 56.24 143.99 57.01 142.97 57.55C141.95 58.09 140.65 58.36 139.07 58.36ZM161.741 58V37H165.581V58H161.741ZM170.401 58V37H174.241L184.111 51.79V37H187.951V58H184.111L174.241 43.24V58H170.401Z" fill="white"/>
<defs>
<filter id="filter0_d_498_216" x="0" y="0" width="279" height="95" filterUnits="userSpaceOnUse" color-interpolation-filters="sRGB">
<feFlood flood-opacity="0" result="BackgroundImageFix"/>
<feColorMatrix in="SourceAlpha" type="matrix" values="0 0 0 0 0 0 0 0 0 0 0 0 0 0 0 0 0 0 127 0" result="hardAlpha"/>
<feOffset/>
<feGaussianBlur stdDeviation="10"/>
<feComposite in2="hardAlpha" operator="out"/>
<feColorMatrix type="matrix" values="0 0 0 0 0 0 0 0 0 0 0 0 0 0 0 0 0 0 0.25 0"/>
<feBlend mode="normal" in2="BackgroundImageFix" result="effect1_dropShadow_498_216"/>
<feBlend mode="normal" in="SourceGraphic" in2="effect1_dropShadow_498_216" result="shape"/>
</filter>
</defs>
</svg>
