<svg width="431" height="21" viewBox="0 0 431 21" fill="none" xmlns="http://www.w3.org/2000/svg">
<path d="M0.554 16V1.3H9.647V2.749H2.318V7.873H9.017V9.301H2.318V14.551H9.647V16H0.554ZM12.8275 16V5.584H14.4235L14.5285 7.453C14.8645 6.795 15.3475 6.277 15.9775 5.899C16.6075 5.521 17.3215 5.332 18.1195 5.332C19.3515 5.332 20.3315 5.71 21.0595 6.466C21.8015 7.208 22.1725 8.356 22.1725 9.91V16H20.4085V10.099C20.4085 7.929 19.5125 6.844 17.7205 6.844C16.8245 6.844 16.0755 7.173 15.4735 7.831C14.8855 8.475 14.5915 9.399 14.5915 10.603V16H12.8275ZM29.4861 16C28.5341 16 27.7851 15.769 27.2391 15.307C26.6931 14.845 26.4201 14.012 26.4201 12.808V7.075H24.6141V5.584H26.4201L26.6511 3.085H28.1841V5.584H31.2501V7.075H28.1841V12.808C28.1841 13.466 28.3171 13.914 28.5831 14.152C28.8491 14.376 29.3181 14.488 29.9901 14.488H31.0821V16H29.4861ZM38.4121 16.252C37.4181 16.252 36.5361 16.028 35.7661 15.58C34.9961 15.118 34.3871 14.481 33.9391 13.669C33.5051 12.857 33.2881 11.898 33.2881 10.792C33.2881 9.7 33.5051 8.748 33.9391 7.936C34.3731 7.11 34.9751 6.473 35.7451 6.025C36.5291 5.563 37.4321 5.332 38.4541 5.332C39.4621 5.332 40.3301 5.563 41.0581 6.025C41.8001 6.473 42.3671 7.068 42.7591 7.81C43.1511 8.552 43.3471 9.35 43.3471 10.204C43.3471 10.358 43.3401 10.512 43.3261 10.666C43.3261 10.82 43.3261 10.995 43.3261 11.191H35.0311C35.0731 11.989 35.2551 12.654 35.5771 13.186C35.9131 13.704 36.3261 14.096 36.8161 14.362C37.3201 14.628 37.8521 14.761 38.4121 14.761C39.1401 14.761 39.7491 14.593 40.2391 14.257C40.7291 13.921 41.0861 13.466 41.3101 12.892H43.0531C42.7731 13.858 42.2341 14.663 41.4361 15.307C40.6521 15.937 39.6441 16.252 38.4121 16.252ZM38.4121 6.823C37.5721 6.823 36.8231 7.082 36.1651 7.6C35.5211 8.104 35.1501 8.846 35.0521 9.826H41.6041C41.5621 8.888 41.2401 8.153 40.6381 7.621C40.0361 7.089 39.2941 6.823 38.4121 6.823ZM46.2101 16V5.584H47.8061L47.9531 7.579C48.2751 6.893 48.7651 6.347 49.4231 5.941C50.0811 5.535 50.8931 5.332 51.8591 5.332V7.18H51.3761C50.7601 7.18 50.1931 7.292 49.6751 7.516C49.1571 7.726 48.7441 8.09 48.4361 8.608C48.1281 9.126 47.9741 9.84 47.9741 10.75V16H46.2101ZM61.5807 20.62L64.1637 14.992H63.5547L59.4177 5.584H61.3287L64.7727 13.69L68.4267 5.584H70.2537L63.4287 20.62H61.5807ZM76.4022 16.252C75.4222 16.252 74.5402 16.028 73.7562 15.58C72.9722 15.132 72.3492 14.502 71.8872 13.69C71.4392 12.864 71.2152 11.898 71.2152 10.792C71.2152 9.686 71.4462 8.727 71.9082 7.915C72.3702 7.089 72.9932 6.452 73.7772 6.004C74.5752 5.556 75.4642 5.332 76.4442 5.332C77.4242 5.332 78.3062 5.556 79.0902 6.004C79.8742 6.452 80.4902 7.089 80.9382 7.915C81.4002 8.727 81.6312 9.686 81.6312 10.792C81.6312 11.898 81.4002 12.864 80.9382 13.69C80.4762 14.502 79.8462 15.132 79.0482 15.58C78.2642 16.028 77.3822 16.252 76.4022 16.252ZM76.4022 14.74C77.0042 14.74 77.5642 14.593 78.0822 14.299C78.6002 14.005 79.0202 13.564 79.3422 12.976C79.6642 12.388 79.8252 11.66 79.8252 10.792C79.8252 9.924 79.6642 9.196 79.3422 8.608C79.0342 8.02 78.6212 7.579 78.1032 7.285C77.5852 6.991 77.0322 6.844 76.4442 6.844C75.8422 6.844 75.2822 6.991 74.7642 7.285C74.2462 7.579 73.8262 8.02 73.5042 8.608C73.1822 9.196 73.0212 9.924 73.0212 10.792C73.0212 11.66 73.1822 12.388 73.5042 12.976C73.8262 13.564 74.2392 14.005 74.7432 14.299C75.2612 14.593 75.8142 14.74 76.4022 14.74ZM88.41 16.252C87.178 16.252 86.198 15.881 85.47 15.139C84.742 14.383 84.378 13.228 84.378 11.674V5.584H86.142V11.485C86.142 13.655 87.031 14.74 88.809 14.74C89.719 14.74 90.468 14.418 91.056 13.774C91.658 13.116 91.959 12.185 91.959 10.981V5.584H93.723V16H92.127L92.001 14.131C91.679 14.789 91.196 15.307 90.552 15.685C89.922 16.063 89.208 16.252 88.41 16.252ZM97.1515 16V5.584H98.7475L98.8945 7.579C99.2165 6.893 99.7065 6.347 100.365 5.941C101.023 5.535 101.835 5.332 102.801 5.332V7.18H102.318C101.702 7.18 101.135 7.292 100.617 7.516C100.099 7.726 99.6855 8.09 99.3775 8.608C99.0695 9.126 98.9155 9.84 98.9155 10.75V16H97.1515ZM111.493 16V1.3H113.257V16H111.493ZM116.794 16V5.584H118.39L118.495 7.453C118.831 6.795 119.314 6.277 119.944 5.899C120.574 5.521 121.288 5.332 122.086 5.332C123.318 5.332 124.298 5.71 125.026 6.466C125.768 7.208 126.139 8.356 126.139 9.91V16H124.375V10.099C124.375 7.929 123.479 6.844 121.687 6.844C120.791 6.844 120.042 7.173 119.44 7.831C118.852 8.475 118.558 9.399 118.558 10.603V16H116.794ZM133.326 16.252C132.08 16.252 131.044 15.937 130.218 15.307C129.392 14.677 128.909 13.823 128.769 12.745H130.575C130.687 13.291 130.974 13.767 131.436 14.173C131.912 14.565 132.549 14.761 133.347 14.761C134.089 14.761 134.635 14.607 134.985 14.299C135.335 13.977 135.51 13.599 135.51 13.165C135.51 12.535 135.279 12.115 134.817 11.905C134.369 11.695 133.732 11.506 132.906 11.338C132.346 11.226 131.786 11.065 131.226 10.855C130.666 10.645 130.197 10.351 129.819 9.973C129.441 9.581 129.252 9.07 129.252 8.44C129.252 7.53 129.588 6.788 130.26 6.214C130.946 5.626 131.87 5.332 133.032 5.332C134.138 5.332 135.041 5.612 135.741 6.172C136.455 6.718 136.868 7.502 136.98 8.524H135.237C135.167 7.992 134.936 7.579 134.544 7.285C134.166 6.977 133.655 6.823 133.011 6.823C132.381 6.823 131.891 6.956 131.541 7.222C131.205 7.488 131.037 7.838 131.037 8.272C131.037 8.692 131.254 9.021 131.688 9.259C132.136 9.497 132.738 9.7 133.494 9.868C134.138 10.008 134.747 10.183 135.321 10.393C135.909 10.589 136.385 10.89 136.749 11.296C137.127 11.688 137.316 12.262 137.316 13.018C137.33 13.956 136.973 14.733 136.245 15.349C135.531 15.951 134.558 16.252 133.326 16.252ZM144.006 16C143.054 16 142.305 15.769 141.759 15.307C141.213 14.845 140.94 14.012 140.94 12.808V7.075H139.134V5.584H140.94L141.171 3.085H142.704V5.584H145.77V7.075H142.704V12.808C142.704 13.466 142.837 13.914 143.103 14.152C143.369 14.376 143.838 14.488 144.51 14.488H145.602V16H144.006ZM152.001 16.252C151.133 16.252 150.412 16.105 149.838 15.811C149.264 15.517 148.837 15.125 148.557 14.635C148.277 14.145 148.137 13.613 148.137 13.039C148.137 11.975 148.543 11.156 149.355 10.582C150.167 10.008 151.273 9.721 152.673 9.721H155.487V9.595C155.487 8.685 155.249 7.999 154.773 7.537C154.297 7.061 153.66 6.823 152.862 6.823C152.176 6.823 151.581 6.998 151.077 7.348C150.587 7.684 150.279 8.181 150.153 8.839H148.347C148.417 8.083 148.669 7.446 149.103 6.928C149.551 6.41 150.104 6.018 150.762 5.752C151.42 5.472 152.12 5.332 152.862 5.332C154.318 5.332 155.41 5.724 156.138 6.508C156.88 7.278 157.251 8.307 157.251 9.595V16H155.676L155.571 14.131C155.277 14.719 154.843 15.223 154.269 15.643C153.709 16.049 152.953 16.252 152.001 16.252ZM152.274 14.761C152.946 14.761 153.52 14.586 153.996 14.236C154.486 13.886 154.857 13.431 155.109 12.871C155.361 12.311 155.487 11.723 155.487 11.107V11.086H152.82C151.784 11.086 151.049 11.268 150.615 11.632C150.195 11.982 149.985 12.423 149.985 12.955C149.985 13.501 150.181 13.942 150.573 14.278C150.979 14.6 151.546 14.761 152.274 14.761ZM164.538 12.724C163.95 12.724 163.411 12.647 162.921 12.493L161.871 13.48C162.025 13.592 162.214 13.69 162.438 13.774C162.676 13.844 163.012 13.914 163.446 13.984C163.88 14.04 164.489 14.103 165.273 14.173C166.673 14.271 167.674 14.593 168.276 15.139C168.878 15.685 169.179 16.399 169.179 17.281C169.179 17.883 169.011 18.457 168.675 19.003C168.353 19.549 167.849 19.997 167.163 20.347C166.491 20.697 165.623 20.872 164.559 20.872C163.621 20.872 162.788 20.746 162.06 20.494C161.332 20.256 160.765 19.885 160.359 19.381C159.953 18.891 159.75 18.268 159.75 17.512C159.75 17.12 159.855 16.693 160.065 16.231C160.275 15.783 160.667 15.356 161.241 14.95C160.933 14.824 160.667 14.691 160.443 14.551C160.233 14.397 160.037 14.229 159.855 14.047V13.564L161.64 11.8C160.814 11.1 160.401 10.176 160.401 9.028C160.401 8.342 160.562 7.719 160.884 7.159C161.206 6.599 161.675 6.158 162.291 5.836C162.907 5.5 163.656 5.332 164.538 5.332C165.14 5.332 165.686 5.416 166.176 5.584H170.019V6.907L168.066 6.991C168.472 7.579 168.675 8.258 168.675 9.028C168.675 9.714 168.507 10.337 168.171 10.897C167.849 11.457 167.38 11.905 166.764 12.241C166.162 12.563 165.42 12.724 164.538 12.724ZM164.538 11.275C165.28 11.275 165.868 11.086 166.302 10.708C166.75 10.316 166.974 9.756 166.974 9.028C166.974 8.314 166.75 7.768 166.302 7.39C165.868 6.998 165.28 6.802 164.538 6.802C163.782 6.802 163.18 6.998 162.732 7.39C162.298 7.768 162.081 8.314 162.081 9.028C162.081 9.756 162.298 10.316 162.732 10.708C163.18 11.086 163.782 11.275 164.538 11.275ZM161.472 17.344C161.472 18.044 161.766 18.562 162.354 18.898C162.942 19.248 163.677 19.423 164.559 19.423C165.427 19.423 166.12 19.234 166.638 18.856C167.17 18.478 167.436 17.974 167.436 17.344C167.436 16.896 167.254 16.504 166.89 16.168C166.526 15.846 165.854 15.657 164.874 15.601C164.104 15.545 163.439 15.475 162.879 15.391C162.305 15.699 161.927 16.028 161.745 16.378C161.563 16.742 161.472 17.064 161.472 17.344ZM172.534 16V5.584H174.13L174.277 7.579C174.599 6.893 175.089 6.347 175.747 5.941C176.405 5.535 177.217 5.332 178.183 5.332V7.18H177.7C177.084 7.18 176.517 7.292 175.999 7.516C175.481 7.726 175.068 8.09 174.76 8.608C174.452 9.126 174.298 9.84 174.298 10.75V16H172.534ZM184.153 16.252C183.285 16.252 182.564 16.105 181.99 15.811C181.416 15.517 180.989 15.125 180.709 14.635C180.429 14.145 180.289 13.613 180.289 13.039C180.289 11.975 180.695 11.156 181.507 10.582C182.319 10.008 183.425 9.721 184.825 9.721H187.639V9.595C187.639 8.685 187.401 7.999 186.925 7.537C186.449 7.061 185.812 6.823 185.014 6.823C184.328 6.823 183.733 6.998 183.229 7.348C182.739 7.684 182.431 8.181 182.305 8.839H180.499C180.569 8.083 180.821 7.446 181.255 6.928C181.703 6.41 182.256 6.018 182.914 5.752C183.572 5.472 184.272 5.332 185.014 5.332C186.47 5.332 187.562 5.724 188.29 6.508C189.032 7.278 189.403 8.307 189.403 9.595V16H187.828L187.723 14.131C187.429 14.719 186.995 15.223 186.421 15.643C185.861 16.049 185.105 16.252 184.153 16.252ZM184.426 14.761C185.098 14.761 185.672 14.586 186.148 14.236C186.638 13.886 187.009 13.431 187.261 12.871C187.513 12.311 187.639 11.723 187.639 11.107V11.086H184.972C183.936 11.086 183.201 11.268 182.767 11.632C182.347 11.982 182.137 12.423 182.137 12.955C182.137 13.501 182.333 13.942 182.725 14.278C183.131 14.6 183.698 14.761 184.426 14.761ZM192.574 16V5.584H194.17L194.296 7.096C194.632 6.536 195.08 6.102 195.64 5.794C196.2 5.486 196.83 5.332 197.53 5.332C198.356 5.332 199.063 5.5 199.651 5.836C200.253 6.172 200.715 6.683 201.037 7.369C201.401 6.739 201.898 6.242 202.528 5.878C203.172 5.514 203.865 5.332 204.607 5.332C205.853 5.332 206.847 5.71 207.589 6.466C208.331 7.208 208.702 8.356 208.702 9.91V16H206.959V10.099C206.959 9.021 206.742 8.209 206.308 7.663C205.874 7.117 205.251 6.844 204.439 6.844C203.599 6.844 202.899 7.173 202.339 7.831C201.793 8.475 201.52 9.399 201.52 10.603V16H199.756V10.099C199.756 9.021 199.539 8.209 199.105 7.663C198.671 7.117 198.048 6.844 197.236 6.844C196.41 6.844 195.717 7.173 195.157 7.831C194.611 8.475 194.338 9.399 194.338 10.603V16H192.574ZM221.768 16.252C220.536 16.252 219.556 15.881 218.828 15.139C218.1 14.383 217.736 13.228 217.736 11.674V5.584H219.5V11.485C219.5 13.655 220.389 14.74 222.167 14.74C223.077 14.74 223.826 14.418 224.414 13.774C225.016 13.116 225.317 12.185 225.317 10.981V5.584H227.081V16H225.485L225.359 14.131C225.037 14.789 224.554 15.307 223.91 15.685C223.28 16.063 222.566 16.252 221.768 16.252ZM234.5 16.252C233.254 16.252 232.218 15.937 231.392 15.307C230.566 14.677 230.083 13.823 229.943 12.745H231.749C231.861 13.291 232.148 13.767 232.61 14.173C233.086 14.565 233.723 14.761 234.521 14.761C235.263 14.761 235.809 14.607 236.159 14.299C236.509 13.977 236.684 13.599 236.684 13.165C236.684 12.535 236.453 12.115 235.991 11.905C235.543 11.695 234.906 11.506 234.08 11.338C233.52 11.226 232.96 11.065 232.4 10.855C231.84 10.645 231.371 10.351 230.993 9.973C230.615 9.581 230.426 9.07 230.426 8.44C230.426 7.53 230.762 6.788 231.434 6.214C232.12 5.626 233.044 5.332 234.206 5.332C235.312 5.332 236.215 5.612 236.915 6.172C237.629 6.718 238.042 7.502 238.154 8.524H236.411C236.341 7.992 236.11 7.579 235.718 7.285C235.34 6.977 234.829 6.823 234.185 6.823C233.555 6.823 233.065 6.956 232.715 7.222C232.379 7.488 232.211 7.838 232.211 8.272C232.211 8.692 232.428 9.021 232.862 9.259C233.31 9.497 233.912 9.7 234.668 9.868C235.312 10.008 235.921 10.183 236.495 10.393C237.083 10.589 237.559 10.89 237.923 11.296C238.301 11.688 238.49 12.262 238.49 13.018C238.504 13.956 238.147 14.733 237.419 15.349C236.705 15.951 235.732 16.252 234.5 16.252ZM246.218 16.252C245.224 16.252 244.342 16.028 243.572 15.58C242.802 15.118 242.193 14.481 241.745 13.669C241.311 12.857 241.094 11.898 241.094 10.792C241.094 9.7 241.311 8.748 241.745 7.936C242.179 7.11 242.781 6.473 243.551 6.025C244.335 5.563 245.238 5.332 246.26 5.332C247.268 5.332 248.136 5.563 248.864 6.025C249.606 6.473 250.173 7.068 250.565 7.81C250.957 8.552 251.153 9.35 251.153 10.204C251.153 10.358 251.146 10.512 251.132 10.666C251.132 10.82 251.132 10.995 251.132 11.191H242.837C242.879 11.989 243.061 12.654 243.383 13.186C243.719 13.704 244.132 14.096 244.622 14.362C245.126 14.628 245.658 14.761 246.218 14.761C246.946 14.761 247.555 14.593 248.045 14.257C248.535 13.921 248.892 13.466 249.116 12.892H250.859C250.579 13.858 250.04 14.663 249.242 15.307C248.458 15.937 247.45 16.252 246.218 16.252ZM246.218 6.823C245.378 6.823 244.629 7.082 243.971 7.6C243.327 8.104 242.956 8.846 242.858 9.826H249.41C249.368 8.888 249.046 8.153 248.444 7.621C247.842 7.089 247.1 6.823 246.218 6.823ZM254.016 16V5.584H255.612L255.759 7.579C256.081 6.893 256.571 6.347 257.229 5.941C257.887 5.535 258.699 5.332 259.665 5.332V7.18H259.182C258.566 7.18 257.999 7.292 257.481 7.516C256.963 7.726 256.55 8.09 256.242 8.608C255.934 9.126 255.78 9.84 255.78 10.75V16H254.016ZM262.17 16V5.584H263.766L263.871 7.453C264.207 6.795 264.69 6.277 265.32 5.899C265.95 5.521 266.664 5.332 267.462 5.332C268.694 5.332 269.674 5.71 270.402 6.466C271.144 7.208 271.515 8.356 271.515 9.91V16H269.751V10.099C269.751 7.929 268.855 6.844 267.063 6.844C266.167 6.844 265.418 7.173 264.816 7.831C264.228 8.475 263.934 9.399 263.934 10.603V16H262.17ZM278.177 16.252C277.309 16.252 276.588 16.105 276.014 15.811C275.44 15.517 275.013 15.125 274.733 14.635C274.453 14.145 274.313 13.613 274.313 13.039C274.313 11.975 274.719 11.156 275.531 10.582C276.343 10.008 277.449 9.721 278.849 9.721H281.663V9.595C281.663 8.685 281.425 7.999 280.949 7.537C280.473 7.061 279.836 6.823 279.038 6.823C278.352 6.823 277.757 6.998 277.253 7.348C276.763 7.684 276.455 8.181 276.329 8.839H274.523C274.593 8.083 274.845 7.446 275.279 6.928C275.727 6.41 276.28 6.018 276.938 5.752C277.596 5.472 278.296 5.332 279.038 5.332C280.494 5.332 281.586 5.724 282.314 6.508C283.056 7.278 283.427 8.307 283.427 9.595V16H281.852L281.747 14.131C281.453 14.719 281.019 15.223 280.445 15.643C279.885 16.049 279.129 16.252 278.177 16.252ZM278.45 14.761C279.122 14.761 279.696 14.586 280.172 14.236C280.662 13.886 281.033 13.431 281.285 12.871C281.537 12.311 281.663 11.723 281.663 11.107V11.086H278.996C277.96 11.086 277.225 11.268 276.791 11.632C276.371 11.982 276.161 12.423 276.161 12.955C276.161 13.501 276.357 13.942 276.749 14.278C277.155 14.6 277.722 14.761 278.45 14.761ZM286.599 16V5.584H288.195L288.321 7.096C288.657 6.536 289.105 6.102 289.665 5.794C290.225 5.486 290.855 5.332 291.555 5.332C292.381 5.332 293.088 5.5 293.676 5.836C294.278 6.172 294.74 6.683 295.062 7.369C295.426 6.739 295.923 6.242 296.553 5.878C297.197 5.514 297.89 5.332 298.632 5.332C299.878 5.332 300.872 5.71 301.614 6.466C302.356 7.208 302.727 8.356 302.727 9.91V16H300.984V10.099C300.984 9.021 300.767 8.209 300.333 7.663C299.899 7.117 299.276 6.844 298.464 6.844C297.624 6.844 296.924 7.173 296.364 7.831C295.818 8.475 295.545 9.399 295.545 10.603V16H293.781V10.099C293.781 9.021 293.564 8.209 293.13 7.663C292.696 7.117 292.073 6.844 291.261 6.844C290.435 6.844 289.742 7.173 289.182 7.831C288.636 8.475 288.363 9.399 288.363 10.603V16H286.599ZM310.592 16.252C309.598 16.252 308.716 16.028 307.946 15.58C307.176 15.118 306.567 14.481 306.119 13.669C305.685 12.857 305.468 11.898 305.468 10.792C305.468 9.7 305.685 8.748 306.119 7.936C306.553 7.11 307.155 6.473 307.925 6.025C308.709 5.563 309.612 5.332 310.634 5.332C311.642 5.332 312.51 5.563 313.238 6.025C313.98 6.473 314.547 7.068 314.939 7.81C315.331 8.552 315.527 9.35 315.527 10.204C315.527 10.358 315.52 10.512 315.506 10.666C315.506 10.82 315.506 10.995 315.506 11.191H307.211C307.253 11.989 307.435 12.654 307.757 13.186C308.093 13.704 308.506 14.096 308.996 14.362C309.5 14.628 310.032 14.761 310.592 14.761C311.32 14.761 311.929 14.593 312.419 14.257C312.909 13.921 313.266 13.466 313.49 12.892H315.233C314.953 13.858 314.414 14.663 313.616 15.307C312.832 15.937 311.824 16.252 310.592 16.252ZM310.592 6.823C309.752 6.823 309.003 7.082 308.345 7.6C307.701 8.104 307.33 8.846 307.232 9.826H313.784C313.742 8.888 313.42 8.153 312.818 7.621C312.216 7.089 311.474 6.823 310.592 6.823ZM327.937 16.252C327.069 16.252 326.348 16.105 325.774 15.811C325.2 15.517 324.773 15.125 324.493 14.635C324.213 14.145 324.073 13.613 324.073 13.039C324.073 11.975 324.479 11.156 325.291 10.582C326.103 10.008 327.209 9.721 328.609 9.721H331.423V9.595C331.423 8.685 331.185 7.999 330.709 7.537C330.233 7.061 329.596 6.823 328.798 6.823C328.112 6.823 327.517 6.998 327.013 7.348C326.523 7.684 326.215 8.181 326.089 8.839H324.283C324.353 8.083 324.605 7.446 325.039 6.928C325.487 6.41 326.04 6.018 326.698 5.752C327.356 5.472 328.056 5.332 328.798 5.332C330.254 5.332 331.346 5.724 332.074 6.508C332.816 7.278 333.187 8.307 333.187 9.595V16H331.612L331.507 14.131C331.213 14.719 330.779 15.223 330.205 15.643C329.645 16.049 328.889 16.252 327.937 16.252ZM328.21 14.761C328.882 14.761 329.456 14.586 329.932 14.236C330.422 13.886 330.793 13.431 331.045 12.871C331.297 12.311 331.423 11.723 331.423 11.107V11.086H328.756C327.72 11.086 326.985 11.268 326.551 11.632C326.131 11.982 325.921 12.423 325.921 12.955C325.921 13.501 326.117 13.942 326.509 14.278C326.915 14.6 327.482 14.761 328.21 14.761ZM336.359 16V5.584H337.955L338.06 7.453C338.396 6.795 338.879 6.277 339.509 5.899C340.139 5.521 340.853 5.332 341.651 5.332C342.883 5.332 343.863 5.71 344.591 6.466C345.333 7.208 345.704 8.356 345.704 9.91V16H343.94V10.099C343.94 7.929 343.044 6.844 341.252 6.844C340.356 6.844 339.607 7.173 339.005 7.831C338.417 8.475 338.123 9.399 338.123 10.603V16H336.359ZM353.626 16.252C352.59 16.252 351.68 16.014 350.896 15.538C350.126 15.062 349.524 14.411 349.09 13.585C348.67 12.759 348.46 11.821 348.46 10.771C348.46 9.721 348.677 8.79 349.111 7.978C349.545 7.152 350.147 6.508 350.917 6.046C351.687 5.57 352.597 5.332 353.647 5.332C354.501 5.332 355.257 5.507 355.915 5.857C356.573 6.207 357.084 6.697 357.448 7.327V0.879999H359.212V16H357.616L357.448 14.278C357.112 14.782 356.629 15.237 355.999 15.643C355.369 16.049 354.578 16.252 353.626 16.252ZM353.815 14.719C354.515 14.719 355.131 14.558 355.663 14.236C356.209 13.9 356.629 13.438 356.923 12.85C357.231 12.262 357.385 11.576 357.385 10.792C357.385 10.008 357.231 9.322 356.923 8.734C356.629 8.146 356.209 7.691 355.663 7.369C355.131 7.033 354.515 6.865 353.815 6.865C353.129 6.865 352.513 7.033 351.967 7.369C351.435 7.691 351.015 8.146 350.707 8.734C350.413 9.322 350.266 10.008 350.266 10.792C350.266 11.576 350.413 12.262 350.707 12.85C351.015 13.438 351.435 13.9 351.967 14.236C352.513 14.558 353.129 14.719 353.815 14.719ZM372.811 12.724C372.223 12.724 371.684 12.647 371.194 12.493L370.144 13.48C370.298 13.592 370.487 13.69 370.711 13.774C370.949 13.844 371.285 13.914 371.719 13.984C372.153 14.04 372.762 14.103 373.546 14.173C374.946 14.271 375.947 14.593 376.549 15.139C377.151 15.685 377.452 16.399 377.452 17.281C377.452 17.883 377.284 18.457 376.948 19.003C376.626 19.549 376.122 19.997 375.436 20.347C374.764 20.697 373.896 20.872 372.832 20.872C371.894 20.872 371.061 20.746 370.333 20.494C369.605 20.256 369.038 19.885 368.632 19.381C368.226 18.891 368.023 18.268 368.023 17.512C368.023 17.12 368.128 16.693 368.338 16.231C368.548 15.783 368.94 15.356 369.514 14.95C369.206 14.824 368.94 14.691 368.716 14.551C368.506 14.397 368.31 14.229 368.128 14.047V13.564L369.913 11.8C369.087 11.1 368.674 10.176 368.674 9.028C368.674 8.342 368.835 7.719 369.157 7.159C369.479 6.599 369.948 6.158 370.564 5.836C371.18 5.5 371.929 5.332 372.811 5.332C373.413 5.332 373.959 5.416 374.449 5.584H378.292V6.907L376.339 6.991C376.745 7.579 376.948 8.258 376.948 9.028C376.948 9.714 376.78 10.337 376.444 10.897C376.122 11.457 375.653 11.905 375.037 12.241C374.435 12.563 373.693 12.724 372.811 12.724ZM372.811 11.275C373.553 11.275 374.141 11.086 374.575 10.708C375.023 10.316 375.247 9.756 375.247 9.028C375.247 8.314 375.023 7.768 374.575 7.39C374.141 6.998 373.553 6.802 372.811 6.802C372.055 6.802 371.453 6.998 371.005 7.39C370.571 7.768 370.354 8.314 370.354 9.028C370.354 9.756 370.571 10.316 371.005 10.708C371.453 11.086 372.055 11.275 372.811 11.275ZM369.745 17.344C369.745 18.044 370.039 18.562 370.627 18.898C371.215 19.248 371.95 19.423 372.832 19.423C373.7 19.423 374.393 19.234 374.911 18.856C375.443 18.478 375.709 17.974 375.709 17.344C375.709 16.896 375.527 16.504 375.163 16.168C374.799 15.846 374.127 15.657 373.147 15.601C372.377 15.545 371.712 15.475 371.152 15.391C370.578 15.699 370.2 16.028 370.018 16.378C369.836 16.742 369.745 17.064 369.745 17.344ZM385.08 16.252C384.086 16.252 383.204 16.028 382.434 15.58C381.664 15.118 381.055 14.481 380.607 13.669C380.173 12.857 379.956 11.898 379.956 10.792C379.956 9.7 380.173 8.748 380.607 7.936C381.041 7.11 381.643 6.473 382.413 6.025C383.197 5.563 384.1 5.332 385.122 5.332C386.13 5.332 386.998 5.563 387.726 6.025C388.468 6.473 389.035 7.068 389.427 7.81C389.819 8.552 390.015 9.35 390.015 10.204C390.015 10.358 390.008 10.512 389.994 10.666C389.994 10.82 389.994 10.995 389.994 11.191H381.699C381.741 11.989 381.923 12.654 382.245 13.186C382.581 13.704 382.994 14.096 383.484 14.362C383.988 14.628 384.52 14.761 385.08 14.761C385.808 14.761 386.417 14.593 386.907 14.257C387.397 13.921 387.754 13.466 387.978 12.892H389.721C389.441 13.858 388.902 14.663 388.104 15.307C387.32 15.937 386.312 16.252 385.08 16.252ZM385.08 6.823C384.24 6.823 383.491 7.082 382.833 7.6C382.189 8.104 381.818 8.846 381.72 9.826H388.272C388.23 8.888 387.908 8.153 387.306 7.621C386.704 7.089 385.962 6.823 385.08 6.823ZM396.646 16C395.694 16 394.945 15.769 394.399 15.307C393.853 14.845 393.58 14.012 393.58 12.808V7.075H391.774V5.584H393.58L393.811 3.085H395.344V5.584H398.41V7.075H395.344V12.808C395.344 13.466 395.477 13.914 395.743 14.152C396.009 14.376 396.478 14.488 397.15 14.488H398.242V16H396.646ZM410.723 16.252C409.855 16.252 409.134 16.105 408.56 15.811C407.986 15.517 407.559 15.125 407.279 14.635C406.999 14.145 406.859 13.613 406.859 13.039C406.859 11.975 407.265 11.156 408.077 10.582C408.889 10.008 409.995 9.721 411.395 9.721H414.209V9.595C414.209 8.685 413.971 7.999 413.495 7.537C413.019 7.061 412.382 6.823 411.584 6.823C410.898 6.823 410.303 6.998 409.799 7.348C409.309 7.684 409.001 8.181 408.875 8.839H407.069C407.139 8.083 407.391 7.446 407.825 6.928C408.273 6.41 408.826 6.018 409.484 5.752C410.142 5.472 410.842 5.332 411.584 5.332C413.04 5.332 414.132 5.724 414.86 6.508C415.602 7.278 415.973 8.307 415.973 9.595V16H414.398L414.293 14.131C413.999 14.719 413.565 15.223 412.991 15.643C412.431 16.049 411.675 16.252 410.723 16.252ZM410.996 14.761C411.668 14.761 412.242 14.586 412.718 14.236C413.208 13.886 413.579 13.431 413.831 12.871C414.083 12.311 414.209 11.723 414.209 11.107V11.086H411.542C410.506 11.086 409.771 11.268 409.337 11.632C408.917 11.982 408.707 12.423 408.707 12.955C408.707 13.501 408.903 13.942 409.295 14.278C409.701 14.6 410.268 14.761 410.996 14.761ZM419.754 16.105C419.404 16.105 419.11 15.993 418.872 15.769C418.648 15.531 418.536 15.244 418.536 14.908C418.536 14.572 418.648 14.292 418.872 14.068C419.11 13.83 419.404 13.711 419.754 13.711C420.09 13.711 420.37 13.83 420.594 14.068C420.832 14.292 420.951 14.572 420.951 14.908C420.951 15.244 420.832 15.531 420.594 15.769C420.37 15.993 420.09 16.105 419.754 16.105ZM424.38 16.105C424.03 16.105 423.736 15.993 423.498 15.769C423.274 15.531 423.162 15.244 423.162 14.908C423.162 14.572 423.274 14.292 423.498 14.068C423.736 13.83 424.03 13.711 424.38 13.711C424.716 13.711 424.996 13.83 425.22 14.068C425.458 14.292 425.577 14.572 425.577 14.908C425.577 15.244 425.458 15.531 425.22 15.769C424.996 15.993 424.716 16.105 424.38 16.105ZM429.007 16.105C428.657 16.105 428.363 15.993 428.125 15.769C427.901 15.531 427.789 15.244 427.789 14.908C427.789 14.572 427.901 14.292 428.125 14.068C428.363 13.83 428.657 13.711 429.007 13.711C429.343 13.711 429.623 13.83 429.847 14.068C430.085 14.292 430.204 14.572 430.204 14.908C430.204 15.244 430.085 15.531 429.847 15.769C429.623 15.993 429.343 16.105 429.007 16.105Z" fill="black"/>
</svg>
