<svg width="244" height="271" viewBox="0 0 244 271" fill="none" xmlns="http://www.w3.org/2000/svg">
<path d="M19.5436 56.17C16.0076 56.17 12.7836 55.416 9.87165 53.908C7.01165 52.348 4.72365 50.112 3.00765 47.2C1.34365 44.236 0.511648 40.622 0.511648 36.358C0.511648 32.146 1.42165 28.558 3.24165 25.594C5.11365 22.578 7.58365 20.29 10.6516 18.73C13.7716 17.118 17.1776 16.312 20.8697 16.312C23.8857 16.312 26.4337 16.806 28.5136 17.794C30.5936 18.782 32.1796 20.082 33.2717 21.694C34.3637 23.254 34.9097 24.892 34.9097 26.608C34.9097 28.064 34.4677 29.208 33.5836 30.04C32.6997 30.82 31.5557 31.21 30.1516 31.21C28.6437 31.21 27.4217 30.664 26.4857 29.572C25.5496 28.48 25.0036 27.05 24.8477 25.282C24.7956 24.138 24.8216 23.176 24.9256 22.396C25.0296 21.564 25.0296 20.732 24.9256 19.9C24.7176 19.016 24.3796 18.444 23.9116 18.184C23.4956 17.872 22.8976 17.716 22.1177 17.716C18.9456 17.716 16.4756 19.094 14.7076 21.85C12.9916 24.606 12.1336 29 12.1336 35.032C12.1336 40.284 13.0956 44.314 15.0196 47.122C16.9956 49.878 20.0116 51.256 24.0676 51.256C26.5116 51.256 28.4877 50.814 29.9956 49.93C31.5036 49.046 32.9597 47.72 34.3637 45.952L35.1437 46.576C33.8437 49.644 31.8417 52.01 29.1377 53.674C26.4337 55.338 23.2356 56.17 19.5436 56.17ZM37.3008 55V54.22L38.2368 53.908C40.1088 53.284 41.0448 51.984 41.0448 50.008V8.356C41.0448 7.264 40.8628 6.458 40.4988 5.938C40.1348 5.418 39.4328 5.028 38.3928 4.768L37.2228 4.456V3.676L50.9508 0.321997L52.1988 1.024L51.8868 12.022V21.772C53.7068 20.264 55.6568 18.99 57.7368 17.95C59.8688 16.858 62.2088 16.312 64.7568 16.312C68.1368 16.312 70.8148 17.274 72.7908 19.198C74.8188 21.122 75.8328 24.086 75.8328 28.09V50.086C75.8328 51.126 76.0408 51.958 76.4568 52.582C76.8728 53.206 77.6008 53.674 78.6408 53.986L79.2648 54.22V55H61.0128V54.22L61.9488 53.986C63.8208 53.362 64.7568 52.036 64.7568 50.008V25.516C64.7568 23.436 64.3928 22.006 63.6648 21.226C62.9888 20.446 61.7668 20.056 59.9988 20.056C58.8548 20.056 57.6068 20.29 56.2548 20.758C54.9028 21.174 53.5248 21.928 52.1208 23.02V50.164C52.1208 52.192 53.0568 53.492 54.9288 54.064L55.5528 54.22V55H37.3008ZM93.2439 56.17C90.2279 56.17 87.6799 55.312 85.5999 53.596C83.5719 51.88 82.5579 49.41 82.5579 46.186C82.5579 43.742 83.8059 41.506 86.3019 39.478C88.7979 37.398 92.7239 35.838 98.0799 34.798C98.9119 34.642 99.8479 34.486 100.888 34.33C101.928 34.122 103.02 33.914 104.164 33.706V27.544C104.164 24.008 103.722 21.538 102.838 20.134C102.006 18.678 100.68 17.95 98.8599 17.95C97.6119 17.95 96.6239 18.366 95.8959 19.198C95.1679 19.978 94.6999 21.356 94.4919 23.332L94.3359 24.19C94.2319 26.426 93.6859 28.064 92.6979 29.104C91.7099 30.144 90.4879 30.664 89.0319 30.664C87.6799 30.664 86.5619 30.248 85.6779 29.416C84.7939 28.584 84.3519 27.466 84.3519 26.062C84.3519 23.93 85.0799 22.136 86.5359 20.68C88.0439 19.224 90.0199 18.132 92.4639 17.404C94.9079 16.676 97.5599 16.312 100.42 16.312C105.048 16.312 108.61 17.456 111.106 19.744C113.654 21.98 114.928 25.646 114.928 30.742V47.98C114.928 50.32 116.02 51.49 118.204 51.49H119.92L120.622 52.114C119.634 53.362 118.542 54.324 117.346 55C116.202 55.676 114.564 56.014 112.432 56.014C110.144 56.014 108.324 55.494 106.972 54.454C105.672 53.362 104.814 51.932 104.398 50.164C102.838 51.828 101.226 53.258 99.5619 54.454C97.9499 55.598 95.8439 56.17 93.2439 56.17ZM98.0019 51.412C99.0419 51.412 100.004 51.178 100.888 50.71C101.824 50.19 102.916 49.41 104.164 48.37V35.266C103.644 35.37 103.124 35.474 102.604 35.578C102.084 35.682 101.486 35.786 100.81 35.89C98.4179 36.514 96.4939 37.58 95.0379 39.088C93.6339 40.544 92.9319 42.52 92.9319 45.016C92.9319 47.148 93.4259 48.76 94.4139 49.852C95.4019 50.892 96.5979 51.412 98.0019 51.412ZM122.075 55V54.22L123.167 53.908C124.987 53.388 125.897 52.114 125.897 50.086V25.672C125.897 24.528 125.715 23.696 125.351 23.176C124.987 22.604 124.285 22.214 123.245 22.006L122.075 21.694V20.914L135.413 16.39L136.193 17.17L136.817 21.85C138.637 20.238 140.691 18.912 142.979 17.872C145.267 16.832 147.529 16.312 149.765 16.312C153.197 16.312 155.823 17.248 157.643 19.12C159.515 20.992 160.451 23.852 160.451 27.7V50.164C160.451 52.192 161.439 53.466 163.415 53.986L164.117 54.22V55H145.709V54.22L146.723 53.908C148.543 53.336 149.453 52.062 149.453 50.086V25.204C149.453 21.876 147.789 20.212 144.461 20.212C142.173 20.212 139.677 21.356 136.973 23.644V50.164C136.973 52.192 137.883 53.466 139.703 53.986L140.405 54.22V55H122.075ZM184.172 41.506C180.584 41.506 177.542 40.908 175.046 39.712V42.364C175.046 43.976 175.852 44.938 177.464 45.25L192.128 47.98C194.572 48.448 196.782 49.072 198.758 49.852C200.734 50.58 202.32 51.646 203.516 53.05C204.712 54.402 205.31 56.274 205.31 58.666C205.31 61.214 204.478 63.554 202.814 65.686C201.15 67.87 198.68 69.612 195.404 70.912C192.18 72.264 188.15 72.94 183.314 72.94C179.154 72.94 175.852 72.498 173.408 71.614C170.964 70.782 169.222 69.69 168.182 68.338C167.194 66.986 166.7 65.556 166.7 64.048C166.7 62.176 167.324 60.278 168.572 58.354C169.872 56.482 171.458 54.974 173.33 53.83C171.718 53.206 170.548 52.4 169.82 51.412C169.092 50.424 168.728 49.358 168.728 48.214C168.728 47.174 168.988 46.212 169.508 45.328C170.08 44.392 170.756 43.456 171.536 42.52L174.11 39.244C170.314 37.06 168.416 33.628 168.416 28.948C168.416 25.204 169.742 22.162 172.394 19.822C175.098 17.482 179.05 16.312 184.25 16.312C186.902 16.312 189.216 16.624 191.192 17.248C193.22 17.872 194.884 18.756 196.184 19.9C197.848 19.64 199.408 19.224 200.864 18.652C202.372 18.028 203.724 17.196 204.92 16.156L206.012 16.936V20.914H197.198C199.07 22.994 200.006 25.672 200.006 28.948C200.006 32.588 198.654 35.604 195.95 37.996C193.298 40.336 189.372 41.506 184.172 41.506ZM184.094 39.946C186.174 39.946 187.682 39.088 188.618 37.372C189.606 35.656 190.1 32.796 190.1 28.792C190.1 24.788 189.606 21.98 188.618 20.368C187.682 18.704 186.226 17.872 184.25 17.872C182.326 17.872 180.87 18.73 179.882 20.446C178.894 22.11 178.4 24.944 178.4 28.948C178.4 32.952 178.842 35.786 179.726 37.45C180.662 39.114 182.118 39.946 184.094 39.946ZM172.472 61.552C172.472 64.62 173.408 66.934 175.28 68.494C177.204 70.054 180.22 70.834 184.328 70.834C188.644 70.834 191.894 70.132 194.078 68.728C196.262 67.324 197.354 65.348 197.354 62.8C197.354 61.344 196.808 60.174 195.716 59.29C194.676 58.406 192.882 57.73 190.334 57.262L176.216 54.61C175.8 54.506 175.384 54.402 174.968 54.298C174.24 55.338 173.642 56.508 173.174 57.808C172.706 59.16 172.472 60.408 172.472 61.552ZM226.965 16.312C230.345 16.312 233.231 17.014 235.623 18.418C238.015 19.77 239.835 21.642 241.083 24.034C242.383 26.374 243.033 29.052 243.033 32.068C243.033 32.64 243.007 33.238 242.955 33.862C242.903 34.434 242.799 34.954 242.643 35.422H219.399C219.451 41.038 220.439 45.094 222.363 47.59C224.339 50.034 227.251 51.256 231.099 51.256C233.699 51.256 235.805 50.84 237.417 50.008C239.029 49.176 240.537 47.954 241.941 46.342L242.721 47.044C241.109 49.904 238.951 52.14 236.247 53.752C233.595 55.364 230.397 56.17 226.653 56.17C222.961 56.17 219.685 55.39 216.825 53.83C213.965 52.218 211.729 49.93 210.117 46.966C208.505 44.002 207.699 40.466 207.699 36.358C207.699 32.094 208.635 28.48 210.507 25.516C212.379 22.5 214.771 20.212 217.683 18.652C220.647 17.092 223.741 16.312 226.965 16.312ZM226.731 17.872C225.223 17.872 223.923 18.34 222.831 19.276C221.791 20.16 220.959 21.772 220.335 24.112C219.763 26.4 219.451 29.65 219.399 33.862H232.737C233.257 28.194 233.049 24.112 232.113 21.616C231.177 19.12 229.383 17.872 226.731 17.872ZM50.4128 180.72C48.3328 180.72 46.6688 180.2 45.4208 179.16C44.2248 178.12 43.6268 176.794 43.6268 175.182C43.6268 173.726 44.1468 172.556 45.1868 171.672C46.2268 170.788 47.3968 170.346 48.6968 170.346C49.9968 170.346 51.0888 170.606 51.9728 171.126C52.8568 171.698 53.6368 172.504 54.3128 173.544L54.8588 174.168C56.0028 175.728 57.1468 175.702 58.2908 174.09C58.7588 173.31 59.2788 172.27 59.8508 170.97C60.4748 169.722 61.1768 168.032 61.9568 165.9L46.8248 129.708C46.4608 128.72 46.0708 127.94 45.6548 127.368C45.2388 126.744 44.5628 126.224 43.6268 125.808L42.2228 125.262V124.482H61.6448V125.184L60.0848 125.808C58.9408 126.172 58.3428 126.77 58.2908 127.602C58.2908 128.382 58.4988 129.37 58.9148 130.566L67.0268 151.626L74.7488 130.332C75.1648 129.136 75.3208 128.148 75.2168 127.368C75.1128 126.536 74.4628 125.964 73.2668 125.652L71.6288 125.262V124.482H82.4708V125.262L80.7548 125.808C79.5588 126.172 78.7268 126.692 78.2588 127.368C77.7908 128.044 77.3488 128.98 76.9328 130.176L64.3748 164.418C62.3468 169.878 60.3188 173.96 58.2908 176.664C56.2628 179.368 53.6368 180.72 50.4128 180.72ZM102.732 163.17C98.7805 163.17 95.3485 162.364 92.4365 160.752C89.5245 159.088 87.2625 156.748 85.6505 153.732C84.0905 150.716 83.3105 147.18 83.3105 143.124C83.3105 139.068 84.1425 135.558 85.8065 132.594C87.5225 129.63 89.8365 127.342 92.7485 125.73C95.7125 124.118 99.0405 123.312 102.732 123.312C106.424 123.312 109.726 124.118 112.638 125.73C115.55 127.29 117.838 129.552 119.502 132.516C121.218 135.48 122.076 139.016 122.076 143.124C122.076 147.232 121.27 150.794 119.658 153.81C118.098 156.774 115.862 159.088 112.95 160.752C110.09 162.364 106.684 163.17 102.732 163.17ZM102.732 161.61C104.552 161.61 106.008 161.09 107.1 160.05C108.192 159.01 108.972 157.164 109.44 154.512C109.96 151.86 110.22 148.116 110.22 143.28C110.22 138.392 109.96 134.622 109.44 131.97C108.972 129.318 108.192 127.472 107.1 126.432C106.008 125.392 104.552 124.872 102.732 124.872C100.912 124.872 99.4305 125.392 98.2865 126.432C97.1945 127.472 96.3885 129.318 95.8685 131.97C95.4005 134.622 95.1665 138.392 95.1665 143.28C95.1665 148.116 95.4005 151.86 95.8685 154.512C96.3885 157.164 97.1945 159.01 98.2865 160.05C99.4305 161.09 100.912 161.61 102.732 161.61ZM139.316 163.17C137.288 163.17 135.416 162.78 133.7 162C132.036 161.22 130.71 159.972 129.722 158.256C128.786 156.488 128.344 154.174 128.396 151.314L128.63 131.268C128.63 130.072 128.422 129.214 128.006 128.694C127.59 128.174 126.94 127.81 126.056 127.602L125.12 127.29V126.51L139.082 123.78L139.862 124.56L139.472 135.636V154.434C139.472 156.098 139.94 157.32 140.876 158.1C141.864 158.88 143.086 159.27 144.542 159.27C145.998 159.27 147.298 159.062 148.442 158.646C149.586 158.23 150.73 157.606 151.874 156.774L152.186 131.346C152.186 130.15 152.004 129.318 151.64 128.85C151.276 128.33 150.6 127.966 149.612 127.758L148.832 127.524V126.744L162.482 123.78L163.262 124.56L163.028 135.636V156.774C163.028 157.918 163.184 158.802 163.496 159.426C163.808 160.05 164.484 160.57 165.524 160.986L166.304 161.22V162L152.654 162.78L151.952 158.178C150.236 159.582 148.364 160.778 146.336 161.766C144.36 162.702 142.02 163.17 139.316 163.17ZM169.454 162V161.22L170.624 160.908C171.664 160.596 172.366 160.128 172.73 159.504C173.146 158.88 173.354 158.074 173.354 157.086V132.672C173.354 131.528 173.146 130.696 172.73 130.176C172.366 129.604 171.664 129.214 170.624 129.006L169.454 128.694V127.914L182.87 123.39L183.65 124.17L184.352 130.878V131.502C185.08 130.046 186.016 128.72 187.16 127.524C188.356 126.276 189.656 125.262 191.06 124.482C192.516 123.702 193.946 123.312 195.35 123.312C197.326 123.312 198.834 123.858 199.874 124.95C200.914 126.042 201.434 127.42 201.434 129.084C201.434 130.852 200.914 132.23 199.874 133.218C198.886 134.154 197.69 134.622 196.286 134.622C194.102 134.622 192.178 133.53 190.514 131.346L190.358 131.19C189.838 130.462 189.24 130.072 188.564 130.02C187.888 129.916 187.264 130.228 186.692 130.956C186.172 131.424 185.73 131.996 185.366 132.672C185.054 133.296 184.742 134.024 184.43 134.856V156.618C184.43 158.698 185.34 159.998 187.16 160.518L189.656 161.22V162H169.454ZM37.0193 269.234L23.2133 236.084C22.4853 234.316 21.2373 233.146 19.4693 232.574L18.3773 232.262V231.482H38.5793V232.262L37.1753 232.574C35.1473 233.094 34.5233 234.446 35.3033 236.63L43.4933 258.392L51.1373 236.786C51.5533 235.746 51.6573 234.888 51.4493 234.212C51.2413 233.536 50.6173 233.042 49.5773 232.73L47.6273 232.262V231.482H58.9373V232.262L56.6753 232.808C55.6873 233.068 54.9073 233.458 54.3353 233.978C53.8153 234.498 53.3733 235.278 53.0093 236.318L41.5433 269.234H37.0193ZM70.2686 226.256C68.5006 226.256 66.9926 225.71 65.7446 224.618C64.5486 223.474 63.9506 222.044 63.9506 220.328C63.9506 218.56 64.5486 217.13 65.7446 216.038C66.9926 214.946 68.5006 214.4 70.2686 214.4C72.0366 214.4 73.5186 214.946 74.7146 216.038C75.9106 217.13 76.5086 218.56 76.5086 220.328C76.5086 222.044 75.9106 223.474 74.7146 224.618C73.5186 225.71 72.0366 226.256 70.2686 226.256ZM61.0646 269V268.22L62.1566 267.908C63.1966 267.596 63.8986 267.128 64.2626 266.504C64.6786 265.88 64.8866 265.048 64.8866 264.008V239.594C64.8866 238.502 64.6786 237.696 64.2626 237.176C63.8986 236.604 63.1966 236.214 62.1566 236.006L61.0646 235.772V234.992L75.3386 230.39L76.1186 231.17L75.8846 242.246V264.086C75.8846 265.126 76.0666 265.958 76.4306 266.582C76.8466 267.206 77.5486 267.674 78.5366 267.986L79.3166 268.22V269H61.0646ZM96.108 270.014L82.926 269V268.22L83.706 268.064C85.734 267.596 86.748 266.296 86.748 264.164V222.434C86.748 221.342 86.566 220.51 86.202 219.938C85.89 219.366 85.214 218.976 84.174 218.768L83.082 218.456V217.676L96.966 214.322L97.902 215.024L97.59 226.022V233.9C99.306 232.704 101.178 231.82 103.206 231.248C105.234 230.624 107.288 230.312 109.368 230.312C112.332 230.312 114.958 231.014 117.246 232.418C119.534 233.77 121.328 235.902 122.628 238.814C123.98 241.674 124.656 245.366 124.656 249.89C124.656 254.414 123.902 258.184 122.394 261.2C120.938 264.164 118.962 266.4 116.466 267.908C114.022 269.416 111.318 270.17 108.354 270.17C106.43 270.17 104.48 269.91 102.504 269.39C100.58 268.87 98.864 268.142 97.356 267.206L96.108 270.014ZM104.454 267.518C106.118 267.518 107.574 266.998 108.822 265.958C110.07 264.918 111.058 263.15 111.786 260.654C112.514 258.106 112.878 254.622 112.878 250.202C112.878 245.782 112.54 242.376 111.864 239.984C111.188 237.592 110.226 235.928 108.978 234.992C107.782 234.056 106.326 233.588 104.61 233.588C102.166 233.588 99.904 234.264 97.824 235.616V265.568C98.812 266.192 99.826 266.686 100.866 267.05C101.906 267.362 103.102 267.518 104.454 267.518ZM148.127 230.312C151.507 230.312 154.393 231.014 156.785 232.418C159.177 233.77 160.997 235.642 162.245 238.034C163.545 240.374 164.195 243.052 164.195 246.068C164.195 246.64 164.169 247.238 164.117 247.862C164.065 248.434 163.961 248.954 163.805 249.422H140.561C140.613 255.038 141.601 259.094 143.525 261.59C145.501 264.034 148.413 265.256 152.261 265.256C154.861 265.256 156.967 264.84 158.579 264.008C160.191 263.176 161.699 261.954 163.103 260.342L163.883 261.044C162.271 263.904 160.113 266.14 157.409 267.752C154.757 269.364 151.559 270.17 147.815 270.17C144.123 270.17 140.847 269.39 137.987 267.83C135.127 266.218 132.891 263.93 131.279 260.966C129.667 258.002 128.861 254.466 128.861 250.358C128.861 246.094 129.797 242.48 131.669 239.516C133.541 236.5 135.933 234.212 138.845 232.652C141.809 231.092 144.903 230.312 148.127 230.312ZM147.893 231.872C146.385 231.872 145.085 232.34 143.993 233.276C142.953 234.16 142.121 235.772 141.497 238.112C140.925 240.4 140.613 243.65 140.561 247.862H153.899C154.419 242.194 154.211 238.112 153.275 235.616C152.339 233.12 150.545 231.872 147.893 231.872ZM181.576 270.17C179.028 270.17 176.74 269.858 174.712 269.234C172.684 268.662 170.812 267.934 169.096 267.05L169.174 257.768H169.954L172.606 262.448C173.75 264.528 174.998 266.088 176.35 267.128C177.754 268.116 179.522 268.61 181.654 268.61C184.15 268.61 186.152 268.064 187.66 266.972C189.22 265.828 190 264.32 190 262.448C190 260.732 189.454 259.328 188.362 258.236C187.27 257.144 185.242 256.156 182.278 255.272L179.002 254.258C175.83 253.322 173.334 251.866 171.514 249.89C169.694 247.914 168.784 245.496 168.784 242.636C168.784 239.204 170.136 236.292 172.84 233.9C175.544 231.508 179.418 230.312 184.462 230.312C186.49 230.312 188.388 230.546 190.156 231.014C191.976 231.43 193.718 232.08 195.382 232.964L194.914 241.388H194.134L191.404 236.552C190.416 234.836 189.428 233.64 188.44 232.964C187.504 232.236 186.074 231.872 184.15 231.872C182.382 231.872 180.718 232.366 179.158 233.354C177.598 234.342 176.818 235.746 176.818 237.566C176.818 239.334 177.468 240.738 178.768 241.778C180.12 242.818 182.096 243.78 184.696 244.664L188.206 245.678C191.95 246.822 194.628 248.408 196.24 250.436C197.852 252.412 198.658 254.804 198.658 257.612C198.658 261.408 197.15 264.45 194.134 266.738C191.17 269.026 186.984 270.17 181.576 270.17ZM213.064 216.584C214.988 216.584 216.496 217.208 217.588 218.456C218.68 219.652 219.226 221.238 219.226 223.214C219.226 224.826 218.81 227.348 217.978 230.78C217.146 234.16 216.288 237.904 215.404 242.012L213.766 250.202H212.284L210.646 242.012C209.814 238.008 208.982 234.316 208.15 230.936C207.318 227.504 206.902 224.93 206.902 223.214C206.902 221.238 207.448 219.652 208.54 218.456C209.632 217.208 211.14 216.584 213.064 216.584ZM213.064 270.17C211.14 270.17 209.528 269.52 208.228 268.22C206.928 266.92 206.278 265.334 206.278 263.462C206.278 261.642 206.928 260.082 208.228 258.782C209.528 257.43 211.14 256.754 213.064 256.754C214.936 256.754 216.522 257.43 217.822 258.782C219.122 260.082 219.772 261.642 219.772 263.462C219.772 265.334 219.122 266.92 217.822 268.22C216.522 269.52 214.936 270.17 213.064 270.17Z" fill="black"/>
</svg>
