<svg width="76" height="20" viewBox="0 0 76 20" fill="none" xmlns="http://www.w3.org/2000/svg">
<path d="M7.09687 19.312C5.77953 19.312 4.6182 19.026 3.61287 18.454C2.60753 17.882 1.8102 17.0847 1.22087 16.062C0.648867 15.0393 0.362867 13.8693 0.362867 12.552C0.362867 11.2347 0.648867 10.0647 1.22087 9.042C1.8102 8.01933 2.60753 7.222 3.61287 6.65C4.6182 6.078 5.77953 5.792 7.09687 5.792C8.74353 5.792 10.1302 6.22533 11.2569 7.092C12.3835 7.94133 13.1029 9.12 13.4149 10.628H9.90487C9.73153 10.004 9.38487 9.51867 8.86487 9.172C8.3622 8.808 7.7642 8.626 7.07087 8.626C6.1522 8.626 5.3722 8.97267 4.73087 9.666C4.08953 10.3593 3.76887 11.3213 3.76887 12.552C3.76887 13.7827 4.08953 14.7447 4.73087 15.438C5.3722 16.1313 6.1522 16.478 7.07087 16.478C7.7642 16.478 8.3622 16.3047 8.86487 15.958C9.38487 15.6113 9.73153 15.1173 9.90487 14.476H13.4149C13.1029 15.932 12.3835 17.102 11.2569 17.986C10.1302 18.87 8.74353 19.312 7.09687 19.312ZM22.5567 19.312C21.3087 19.312 20.182 19.026 19.1767 18.454C18.1887 17.882 17.4 17.0933 16.8107 16.088C16.2387 15.0653 15.9527 13.8867 15.9527 12.552C15.9527 11.2173 16.2474 10.0473 16.8367 9.042C17.426 8.01933 18.2147 7.222 19.2027 6.65C20.208 6.078 21.3347 5.792 22.5827 5.792C23.8134 5.792 24.9227 6.078 25.9107 6.65C26.916 7.222 27.7047 8.01933 28.2767 9.042C28.866 10.0473 29.1607 11.2173 29.1607 12.552C29.1607 13.8867 28.866 15.0653 28.2767 16.088C27.7047 17.0933 26.916 17.882 25.9107 18.454C24.9054 19.026 23.7874 19.312 22.5567 19.312ZM22.5567 16.426C23.4234 16.426 24.1774 16.1053 24.8187 15.464C25.46 14.8053 25.7807 13.8347 25.7807 12.552C25.7807 11.2693 25.46 10.3073 24.8187 9.666C24.1774 9.00733 23.432 8.678 22.5827 8.678C21.6987 8.678 20.936 9.00733 20.2947 9.666C19.6707 10.3073 19.3587 11.2693 19.3587 12.552C19.3587 13.8347 19.6707 14.8053 20.2947 15.464C20.936 16.1053 21.69 16.426 22.5567 16.426ZM32.1363 19V0.279999H35.4643V19H32.1363ZM45.0528 19.312C43.8048 19.312 42.6781 19.026 41.6728 18.454C40.6848 17.882 39.8961 17.0933 39.3068 16.088C38.7348 15.0653 38.4488 13.8867 38.4488 12.552C38.4488 11.2173 38.7435 10.0473 39.3328 9.042C39.9221 8.01933 40.7108 7.222 41.6988 6.65C42.7041 6.078 43.8308 5.792 45.0788 5.792C46.3095 5.792 47.4188 6.078 48.4068 6.65C49.4121 7.222 50.2008 8.01933 50.7728 9.042C51.3621 10.0473 51.6568 11.2173 51.6568 12.552C51.6568 13.8867 51.3621 15.0653 50.7728 16.088C50.2008 17.0933 49.4121 17.882 48.4068 18.454C47.4015 19.026 46.2835 19.312 45.0528 19.312ZM45.0528 16.426C45.9195 16.426 46.6735 16.1053 47.3148 15.464C47.9561 14.8053 48.2768 13.8347 48.2768 12.552C48.2768 11.2693 47.9561 10.3073 47.3148 9.666C46.6735 9.00733 45.9281 8.678 45.0788 8.678C44.1948 8.678 43.4321 9.00733 42.7908 9.666C42.1668 10.3073 41.8548 11.2693 41.8548 12.552C41.8548 13.8347 42.1668 14.8053 42.7908 15.464C43.4321 16.1053 44.1861 16.426 45.0528 16.426ZM54.6324 19V6.104H57.5964L57.9084 8.522C58.3764 7.69 59.009 7.03133 59.8064 6.546C60.621 6.04333 61.5744 5.792 62.6664 5.792V9.302H61.7304C61.0024 9.302 60.3524 9.41467 59.7804 9.64C59.2084 9.86533 58.7577 10.2553 58.4284 10.81C58.1164 11.3647 57.9604 12.136 57.9604 13.124V19H54.6324ZM70.271 19.312C69.127 19.312 68.1216 19.13 67.255 18.766C66.3883 18.3847 65.695 17.8647 65.175 17.206C64.655 16.5473 64.343 15.7847 64.239 14.918H67.593C67.697 15.4207 67.9743 15.854 68.425 16.218C68.893 16.5647 69.491 16.738 70.219 16.738C70.947 16.738 71.4756 16.5907 71.805 16.296C72.1516 16.0013 72.325 15.6633 72.325 15.282C72.325 14.7273 72.0823 14.3547 71.597 14.164C71.1116 13.956 70.4356 13.7567 69.569 13.566C69.0143 13.4447 68.451 13.2973 67.879 13.124C67.307 12.9507 66.7783 12.734 66.293 12.474C65.825 12.1967 65.4436 11.85 65.149 11.434C64.8543 11.0007 64.707 10.472 64.707 9.848C64.707 8.704 65.1576 7.742 66.059 6.962C66.9776 6.182 68.2603 5.792 69.907 5.792C71.4323 5.792 72.6456 6.14733 73.547 6.858C74.4656 7.56867 75.0116 8.548 75.185 9.796H72.039C71.8483 8.84267 71.129 8.366 69.881 8.366C69.257 8.366 68.7716 8.48733 68.425 8.73C68.0956 8.97267 67.931 9.276 67.931 9.64C67.931 10.0213 68.1823 10.3247 68.685 10.55C69.1876 10.7753 69.855 10.9833 70.687 11.174C71.5883 11.382 72.4116 11.616 73.157 11.876C73.9196 12.1187 74.5263 12.4913 74.977 12.994C75.4276 13.4793 75.653 14.1813 75.653 15.1C75.6703 15.8973 75.4623 16.6167 75.029 17.258C74.5956 17.8993 73.9716 18.402 73.157 18.766C72.3423 19.13 71.3803 19.312 70.271 19.312Z" fill="black"/>
</svg>
