<svg width="149" height="23" viewBox="0 0 149 23" fill="none" xmlns="http://www.w3.org/2000/svg">
<path d="M7.22774 16.312C5.99708 16.312 4.90508 16.0347 3.95174 15.48C2.99841 14.908 2.24441 14.1193 1.68974 13.114C1.15241 12.1087 0.883742 10.9213 0.883742 9.552C0.883742 8.2 1.15241 7.02133 1.68974 6.016C2.22708 4.99333 2.97241 4.20467 3.92574 3.65C4.89641 3.078 6.01441 2.792 7.27974 2.792C8.52774 2.792 9.60241 3.078 10.5037 3.65C11.4224 4.20467 12.1244 4.94133 12.6097 5.86C13.0951 6.77867 13.3377 7.76667 13.3377 8.824C13.3377 9.01467 13.3291 9.20533 13.3117 9.396C13.3117 9.58667 13.3117 9.80333 13.3117 10.046H3.04174C3.09374 11.034 3.31908 11.8573 3.71774 12.516C4.13374 13.1573 4.64508 13.6427 5.25174 13.972C5.87574 14.3013 6.53441 14.466 7.22774 14.466C8.12908 14.466 8.88308 14.258 9.48974 13.842C10.0964 13.426 10.5384 12.8627 10.8157 12.152H12.9737C12.6271 13.348 11.9597 14.3447 10.9717 15.142C10.0011 15.922 8.75308 16.312 7.22774 16.312ZM7.22774 4.638C6.18774 4.638 5.26041 4.95867 4.44574 5.6C3.64841 6.224 3.18908 7.14267 3.06774 8.356H11.1797C11.1277 7.19467 10.7291 6.28467 9.98374 5.626C9.23841 4.96733 8.31974 4.638 7.22774 4.638ZM16.2325 16V3.104H18.2085L18.3385 5.418C18.7545 4.60333 19.3525 3.962 20.1325 3.494C20.9125 3.026 21.7965 2.792 22.7845 2.792C24.3098 2.792 25.5231 3.26 26.4245 4.196C27.3431 5.11467 27.8025 6.536 27.8025 8.46V16H25.6185V8.694C25.6185 6.00733 24.5091 4.664 22.2905 4.664C21.1811 4.664 20.2538 5.07133 19.5085 5.886C18.7805 6.68333 18.4165 7.82733 18.4165 9.318V16H16.2325ZM36.2074 11.944C35.4794 11.944 34.812 11.8487 34.2054 11.658L32.9054 12.88C33.096 13.0187 33.33 13.14 33.6074 13.244C33.902 13.3307 34.318 13.4173 34.8554 13.504C35.3927 13.5733 36.1467 13.6513 37.1174 13.738C38.8507 13.8593 40.09 14.258 40.8354 14.934C41.5807 15.61 41.9534 16.494 41.9534 17.586C41.9534 18.3313 41.7454 19.042 41.3294 19.718C40.9307 20.394 40.3067 20.9487 39.4574 21.382C38.6254 21.8153 37.5507 22.032 36.2334 22.032C35.072 22.032 34.0407 21.876 33.1394 21.564C32.238 21.2693 31.536 20.81 31.0334 20.186C30.5307 19.5793 30.2794 18.808 30.2794 17.872C30.2794 17.3867 30.4094 16.858 30.6694 16.286C30.9294 15.7313 31.4147 15.2027 32.1254 14.7C31.744 14.544 31.4147 14.3793 31.1374 14.206C30.8774 14.0153 30.6347 13.8073 30.4094 13.582V12.984L32.6194 10.8C31.5967 9.93333 31.0854 8.78933 31.0854 7.368C31.0854 6.51867 31.2847 5.74733 31.6834 5.054C32.082 4.36067 32.6627 3.81467 33.4254 3.416C34.188 3 35.1154 2.792 36.2074 2.792C36.9527 2.792 37.6287 2.896 38.2354 3.104H42.9934V4.742L40.5754 4.846C41.078 5.574 41.3294 6.41467 41.3294 7.368C41.3294 8.21733 41.1214 8.98867 40.7054 9.682C40.3067 10.3753 39.7261 10.93 38.9634 11.346C38.218 11.7447 37.2994 11.944 36.2074 11.944ZM36.2074 10.15C37.126 10.15 37.854 9.916 38.3914 9.448C38.946 8.96267 39.2234 8.26933 39.2234 7.368C39.2234 6.484 38.946 5.808 38.3914 5.34C37.854 4.85467 37.126 4.612 36.2074 4.612C35.2714 4.612 34.526 4.85467 33.9714 5.34C33.434 5.808 33.1654 6.484 33.1654 7.368C33.1654 8.26933 33.434 8.96267 33.9714 9.448C34.526 9.916 35.2714 10.15 36.2074 10.15ZM32.4114 17.664C32.4114 18.5307 32.7754 19.172 33.5034 19.588C34.2314 20.0213 35.1414 20.238 36.2334 20.238C37.308 20.238 38.166 20.004 38.8074 19.536C39.4661 19.068 39.7954 18.444 39.7954 17.664C39.7954 17.1093 39.57 16.624 39.1194 16.208C38.6687 15.8093 37.8367 15.5753 36.6234 15.506C35.67 15.4367 34.8467 15.35 34.1534 15.246C33.4427 15.6273 32.9747 16.0347 32.7494 16.468C32.524 16.9187 32.4114 17.3173 32.4114 17.664ZM49.7471 16.312C48.6724 16.312 47.7798 16.13 47.0691 15.766C46.3584 15.402 45.8298 14.9167 45.4831 14.31C45.1364 13.7033 44.9631 13.0447 44.9631 12.334C44.9631 11.0167 45.4658 10.0027 46.4711 9.292C47.4764 8.58133 48.8458 8.226 50.5791 8.226H54.0631V8.07C54.0631 6.94333 53.7684 6.094 53.1791 5.522C52.5898 4.93267 51.8011 4.638 50.8131 4.638C49.9638 4.638 49.2271 4.85467 48.6031 5.288C47.9964 5.704 47.6151 6.31933 47.4591 7.134H45.2231C45.3098 6.198 45.6218 5.40933 46.1591 4.768C46.7138 4.12667 47.3984 3.64133 48.2131 3.312C49.0278 2.96533 49.8944 2.792 50.8131 2.792C52.6158 2.792 53.9678 3.27733 54.8691 4.248C55.7878 5.20133 56.2471 6.47533 56.2471 8.07V16H54.2971L54.1671 13.686C53.8031 14.414 53.2658 15.038 52.5551 15.558C51.8618 16.0607 50.9258 16.312 49.7471 16.312ZM50.0851 14.466C50.9171 14.466 51.6278 14.2493 52.2171 13.816C52.8238 13.3827 53.2831 12.8193 53.5951 12.126C53.9071 11.4327 54.0631 10.7047 54.0631 9.942V9.916H50.7611C49.4784 9.916 48.5684 10.1413 48.0311 10.592C47.5111 11.0253 47.2511 11.5713 47.2511 12.23C47.2511 12.906 47.4938 13.452 47.9791 13.868C48.4818 14.2667 49.1838 14.466 50.0851 14.466ZM64.6195 11.944C63.8915 11.944 63.2242 11.8487 62.6175 11.658L61.3175 12.88C61.5082 13.0187 61.7422 13.14 62.0195 13.244C62.3142 13.3307 62.7302 13.4173 63.2675 13.504C63.8048 13.5733 64.5588 13.6513 65.5295 13.738C67.2628 13.8593 68.5022 14.258 69.2475 14.934C69.9928 15.61 70.3655 16.494 70.3655 17.586C70.3655 18.3313 70.1575 19.042 69.7415 19.718C69.3428 20.394 68.7188 20.9487 67.8695 21.382C67.0375 21.8153 65.9628 22.032 64.6455 22.032C63.4842 22.032 62.4528 21.876 61.5515 21.564C60.6502 21.2693 59.9482 20.81 59.4455 20.186C58.9428 19.5793 58.6915 18.808 58.6915 17.872C58.6915 17.3867 58.8215 16.858 59.0815 16.286C59.3415 15.7313 59.8268 15.2027 60.5375 14.7C60.1562 14.544 59.8268 14.3793 59.5495 14.206C59.2895 14.0153 59.0468 13.8073 58.8215 13.582V12.984L61.0315 10.8C60.0088 9.93333 59.4975 8.78933 59.4975 7.368C59.4975 6.51867 59.6968 5.74733 60.0955 5.054C60.4942 4.36067 61.0748 3.81467 61.8375 3.416C62.6002 3 63.5275 2.792 64.6195 2.792C65.3648 2.792 66.0408 2.896 66.6475 3.104H71.4055V4.742L68.9875 4.846C69.4902 5.574 69.7415 6.41467 69.7415 7.368C69.7415 8.21733 69.5335 8.98867 69.1175 9.682C68.7188 10.3753 68.1382 10.93 67.3755 11.346C66.6302 11.7447 65.7115 11.944 64.6195 11.944ZM64.6195 10.15C65.5382 10.15 66.2662 9.916 66.8035 9.448C67.3582 8.96267 67.6355 8.26933 67.6355 7.368C67.6355 6.484 67.3582 5.808 66.8035 5.34C66.2662 4.85467 65.5382 4.612 64.6195 4.612C63.6835 4.612 62.9382 4.85467 62.3835 5.34C61.8462 5.808 61.5775 6.484 61.5775 7.368C61.5775 8.26933 61.8462 8.96267 62.3835 9.448C62.9382 9.916 63.6835 10.15 64.6195 10.15ZM60.8235 17.664C60.8235 18.5307 61.1875 19.172 61.9155 19.588C62.6435 20.0213 63.5535 20.238 64.6455 20.238C65.7202 20.238 66.5782 20.004 67.2195 19.536C67.8782 19.068 68.2075 18.444 68.2075 17.664C68.2075 17.1093 67.9822 16.624 67.5315 16.208C67.0808 15.8093 66.2488 15.5753 65.0355 15.506C64.0822 15.4367 63.2588 15.35 62.5655 15.246C61.8548 15.6273 61.3868 16.0347 61.1615 16.468C60.9362 16.9187 60.8235 17.3173 60.8235 17.664ZM79.1594 16.312C77.9287 16.312 76.8367 16.0347 75.8834 15.48C74.93 14.908 74.176 14.1193 73.6214 13.114C73.084 12.1087 72.8154 10.9213 72.8154 9.552C72.8154 8.2 73.084 7.02133 73.6214 6.016C74.1587 4.99333 74.904 4.20467 75.8574 3.65C76.828 3.078 77.946 2.792 79.2114 2.792C80.4594 2.792 81.5341 3.078 82.4354 3.65C83.354 4.20467 84.056 4.94133 84.5414 5.86C85.0267 6.77867 85.2694 7.76667 85.2694 8.824C85.2694 9.01467 85.2607 9.20533 85.2434 9.396C85.2434 9.58667 85.2434 9.80333 85.2434 10.046H74.9734C75.0254 11.034 75.2507 11.8573 75.6494 12.516C76.0654 13.1573 76.5767 13.6427 77.1834 13.972C77.8074 14.3013 78.466 14.466 79.1594 14.466C80.0607 14.466 80.8147 14.258 81.4214 13.842C82.0281 13.426 82.4701 12.8627 82.7474 12.152H84.9054C84.5587 13.348 83.8914 14.3447 82.9034 15.142C81.9327 15.922 80.6847 16.312 79.1594 16.312ZM79.1594 4.638C78.1194 4.638 77.192 4.95867 76.3774 5.6C75.58 6.224 75.1207 7.14267 74.9994 8.356H83.1114C83.0594 7.19467 82.6607 6.28467 81.9154 5.626C81.1701 4.96733 80.2514 4.638 79.1594 4.638ZM88.1641 16V3.104H90.1401L90.2961 4.976C90.7121 4.28267 91.2668 3.74533 91.9601 3.364C92.6535 2.98267 93.4335 2.792 94.3001 2.792C95.3228 2.792 96.1981 3 96.9261 3.416C97.6715 3.832 98.2435 4.46467 98.6421 5.314C99.0928 4.534 99.7081 3.91867 100.488 3.468C101.285 3.01733 102.143 2.792 103.062 2.792C104.605 2.792 105.835 3.26 106.754 4.196C107.673 5.11467 108.132 6.536 108.132 8.46V16H105.974V8.694C105.974 7.35933 105.705 6.354 105.168 5.678C104.631 5.002 103.859 4.664 102.854 4.664C101.814 4.664 100.947 5.07133 100.254 5.886C99.5781 6.68333 99.2401 7.82733 99.2401 9.318V16H97.0561V8.694C97.0561 7.35933 96.7875 6.354 96.2501 5.678C95.7128 5.002 94.9415 4.664 93.9361 4.664C92.9135 4.664 92.0555 5.07133 91.3621 5.886C90.6861 6.68333 90.3481 7.82733 90.3481 9.318V16H88.1641ZM117.22 16.312C115.989 16.312 114.897 16.0347 113.944 15.48C112.991 14.908 112.237 14.1193 111.682 13.114C111.145 12.1087 110.876 10.9213 110.876 9.552C110.876 8.2 111.145 7.02133 111.682 6.016C112.219 4.99333 112.965 4.20467 113.918 3.65C114.889 3.078 116.007 2.792 117.272 2.792C118.52 2.792 119.595 3.078 120.496 3.65C121.415 4.20467 122.117 4.94133 122.602 5.86C123.087 6.77867 123.33 7.76667 123.33 8.824C123.33 9.01467 123.321 9.20533 123.304 9.396C123.304 9.58667 123.304 9.80333 123.304 10.046H113.034C113.086 11.034 113.311 11.8573 113.71 12.516C114.126 13.1573 114.637 13.6427 115.244 13.972C115.868 14.3013 116.527 14.466 117.22 14.466C118.121 14.466 118.875 14.258 119.482 13.842C120.089 13.426 120.531 12.8627 120.808 12.152H122.966C122.619 13.348 121.952 14.3447 120.964 15.142C119.993 15.922 118.745 16.312 117.22 16.312ZM117.22 4.638C116.18 4.638 115.253 4.95867 114.438 5.6C113.641 6.224 113.181 7.14267 113.06 8.356H121.172C121.12 7.19467 120.721 6.28467 119.976 5.626C119.231 4.96733 118.312 4.638 117.22 4.638ZM126.225 16V3.104H128.201L128.331 5.418C128.747 4.60333 129.345 3.962 130.125 3.494C130.905 3.026 131.789 2.792 132.777 2.792C134.302 2.792 135.515 3.26 136.417 4.196C137.335 5.11467 137.795 6.536 137.795 8.46V16H135.611V8.694C135.611 6.00733 134.501 4.664 132.283 4.664C131.173 4.664 130.246 5.07133 129.501 5.886C128.773 6.68333 128.409 7.82733 128.409 9.318V16H126.225ZM146.2 16C145.021 16 144.094 15.714 143.418 15.142C142.742 14.57 142.404 13.5387 142.404 12.048V4.95H140.168V3.104H142.404L142.69 0.00999975H144.588V3.104H148.384V4.95H144.588V12.048C144.588 12.8627 144.752 13.4173 145.082 13.712C145.411 13.9893 145.992 14.128 146.824 14.128H148.176V16H146.2Z" fill="#828282"/>
</svg>
