<svg width="408" height="21" viewBox="0 0 408 21" fill="none" xmlns="http://www.w3.org/2000/svg">
<path d="M0.102609 16V0.599999H1.95061V14.526H9.12261V16H0.102609ZM16.0505 16.264C15.0239 16.264 14.0999 16.0293 13.2785 15.56C12.4572 15.0907 11.8045 14.4307 11.3205 13.58C10.8512 12.7147 10.6165 11.7027 10.6165 10.544C10.6165 9.38533 10.8585 8.38067 11.3425 7.53C11.8265 6.66467 12.4792 5.99733 13.3005 5.528C14.1365 5.05867 15.0679 4.824 16.0945 4.824C17.1212 4.824 18.0452 5.05867 18.8665 5.528C19.6879 5.99733 20.3332 6.66467 20.8025 7.53C21.2865 8.38067 21.5285 9.38533 21.5285 10.544C21.5285 11.7027 21.2865 12.7147 20.8025 13.58C20.3185 14.4307 19.6585 15.0907 18.8225 15.56C18.0012 16.0293 17.0772 16.264 16.0505 16.264ZM16.0505 14.68C16.6812 14.68 17.2679 14.526 17.8105 14.218C18.3532 13.91 18.7932 13.448 19.1305 12.832C19.4679 12.216 19.6365 11.4533 19.6365 10.544C19.6365 9.63467 19.4679 8.872 19.1305 8.256C18.8079 7.64 18.3752 7.178 17.8325 6.87C17.2899 6.562 16.7105 6.408 16.0945 6.408C15.4639 6.408 14.8772 6.562 14.3345 6.87C13.7919 7.178 13.3519 7.64 13.0145 8.256C12.6772 8.872 12.5085 9.63467 12.5085 10.544C12.5085 11.4533 12.6772 12.216 13.0145 12.832C13.3519 13.448 13.7845 13.91 14.3125 14.218C14.8552 14.526 15.4345 14.68 16.0505 14.68ZM29.0701 16.264C28.0434 16.264 27.1194 16.0293 26.2981 15.56C25.4767 15.0907 24.8241 14.4307 24.3401 13.58C23.8707 12.7147 23.6361 11.7027 23.6361 10.544C23.6361 9.38533 23.8781 8.38067 24.3621 7.53C24.8461 6.66467 25.4987 5.99733 26.3201 5.528C27.1561 5.05867 28.0874 4.824 29.1141 4.824C30.1407 4.824 31.0647 5.05867 31.8861 5.528C32.7074 5.99733 33.3527 6.66467 33.8221 7.53C34.3061 8.38067 34.5481 9.38533 34.5481 10.544C34.5481 11.7027 34.3061 12.7147 33.8221 13.58C33.3381 14.4307 32.6781 15.0907 31.8421 15.56C31.0207 16.0293 30.0967 16.264 29.0701 16.264ZM29.0701 14.68C29.7007 14.68 30.2874 14.526 30.8301 14.218C31.3727 13.91 31.8127 13.448 32.1501 12.832C32.4874 12.216 32.6561 11.4533 32.6561 10.544C32.6561 9.63467 32.4874 8.872 32.1501 8.256C31.8274 7.64 31.3947 7.178 30.8521 6.87C30.3094 6.562 29.7301 6.408 29.1141 6.408C28.4834 6.408 27.8967 6.562 27.3541 6.87C26.8114 7.178 26.3714 7.64 26.0341 8.256C25.6967 8.872 25.5281 9.63467 25.5281 10.544C25.5281 11.4533 25.6967 12.216 26.0341 12.832C26.3714 13.448 26.8041 13.91 27.3321 14.218C27.8747 14.526 28.4541 14.68 29.0701 14.68ZM37.1176 16V0.159999H38.9656V9.686L43.4316 5.088H45.6976L40.8576 10.016L46.3136 16H43.9596L38.9656 10.346V16H37.1176ZM57.6558 16.264C56.7465 16.264 55.9911 16.11 55.3898 15.802C54.7885 15.494 54.3411 15.0833 54.0478 14.57C53.7545 14.0567 53.6078 13.4993 53.6078 12.898C53.6078 11.7833 54.0331 10.9253 54.8838 10.324C55.7345 9.72267 56.8931 9.422 58.3598 9.422H61.3078V9.29C61.3078 8.33667 61.0585 7.618 60.5598 7.134C60.0611 6.63533 59.3938 6.386 58.5578 6.386C57.8391 6.386 57.2158 6.56933 56.6878 6.936C56.1745 7.288 55.8518 7.80867 55.7198 8.498H53.8278C53.9011 7.706 54.1651 7.03867 54.6198 6.496C55.0891 5.95333 55.6685 5.54267 56.3578 5.264C57.0471 4.97067 57.7805 4.824 58.5578 4.824C60.0831 4.824 61.2271 5.23467 61.9898 6.056C62.7671 6.86267 63.1558 7.94067 63.1558 9.29V16H61.5058L61.3958 14.042C61.0878 14.658 60.6331 15.186 60.0318 15.626C59.4451 16.0513 58.6531 16.264 57.6558 16.264ZM57.9418 14.702C58.6458 14.702 59.2471 14.5187 59.7458 14.152C60.2591 13.7853 60.6478 13.3087 60.9118 12.722C61.1758 12.1353 61.3078 11.5193 61.3078 10.874V10.852H58.5138C57.4285 10.852 56.6585 11.0427 56.2038 11.424C55.7638 11.7907 55.5438 12.2527 55.5438 12.81C55.5438 13.382 55.7491 13.844 56.1598 14.196C56.5851 14.5333 57.1791 14.702 57.9418 14.702ZM69.9394 16C68.942 16 68.1574 15.758 67.5854 15.274C67.0134 14.79 66.7274 13.9173 66.7274 12.656V6.65H64.8354V5.088H66.7274L66.9694 2.47H68.5754V5.088H71.7874V6.65H68.5754V12.656C68.5754 13.3453 68.7147 13.8147 68.9934 14.064C69.272 14.2987 69.7634 14.416 70.4674 14.416H71.6114V16H69.9394ZM82.1575 16L78.9675 5.088H80.8155L83.1255 13.646L85.6775 5.088H87.7675L90.3415 13.646L92.6295 5.088H94.4995L91.3095 16H89.4175L86.7335 7.002L84.0495 16H82.1575ZM96.5434 16V0.159999H98.3914V6.958C98.7581 6.28333 99.2787 5.76267 99.9534 5.396C100.628 5.01467 101.361 4.824 102.153 4.824C103.415 4.824 104.427 5.22 105.189 6.012C105.952 6.78933 106.333 7.992 106.333 9.62V16H104.507V9.818C104.507 7.54467 103.591 6.408 101.757 6.408C100.804 6.408 100.005 6.75267 99.3594 7.442C98.7141 8.11667 98.3914 9.08467 98.3914 10.346V16H96.5434ZM112.763 16.264C111.854 16.264 111.099 16.11 110.497 15.802C109.896 15.494 109.449 15.0833 109.155 14.57C108.862 14.0567 108.715 13.4993 108.715 12.898C108.715 11.7833 109.141 10.9253 109.991 10.324C110.842 9.72267 112.001 9.422 113.467 9.422H116.415V9.29C116.415 8.33667 116.166 7.618 115.667 7.134C115.169 6.63533 114.501 6.386 113.665 6.386C112.947 6.386 112.323 6.56933 111.795 6.936C111.282 7.288 110.959 7.80867 110.827 8.498H108.935C109.009 7.706 109.273 7.03867 109.727 6.496C110.197 5.95333 110.776 5.54267 111.465 5.264C112.155 4.97067 112.888 4.824 113.665 4.824C115.191 4.824 116.335 5.23467 117.097 6.056C117.875 6.86267 118.263 7.94067 118.263 9.29V16H116.613L116.503 14.042C116.195 14.658 115.741 15.186 115.139 15.626C114.553 16.0513 113.761 16.264 112.763 16.264ZM113.049 14.702C113.753 14.702 114.355 14.5187 114.853 14.152C115.367 13.7853 115.755 13.3087 116.019 12.722C116.283 12.1353 116.415 11.5193 116.415 10.874V10.852H113.621C112.536 10.852 111.766 11.0427 111.311 11.424C110.871 11.7907 110.651 12.2527 110.651 12.81C110.651 13.382 110.857 13.844 111.267 14.196C111.693 14.5333 112.287 14.702 113.049 14.702ZM125.047 16C124.049 16 123.265 15.758 122.693 15.274C122.121 14.79 121.835 13.9173 121.835 12.656V6.65H119.943V5.088H121.835L122.077 2.47H123.683V5.088H126.895V6.65H123.683V12.656C123.683 13.3453 123.822 13.8147 124.101 14.064C124.379 14.2987 124.871 14.416 125.575 14.416H126.719V16H125.047ZM137.265 16L134.075 5.088H135.923L138.233 13.646L140.785 5.088H142.875L145.449 13.646L147.737 5.088H149.607L146.417 16H144.525L141.841 7.002L139.157 16H137.265ZM154.894 16.264C153.985 16.264 153.229 16.11 152.628 15.802C152.027 15.494 151.579 15.0833 151.286 14.57C150.993 14.0567 150.846 13.4993 150.846 12.898C150.846 11.7833 151.271 10.9253 152.122 10.324C152.973 9.72267 154.131 9.422 155.598 9.422H158.546V9.29C158.546 8.33667 158.297 7.618 157.798 7.134C157.299 6.63533 156.632 6.386 155.796 6.386C155.077 6.386 154.454 6.56933 153.926 6.936C153.413 7.288 153.09 7.80867 152.958 8.498H151.066C151.139 7.706 151.403 7.03867 151.858 6.496C152.327 5.95333 152.907 5.54267 153.596 5.264C154.285 4.97067 155.019 4.824 155.796 4.824C157.321 4.824 158.465 5.23467 159.228 6.056C160.005 6.86267 160.394 7.94067 160.394 9.29V16H158.744L158.634 14.042C158.326 14.658 157.871 15.186 157.27 15.626C156.683 16.0513 155.891 16.264 154.894 16.264ZM155.18 14.702C155.884 14.702 156.485 14.5187 156.984 14.152C157.497 13.7853 157.886 13.3087 158.15 12.722C158.414 12.1353 158.546 11.5193 158.546 10.874V10.852H155.752C154.667 10.852 153.897 11.0427 153.442 11.424C153.002 11.7907 152.782 12.2527 152.782 12.81C152.782 13.382 152.987 13.844 153.398 14.196C153.823 14.5333 154.417 14.702 155.18 14.702ZM167.346 16.264C166.041 16.264 164.956 15.934 164.09 15.274C163.225 14.614 162.719 13.7193 162.572 12.59H164.464C164.582 13.162 164.882 13.6607 165.366 14.086C165.865 14.4967 166.532 14.702 167.368 14.702C168.146 14.702 168.718 14.5407 169.084 14.218C169.451 13.8807 169.634 13.4847 169.634 13.03C169.634 12.37 169.392 11.93 168.908 11.71C168.439 11.49 167.772 11.292 166.906 11.116C166.32 10.9987 165.733 10.83 165.146 10.61C164.56 10.39 164.068 10.082 163.672 9.686C163.276 9.27533 163.078 8.74 163.078 8.08C163.078 7.12667 163.43 6.34933 164.134 5.748C164.853 5.132 165.821 4.824 167.038 4.824C168.197 4.824 169.143 5.11733 169.876 5.704C170.624 6.276 171.057 7.09733 171.174 8.168H169.348C169.275 7.61067 169.033 7.178 168.622 6.87C168.226 6.54733 167.691 6.386 167.016 6.386C166.356 6.386 165.843 6.52533 165.476 6.804C165.124 7.08267 164.948 7.44933 164.948 7.904C164.948 8.344 165.176 8.68867 165.63 8.938C166.1 9.18733 166.73 9.4 167.522 9.576C168.197 9.72267 168.835 9.906 169.436 10.126C170.052 10.3313 170.551 10.6467 170.932 11.072C171.328 11.4827 171.526 12.084 171.526 12.876C171.541 13.8587 171.167 14.6727 170.404 15.318C169.656 15.9487 168.637 16.264 167.346 16.264ZM181.111 2.668C180.744 2.668 180.436 2.55067 180.187 2.316C179.952 2.06667 179.835 1.75867 179.835 1.392C179.835 1.04 179.952 0.746666 180.187 0.511999C180.436 0.277333 180.744 0.159999 181.111 0.159999C181.463 0.159999 181.763 0.277333 182.013 0.511999C182.262 0.746666 182.387 1.04 182.387 1.392C182.387 1.75867 182.262 2.06667 182.013 2.316C181.763 2.55067 181.463 2.668 181.111 2.668ZM180.187 16V5.088H182.035V16H180.187ZM185.252 16V5.088H186.924L187.034 7.046C187.386 6.35667 187.892 5.814 188.552 5.418C189.212 5.022 189.96 4.824 190.796 4.824C192.087 4.824 193.114 5.22 193.876 6.012C194.654 6.78933 195.042 7.992 195.042 9.62V16H193.194V9.818C193.194 7.54467 192.256 6.408 190.378 6.408C189.44 6.408 188.655 6.75267 188.024 7.442C187.408 8.11667 187.1 9.08467 187.1 10.346V16H185.252ZM204.852 20.84L207.558 14.944H206.92L202.586 5.088H204.588L208.196 13.58L212.024 5.088H213.938L206.788 20.84H204.852ZM219.83 16.264C218.803 16.264 217.879 16.0293 217.058 15.56C216.237 15.0907 215.584 14.4307 215.1 13.58C214.631 12.7147 214.396 11.7027 214.396 10.544C214.396 9.38533 214.638 8.38067 215.122 7.53C215.606 6.66467 216.259 5.99733 217.08 5.528C217.916 5.05867 218.847 4.824 219.874 4.824C220.901 4.824 221.825 5.05867 222.646 5.528C223.467 5.99733 224.113 6.66467 224.582 7.53C225.066 8.38067 225.308 9.38533 225.308 10.544C225.308 11.7027 225.066 12.7147 224.582 13.58C224.098 14.4307 223.438 15.0907 222.602 15.56C221.781 16.0293 220.857 16.264 219.83 16.264ZM219.83 14.68C220.461 14.68 221.047 14.526 221.59 14.218C222.133 13.91 222.573 13.448 222.91 12.832C223.247 12.216 223.416 11.4533 223.416 10.544C223.416 9.63467 223.247 8.872 222.91 8.256C222.587 7.64 222.155 7.178 221.612 6.87C221.069 6.562 220.49 6.408 219.874 6.408C219.243 6.408 218.657 6.562 218.114 6.87C217.571 7.178 217.131 7.64 216.794 8.256C216.457 8.872 216.288 9.63467 216.288 10.544C216.288 11.4533 216.457 12.216 216.794 12.832C217.131 13.448 217.564 13.91 218.092 14.218C218.635 14.526 219.214 14.68 219.83 14.68ZM231.859 16.264C230.569 16.264 229.542 15.8753 228.779 15.098C228.017 14.306 227.635 13.096 227.635 11.468V5.088H229.483V11.27C229.483 13.5433 230.415 14.68 232.277 14.68C233.231 14.68 234.015 14.3427 234.631 13.668C235.262 12.9787 235.577 12.0033 235.577 10.742V5.088H237.425V16H235.753L235.621 14.042C235.284 14.7313 234.778 15.274 234.103 15.67C233.443 16.066 232.695 16.264 231.859 16.264ZM240.467 16V5.088H242.139L242.293 7.178C242.631 6.45933 243.144 5.88733 243.833 5.462C244.523 5.03667 245.373 4.824 246.385 4.824V6.76H245.879C245.234 6.76 244.64 6.87733 244.097 7.112C243.555 7.332 243.122 7.71333 242.799 8.256C242.477 8.79867 242.315 9.54667 242.315 10.5V16H240.467ZM258.594 16C257.596 16 256.812 15.758 256.24 15.274C255.668 14.79 255.382 13.9173 255.382 12.656V6.65H253.49V5.088H255.382L255.624 2.47H257.23V5.088H260.442V6.65H257.23V12.656C257.23 13.3453 257.369 13.8147 257.648 14.064C257.926 14.2987 258.418 14.416 259.122 14.416H260.266V16H258.594ZM267.461 16.264C266.434 16.264 265.51 16.0293 264.689 15.56C263.867 15.0907 263.215 14.4307 262.731 13.58C262.261 12.7147 262.027 11.7027 262.027 10.544C262.027 9.38533 262.269 8.38067 262.753 7.53C263.237 6.66467 263.889 5.99733 264.711 5.528C265.547 5.05867 266.478 4.824 267.505 4.824C268.531 4.824 269.455 5.05867 270.277 5.528C271.098 5.99733 271.743 6.66467 272.213 7.53C272.697 8.38067 272.939 9.38533 272.939 10.544C272.939 11.7027 272.697 12.7147 272.213 13.58C271.729 14.4307 271.069 15.0907 270.233 15.56C269.411 16.0293 268.487 16.264 267.461 16.264ZM267.461 14.68C268.091 14.68 268.678 14.526 269.221 14.218C269.763 13.91 270.203 13.448 270.541 12.832C270.878 12.216 271.047 11.4533 271.047 10.544C271.047 9.63467 270.878 8.872 270.541 8.256C270.218 7.64 269.785 7.178 269.243 6.87C268.7 6.562 268.121 6.408 267.505 6.408C266.874 6.408 266.287 6.562 265.745 6.87C265.202 7.178 264.762 7.64 264.425 8.256C264.087 8.872 263.919 9.63467 263.919 10.544C263.919 11.4533 264.087 12.216 264.425 12.832C264.762 13.448 265.195 13.91 265.723 14.218C266.265 14.526 266.845 14.68 267.461 14.68ZM275.508 20.84V5.088H277.18L277.356 6.892C277.708 6.364 278.207 5.88733 278.852 5.462C279.512 5.03667 280.348 4.824 281.36 4.824C282.446 4.824 283.392 5.07333 284.198 5.572C285.005 6.07067 285.628 6.75267 286.068 7.618C286.523 8.48333 286.75 9.466 286.75 10.566C286.75 11.666 286.523 12.6487 286.068 13.514C285.628 14.3647 284.998 15.0393 284.176 15.538C283.37 16.022 282.424 16.264 281.338 16.264C280.444 16.264 279.644 16.0807 278.94 15.714C278.251 15.3473 277.723 14.834 277.356 14.174V20.84H275.508ZM281.14 14.658C281.874 14.658 282.519 14.4893 283.076 14.152C283.634 13.8 284.074 13.316 284.396 12.7C284.719 12.084 284.88 11.3653 284.88 10.544C284.88 9.72267 284.719 9.004 284.396 8.388C284.074 7.772 283.634 7.29533 283.076 6.958C282.519 6.606 281.874 6.43 281.14 6.43C280.407 6.43 279.762 6.606 279.204 6.958C278.647 7.29533 278.207 7.772 277.884 8.388C277.562 9.004 277.4 9.72267 277.4 10.544C277.4 11.3653 277.562 12.084 277.884 12.7C278.207 13.316 278.647 13.8 279.204 14.152C279.762 14.4893 280.407 14.658 281.14 14.658ZM295.145 16V0.159999H296.993V16H295.145ZM301.144 2.668C300.777 2.668 300.469 2.55067 300.22 2.316C299.985 2.06667 299.868 1.75867 299.868 1.392C299.868 1.04 299.985 0.746666 300.22 0.511999C300.469 0.277333 300.777 0.159999 301.144 0.159999C301.496 0.159999 301.797 0.277333 302.046 0.511999C302.295 0.746666 302.42 1.04 302.42 1.392C302.42 1.75867 302.295 2.06667 302.046 2.316C301.797 2.55067 301.496 2.668 301.144 2.668ZM300.22 16V5.088H302.068V16H300.22ZM305.286 16V0.159999H307.134V9.686L311.6 5.088H313.866L309.026 10.016L314.482 16H312.128L307.134 10.346V16H305.286ZM320.483 16.264C319.441 16.264 318.517 16.0293 317.711 15.56C316.904 15.076 316.266 14.4087 315.797 13.558C315.342 12.7073 315.115 11.7027 315.115 10.544C315.115 9.4 315.342 8.40267 315.797 7.552C316.251 6.68667 316.882 6.01933 317.689 5.55C318.51 5.066 319.456 4.824 320.527 4.824C321.583 4.824 322.492 5.066 323.255 5.55C324.032 6.01933 324.626 6.64267 325.037 7.42C325.447 8.19733 325.653 9.03333 325.653 9.928C325.653 10.0893 325.645 10.2507 325.631 10.412C325.631 10.5733 325.631 10.7567 325.631 10.962H316.941C316.985 11.798 317.175 12.4947 317.513 13.052C317.865 13.5947 318.297 14.0053 318.811 14.284C319.339 14.5627 319.896 14.702 320.483 14.702C321.245 14.702 321.883 14.526 322.397 14.174C322.91 13.822 323.284 13.3453 323.519 12.744H325.345C325.051 13.756 324.487 14.5993 323.651 15.274C322.829 15.934 321.773 16.264 320.483 16.264ZM320.483 6.386C319.603 6.386 318.818 6.65733 318.129 7.2C317.454 7.728 317.065 8.50533 316.963 9.532H323.827C323.783 8.54933 323.445 7.77933 322.815 7.222C322.184 6.66467 321.407 6.386 320.483 6.386ZM333.052 16.264C331.967 16.264 331.013 16.0147 330.192 15.516C329.385 15.0173 328.755 14.3353 328.3 13.47C327.86 12.6047 327.64 11.622 327.64 10.522C327.64 9.422 327.867 8.44667 328.322 7.596C328.777 6.73067 329.407 6.056 330.214 5.572C331.021 5.07333 331.974 4.824 333.074 4.824C333.969 4.824 334.761 5.00733 335.45 5.374C336.139 5.74067 336.675 6.254 337.056 6.914V0.159999H338.904V16H337.232L337.056 14.196C336.704 14.724 336.198 15.2007 335.538 15.626C334.878 16.0513 334.049 16.264 333.052 16.264ZM333.25 14.658C333.983 14.658 334.629 14.4893 335.186 14.152C335.758 13.8 336.198 13.316 336.506 12.7C336.829 12.084 336.99 11.3653 336.99 10.544C336.99 9.72267 336.829 9.004 336.506 8.388C336.198 7.772 335.758 7.29533 335.186 6.958C334.629 6.606 333.983 6.43 333.25 6.43C332.531 6.43 331.886 6.606 331.314 6.958C330.757 7.29533 330.317 7.772 329.994 8.388C329.686 9.004 329.532 9.72267 329.532 10.544C329.532 11.3653 329.686 12.084 329.994 12.7C330.317 13.316 330.757 13.8 331.314 14.152C331.886 14.4893 332.531 14.658 333.25 14.658ZM347.739 20.84V5.088H349.411L349.587 6.892C349.939 6.364 350.437 5.88733 351.083 5.462C351.743 5.03667 352.579 4.824 353.591 4.824C354.676 4.824 355.622 5.07333 356.429 5.572C357.235 6.07067 357.859 6.75267 358.299 7.618C358.753 8.48333 358.981 9.466 358.981 10.566C358.981 11.666 358.753 12.6487 358.299 13.514C357.859 14.3647 357.228 15.0393 356.407 15.538C355.6 16.022 354.654 16.264 353.569 16.264C352.674 16.264 351.875 16.0807 351.171 15.714C350.481 15.3473 349.953 14.834 349.587 14.174V20.84H347.739ZM353.371 14.658C354.104 14.658 354.749 14.4893 355.307 14.152C355.864 13.8 356.304 13.316 356.627 12.7C356.949 12.084 357.111 11.3653 357.111 10.544C357.111 9.72267 356.949 9.004 356.627 8.388C356.304 7.772 355.864 7.29533 355.307 6.958C354.749 6.606 354.104 6.43 353.371 6.43C352.637 6.43 351.992 6.606 351.435 6.958C350.877 7.29533 350.437 7.772 350.115 8.388C349.792 9.004 349.631 9.72267 349.631 10.544C349.631 11.3653 349.792 12.084 350.115 12.7C350.437 13.316 350.877 13.8 351.435 14.152C351.992 14.4893 352.637 14.658 353.371 14.658ZM366.525 16.264C365.498 16.264 364.574 16.0293 363.753 15.56C362.932 15.0907 362.279 14.4307 361.795 13.58C361.326 12.7147 361.091 11.7027 361.091 10.544C361.091 9.38533 361.333 8.38067 361.817 7.53C362.301 6.66467 362.954 5.99733 363.775 5.528C364.611 5.05867 365.542 4.824 366.569 4.824C367.596 4.824 368.52 5.05867 369.341 5.528C370.162 5.99733 370.808 6.66467 371.277 7.53C371.761 8.38067 372.003 9.38533 372.003 10.544C372.003 11.7027 371.761 12.7147 371.277 13.58C370.793 14.4307 370.133 15.0907 369.297 15.56C368.476 16.0293 367.552 16.264 366.525 16.264ZM366.525 14.68C367.156 14.68 367.742 14.526 368.285 14.218C368.828 13.91 369.268 13.448 369.605 12.832C369.942 12.216 370.111 11.4533 370.111 10.544C370.111 9.63467 369.942 8.872 369.605 8.256C369.282 7.64 368.85 7.178 368.307 6.87C367.764 6.562 367.185 6.408 366.569 6.408C365.938 6.408 365.352 6.562 364.809 6.87C364.266 7.178 363.826 7.64 363.489 8.256C363.152 8.872 362.983 9.63467 362.983 10.544C362.983 11.4533 363.152 12.216 363.489 12.832C363.826 13.448 364.259 13.91 364.787 14.218C365.33 14.526 365.909 14.68 366.525 14.68ZM378.753 16.264C377.447 16.264 376.362 15.934 375.497 15.274C374.631 14.614 374.125 13.7193 373.979 12.59H375.871C375.988 13.162 376.289 13.6607 376.773 14.086C377.271 14.4967 377.939 14.702 378.775 14.702C379.552 14.702 380.124 14.5407 380.491 14.218C380.857 13.8807 381.041 13.4847 381.041 13.03C381.041 12.37 380.799 11.93 380.315 11.71C379.845 11.49 379.178 11.292 378.313 11.116C377.726 10.9987 377.139 10.83 376.553 10.61C375.966 10.39 375.475 10.082 375.079 9.686C374.683 9.27533 374.485 8.74 374.485 8.08C374.485 7.12667 374.837 6.34933 375.541 5.748C376.259 5.132 377.227 4.824 378.445 4.824C379.603 4.824 380.549 5.11733 381.283 5.704C382.031 6.276 382.463 7.09733 382.581 8.168H380.755C380.681 7.61067 380.439 7.178 380.029 6.87C379.633 6.54733 379.097 6.386 378.423 6.386C377.763 6.386 377.249 6.52533 376.883 6.804C376.531 7.08267 376.355 7.44933 376.355 7.904C376.355 8.344 376.582 8.68867 377.037 8.938C377.506 9.18733 378.137 9.4 378.929 9.576C379.603 9.72267 380.241 9.906 380.843 10.126C381.459 10.3313 381.957 10.6467 382.339 11.072C382.735 11.4827 382.933 12.084 382.933 12.876C382.947 13.8587 382.573 14.6727 381.811 15.318C381.063 15.9487 380.043 16.264 378.753 16.264ZM389.391 16C388.393 16 387.609 15.758 387.037 15.274C386.465 14.79 386.179 13.9173 386.179 12.656V6.65H384.287V5.088H386.179L386.421 2.47H388.027V5.088H391.239V6.65H388.027V12.656C388.027 13.3453 388.166 13.8147 388.445 14.064C388.723 14.2987 389.215 14.416 389.919 14.416H391.063V16H389.391ZM397.766 16.264C396.461 16.264 395.376 15.934 394.51 15.274C393.645 14.614 393.139 13.7193 392.992 12.59H394.884C395.002 13.162 395.302 13.6607 395.786 14.086C396.285 14.4967 396.952 14.702 397.788 14.702C398.566 14.702 399.138 14.5407 399.504 14.218C399.871 13.8807 400.054 13.4847 400.054 13.03C400.054 12.37 399.812 11.93 399.328 11.71C398.859 11.49 398.192 11.292 397.326 11.116C396.74 10.9987 396.153 10.83 395.566 10.61C394.98 10.39 394.488 10.082 394.092 9.686C393.696 9.27533 393.498 8.74 393.498 8.08C393.498 7.12667 393.85 6.34933 394.554 5.748C395.273 5.132 396.241 4.824 397.458 4.824C398.617 4.824 399.563 5.11733 400.296 5.704C401.044 6.276 401.477 7.09733 401.594 8.168H399.768C399.695 7.61067 399.453 7.178 399.042 6.87C398.646 6.54733 398.111 6.386 397.436 6.386C396.776 6.386 396.263 6.52533 395.896 6.804C395.544 7.08267 395.368 7.44933 395.368 7.904C395.368 8.344 395.596 8.68867 396.05 8.938C396.52 9.18733 397.15 9.4 397.942 9.576C398.617 9.72267 399.255 9.906 399.856 10.126C400.472 10.3313 400.971 10.6467 401.352 11.072C401.748 11.4827 401.946 12.084 401.946 12.876C401.961 13.8587 401.587 14.6727 400.824 15.318C400.076 15.9487 399.057 16.264 397.766 16.264ZM404.982 11.732L404.762 0.599999H406.764L406.544 11.732H404.982ZM405.818 16.11C405.452 16.11 405.144 15.9927 404.894 15.758C404.66 15.5087 404.542 15.208 404.542 14.856C404.542 14.504 404.66 14.2107 404.894 13.976C405.144 13.7267 405.452 13.602 405.818 13.602C406.17 13.602 406.464 13.7267 406.698 13.976C406.948 14.2107 407.072 14.504 407.072 14.856C407.072 15.208 406.948 15.5087 406.698 15.758C406.464 15.9927 406.17 16.11 405.818 16.11Z" fill="black"/>
</svg>
