<svg width="106" height="19" viewBox="0 0 106 19" fill="none" xmlns="http://www.w3.org/2000/svg">
<path d="M6.22285 18.3C5.03952 18.3 3.98952 18.0333 3.07285 17.5C2.15619 16.95 1.43119 16.1917 0.897852 15.225C0.381185 14.2583 0.122852 13.1167 0.122852 11.8C0.122852 10.5 0.381185 9.36667 0.897852 8.4C1.41452 7.41667 2.13119 6.65833 3.04785 6.125C3.98119 5.575 5.05619 5.3 6.27285 5.3C7.47285 5.3 8.50619 5.575 9.37285 6.125C10.2562 6.65833 10.9312 7.36667 11.3979 8.25C11.8645 9.13333 12.0979 10.0833 12.0979 11.1C12.0979 11.2833 12.0895 11.4667 12.0729 11.65C12.0729 11.8333 12.0729 12.0417 12.0729 12.275H2.19785C2.24785 13.225 2.46452 14.0167 2.84785 14.65C3.24785 15.2667 3.73952 15.7333 4.32285 16.05C4.92285 16.3667 5.55619 16.525 6.22285 16.525C7.08952 16.525 7.81452 16.325 8.39785 15.925C8.98119 15.525 9.40619 14.9833 9.67285 14.3H11.7479C11.4145 15.45 10.7729 16.4083 9.82285 17.175C8.88952 17.925 7.68952 18.3 6.22285 18.3ZM6.22285 7.075C5.22285 7.075 4.33119 7.38333 3.54785 8C2.78119 8.6 2.33952 9.48333 2.22285 10.65H10.0229C9.97285 9.53333 9.58952 8.65833 8.87285 8.025C8.15619 7.39167 7.27285 7.075 6.22285 7.075ZM14.8813 18V5.6H16.7813L16.9313 7.4C17.3313 6.73333 17.8646 6.21667 18.5313 5.85C19.1979 5.48333 19.9479 5.3 20.7813 5.3C21.7646 5.3 22.6063 5.5 23.3063 5.9C24.0229 6.3 24.5729 6.90833 24.9563 7.725C25.3896 6.975 25.9813 6.38333 26.7313 5.95C27.4979 5.51667 28.3229 5.3 29.2063 5.3C30.6896 5.3 31.8729 5.75 32.7563 6.65C33.6396 7.53333 34.0813 8.9 34.0813 10.75V18H32.0063V10.975C32.0063 9.69167 31.7479 8.725 31.2313 8.075C30.7146 7.425 29.9729 7.1 29.0063 7.1C28.0063 7.1 27.1729 7.49167 26.5063 8.275C25.8563 9.04167 25.5313 10.1417 25.5313 11.575V18H23.4313V10.975C23.4313 9.69167 23.1729 8.725 22.6563 8.075C22.1396 7.425 21.3979 7.1 20.4313 7.1C19.4479 7.1 18.6229 7.49167 17.9563 8.275C17.3063 9.04167 16.9813 10.1417 16.9813 11.575V18H14.8813ZM42.8945 18.3C41.7279 18.3 40.6779 18.0333 39.7445 17.5C38.8112 16.9667 38.0695 16.2167 37.5195 15.25C36.9862 14.2667 36.7195 13.1167 36.7195 11.8C36.7195 10.4833 36.9945 9.34167 37.5445 8.375C38.0945 7.39167 38.8362 6.63333 39.7695 6.1C40.7195 5.56667 41.7779 5.3 42.9445 5.3C44.1112 5.3 45.1612 5.56667 46.0945 6.1C47.0279 6.63333 47.7612 7.39167 48.2945 8.375C48.8445 9.34167 49.1195 10.4833 49.1195 11.8C49.1195 13.1167 48.8445 14.2667 48.2945 15.25C47.7445 16.2167 46.9945 16.9667 46.0445 17.5C45.1112 18.0333 44.0612 18.3 42.8945 18.3ZM42.8945 16.5C43.6112 16.5 44.2779 16.325 44.8945 15.975C45.5112 15.625 46.0112 15.1 46.3945 14.4C46.7779 13.7 46.9695 12.8333 46.9695 11.8C46.9695 10.7667 46.7779 9.9 46.3945 9.2C46.0279 8.5 45.5362 7.975 44.9195 7.625C44.3029 7.275 43.6445 7.1 42.9445 7.1C42.2279 7.1 41.5612 7.275 40.9445 7.625C40.3279 7.975 39.8279 8.5 39.4445 9.2C39.0612 9.9 38.8695 10.7667 38.8695 11.8C38.8695 12.8333 39.0612 13.7 39.4445 14.4C39.8279 15.1 40.3195 15.625 40.9195 15.975C41.5362 16.325 42.1945 16.5 42.8945 16.5ZM56.4512 18C55.3178 18 54.4262 17.725 53.7762 17.175C53.1262 16.625 52.8012 15.6333 52.8012 14.2V7.375H50.6512V5.6H52.8012L53.0762 2.625H54.9012V5.6H58.5512V7.375H54.9012V14.2C54.9012 14.9833 55.0595 15.5167 55.3762 15.8C55.6928 16.0667 56.2512 16.2 57.0512 16.2H58.3512V18H56.4512ZM62.4941 2.85C62.0775 2.85 61.7275 2.71667 61.4441 2.45C61.1775 2.16667 61.0441 1.81667 61.0441 1.4C61.0441 0.999999 61.1775 0.666666 61.4441 0.399999C61.7275 0.133332 62.0775 -7.15256e-07 62.4941 -7.15256e-07C62.8941 -7.15256e-07 63.2358 0.133332 63.5191 0.399999C63.8025 0.666666 63.9441 0.999999 63.9441 1.4C63.9441 1.81667 63.8025 2.16667 63.5191 2.45C63.2358 2.71667 62.8941 2.85 62.4941 2.85ZM61.4441 18V5.6H63.5441V18H61.4441ZM72.8506 18.3C71.6839 18.3 70.6339 18.0333 69.7006 17.5C68.7673 16.9667 68.0256 16.2167 67.4756 15.25C66.9423 14.2667 66.6756 13.1167 66.6756 11.8C66.6756 10.4833 66.9506 9.34167 67.5006 8.375C68.0506 7.39167 68.7923 6.63333 69.7256 6.1C70.6756 5.56667 71.7339 5.3 72.9006 5.3C74.0673 5.3 75.1173 5.56667 76.0506 6.1C76.9839 6.63333 77.7173 7.39167 78.2506 8.375C78.8006 9.34167 79.0756 10.4833 79.0756 11.8C79.0756 13.1167 78.8006 14.2667 78.2506 15.25C77.7006 16.2167 76.9506 16.9667 76.0006 17.5C75.0673 18.0333 74.0173 18.3 72.8506 18.3ZM72.8506 16.5C73.5673 16.5 74.2339 16.325 74.8506 15.975C75.4673 15.625 75.9673 15.1 76.3506 14.4C76.7339 13.7 76.9256 12.8333 76.9256 11.8C76.9256 10.7667 76.7339 9.9 76.3506 9.2C75.9839 8.5 75.4923 7.975 74.8756 7.625C74.2589 7.275 73.6006 7.1 72.9006 7.1C72.1839 7.1 71.5173 7.275 70.9006 7.625C70.2839 7.975 69.7839 8.5 69.4006 9.2C69.0173 9.9 68.8256 10.7667 68.8256 11.8C68.8256 12.8333 69.0173 13.7 69.4006 14.4C69.7839 15.1 70.2756 15.625 70.8756 15.975C71.4923 16.325 72.1506 16.5 72.8506 16.5ZM81.9955 18V5.6H83.8955L84.0205 7.825C84.4205 7.04167 84.9955 6.425 85.7455 5.975C86.4955 5.525 87.3455 5.3 88.2955 5.3C89.7622 5.3 90.9288 5.75 91.7955 6.65C92.6788 7.53333 93.1205 8.9 93.1205 10.75V18H91.0205V10.975C91.0205 8.39167 89.9538 7.1 87.8205 7.1C86.7538 7.1 85.8622 7.49167 85.1455 8.275C84.4455 9.04167 84.0955 10.1417 84.0955 11.575V18H81.9955ZM101.052 18.3C99.5688 18.3 98.3355 17.925 97.3521 17.175C96.3688 16.425 95.7938 15.4083 95.6271 14.125H97.7771C97.9105 14.775 98.2521 15.3417 98.8021 15.825C99.3688 16.2917 100.127 16.525 101.077 16.525C101.96 16.525 102.61 16.3417 103.027 15.975C103.444 15.5917 103.652 15.1417 103.652 14.625C103.652 13.875 103.377 13.375 102.827 13.125C102.294 12.875 101.535 12.65 100.552 12.45C99.8855 12.3167 99.2188 12.125 98.5521 11.875C97.8855 11.625 97.3271 11.275 96.8771 10.825C96.4271 10.3583 96.2021 9.75 96.2021 9C96.2021 7.91667 96.6021 7.03333 97.4021 6.35C98.2188 5.65 99.3188 5.3 100.702 5.3C102.019 5.3 103.094 5.63333 103.927 6.3C104.777 6.95 105.269 7.88333 105.402 9.1H103.327C103.244 8.46667 102.969 7.975 102.502 7.625C102.052 7.25833 101.444 7.075 100.677 7.075C99.9271 7.075 99.3438 7.23333 98.9271 7.55C98.5271 7.86667 98.3271 8.28333 98.3271 8.8C98.3271 9.3 98.5855 9.69167 99.1021 9.975C99.6355 10.2583 100.352 10.5 101.252 10.7C102.019 10.8667 102.744 11.075 103.427 11.325C104.127 11.5583 104.694 11.9167 105.127 12.4C105.577 12.8667 105.802 13.55 105.802 14.45C105.819 15.5667 105.394 16.4917 104.527 17.225C103.677 17.9417 102.519 18.3 101.052 18.3Z" fill="#828282"/>
</svg>
