<svg width="22" height="22" viewBox="0 0 22 22" fill="none" xmlns="http://www.w3.org/2000/svg">
<path d="M11 22C9.33688 22.0046 7.69478 21.6283 6.19965 20.8999C5.65246 20.6338 5.12818 20.3229 4.63216 19.9704L4.48146 19.8604C3.11728 18.8535 2.00195 17.5474 1.2211 16.0423C0.413415 14.4846 -0.00549193 12.7546 5.43647e-05 11C5.43647e-05 4.92485 4.92493 0 11 0C17.0751 0 21.9999 4.92485 21.9999 11C22.0054 12.7538 21.5869 14.483 20.78 16.0401C20.0002 17.5443 18.8865 18.85 17.524 19.8571C17.0101 20.2333 16.4647 20.5645 15.8939 20.8471L15.8059 20.8911C14.3098 21.6234 12.6657 22.0027 11 22ZM11 16.4999C9.35164 16.4967 7.84046 17.4174 7.08734 18.8836C9.55285 20.1048 12.4472 20.1048 14.9127 18.8836V18.8781C14.1586 17.4135 12.6474 16.4949 11 16.4999ZM11 14.2999C13.3827 14.3031 15.5797 15.5871 16.7518 17.6615L16.7683 17.6472L16.7837 17.634L16.765 17.6505L16.754 17.6593C19.5359 15.256 20.5306 11.3765 19.2484 7.93109C17.9662 4.48565 14.6774 2.20034 11.0011 2.20034C7.32483 2.20034 4.03596 4.48565 2.75377 7.93109C1.47158 11.3765 2.46629 15.256 5.24816 17.6593C6.42103 15.5859 8.61782 14.3028 11 14.2999ZM11 13.1999C8.56997 13.1999 6.60004 11.23 6.60004 8.79997C6.60004 6.36992 8.56997 4.39998 11 4.39998C13.43 4.39998 15.4 6.36992 15.4 8.79997C15.4 9.96691 14.9364 11.0861 14.1112 11.9112C13.2861 12.7364 12.1669 13.1999 11 13.1999ZM11 6.59997C9.78499 6.59997 8.80002 7.58494 8.80002 8.79997C8.80002 10.015 9.78499 11 11 11C12.215 11 13.2 10.015 13.2 8.79997C13.2 7.58494 12.215 6.59997 11 6.59997Z" fill="black"/>
</svg>
