<svg width="246" height="21" viewBox="0 0 246 21" fill="none" xmlns="http://www.w3.org/2000/svg">
<path d="M9.976 20.5798C8.05333 20.5798 6.364 20.1598 4.908 19.3198C3.47067 18.4612 2.34133 17.2665 1.52 15.7358C0.717333 14.2052 0.316 12.4412 0.316 10.4438C0.316 8.44649 0.717333 6.69182 1.52 5.17982C2.34133 3.64915 3.47067 2.45449 4.908 1.59582C6.364 0.737153 8.05333 0.30782 9.976 0.30782C11.9173 0.30782 13.6067 0.737153 15.044 1.59582C16.5 2.45449 17.6293 3.64915 18.432 5.17982C19.2347 6.69182 19.636 8.44649 19.636 10.4438C19.636 12.4412 19.2347 14.2052 18.432 15.7358C17.6293 17.2665 16.5 18.4612 15.044 19.3198C13.6067 20.1598 11.9173 20.5798 9.976 20.5798ZM9.976 18.5078C11.4133 18.5078 12.6733 18.1905 13.756 17.5558C14.8573 16.9025 15.7067 15.9785 16.304 14.7838C16.92 13.5705 17.228 12.1238 17.228 10.4438C17.228 8.76382 16.92 7.32649 16.304 6.13182C15.7067 4.93715 14.8573 4.02249 13.756 3.38782C12.6733 2.73449 11.4133 2.40782 9.976 2.40782C8.53867 2.40782 7.26933 2.73449 6.168 3.38782C5.08533 4.02249 4.236 4.93715 3.62 6.13182C3.02267 7.32649 2.724 8.76382 2.724 10.4438C2.724 12.1238 3.02267 13.5705 3.62 14.7838C4.236 15.9785 5.08533 16.9025 6.168 17.5558C7.26933 18.1905 8.53867 18.5078 9.976 18.5078ZM26.893 20.2438L21.629 6.35582H24.093L28.265 17.9758L32.465 6.35582H34.873L29.609 20.2438H26.893ZM43.0237 20.5798C41.6983 20.5798 40.5223 20.2812 39.4957 19.6838C38.469 19.0678 37.657 18.2185 37.0597 17.1358C36.481 16.0532 36.1917 14.7745 36.1917 13.2998C36.1917 11.8438 36.481 10.5745 37.0597 9.49182C37.6383 8.39049 38.441 7.54115 39.4677 6.94382C40.513 6.32782 41.717 6.01982 43.0797 6.01982C44.4237 6.01982 45.581 6.32782 46.5517 6.94382C47.541 7.54115 48.297 8.33449 48.8197 9.32382C49.3423 10.3132 49.6037 11.3772 49.6037 12.5158C49.6037 12.7212 49.5943 12.9265 49.5757 13.1318C49.5757 13.3372 49.5757 13.5705 49.5757 13.8318H38.5157C38.5717 14.8958 38.8143 15.7825 39.2437 16.4918C39.6917 17.1825 40.2423 17.7052 40.8957 18.0598C41.5677 18.4145 42.277 18.5918 43.0237 18.5918C43.9943 18.5918 44.8063 18.3678 45.4597 17.9198C46.113 17.4718 46.589 16.8652 46.8877 16.0998H49.2117C48.8383 17.3878 48.1197 18.4612 47.0557 19.3198C46.0103 20.1598 44.6663 20.5798 43.0237 20.5798ZM43.0237 8.00782C41.9037 8.00782 40.905 8.35315 40.0277 9.04382C39.169 9.71582 38.6743 10.7052 38.5437 12.0118H47.2797C47.2237 10.7612 46.7943 9.78115 45.9917 9.07182C45.189 8.36249 44.1997 8.00782 43.0237 8.00782ZM52.7211 20.2438V6.35582H54.8491L55.0451 9.01582C55.4744 8.10115 56.1277 7.37315 57.0051 6.83182C57.8824 6.29049 58.9651 6.01982 60.2531 6.01982V8.48382H59.6091C58.7877 8.48382 58.0317 8.63315 57.3411 8.93182C56.6504 9.21182 56.0997 9.69715 55.6891 10.3878C55.2784 11.0785 55.0731 12.0305 55.0731 13.2438V20.2438H52.7211ZM66.8969 20.2438L61.6329 6.35582H64.0969L68.2689 17.9758L72.4689 6.35582H74.8769L69.6129 20.2438H66.8969ZM78.9225 3.27582C78.4558 3.27582 78.0638 3.12649 77.7465 2.82782C77.4478 2.51049 77.2985 2.11849 77.2985 1.65182C77.2985 1.20382 77.4478 0.830486 77.7465 0.531819C78.0638 0.233152 78.4558 0.0838194 78.9225 0.0838194C79.3705 0.0838194 79.7532 0.233152 80.0705 0.531819C80.3878 0.830486 80.5465 1.20382 80.5465 1.65182C80.5465 2.11849 80.3878 2.51049 80.0705 2.82782C79.7532 3.12649 79.3705 3.27582 78.9225 3.27582ZM77.7465 20.2438V6.35582H80.0985V20.2438H77.7465ZM90.4377 20.5798C89.1124 20.5798 87.9364 20.2812 86.9097 19.6838C85.8831 19.0678 85.0711 18.2185 84.4737 17.1358C83.8951 16.0532 83.6057 14.7745 83.6057 13.2998C83.6057 11.8438 83.8951 10.5745 84.4737 9.49182C85.0524 8.39049 85.8551 7.54115 86.8817 6.94382C87.9271 6.32782 89.1311 6.01982 90.4937 6.01982C91.8377 6.01982 92.9951 6.32782 93.9657 6.94382C94.9551 7.54115 95.7111 8.33449 96.2337 9.32382C96.7564 10.3132 97.0177 11.3772 97.0177 12.5158C97.0177 12.7212 97.0084 12.9265 96.9897 13.1318C96.9897 13.3372 96.9897 13.5705 96.9897 13.8318H85.9297C85.9857 14.8958 86.2284 15.7825 86.6577 16.4918C87.1057 17.1825 87.6564 17.7052 88.3097 18.0598C88.9817 18.4145 89.6911 18.5918 90.4377 18.5918C91.4084 18.5918 92.2204 18.3678 92.8737 17.9198C93.5271 17.4718 94.0031 16.8652 94.3017 16.0998H96.6257C96.2524 17.3878 95.5337 18.4612 94.4697 19.3198C93.4244 20.1598 92.0804 20.5798 90.4377 20.5798ZM90.4377 8.00782C89.3177 8.00782 88.3191 8.35315 87.4417 9.04382C86.5831 9.71582 86.0884 10.7052 85.9577 12.0118H94.6937C94.6377 10.7612 94.2084 9.78115 93.4057 9.07182C92.6031 8.36249 91.6137 8.00782 90.4377 8.00782ZM102.388 20.2438L98.3283 6.35582H100.68L103.62 17.2478L106.868 6.35582H109.528L112.804 17.2478L115.716 6.35582H118.096L114.036 20.2438H111.628L108.212 8.79182L104.796 20.2438H102.388ZM134.044 20.5798C132.7 20.5798 131.514 20.3372 130.488 19.8518C129.48 19.3478 128.686 18.6572 128.108 17.7798C127.548 16.8838 127.268 15.8292 127.268 14.6158C127.268 13.2905 127.65 12.1145 128.416 11.0878C129.2 10.0425 130.329 9.22115 131.804 8.62382C131.169 7.93315 130.712 7.27982 130.432 6.66382C130.152 6.02915 130.012 5.34782 130.012 4.61982C130.012 3.36915 130.45 2.34249 131.328 1.53982C132.224 0.718486 133.446 0.30782 134.996 0.30782C136.004 0.30782 136.881 0.50382 137.628 0.895819C138.374 1.26915 138.953 1.79182 139.364 2.46382C139.774 3.13582 139.961 3.90115 139.924 4.75982H137.6C137.618 3.91982 137.357 3.28515 136.816 2.85582C136.293 2.42649 135.686 2.21182 134.996 2.21182C134.156 2.21182 133.502 2.43582 133.036 2.88382C132.569 3.33182 132.336 3.90115 132.336 4.59182C132.336 5.18915 132.494 5.76782 132.812 6.32782C133.148 6.88782 133.642 7.51315 134.296 8.20382L140.484 14.4478C141.025 13.6638 141.613 12.7212 142.248 11.6198L143.116 10.1078H145.608L144.376 12.2918C143.554 13.7665 142.77 14.9985 142.024 15.9878L146.252 20.2438H143.284L140.68 17.6118C139.69 18.6758 138.664 19.4412 137.6 19.9078C136.536 20.3558 135.35 20.5798 134.044 20.5798ZM129.62 14.5318C129.62 15.6892 130.03 16.6505 130.852 17.4158C131.673 18.1812 132.746 18.5638 134.072 18.5638C135.061 18.5638 135.957 18.3772 136.76 18.0038C137.581 17.6118 138.384 16.9772 139.168 16.0998L133.232 10.0798C132 10.5652 131.085 11.1812 130.488 11.9278C129.909 12.6745 129.62 13.5425 129.62 14.5318ZM156.166 20.2438V0.643819H162.494C164.024 0.643819 165.275 0.895819 166.246 1.39982C167.216 1.90382 167.935 2.59449 168.402 3.47182C168.868 4.34915 169.102 5.31982 169.102 6.38382C169.102 7.61582 168.766 8.72649 168.094 9.71582C167.44 10.7052 166.414 11.4052 165.014 11.8158L169.298 20.2438H166.526L162.55 12.1518H162.382H158.518V20.2438H156.166ZM158.518 10.3038H162.326C163.838 10.3038 164.939 9.93982 165.63 9.21182C166.32 8.48382 166.666 7.55049 166.666 6.41182C166.666 5.25449 166.32 4.33982 165.63 3.66782C164.958 2.97715 163.847 2.63182 162.298 2.63182H158.518V10.3038ZM178.02 20.5798C176.694 20.5798 175.518 20.2812 174.492 19.6838C173.465 19.0678 172.653 18.2185 172.056 17.1358C171.477 16.0532 171.188 14.7745 171.188 13.2998C171.188 11.8438 171.477 10.5745 172.056 9.49182C172.634 8.39049 173.437 7.54115 174.464 6.94382C175.509 6.32782 176.713 6.01982 178.076 6.01982C179.42 6.01982 180.577 6.32782 181.548 6.94382C182.537 7.54115 183.293 8.33449 183.816 9.32382C184.338 10.3132 184.6 11.3772 184.6 12.5158C184.6 12.7212 184.59 12.9265 184.572 13.1318C184.572 13.3372 184.572 13.5705 184.572 13.8318H173.512C173.568 14.8958 173.81 15.7825 174.24 16.4918C174.688 17.1825 175.238 17.7052 175.892 18.0598C176.564 18.4145 177.273 18.5918 178.02 18.5918C178.99 18.5918 179.802 18.3678 180.456 17.9198C181.109 17.4718 181.585 16.8652 181.884 16.0998H184.208C183.834 17.3878 183.116 18.4612 182.052 19.3198C181.006 20.1598 179.662 20.5798 178.02 20.5798ZM178.02 8.00782C176.9 8.00782 175.901 8.35315 175.024 9.04382C174.165 9.71582 173.67 10.7052 173.54 12.0118H182.276C182.22 10.7612 181.79 9.78115 180.988 9.07182C180.185 8.36249 179.196 8.00782 178.02 8.00782ZM193.037 20.5798C191.376 20.5798 189.994 20.1598 188.893 19.3198C187.792 18.4798 187.148 17.3412 186.961 15.9038H189.369C189.518 16.6318 189.901 17.2665 190.517 17.8078C191.152 18.3305 192.001 18.5918 193.065 18.5918C194.054 18.5918 194.782 18.3865 195.249 17.9758C195.716 17.5465 195.949 17.0425 195.949 16.4638C195.949 15.6238 195.641 15.0638 195.025 14.7838C194.428 14.5038 193.578 14.2518 192.477 14.0278C191.73 13.8785 190.984 13.6638 190.237 13.3838C189.49 13.1038 188.865 12.7118 188.361 12.2078C187.857 11.6852 187.605 11.0038 187.605 10.1638C187.605 8.95049 188.053 7.96115 188.949 7.19582C189.864 6.41182 191.096 6.01982 192.645 6.01982C194.12 6.01982 195.324 6.39315 196.257 7.13982C197.209 7.86782 197.76 8.91315 197.909 10.2758H195.585C195.492 9.56649 195.184 9.01582 194.661 8.62382C194.157 8.21315 193.476 8.00782 192.617 8.00782C191.777 8.00782 191.124 8.18515 190.657 8.53982C190.209 8.89449 189.985 9.36115 189.985 9.93982C189.985 10.4998 190.274 10.9385 190.853 11.2558C191.45 11.5732 192.253 11.8438 193.261 12.0678C194.12 12.2545 194.932 12.4878 195.697 12.7678C196.481 13.0292 197.116 13.4305 197.601 13.9718C198.105 14.4945 198.357 15.2598 198.357 16.2678C198.376 17.5185 197.9 18.5545 196.929 19.3758C195.977 20.1785 194.68 20.5798 193.037 20.5798ZM206.785 20.5798C205.142 20.5798 203.836 20.0852 202.865 19.0958C201.894 18.0878 201.409 16.5478 201.409 14.4758V6.35582H203.761V14.2238C203.761 17.1172 204.946 18.5638 207.317 18.5638C208.53 18.5638 209.529 18.1345 210.313 17.2758C211.116 16.3985 211.517 15.1572 211.517 13.5518V6.35582H213.869V20.2438H211.741L211.573 17.7518C211.144 18.6292 210.5 19.3198 209.641 19.8238C208.801 20.3278 207.849 20.5798 206.785 20.5798ZM217.741 20.2438V0.0838194H220.093V20.2438H217.741ZM229.436 20.2438C228.166 20.2438 227.168 19.9358 226.44 19.3198C225.712 18.7038 225.348 17.5932 225.348 15.9878V8.34382H222.94V6.35582H225.348L225.656 3.02382H227.7V6.35582H231.788V8.34382H227.7V15.9878C227.7 16.8652 227.877 17.4625 228.232 17.7798C228.586 18.0785 229.212 18.2278 230.108 18.2278H231.564V20.2438H229.436ZM240.096 20.5798C238.434 20.5798 237.053 20.1598 235.952 19.3198C234.85 18.4798 234.206 17.3412 234.02 15.9038H236.428C236.577 16.6318 236.96 17.2665 237.576 17.8078C238.21 18.3305 239.06 18.5918 240.124 18.5918C241.113 18.5918 241.841 18.3865 242.308 17.9758C242.774 17.5465 243.008 17.0425 243.008 16.4638C243.008 15.6238 242.7 15.0638 242.084 14.7838C241.486 14.5038 240.637 14.2518 239.536 14.0278C238.789 13.8785 238.042 13.6638 237.296 13.3838C236.549 13.1038 235.924 12.7118 235.42 12.2078C234.916 11.6852 234.664 11.0038 234.664 10.1638C234.664 8.95049 235.112 7.96115 236.008 7.19582C236.922 6.41182 238.154 6.01982 239.704 6.01982C241.178 6.01982 242.382 6.39315 243.316 7.13982C244.268 7.86782 244.818 8.91315 244.968 10.2758H242.644C242.55 9.56649 242.242 9.01582 241.72 8.62382C241.216 8.21315 240.534 8.00782 239.676 8.00782C238.836 8.00782 238.182 8.18515 237.716 8.53982C237.268 8.89449 237.044 9.36115 237.044 9.93982C237.044 10.4998 237.333 10.9385 237.912 11.2558C238.509 11.5732 239.312 11.8438 240.32 12.0678C241.178 12.2545 241.99 12.4878 242.756 12.7678C243.54 13.0292 244.174 13.4305 244.66 13.9718C245.164 14.4945 245.416 15.2598 245.416 16.2678C245.434 17.5185 244.958 18.5545 243.988 19.3758C243.036 20.1785 241.738 20.5798 240.096 20.5798Z" fill="black"/>
</svg>
