<svg width="845" height="183" viewBox="0 0 845 183" fill="none" xmlns="http://www.w3.org/2000/svg">
<g filter="url(#filter0_d_469_118)">
<rect x="4" width="837" height="175" rx="70" fill="#F6F6F6"/>
</g>
<path d="M91.5552 111.17C88.0712 111.17 85.2112 110.78 82.9752 110C80.7912 109.22 78.6332 108.31 76.5012 107.27L77.3592 97.13H78.1392L81.5712 103.448C83.8592 107.556 87.0312 109.61 91.0872 109.61C93.4792 109.61 95.4032 108.622 96.8592 106.646C98.3672 104.618 99.1212 101.238 99.1212 96.506C99.1212 92.398 98.4972 89.46 97.2492 87.692C96.0012 85.872 93.8692 84.962 90.8532 84.962H86.1732V83.402H90.3072C93.0632 83.402 95.0392 82.57 96.2352 80.906C97.4832 79.242 98.1072 76.356 98.1072 72.248C98.1072 68.244 97.5092 65.41 96.3132 63.746C95.1172 62.03 93.5312 61.172 91.5552 61.172C89.5792 61.172 87.9152 61.744 86.5632 62.888C85.2632 64.032 84.1972 65.384 83.3652 66.944L79.8552 73.496L79.0752 73.418L79.8552 61.952C81.5192 61.224 83.3652 60.626 85.3932 60.158C87.4732 59.638 89.7872 59.378 92.3352 59.378C97.7952 59.378 101.929 60.574 104.737 62.966C107.597 65.306 109.027 68.244 109.027 71.78C109.027 74.328 107.935 76.772 105.751 79.112C103.567 81.4 100.135 82.986 95.4552 83.87C100.759 84.338 104.607 85.768 106.999 88.16C109.391 90.552 110.587 93.438 110.587 96.818C110.587 99.522 109.807 101.966 108.247 104.15C106.739 106.334 104.555 108.05 101.695 109.298C98.8872 110.546 95.5072 111.17 91.5552 111.17Z" fill="#828282"/>
<defs>
<filter id="filter0_d_469_118" x="0" y="0" width="845" height="183" filterUnits="userSpaceOnUse" color-interpolation-filters="sRGB">
<feFlood flood-opacity="0" result="BackgroundImageFix"/>
<feColorMatrix in="SourceAlpha" type="matrix" values="0 0 0 0 0 0 0 0 0 0 0 0 0 0 0 0 0 0 127 0" result="hardAlpha"/>
<feOffset dy="4"/>
<feGaussianBlur stdDeviation="2"/>
<feComposite in2="hardAlpha" operator="out"/>
<feColorMatrix type="matrix" values="0 0 0 0 0 0 0 0 0 0 0 0 0 0 0 0 0 0 0.25 0"/>
<feBlend mode="normal" in2="BackgroundImageFix" result="effect1_dropShadow_469_118"/>
<feBlend mode="normal" in="SourceGraphic" in2="effect1_dropShadow_469_118" result="shape"/>
</filter>
</defs>
</svg>
