<svg width="389" height="28" viewBox="0 0 389 28" fill="none" xmlns="http://www.w3.org/2000/svg">
<path d="M2.36 4.032C1.89333 4.032 1.50133 3.88267 1.184 3.584C0.885333 3.26667 0.736 2.87467 0.736 2.408C0.736 1.96 0.885333 1.58667 1.184 1.288C1.50133 0.989332 1.89333 0.839999 2.36 0.839999C2.808 0.839999 3.19067 0.989332 3.508 1.288C3.82533 1.58667 3.984 1.96 3.984 2.408C3.984 2.87467 3.82533 3.26667 3.508 3.584C3.19067 3.88267 2.808 4.032 2.36 4.032ZM1.184 21V7.112H3.536V21H1.184ZM12.9512 21.336C11.2899 21.336 9.90855 20.916 8.80722 20.076C7.70589 19.236 7.06189 18.0973 6.87522 16.66H9.28322C9.43255 17.388 9.81522 18.0227 10.4312 18.564C11.0659 19.0867 11.9152 19.348 12.9792 19.348C13.9686 19.348 14.6966 19.1427 15.1632 18.732C15.6299 18.3027 15.8632 17.7987 15.8632 17.22C15.8632 16.38 15.5552 15.82 14.9392 15.54C14.3419 15.26 13.4926 15.008 12.3912 14.784C11.6446 14.6347 10.8979 14.42 10.1512 14.14C9.40455 13.86 8.77922 13.468 8.27522 12.964C7.77122 12.4413 7.51922 11.76 7.51922 10.92C7.51922 9.70667 7.96722 8.71733 8.86322 7.952C9.77789 7.168 11.0099 6.776 12.5592 6.776C14.0339 6.776 15.2379 7.14933 16.1712 7.896C17.1232 8.624 17.6739 9.66933 17.8232 11.032H15.4992C15.4059 10.3227 15.0979 9.772 14.5752 9.38C14.0712 8.96933 13.3899 8.764 12.5312 8.764C11.6912 8.764 11.0379 8.94133 10.5712 9.296C10.1232 9.65067 9.89922 10.1173 9.89922 10.696C9.89922 11.256 10.1886 11.6947 10.7672 12.012C11.3646 12.3293 12.1672 12.6 13.1752 12.824C14.0339 13.0107 14.8459 13.244 15.6112 13.524C16.3952 13.7853 17.0299 14.1867 17.5152 14.728C18.0192 15.2507 18.2712 16.016 18.2712 17.024C18.2899 18.2747 17.8139 19.3107 16.8432 20.132C15.8912 20.9347 14.5939 21.336 12.9512 21.336ZM30.5534 27.16L33.9974 19.656H33.1854L27.6694 7.112H30.2174L34.8094 17.92L39.6814 7.112H42.1174L33.0174 27.16H30.5534ZM49.6155 21.336C48.3088 21.336 47.1328 21.0373 46.0875 20.44C45.0421 19.8427 44.2115 19.0027 43.5955 17.92C42.9981 16.8187 42.6995 15.5307 42.6995 14.056C42.6995 12.5813 43.0075 11.3027 43.6235 10.22C44.2395 9.11867 45.0701 8.26933 46.1155 7.672C47.1795 7.07467 48.3648 6.776 49.6715 6.776C50.9781 6.776 52.1541 7.07467 53.1995 7.672C54.2448 8.26933 55.0661 9.11867 55.6635 10.22C56.2795 11.3027 56.5875 12.5813 56.5875 14.056C56.5875 15.5307 56.2795 16.8187 55.6635 17.92C55.0475 19.0027 54.2075 19.8427 53.1435 20.44C52.0981 21.0373 50.9221 21.336 49.6155 21.336ZM49.6155 19.32C50.4181 19.32 51.1648 19.124 51.8555 18.732C52.5461 18.34 53.1061 17.752 53.5355 16.968C53.9648 16.184 54.1795 15.2133 54.1795 14.056C54.1795 12.8987 53.9648 11.928 53.5355 11.144C53.1248 10.36 52.5741 9.772 51.8835 9.38C51.1928 8.988 50.4555 8.792 49.6715 8.792C48.8688 8.792 48.1221 8.988 47.4315 9.38C46.7408 9.772 46.1808 10.36 45.7515 11.144C45.3221 11.928 45.1075 12.8987 45.1075 14.056C45.1075 15.2133 45.3221 16.184 45.7515 16.968C46.1808 17.752 46.7315 18.34 47.4035 18.732C48.0941 19.124 48.8315 19.32 49.6155 19.32ZM64.9258 21.336C63.2831 21.336 61.9764 20.8413 61.0058 19.852C60.0351 18.844 59.5498 17.304 59.5498 15.232V7.112H61.9018V14.98C61.9018 17.8733 63.0871 19.32 65.4578 19.32C66.6711 19.32 67.6698 18.8907 68.4538 18.032C69.2564 17.1547 69.6578 15.9133 69.6578 14.308V7.112H72.0098V21H69.8818L69.7138 18.508C69.2844 19.3853 68.6404 20.076 67.7818 20.58C66.9418 21.084 65.9898 21.336 64.9258 21.336ZM75.8812 21V7.112H78.0092L78.2052 9.772C78.6346 8.85733 79.2879 8.12933 80.1652 7.588C81.0426 7.04667 82.1252 6.776 83.4132 6.776V9.24H82.7692C81.9479 9.24 81.1919 9.38933 80.5012 9.688C79.8106 9.968 79.2599 10.4533 78.8492 11.144C78.4386 11.8347 78.2332 12.7867 78.2332 14V21H75.8812ZM93.4633 21V7.112H95.5913L95.7593 9.128C96.2073 8.38133 96.8046 7.80267 97.5513 7.392C98.2979 6.98133 99.1379 6.776 100.071 6.776C101.173 6.776 102.115 7 102.899 7.448C103.702 7.896 104.318 8.57733 104.747 9.492C105.233 8.652 105.895 7.98933 106.735 7.504C107.594 7.01867 108.518 6.776 109.507 6.776C111.169 6.776 112.494 7.28 113.483 8.288C114.473 9.27733 114.967 10.808 114.967 12.88V21H112.643V13.132C112.643 11.6947 112.354 10.612 111.775 9.884C111.197 9.156 110.366 8.792 109.283 8.792C108.163 8.792 107.23 9.23067 106.483 10.108C105.755 10.9667 105.391 12.1987 105.391 13.804V21H103.039V13.132C103.039 11.6947 102.75 10.612 102.171 9.884C101.593 9.156 100.762 8.792 99.6793 8.792C98.5779 8.792 97.6539 9.23067 96.9073 10.108C96.1793 10.9667 95.8153 12.1987 95.8153 13.804V21H93.4633ZM124.838 21.336C123.531 21.336 122.355 21.0373 121.31 20.44C120.265 19.8427 119.434 19.0027 118.818 17.92C118.221 16.8187 117.922 15.5307 117.922 14.056C117.922 12.5813 118.23 11.3027 118.846 10.22C119.462 9.11867 120.293 8.26933 121.338 7.672C122.402 7.07467 123.587 6.776 124.894 6.776C126.201 6.776 127.377 7.07467 128.422 7.672C129.467 8.26933 130.289 9.11867 130.886 10.22C131.502 11.3027 131.81 12.5813 131.81 14.056C131.81 15.5307 131.502 16.8187 130.886 17.92C130.27 19.0027 129.43 19.8427 128.366 20.44C127.321 21.0373 126.145 21.336 124.838 21.336ZM124.838 19.32C125.641 19.32 126.387 19.124 127.078 18.732C127.769 18.34 128.329 17.752 128.758 16.968C129.187 16.184 129.402 15.2133 129.402 14.056C129.402 12.8987 129.187 11.928 128.758 11.144C128.347 10.36 127.797 9.772 127.106 9.38C126.415 8.988 125.678 8.792 124.894 8.792C124.091 8.792 123.345 8.988 122.654 9.38C121.963 9.772 121.403 10.36 120.974 11.144C120.545 11.928 120.33 12.8987 120.33 14.056C120.33 15.2133 120.545 16.184 120.974 16.968C121.403 17.752 121.954 18.34 122.626 18.732C123.317 19.124 124.054 19.32 124.838 19.32ZM140.4 21.336C138.739 21.336 137.358 20.916 136.256 20.076C135.155 19.236 134.511 18.0973 134.324 16.66H136.732C136.882 17.388 137.264 18.0227 137.88 18.564C138.515 19.0867 139.364 19.348 140.428 19.348C141.418 19.348 142.146 19.1427 142.612 18.732C143.079 18.3027 143.312 17.7987 143.312 17.22C143.312 16.38 143.004 15.82 142.388 15.54C141.791 15.26 140.942 15.008 139.84 14.784C139.094 14.6347 138.347 14.42 137.6 14.14C136.854 13.86 136.228 13.468 135.724 12.964C135.22 12.4413 134.968 11.76 134.968 10.92C134.968 9.70667 135.416 8.71733 136.312 7.952C137.227 7.168 138.459 6.776 140.008 6.776C141.483 6.776 142.687 7.14933 143.62 7.896C144.572 8.624 145.123 9.66933 145.272 11.032H142.948C142.855 10.3227 142.547 9.772 142.024 9.38C141.52 8.96933 140.839 8.764 139.98 8.764C139.14 8.764 138.487 8.94133 138.02 9.296C137.572 9.65067 137.348 10.1173 137.348 10.696C137.348 11.256 137.638 11.6947 138.216 12.012C138.814 12.3293 139.616 12.6 140.624 12.824C141.483 13.0107 142.295 13.244 143.06 13.524C143.844 13.7853 144.479 14.1867 144.964 14.728C145.468 15.2507 145.72 16.016 145.72 17.024C145.739 18.2747 145.263 19.3107 144.292 20.132C143.34 20.9347 142.043 21.336 140.4 21.336ZM153.94 21C152.67 21 151.672 20.692 150.944 20.076C150.216 19.46 149.852 18.3493 149.852 16.744V9.1H147.444V7.112H149.852L150.16 3.78H152.204V7.112H156.292V9.1H152.204V16.744C152.204 17.6213 152.381 18.2187 152.736 18.536C153.09 18.8347 153.716 18.984 154.612 18.984H156.068V21H153.94ZM166.69 27.16V7.112H168.818L169.042 9.408C169.49 8.736 170.124 8.12933 170.946 7.588C171.786 7.04667 172.85 6.776 174.138 6.776C175.519 6.776 176.723 7.09333 177.75 7.728C178.776 8.36267 179.57 9.23067 180.13 10.332C180.708 11.4333 180.998 12.684 180.998 14.084C180.998 15.484 180.708 16.7347 180.13 17.836C179.57 18.9187 178.767 19.7773 177.722 20.412C176.695 21.028 175.491 21.336 174.11 21.336C172.971 21.336 171.954 21.1027 171.058 20.636C170.18 20.1693 169.508 19.516 169.042 18.676V27.16H166.69ZM173.858 19.292C174.791 19.292 175.612 19.0773 176.322 18.648C177.031 18.2 177.591 17.584 178.002 16.8C178.412 16.016 178.618 15.1013 178.618 14.056C178.618 13.0107 178.412 12.096 178.002 11.312C177.591 10.528 177.031 9.92133 176.322 9.492C175.612 9.044 174.791 8.82 173.858 8.82C172.924 8.82 172.103 9.044 171.394 9.492C170.684 9.92133 170.124 10.528 169.714 11.312C169.303 12.096 169.098 13.0107 169.098 14.056C169.098 15.1013 169.303 16.016 169.714 16.8C170.124 17.584 170.684 18.2 171.394 18.648C172.103 19.0773 172.924 19.292 173.858 19.292ZM184.272 21V7.112H186.4L186.596 9.772C187.025 8.85733 187.679 8.12933 188.556 7.588C189.433 7.04667 190.516 6.776 191.804 6.776V9.24H191.16C190.339 9.24 189.583 9.38933 188.892 9.688C188.201 9.968 187.651 10.4533 187.24 11.144C186.829 11.8347 186.624 12.7867 186.624 14V21H184.272ZM200.252 21.336C198.946 21.336 197.77 21.0373 196.724 20.44C195.679 19.8427 194.848 19.0027 194.232 17.92C193.635 16.8187 193.336 15.5307 193.336 14.056C193.336 12.5813 193.644 11.3027 194.26 10.22C194.876 9.11867 195.707 8.26933 196.752 7.672C197.816 7.07467 199.002 6.776 200.308 6.776C201.615 6.776 202.791 7.07467 203.836 7.672C204.882 8.26933 205.703 9.11867 206.3 10.22C206.916 11.3027 207.224 12.5813 207.224 14.056C207.224 15.5307 206.916 16.8187 206.3 17.92C205.684 19.0027 204.844 19.8427 203.78 20.44C202.735 21.0373 201.559 21.336 200.252 21.336ZM200.252 19.32C201.055 19.32 201.802 19.124 202.492 18.732C203.183 18.34 203.743 17.752 204.172 16.968C204.602 16.184 204.816 15.2133 204.816 14.056C204.816 12.8987 204.602 11.928 204.172 11.144C203.762 10.36 203.211 9.772 202.52 9.38C201.83 8.988 201.092 8.792 200.308 8.792C199.506 8.792 198.759 8.988 198.068 9.38C197.378 9.772 196.818 10.36 196.388 11.144C195.959 11.928 195.744 12.8987 195.744 14.056C195.744 15.2133 195.959 16.184 196.388 16.968C196.818 17.752 197.368 18.34 198.04 18.732C198.731 19.124 199.468 19.32 200.252 19.32ZM210.495 21V7.112H212.623L212.791 9.128C213.239 8.38133 213.836 7.80267 214.583 7.392C215.329 6.98133 216.169 6.776 217.103 6.776C218.204 6.776 219.147 7 219.931 7.448C220.733 7.896 221.349 8.57733 221.779 9.492C222.264 8.652 222.927 7.98933 223.767 7.504C224.625 7.01867 225.549 6.776 226.539 6.776C228.2 6.776 229.525 7.28 230.515 8.288C231.504 9.27733 231.999 10.808 231.999 12.88V21H229.675V13.132C229.675 11.6947 229.385 10.612 228.807 9.884C228.228 9.156 227.397 8.792 226.315 8.792C225.195 8.792 224.261 9.23067 223.515 10.108C222.787 10.9667 222.423 12.1987 222.423 13.804V21H220.071V13.132C220.071 11.6947 219.781 10.612 219.203 9.884C218.624 9.156 217.793 8.792 216.711 8.792C215.609 8.792 214.685 9.23067 213.939 10.108C213.211 10.9667 212.847 12.1987 212.847 13.804V21H210.495ZM241.869 21.336C240.563 21.336 239.387 21.0373 238.341 20.44C237.296 19.8427 236.465 19.0027 235.849 17.92C235.252 16.8187 234.953 15.5307 234.953 14.056C234.953 12.5813 235.261 11.3027 235.877 10.22C236.493 9.11867 237.324 8.26933 238.369 7.672C239.433 7.07467 240.619 6.776 241.925 6.776C243.232 6.776 244.408 7.07467 245.453 7.672C246.499 8.26933 247.32 9.11867 247.917 10.22C248.533 11.3027 248.841 12.5813 248.841 14.056C248.841 15.5307 248.533 16.8187 247.917 17.92C247.301 19.0027 246.461 19.8427 245.397 20.44C244.352 21.0373 243.176 21.336 241.869 21.336ZM241.869 19.32C242.672 19.32 243.419 19.124 244.109 18.732C244.8 18.34 245.36 17.752 245.789 16.968C246.219 16.184 246.433 15.2133 246.433 14.056C246.433 12.8987 246.219 11.928 245.789 11.144C245.379 10.36 244.828 9.772 244.137 9.38C243.447 8.988 242.709 8.792 241.925 8.792C241.123 8.792 240.376 8.988 239.685 9.38C238.995 9.772 238.435 10.36 238.005 11.144C237.576 11.928 237.361 12.8987 237.361 14.056C237.361 15.2133 237.576 16.184 238.005 16.968C238.435 17.752 238.985 18.34 239.657 18.732C240.348 19.124 241.085 19.32 241.869 19.32ZM257.053 21C255.783 21 254.785 20.692 254.057 20.076C253.329 19.46 252.965 18.3493 252.965 16.744V9.1H250.557V7.112H252.965L253.273 3.78H255.317V7.112H259.405V9.1H255.317V16.744C255.317 17.6213 255.494 18.2187 255.849 18.536C256.203 18.8347 256.829 18.984 257.725 18.984H259.181V21H257.053ZM268.254 21.336C266.929 21.336 265.753 21.0373 264.726 20.44C263.699 19.824 262.887 18.9747 262.29 17.892C261.711 16.8093 261.422 15.5307 261.422 14.056C261.422 12.6 261.711 11.3307 262.29 10.248C262.869 9.14667 263.671 8.29733 264.698 7.7C265.743 7.084 266.947 6.776 268.31 6.776C269.654 6.776 270.811 7.084 271.782 7.7C272.771 8.29733 273.527 9.09067 274.05 10.08C274.573 11.0693 274.834 12.1333 274.834 13.272C274.834 13.4773 274.825 13.6827 274.806 13.888C274.806 14.0933 274.806 14.3267 274.806 14.588H263.746C263.802 15.652 264.045 16.5387 264.474 17.248C264.922 17.9387 265.473 18.4613 266.126 18.816C266.798 19.1707 267.507 19.348 268.254 19.348C269.225 19.348 270.037 19.124 270.69 18.676C271.343 18.228 271.819 17.6213 272.118 16.856H274.442C274.069 18.144 273.35 19.2173 272.286 20.076C271.241 20.916 269.897 21.336 268.254 21.336ZM268.254 8.764C267.134 8.764 266.135 9.10933 265.258 9.8C264.399 10.472 263.905 11.4613 263.774 12.768H272.51C272.454 11.5173 272.025 10.5373 271.222 9.828C270.419 9.11867 269.43 8.764 268.254 8.764ZM284.252 21.336C282.87 21.336 281.657 21.0187 280.612 20.384C279.585 19.7493 278.782 18.8813 278.204 17.78C277.644 16.6787 277.364 15.428 277.364 14.028C277.364 12.628 277.653 11.3867 278.232 10.304C278.81 9.20267 279.613 8.344 280.64 7.728C281.666 7.09333 282.88 6.776 284.28 6.776C285.418 6.776 286.426 7.00933 287.304 7.476C288.181 7.94267 288.862 8.596 289.348 9.436V0.839999H291.7V21H289.572L289.348 18.704C288.9 19.376 288.256 19.9827 287.416 20.524C286.576 21.0653 285.521 21.336 284.252 21.336ZM284.504 19.292C285.437 19.292 286.258 19.0773 286.968 18.648C287.696 18.2 288.256 17.584 288.648 16.8C289.058 16.016 289.264 15.1013 289.264 14.056C289.264 13.0107 289.058 12.096 288.648 11.312C288.256 10.528 287.696 9.92133 286.968 9.492C286.258 9.044 285.437 8.82 284.504 8.82C283.589 8.82 282.768 9.044 282.04 9.492C281.33 9.92133 280.77 10.528 280.36 11.312C279.968 12.096 279.772 13.0107 279.772 14.056C279.772 15.1013 279.968 16.016 280.36 16.8C280.77 17.584 281.33 18.2 282.04 18.648C282.768 19.0773 283.589 19.292 284.504 19.292ZM309.272 21.336C307.965 21.336 306.789 21.0373 305.744 20.44C304.698 19.8427 303.868 19.0027 303.252 17.92C302.654 16.8187 302.356 15.5307 302.356 14.056C302.356 12.5813 302.664 11.3027 303.28 10.22C303.896 9.11867 304.726 8.26933 305.772 7.672C306.836 7.07467 308.021 6.776 309.328 6.776C310.634 6.776 311.81 7.07467 312.856 7.672C313.901 8.26933 314.722 9.11867 315.32 10.22C315.936 11.3027 316.244 12.5813 316.244 14.056C316.244 15.5307 315.936 16.8187 315.32 17.92C314.704 19.0027 313.864 19.8427 312.8 20.44C311.754 21.0373 310.578 21.336 309.272 21.336ZM309.272 19.32C310.074 19.32 310.821 19.124 311.512 18.732C312.202 18.34 312.762 17.752 313.192 16.968C313.621 16.184 313.836 15.2133 313.836 14.056C313.836 12.8987 313.621 11.928 313.192 11.144C312.781 10.36 312.23 9.772 311.54 9.38C310.849 8.988 310.112 8.792 309.328 8.792C308.525 8.792 307.778 8.988 307.088 9.38C306.397 9.772 305.837 10.36 305.408 11.144C304.978 11.928 304.764 12.8987 304.764 14.056C304.764 15.2133 304.978 16.184 305.408 16.968C305.837 17.752 306.388 18.34 307.06 18.732C307.75 19.124 308.488 19.32 309.272 19.32ZM326.934 21.336C325.795 21.336 324.778 21.1027 323.882 20.636C323.005 20.1693 322.333 19.516 321.866 18.676L321.642 21H319.514V0.839999H321.866V9.408C322.314 8.736 322.949 8.12933 323.77 7.588C324.61 7.04667 325.674 6.776 326.962 6.776C328.343 6.776 329.547 7.09333 330.574 7.728C331.601 8.36267 332.394 9.23067 332.954 10.332C333.533 11.4333 333.822 12.684 333.822 14.084C333.822 15.484 333.533 16.7347 332.954 17.836C332.394 18.9187 331.591 19.7773 330.546 20.412C329.519 21.028 328.315 21.336 326.934 21.336ZM326.682 19.292C327.615 19.292 328.437 19.0773 329.146 18.648C329.855 18.2 330.415 17.584 330.826 16.8C331.237 16.016 331.442 15.1013 331.442 14.056C331.442 13.0107 331.237 12.096 330.826 11.312C330.415 10.528 329.855 9.92133 329.146 9.492C328.437 9.044 327.615 8.82 326.682 8.82C325.749 8.82 324.927 9.044 324.218 9.492C323.509 9.92133 322.949 10.528 322.538 11.312C322.127 12.096 321.922 13.0107 321.922 14.056C321.922 15.1013 322.127 16.016 322.538 16.8C322.949 17.584 323.509 18.2 324.218 18.648C324.927 19.0773 325.749 19.292 326.682 19.292ZM338.636 4.032C338.188 4.032 337.805 3.88267 337.488 3.584C337.171 3.26667 337.012 2.87467 337.012 2.408C337.012 1.96 337.171 1.58667 337.488 1.288C337.805 0.989332 338.188 0.839999 338.636 0.839999C339.084 0.839999 339.457 0.989332 339.756 1.288C340.073 1.58667 340.232 1.96 340.232 2.408C340.232 2.87467 340.073 3.26667 339.756 3.584C339.457 3.88267 339.084 4.032 338.636 4.032ZM334.38 27.16V25.144H335.472C336.163 25.144 336.657 24.9947 336.956 24.696C337.273 24.416 337.432 23.9307 337.432 23.24V7.112H339.784V23.296C339.784 24.64 339.448 25.62 338.776 26.236C338.104 26.852 337.124 27.16 335.836 27.16H334.38ZM350.121 21.336C348.796 21.336 347.62 21.0373 346.593 20.44C345.567 19.824 344.755 18.9747 344.157 17.892C343.579 16.8093 343.289 15.5307 343.289 14.056C343.289 12.6 343.579 11.3307 344.157 10.248C344.736 9.14667 345.539 8.29733 346.565 7.7C347.611 7.084 348.815 6.776 350.177 6.776C351.521 6.776 352.679 7.084 353.649 7.7C354.639 8.29733 355.395 9.09067 355.917 10.08C356.44 11.0693 356.701 12.1333 356.701 13.272C356.701 13.4773 356.692 13.6827 356.673 13.888C356.673 14.0933 356.673 14.3267 356.673 14.588H345.613C345.669 15.652 345.912 16.5387 346.341 17.248C346.789 17.9387 347.34 18.4613 347.993 18.816C348.665 19.1707 349.375 19.348 350.121 19.348C351.092 19.348 351.904 19.124 352.557 18.676C353.211 18.228 353.687 17.6213 353.985 16.856H356.309C355.936 18.144 355.217 19.2173 354.153 20.076C353.108 20.916 351.764 21.336 350.121 21.336ZM350.121 8.764C349.001 8.764 348.003 9.10933 347.125 9.8C346.267 10.472 345.772 11.4613 345.641 12.768H354.377C354.321 11.5173 353.892 10.5373 353.089 9.828C352.287 9.11867 351.297 8.764 350.121 8.764ZM366.203 21.336C364.877 21.336 363.683 21.0373 362.619 20.44C361.573 19.824 360.743 18.9747 360.127 17.892C359.529 16.7907 359.231 15.512 359.231 14.056C359.231 12.6 359.529 11.3307 360.127 10.248C360.743 9.14667 361.573 8.29733 362.619 7.7C363.683 7.084 364.877 6.776 366.203 6.776C367.845 6.776 369.227 7.20533 370.347 8.064C371.485 8.92267 372.204 10.0707 372.503 11.508H370.095C369.908 10.6493 369.451 9.98667 368.723 9.52C367.995 9.03467 367.145 8.792 366.175 8.792C365.391 8.792 364.653 8.988 363.963 9.38C363.272 9.772 362.712 10.36 362.283 11.144C361.853 11.928 361.639 12.8987 361.639 14.056C361.639 15.2133 361.853 16.184 362.283 16.968C362.712 17.752 363.272 18.3493 363.963 18.76C364.653 19.152 365.391 19.348 366.175 19.348C367.145 19.348 367.995 19.1147 368.723 18.648C369.451 18.1627 369.908 17.4813 370.095 16.604H372.503C372.223 18.004 371.513 19.1427 370.375 20.02C369.236 20.8973 367.845 21.336 366.203 21.336ZM380.893 21C379.623 21 378.625 20.692 377.897 20.076C377.169 19.46 376.805 18.3493 376.805 16.744V9.1H374.397V7.112H376.805L377.113 3.78H379.157V7.112H383.245V9.1H379.157V16.744C379.157 17.6213 379.334 18.2187 379.689 18.536C380.043 18.8347 380.669 18.984 381.565 18.984H383.021V21H380.893ZM387.045 21.14C386.578 21.14 386.186 20.9907 385.869 20.692C385.57 20.3747 385.421 19.992 385.421 19.544C385.421 19.096 385.57 18.7227 385.869 18.424C386.186 18.1067 386.578 17.948 387.045 17.948C387.493 17.948 387.866 18.1067 388.165 18.424C388.482 18.7227 388.641 19.096 388.641 19.544C388.641 19.992 388.482 20.3747 388.165 20.692C387.866 20.9907 387.493 21.14 387.045 21.14Z" fill="black"/>
</svg>
