<svg width="325" height="21" viewBox="0 0 325 21" fill="none" xmlns="http://www.w3.org/2000/svg">
<path d="M3.92572 16.252C3.05772 16.252 2.33672 16.105 1.76272 15.811C1.18872 15.517 0.761719 15.125 0.481719 14.635C0.201719 14.145 0.0617188 13.613 0.0617188 13.039C0.0617188 11.975 0.467719 11.156 1.27972 10.582C2.09172 10.008 3.19772 9.721 4.59772 9.721H7.41172V9.595C7.41172 8.685 7.17372 7.999 6.69772 7.537C6.22172 7.061 5.58472 6.823 4.78672 6.823C4.10072 6.823 3.50572 6.998 3.00172 7.348C2.51172 7.684 2.20372 8.181 2.07772 8.839H0.271719C0.341719 8.083 0.593719 7.446 1.02772 6.928C1.47572 6.41 2.02872 6.018 2.68672 5.752C3.34472 5.472 4.04472 5.332 4.78672 5.332C6.24272 5.332 7.33472 5.724 8.06272 6.508C8.80472 7.278 9.17572 8.307 9.17572 9.595V16H7.60072L7.49572 14.131C7.20172 14.719 6.76772 15.223 6.19372 15.643C5.63372 16.049 4.87772 16.252 3.92572 16.252ZM4.19872 14.761C4.87072 14.761 5.44472 14.586 5.92072 14.236C6.41072 13.886 6.78172 13.431 7.03372 12.871C7.28572 12.311 7.41172 11.723 7.41172 11.107V11.086H4.74472C3.70872 11.086 2.97372 11.268 2.53972 11.632C2.11972 11.982 1.90972 12.423 1.90972 12.955C1.90972 13.501 2.10572 13.942 2.49772 14.278C2.90372 14.6 3.47072 14.761 4.19872 14.761ZM12.347 16V5.584H13.943L14.048 7.453C14.384 6.795 14.867 6.277 15.497 5.899C16.127 5.521 16.841 5.332 17.639 5.332C18.871 5.332 19.851 5.71 20.579 6.466C21.321 7.208 21.692 8.356 21.692 9.91V16H19.928V10.099C19.928 7.929 19.032 6.844 17.24 6.844C16.344 6.844 15.595 7.173 14.993 7.831C14.405 8.475 14.111 9.399 14.111 10.603V16H12.347ZM29.6146 16.252C28.5786 16.252 27.6686 16.014 26.8846 15.538C26.1146 15.062 25.5126 14.411 25.0786 13.585C24.6586 12.759 24.4486 11.821 24.4486 10.771C24.4486 9.721 24.6656 8.79 25.0996 7.978C25.5336 7.152 26.1356 6.508 26.9056 6.046C27.6756 5.57 28.5856 5.332 29.6356 5.332C30.4896 5.332 31.2456 5.507 31.9036 5.857C32.5616 6.207 33.0726 6.697 33.4366 7.327V0.879999H35.2006V16H33.6046L33.4366 14.278C33.1006 14.782 32.6176 15.237 31.9876 15.643C31.3576 16.049 30.5666 16.252 29.6146 16.252ZM29.8036 14.719C30.5036 14.719 31.1196 14.558 31.6516 14.236C32.1976 13.9 32.6176 13.438 32.9116 12.85C33.2196 12.262 33.3736 11.576 33.3736 10.792C33.3736 10.008 33.2196 9.322 32.9116 8.734C32.6176 8.146 32.1976 7.691 31.6516 7.369C31.1196 7.033 30.5036 6.865 29.8036 6.865C29.1176 6.865 28.5016 7.033 27.9556 7.369C27.4236 7.691 27.0036 8.146 26.6956 8.734C26.4016 9.322 26.2546 10.008 26.2546 10.792C26.2546 11.576 26.4016 12.262 26.6956 12.85C27.0036 13.438 27.4236 13.9 27.9556 14.236C28.5016 14.558 29.1176 14.719 29.8036 14.719ZM48.7998 12.724C48.2118 12.724 47.6728 12.647 47.1828 12.493L46.1328 13.48C46.2868 13.592 46.4758 13.69 46.6998 13.774C46.9378 13.844 47.2738 13.914 47.7078 13.984C48.1418 14.04 48.7508 14.103 49.5348 14.173C50.9348 14.271 51.9358 14.593 52.5378 15.139C53.1398 15.685 53.4408 16.399 53.4408 17.281C53.4408 17.883 53.2728 18.457 52.9368 19.003C52.6148 19.549 52.1108 19.997 51.4248 20.347C50.7528 20.697 49.8848 20.872 48.8208 20.872C47.8828 20.872 47.0498 20.746 46.3218 20.494C45.5938 20.256 45.0268 19.885 44.6208 19.381C44.2148 18.891 44.0118 18.268 44.0118 17.512C44.0118 17.12 44.1168 16.693 44.3268 16.231C44.5368 15.783 44.9288 15.356 45.5028 14.95C45.1948 14.824 44.9288 14.691 44.7048 14.551C44.4948 14.397 44.2988 14.229 44.1168 14.047V13.564L45.9018 11.8C45.0758 11.1 44.6628 10.176 44.6628 9.028C44.6628 8.342 44.8238 7.719 45.1458 7.159C45.4678 6.599 45.9368 6.158 46.5528 5.836C47.1688 5.5 47.9178 5.332 48.7998 5.332C49.4018 5.332 49.9478 5.416 50.4378 5.584H54.2808V6.907L52.3278 6.991C52.7338 7.579 52.9368 8.258 52.9368 9.028C52.9368 9.714 52.7688 10.337 52.4328 10.897C52.1108 11.457 51.6418 11.905 51.0258 12.241C50.4238 12.563 49.6818 12.724 48.7998 12.724ZM48.7998 11.275C49.5418 11.275 50.1298 11.086 50.5638 10.708C51.0118 10.316 51.2358 9.756 51.2358 9.028C51.2358 8.314 51.0118 7.768 50.5638 7.39C50.1298 6.998 49.5418 6.802 48.7998 6.802C48.0438 6.802 47.4418 6.998 46.9938 7.39C46.5598 7.768 46.3428 8.314 46.3428 9.028C46.3428 9.756 46.5598 10.316 46.9938 10.708C47.4418 11.086 48.0438 11.275 48.7998 11.275ZM45.7338 17.344C45.7338 18.044 46.0278 18.562 46.6158 18.898C47.2038 19.248 47.9388 19.423 48.8208 19.423C49.6888 19.423 50.3818 19.234 50.8998 18.856C51.4318 18.478 51.6978 17.974 51.6978 17.344C51.6978 16.896 51.5158 16.504 51.1518 16.168C50.7878 15.846 50.1158 15.657 49.1358 15.601C48.3658 15.545 47.7008 15.475 47.1408 15.391C46.5668 15.699 46.1888 16.028 46.0068 16.378C45.8248 16.742 45.7338 17.064 45.7338 17.344ZM61.0685 16.252C60.0745 16.252 59.1925 16.028 58.4225 15.58C57.6525 15.118 57.0435 14.481 56.5955 13.669C56.1615 12.857 55.9445 11.898 55.9445 10.792C55.9445 9.7 56.1615 8.748 56.5955 7.936C57.0295 7.11 57.6315 6.473 58.4015 6.025C59.1855 5.563 60.0885 5.332 61.1105 5.332C62.1185 5.332 62.9865 5.563 63.7145 6.025C64.4565 6.473 65.0235 7.068 65.4155 7.81C65.8075 8.552 66.0035 9.35 66.0035 10.204C66.0035 10.358 65.9965 10.512 65.9825 10.666C65.9825 10.82 65.9825 10.995 65.9825 11.191H57.6875C57.7295 11.989 57.9115 12.654 58.2335 13.186C58.5695 13.704 58.9825 14.096 59.4725 14.362C59.9765 14.628 60.5085 14.761 61.0685 14.761C61.7965 14.761 62.4055 14.593 62.8955 14.257C63.3855 13.921 63.7425 13.466 63.9665 12.892H65.7095C65.4295 13.858 64.8905 14.663 64.0925 15.307C63.3085 15.937 62.3005 16.252 61.0685 16.252ZM61.0685 6.823C60.2285 6.823 59.4795 7.082 58.8215 7.6C58.1775 8.104 57.8065 8.846 57.7085 9.826H64.2605C64.2185 8.888 63.8965 8.153 63.2945 7.621C62.6925 7.089 61.9505 6.823 61.0685 6.823ZM68.8666 16V5.584H70.4626L70.5676 7.453C70.9036 6.795 71.3866 6.277 72.0166 5.899C72.6466 5.521 73.3606 5.332 74.1586 5.332C75.3906 5.332 76.3706 5.71 77.0986 6.466C77.8406 7.208 78.2116 8.356 78.2116 9.91V16H76.4476V10.099C76.4476 7.929 75.5516 6.844 73.7596 6.844C72.8636 6.844 72.1146 7.173 71.5126 7.831C70.9246 8.475 70.6306 9.399 70.6306 10.603V16H68.8666ZM86.0922 16.252C85.0982 16.252 84.2162 16.028 83.4462 15.58C82.6762 15.118 82.0672 14.481 81.6192 13.669C81.1852 12.857 80.9682 11.898 80.9682 10.792C80.9682 9.7 81.1852 8.748 81.6192 7.936C82.0532 7.11 82.6552 6.473 83.4252 6.025C84.2092 5.563 85.1122 5.332 86.1342 5.332C87.1422 5.332 88.0102 5.563 88.7382 6.025C89.4802 6.473 90.0472 7.068 90.4392 7.81C90.8312 8.552 91.0272 9.35 91.0272 10.204C91.0272 10.358 91.0202 10.512 91.0062 10.666C91.0062 10.82 91.0062 10.995 91.0062 11.191H82.7112C82.7532 11.989 82.9352 12.654 83.2572 13.186C83.5932 13.704 84.0062 14.096 84.4962 14.362C85.0002 14.628 85.5322 14.761 86.0922 14.761C86.8202 14.761 87.4292 14.593 87.9192 14.257C88.4092 13.921 88.7662 13.466 88.9902 12.892H90.7332C90.4532 13.858 89.9142 14.663 89.1162 15.307C88.3322 15.937 87.3242 16.252 86.0922 16.252ZM86.0922 6.823C85.2522 6.823 84.5032 7.082 83.8452 7.6C83.2012 8.104 82.8302 8.846 82.7322 9.826H89.2842C89.2422 8.888 88.9202 8.153 88.3182 7.621C87.7162 7.089 86.9742 6.823 86.0922 6.823ZM93.8902 16V5.584H95.4862L95.6332 7.579C95.9552 6.893 96.4452 6.347 97.1032 5.941C97.7612 5.535 98.5732 5.332 99.5392 5.332V7.18H99.0562C98.4402 7.18 97.8732 7.292 97.3552 7.516C96.8372 7.726 96.4242 8.09 96.1162 8.608C95.8082 9.126 95.6542 9.84 95.6542 10.75V16H93.8902ZM105.509 16.252C104.641 16.252 103.92 16.105 103.346 15.811C102.772 15.517 102.345 15.125 102.065 14.635C101.785 14.145 101.645 13.613 101.645 13.039C101.645 11.975 102.051 11.156 102.863 10.582C103.675 10.008 104.781 9.721 106.181 9.721H108.995V9.595C108.995 8.685 108.757 7.999 108.281 7.537C107.805 7.061 107.168 6.823 106.37 6.823C105.684 6.823 105.089 6.998 104.585 7.348C104.095 7.684 103.787 8.181 103.661 8.839H101.855C101.925 8.083 102.177 7.446 102.611 6.928C103.059 6.41 103.612 6.018 104.27 5.752C104.928 5.472 105.628 5.332 106.37 5.332C107.826 5.332 108.918 5.724 109.646 6.508C110.388 7.278 110.759 8.307 110.759 9.595V16H109.184L109.079 14.131C108.785 14.719 108.351 15.223 107.777 15.643C107.217 16.049 106.461 16.252 105.509 16.252ZM105.782 14.761C106.454 14.761 107.028 14.586 107.504 14.236C107.994 13.886 108.365 13.431 108.617 12.871C108.869 12.311 108.995 11.723 108.995 11.107V11.086H106.328C105.292 11.086 104.557 11.268 104.123 11.632C103.703 11.982 103.493 12.423 103.493 12.955C103.493 13.501 103.689 13.942 104.081 14.278C104.487 14.6 105.054 14.761 105.782 14.761ZM117.759 16C116.807 16 116.058 15.769 115.512 15.307C114.966 14.845 114.693 14.012 114.693 12.808V7.075H112.887V5.584H114.693L114.924 3.085H116.457V5.584H119.523V7.075H116.457V12.808C116.457 13.466 116.59 13.914 116.856 14.152C117.122 14.376 117.591 14.488 118.263 14.488H119.355V16H117.759ZM126.685 16.252C125.691 16.252 124.809 16.028 124.039 15.58C123.269 15.118 122.66 14.481 122.212 13.669C121.778 12.857 121.561 11.898 121.561 10.792C121.561 9.7 121.778 8.748 122.212 7.936C122.646 7.11 123.248 6.473 124.018 6.025C124.802 5.563 125.705 5.332 126.727 5.332C127.735 5.332 128.603 5.563 129.331 6.025C130.073 6.473 130.64 7.068 131.032 7.81C131.424 8.552 131.62 9.35 131.62 10.204C131.62 10.358 131.613 10.512 131.599 10.666C131.599 10.82 131.599 10.995 131.599 11.191H123.304C123.346 11.989 123.528 12.654 123.85 13.186C124.186 13.704 124.599 14.096 125.089 14.362C125.593 14.628 126.125 14.761 126.685 14.761C127.413 14.761 128.022 14.593 128.512 14.257C129.002 13.921 129.359 13.466 129.583 12.892H131.326C131.046 13.858 130.507 14.663 129.709 15.307C128.925 15.937 127.917 16.252 126.685 16.252ZM126.685 6.823C125.845 6.823 125.096 7.082 124.438 7.6C123.794 8.104 123.423 8.846 123.325 9.826H129.877C129.835 8.888 129.513 8.153 128.911 7.621C128.309 7.089 127.567 6.823 126.685 6.823ZM141.7 20.62L144.283 14.992H143.674L139.537 5.584H141.448L144.892 13.69L148.546 5.584H150.373L143.548 20.62H141.7ZM156.522 16.252C155.542 16.252 154.66 16.028 153.876 15.58C153.092 15.132 152.469 14.502 152.007 13.69C151.559 12.864 151.335 11.898 151.335 10.792C151.335 9.686 151.566 8.727 152.028 7.915C152.49 7.089 153.113 6.452 153.897 6.004C154.695 5.556 155.584 5.332 156.564 5.332C157.544 5.332 158.426 5.556 159.21 6.004C159.994 6.452 160.61 7.089 161.058 7.915C161.52 8.727 161.751 9.686 161.751 10.792C161.751 11.898 161.52 12.864 161.058 13.69C160.596 14.502 159.966 15.132 159.168 15.58C158.384 16.028 157.502 16.252 156.522 16.252ZM156.522 14.74C157.124 14.74 157.684 14.593 158.202 14.299C158.72 14.005 159.14 13.564 159.462 12.976C159.784 12.388 159.945 11.66 159.945 10.792C159.945 9.924 159.784 9.196 159.462 8.608C159.154 8.02 158.741 7.579 158.223 7.285C157.705 6.991 157.152 6.844 156.564 6.844C155.962 6.844 155.402 6.991 154.884 7.285C154.366 7.579 153.946 8.02 153.624 8.608C153.302 9.196 153.141 9.924 153.141 10.792C153.141 11.66 153.302 12.388 153.624 12.976C153.946 13.564 154.359 14.005 154.863 14.299C155.381 14.593 155.934 14.74 156.522 14.74ZM168.529 16.252C167.297 16.252 166.317 15.881 165.589 15.139C164.861 14.383 164.497 13.228 164.497 11.674V5.584H166.261V11.485C166.261 13.655 167.15 14.74 168.928 14.74C169.838 14.74 170.587 14.418 171.175 13.774C171.777 13.116 172.078 12.185 172.078 10.981V5.584H173.842V16H172.246L172.12 14.131C171.798 14.789 171.315 15.307 170.671 15.685C170.041 16.063 169.327 16.252 168.529 16.252ZM177.271 16V5.584H178.867L179.014 7.579C179.336 6.893 179.826 6.347 180.484 5.941C181.142 5.535 181.954 5.332 182.92 5.332V7.18H182.437C181.821 7.18 181.254 7.292 180.736 7.516C180.218 7.726 179.805 8.09 179.497 8.608C179.189 9.126 179.035 9.84 179.035 10.75V16H177.271ZM191.612 16V1.3H193.376V16H191.612ZM196.913 16V5.584H198.509L198.614 7.453C198.95 6.795 199.433 6.277 200.063 5.899C200.693 5.521 201.407 5.332 202.205 5.332C203.437 5.332 204.417 5.71 205.145 6.466C205.887 7.208 206.258 8.356 206.258 9.91V16H204.494V10.099C204.494 7.929 203.598 6.844 201.806 6.844C200.91 6.844 200.161 7.173 199.559 7.831C198.971 8.475 198.677 9.399 198.677 10.603V16H196.913ZM213.446 16.252C212.2 16.252 211.164 15.937 210.338 15.307C209.512 14.677 209.029 13.823 208.889 12.745H210.695C210.807 13.291 211.094 13.767 211.556 14.173C212.032 14.565 212.669 14.761 213.467 14.761C214.209 14.761 214.755 14.607 215.105 14.299C215.455 13.977 215.63 13.599 215.63 13.165C215.63 12.535 215.399 12.115 214.937 11.905C214.489 11.695 213.852 11.506 213.026 11.338C212.466 11.226 211.906 11.065 211.346 10.855C210.786 10.645 210.317 10.351 209.939 9.973C209.561 9.581 209.372 9.07 209.372 8.44C209.372 7.53 209.708 6.788 210.38 6.214C211.066 5.626 211.99 5.332 213.152 5.332C214.258 5.332 215.161 5.612 215.861 6.172C216.575 6.718 216.988 7.502 217.1 8.524H215.357C215.287 7.992 215.056 7.579 214.664 7.285C214.286 6.977 213.775 6.823 213.131 6.823C212.501 6.823 212.011 6.956 211.661 7.222C211.325 7.488 211.157 7.838 211.157 8.272C211.157 8.692 211.374 9.021 211.808 9.259C212.256 9.497 212.858 9.7 213.614 9.868C214.258 10.008 214.867 10.183 215.441 10.393C216.029 10.589 216.505 10.89 216.869 11.296C217.247 11.688 217.436 12.262 217.436 13.018C217.45 13.956 217.093 14.733 216.365 15.349C215.651 15.951 214.678 16.252 213.446 16.252ZM224.125 16C223.173 16 222.424 15.769 221.878 15.307C221.332 14.845 221.059 14.012 221.059 12.808V7.075H219.253V5.584H221.059L221.29 3.085H222.823V5.584H225.889V7.075H222.823V12.808C222.823 13.466 222.956 13.914 223.222 14.152C223.488 14.376 223.957 14.488 224.629 14.488H225.721V16H224.125ZM232.12 16.252C231.252 16.252 230.531 16.105 229.957 15.811C229.383 15.517 228.956 15.125 228.676 14.635C228.396 14.145 228.256 13.613 228.256 13.039C228.256 11.975 228.662 11.156 229.474 10.582C230.286 10.008 231.392 9.721 232.792 9.721H235.606V9.595C235.606 8.685 235.368 7.999 234.892 7.537C234.416 7.061 233.779 6.823 232.981 6.823C232.295 6.823 231.7 6.998 231.196 7.348C230.706 7.684 230.398 8.181 230.272 8.839H228.466C228.536 8.083 228.788 7.446 229.222 6.928C229.67 6.41 230.223 6.018 230.881 5.752C231.539 5.472 232.239 5.332 232.981 5.332C234.437 5.332 235.529 5.724 236.257 6.508C236.999 7.278 237.37 8.307 237.37 9.595V16H235.795L235.69 14.131C235.396 14.719 234.962 15.223 234.388 15.643C233.828 16.049 233.072 16.252 232.12 16.252ZM232.393 14.761C233.065 14.761 233.639 14.586 234.115 14.236C234.605 13.886 234.976 13.431 235.228 12.871C235.48 12.311 235.606 11.723 235.606 11.107V11.086H232.939C231.903 11.086 231.168 11.268 230.734 11.632C230.314 11.982 230.104 12.423 230.104 12.955C230.104 13.501 230.3 13.942 230.692 14.278C231.098 14.6 231.665 14.761 232.393 14.761ZM246.624 16V5.584H248.22L248.367 7.579C248.689 6.893 249.179 6.347 249.837 5.941C250.495 5.535 251.307 5.332 252.273 5.332V7.18H251.79C251.174 7.18 250.607 7.292 250.089 7.516C249.571 7.726 249.158 8.09 248.85 8.608C248.542 9.126 248.388 9.84 248.388 10.75V16H246.624ZM259.071 16.252C258.077 16.252 257.195 16.028 256.425 15.58C255.655 15.118 255.046 14.481 254.598 13.669C254.164 12.857 253.947 11.898 253.947 10.792C253.947 9.7 254.164 8.748 254.598 7.936C255.032 7.11 255.634 6.473 256.404 6.025C257.188 5.563 258.091 5.332 259.113 5.332C260.121 5.332 260.989 5.563 261.717 6.025C262.459 6.473 263.026 7.068 263.418 7.81C263.81 8.552 264.006 9.35 264.006 10.204C264.006 10.358 263.999 10.512 263.985 10.666C263.985 10.82 263.985 10.995 263.985 11.191H255.69C255.732 11.989 255.914 12.654 256.236 13.186C256.572 13.704 256.985 14.096 257.475 14.362C257.979 14.628 258.511 14.761 259.071 14.761C259.799 14.761 260.408 14.593 260.898 14.257C261.388 13.921 261.745 13.466 261.969 12.892H263.712C263.432 13.858 262.893 14.663 262.095 15.307C261.311 15.937 260.303 16.252 259.071 16.252ZM259.071 6.823C258.231 6.823 257.482 7.082 256.824 7.6C256.18 8.104 255.809 8.846 255.711 9.826H262.263C262.221 8.888 261.899 8.153 261.297 7.621C260.695 7.089 259.953 6.823 259.071 6.823ZM258.588 4.723V3.4L262.998 0.732999V2.266L258.588 4.723ZM270.86 16.252C269.614 16.252 268.578 15.937 267.752 15.307C266.926 14.677 266.443 13.823 266.303 12.745H268.109C268.221 13.291 268.508 13.767 268.97 14.173C269.446 14.565 270.083 14.761 270.881 14.761C271.623 14.761 272.169 14.607 272.519 14.299C272.869 13.977 273.044 13.599 273.044 13.165C273.044 12.535 272.813 12.115 272.351 11.905C271.903 11.695 271.266 11.506 270.44 11.338C269.88 11.226 269.32 11.065 268.76 10.855C268.2 10.645 267.731 10.351 267.353 9.973C266.975 9.581 266.786 9.07 266.786 8.44C266.786 7.53 267.122 6.788 267.794 6.214C268.48 5.626 269.404 5.332 270.566 5.332C271.672 5.332 272.575 5.612 273.275 6.172C273.989 6.718 274.402 7.502 274.514 8.524H272.771C272.701 7.992 272.47 7.579 272.078 7.285C271.7 6.977 271.189 6.823 270.545 6.823C269.915 6.823 269.425 6.956 269.075 7.222C268.739 7.488 268.571 7.838 268.571 8.272C268.571 8.692 268.788 9.021 269.222 9.259C269.67 9.497 270.272 9.7 271.028 9.868C271.672 10.008 272.281 10.183 272.855 10.393C273.443 10.589 273.919 10.89 274.283 11.296C274.661 11.688 274.85 12.262 274.85 13.018C274.864 13.956 274.507 14.733 273.779 15.349C273.065 15.951 272.092 16.252 270.86 16.252ZM281.695 16.252C280.463 16.252 279.483 15.881 278.755 15.139C278.027 14.383 277.663 13.228 277.663 11.674V5.584H279.427V11.485C279.427 13.655 280.316 14.74 282.094 14.74C283.004 14.74 283.753 14.418 284.341 13.774C284.943 13.116 285.244 12.185 285.244 10.981V5.584H287.008V16H285.412L285.286 14.131C284.964 14.789 284.481 15.307 283.837 15.685C283.207 16.063 282.493 16.252 281.695 16.252ZM290.437 16V5.584H292.033L292.159 7.096C292.495 6.536 292.943 6.102 293.503 5.794C294.063 5.486 294.693 5.332 295.393 5.332C296.219 5.332 296.926 5.5 297.514 5.836C298.116 6.172 298.578 6.683 298.9 7.369C299.264 6.739 299.761 6.242 300.391 5.878C301.035 5.514 301.728 5.332 302.47 5.332C303.716 5.332 304.71 5.71 305.452 6.466C306.194 7.208 306.565 8.356 306.565 9.91V16H304.822V10.099C304.822 9.021 304.605 8.209 304.171 7.663C303.737 7.117 303.114 6.844 302.302 6.844C301.462 6.844 300.762 7.173 300.202 7.831C299.656 8.475 299.383 9.399 299.383 10.603V16H297.619V10.099C297.619 9.021 297.402 8.209 296.968 7.663C296.534 7.117 295.911 6.844 295.099 6.844C294.273 6.844 293.58 7.173 293.02 7.831C292.474 8.475 292.201 9.399 292.201 10.603V16H290.437ZM314.43 16.252C313.436 16.252 312.554 16.028 311.784 15.58C311.014 15.118 310.405 14.481 309.957 13.669C309.523 12.857 309.306 11.898 309.306 10.792C309.306 9.7 309.523 8.748 309.957 7.936C310.391 7.11 310.993 6.473 311.763 6.025C312.547 5.563 313.45 5.332 314.472 5.332C315.48 5.332 316.348 5.563 317.076 6.025C317.818 6.473 318.385 7.068 318.777 7.81C319.169 8.552 319.365 9.35 319.365 10.204C319.365 10.358 319.358 10.512 319.344 10.666C319.344 10.82 319.344 10.995 319.344 11.191H311.049C311.091 11.989 311.273 12.654 311.595 13.186C311.931 13.704 312.344 14.096 312.834 14.362C313.338 14.628 313.87 14.761 314.43 14.761C315.158 14.761 315.767 14.593 316.257 14.257C316.747 13.921 317.104 13.466 317.328 12.892H319.071C318.791 13.858 318.252 14.663 317.454 15.307C316.67 15.937 315.662 16.252 314.43 16.252ZM314.43 6.823C313.59 6.823 312.841 7.082 312.183 7.6C311.539 8.104 311.168 8.846 311.07 9.826H317.622C317.58 8.888 317.258 8.153 316.656 7.621C316.054 7.089 315.312 6.823 314.43 6.823ZM313.947 4.723V3.4L318.357 0.732999V2.266L313.947 4.723ZM322.606 11.926L322.396 1.3H324.307L324.097 11.926H322.606ZM323.404 16.105C323.054 16.105 322.76 15.993 322.522 15.769C322.298 15.531 322.186 15.244 322.186 14.908C322.186 14.572 322.298 14.292 322.522 14.068C322.76 13.83 323.054 13.711 323.404 13.711C323.74 13.711 324.02 13.83 324.244 14.068C324.482 14.292 324.601 14.572 324.601 14.908C324.601 15.244 324.482 15.531 324.244 15.769C324.02 15.993 323.74 16.105 323.404 16.105Z" fill="#828282"/>
</svg>
