<svg width="53" height="20" viewBox="0 0 53 20" fill="none" xmlns="http://www.w3.org/2000/svg">
<path d="M4.77263 19L0.0406328 6.104H3.52463L6.80063 15.854L10.0766 6.104H13.5606L8.80263 19H4.77263ZM17.4537 4.102C16.8471 4.102 16.3444 3.92 15.9457 3.556C15.5644 3.192 15.3737 2.73267 15.3737 2.178C15.3737 1.62333 15.5644 1.17267 15.9457 0.825998C16.3444 0.461999 16.8471 0.279999 17.4537 0.279999C18.0604 0.279999 18.5544 0.461999 18.9357 0.825998C19.3344 1.17267 19.5337 1.62333 19.5337 2.178C19.5337 2.73267 19.3344 3.192 18.9357 3.556C18.5544 3.92 18.0604 4.102 17.4537 4.102ZM15.7897 19V6.104H19.1177V19H15.7897ZM30.2354 19.312C29.2647 19.312 28.4154 19.13 27.6874 18.766C26.9594 18.402 26.37 17.8907 25.9194 17.232L25.5554 19H22.5914V0.279999H25.9194V7.95C26.3354 7.378 26.8814 6.87533 27.5574 6.442C28.2507 6.00867 29.1434 5.792 30.2354 5.792C31.4487 5.792 32.532 6.08667 33.4854 6.676C34.4387 7.26533 35.1927 8.07133 35.7474 9.094C36.302 10.1167 36.5794 11.278 36.5794 12.578C36.5794 13.878 36.302 15.0393 35.7474 16.062C35.1927 17.0673 34.4387 17.8647 33.4854 18.454C32.532 19.026 31.4487 19.312 30.2354 19.312ZM29.5334 16.4C30.5907 16.4 31.466 16.0447 32.1594 15.334C32.8527 14.6233 33.1994 13.7047 33.1994 12.578C33.1994 11.4513 32.8527 10.524 32.1594 9.796C31.466 9.068 30.5907 8.704 29.5334 8.704C28.4587 8.704 27.5747 9.068 26.8814 9.796C26.2054 10.5067 25.8674 11.4253 25.8674 12.552C25.8674 13.6787 26.2054 14.606 26.8814 15.334C27.5747 16.0447 28.4587 16.4 29.5334 16.4ZM45.8183 19.312C44.5183 19.312 43.3656 19.0347 42.3603 18.48C41.355 17.9253 40.5663 17.1453 39.9943 16.14C39.4223 15.1347 39.1363 13.9733 39.1363 12.656C39.1363 11.3213 39.4136 10.134 39.9683 9.094C40.5403 8.054 41.3203 7.248 42.3083 6.676C43.3136 6.08667 44.4923 5.792 45.8443 5.792C47.1096 5.792 48.2276 6.06933 49.1983 6.624C50.169 7.17867 50.923 7.94133 51.4603 8.912C52.015 9.86533 52.2923 10.9313 52.2923 12.11C52.2923 12.3007 52.2836 12.5 52.2663 12.708C52.2663 12.916 52.2576 13.1327 52.2403 13.358H42.4383C42.5076 14.3633 42.8543 15.152 43.4783 15.724C44.1196 16.296 44.891 16.582 45.7923 16.582C46.4683 16.582 47.0316 16.4347 47.4823 16.14C47.9503 15.828 48.297 15.4293 48.5223 14.944H51.9023C51.6596 15.7587 51.2523 16.504 50.6803 17.18C50.1256 17.8387 49.4323 18.3587 48.6003 18.74C47.7856 19.1213 46.8583 19.312 45.8183 19.312ZM45.8443 8.496C45.0296 8.496 44.3103 8.73 43.6863 9.198C43.0623 9.64867 42.6636 10.342 42.4903 11.278H48.9123C48.8603 10.4287 48.5483 9.75267 47.9763 9.25C47.4043 8.74733 46.6936 8.496 45.8443 8.496Z" fill="black"/>
</svg>
