<svg width="195" height="27" viewBox="0 0 195 27" fill="none" xmlns="http://www.w3.org/2000/svg">
<path d="M8.928 26V16.424L0.72 0.799998H4.14L10.44 13.544L16.74 0.799998H20.124L11.952 16.424V26H8.928ZM28.3388 26.432C26.6588 26.432 25.1468 26.048 23.8028 25.28C22.4588 24.512 21.3908 23.432 20.5988 22.04C19.8308 20.624 19.4468 18.968 19.4468 17.072C19.4468 15.176 19.8428 13.532 20.6348 12.14C21.4268 10.724 22.4948 9.632 23.8388 8.864C25.2068 8.096 26.7308 7.712 28.4108 7.712C30.0908 7.712 31.6028 8.096 32.9468 8.864C34.2908 9.632 35.3468 10.724 36.1148 12.14C36.9068 13.532 37.3028 15.176 37.3028 17.072C37.3028 18.968 36.9068 20.624 36.1148 22.04C35.3228 23.432 34.2428 24.512 32.8748 25.28C31.5308 26.048 30.0188 26.432 28.3388 26.432ZM28.3388 23.84C29.3708 23.84 30.3308 23.588 31.2188 23.084C32.1068 22.58 32.8268 21.824 33.3788 20.816C33.9308 19.808 34.2068 18.56 34.2068 17.072C34.2068 15.584 33.9308 14.336 33.3788 13.328C32.8508 12.32 32.1428 11.564 31.2548 11.06C30.3668 10.556 29.4188 10.304 28.4108 10.304C27.3788 10.304 26.4188 10.556 25.5308 11.06C24.6428 11.564 23.9228 12.32 23.3708 13.328C22.8188 14.336 22.5428 15.584 22.5428 17.072C22.5428 18.56 22.8188 19.808 23.3708 20.816C23.9228 21.824 24.6308 22.58 25.4948 23.084C26.3828 23.588 27.3308 23.84 28.3388 23.84ZM48.0234 26.432C45.9114 26.432 44.2314 25.796 42.9834 24.524C41.7354 23.228 41.1114 21.248 41.1114 18.584V8.144H44.1354V18.26C44.1354 21.98 45.6594 23.84 48.7074 23.84C50.2674 23.84 51.5514 23.288 52.5594 22.184C53.5914 21.056 54.1074 19.46 54.1074 17.396V8.144H57.1314V26H54.3954L54.1794 22.796C53.6274 23.924 52.7994 24.812 51.6954 25.46C50.6154 26.108 49.3914 26.432 48.0234 26.432ZM62.109 26V8.144H64.845L65.097 11.564C65.649 10.388 66.489 9.452 67.617 8.756C68.745 8.06 70.137 7.712 71.793 7.712V10.88H70.965C69.909 10.88 68.937 11.072 68.049 11.456C67.161 11.816 66.453 12.44 65.925 13.328C65.397 14.216 65.133 15.44 65.133 17V26H62.109ZM89.8625 26L83.0945 8.144H86.2625L91.6265 23.084L97.0265 8.144H100.122L93.3545 26H89.8625ZM105.324 4.184C104.724 4.184 104.22 3.992 103.812 3.608C103.428 3.2 103.236 2.696 103.236 2.096C103.236 1.52 103.428 1.04 103.812 0.655998C104.22 0.271999 104.724 0.079999 105.324 0.079999C105.9 0.079999 106.392 0.271999 106.8 0.655998C107.208 1.04 107.412 1.52 107.412 2.096C107.412 2.696 107.208 3.2 106.8 3.608C106.392 3.992 105.9 4.184 105.324 4.184ZM103.812 26V8.144H106.836V26H103.812ZM121.641 26.432C120.177 26.432 118.869 26.132 117.717 25.532C116.589 24.932 115.725 24.092 115.125 23.012L114.837 26H112.101V0.079999H115.125V11.096C115.701 10.232 116.517 9.452 117.573 8.756C118.653 8.06 120.021 7.712 121.677 7.712C123.453 7.712 125.001 8.12 126.321 8.936C127.641 9.752 128.661 10.868 129.381 12.284C130.125 13.7 130.497 15.308 130.497 17.108C130.497 18.908 130.125 20.516 129.381 21.932C128.661 23.324 127.629 24.428 126.285 25.244C124.965 26.036 123.417 26.432 121.641 26.432ZM121.317 23.804C122.517 23.804 123.573 23.528 124.485 22.976C125.397 22.4 126.117 21.608 126.645 20.6C127.173 19.592 127.437 18.416 127.437 17.072C127.437 15.728 127.173 14.552 126.645 13.544C126.117 12.536 125.397 11.756 124.485 11.204C123.573 10.628 122.517 10.34 121.317 10.34C120.117 10.34 119.061 10.628 118.149 11.204C117.237 11.756 116.517 12.536 115.989 13.544C115.461 14.552 115.197 15.728 115.197 17.072C115.197 18.416 115.461 19.592 115.989 20.6C116.517 21.608 117.237 22.4 118.149 22.976C119.061 23.528 120.117 23.804 121.317 23.804ZM142.735 26.432C141.031 26.432 139.519 26.048 138.199 25.28C136.879 24.488 135.835 23.396 135.067 22.004C134.323 20.612 133.951 18.968 133.951 17.072C133.951 15.2 134.323 13.568 135.067 12.176C135.811 10.76 136.843 9.668 138.163 8.9C139.507 8.108 141.055 7.712 142.807 7.712C144.535 7.712 146.023 8.108 147.271 8.9C148.543 9.668 149.515 10.688 150.187 11.96C150.859 13.232 151.195 14.6 151.195 16.064C151.195 16.328 151.183 16.592 151.159 16.856C151.159 17.12 151.159 17.42 151.159 17.756H136.939C137.011 19.124 137.323 20.264 137.875 21.176C138.451 22.064 139.159 22.736 139.999 23.192C140.863 23.648 141.775 23.876 142.735 23.876C143.983 23.876 145.027 23.588 145.867 23.012C146.707 22.436 147.319 21.656 147.703 20.672H150.691C150.211 22.328 149.287 23.708 147.919 24.812C146.575 25.892 144.847 26.432 142.735 26.432ZM142.735 10.268C141.295 10.268 140.011 10.712 138.883 11.6C137.779 12.464 137.143 13.736 136.975 15.416H148.207C148.135 13.808 147.583 12.548 146.551 11.636C145.519 10.724 144.247 10.268 142.735 10.268ZM166.566 4.184C165.966 4.184 165.462 3.992 165.054 3.608C164.67 3.2 164.478 2.696 164.478 2.096C164.478 1.52 164.67 1.04 165.054 0.655998C165.462 0.271999 165.966 0.079999 166.566 0.079999C167.142 0.079999 167.634 0.271999 168.042 0.655998C168.45 1.04 168.654 1.52 168.654 2.096C168.654 2.696 168.45 3.2 168.042 3.608C167.634 3.992 167.142 4.184 166.566 4.184ZM165.054 26V8.144H168.078V26H165.054ZM180.183 26.432C178.047 26.432 176.271 25.892 174.855 24.812C173.439 23.732 172.611 22.268 172.371 20.42H175.467C175.659 21.356 176.151 22.172 176.943 22.868C177.759 23.54 178.851 23.876 180.219 23.876C181.491 23.876 182.427 23.612 183.027 23.084C183.627 22.532 183.927 21.884 183.927 21.14C183.927 20.06 183.531 19.34 182.739 18.98C181.971 18.62 180.879 18.296 179.463 18.008C178.503 17.816 177.543 17.54 176.583 17.18C175.623 16.82 174.819 16.316 174.171 15.668C173.523 14.996 173.199 14.12 173.199 13.04C173.199 11.48 173.775 10.208 174.927 9.224C176.103 8.216 177.687 7.712 179.679 7.712C181.575 7.712 183.123 8.192 184.323 9.152C185.547 10.088 186.255 11.432 186.447 13.184H183.459C183.339 12.272 182.943 11.564 182.271 11.06C181.623 10.532 180.747 10.268 179.643 10.268C178.563 10.268 177.723 10.496 177.123 10.952C176.547 11.408 176.259 12.008 176.259 12.752C176.259 13.472 176.631 14.036 177.375 14.444C178.143 14.852 179.175 15.2 180.471 15.488C181.575 15.728 182.619 16.028 183.603 16.388C184.611 16.724 185.427 17.24 186.051 17.936C186.699 18.608 187.023 19.592 187.023 20.888C187.047 22.496 186.435 23.828 185.187 24.884C183.963 25.916 182.295 26.432 180.183 26.432ZM192.387 26.18C191.787 26.18 191.283 25.988 190.875 25.604C190.491 25.196 190.299 24.704 190.299 24.128C190.299 23.552 190.491 23.072 190.875 22.688C191.283 22.28 191.787 22.076 192.387 22.076C192.963 22.076 193.443 22.28 193.827 22.688C194.235 23.072 194.439 23.552 194.439 24.128C194.439 24.704 194.235 25.196 193.827 25.604C193.443 25.988 192.963 26.18 192.387 26.18ZM192.387 11.816C191.787 11.816 191.283 11.624 190.875 11.24C190.491 10.832 190.299 10.34 190.299 9.764C190.299 9.188 190.491 8.708 190.875 8.324C191.283 7.916 191.787 7.712 192.387 7.712C192.963 7.712 193.443 7.916 193.827 8.324C194.235 8.708 194.439 9.188 194.439 9.764C194.439 10.34 194.235 10.832 193.827 11.24C193.443 11.624 192.963 11.816 192.387 11.816Z" fill="black"/>
</svg>
