<svg width="319" height="74" viewBox="0 0 319 74" fill="none" xmlns="http://www.w3.org/2000/svg">
<path d="M8.928 26V16.424L0.72 0.799998H4.14L10.44 13.544L16.74 0.799998H20.124L11.952 16.424V26H8.928ZM28.3388 26.432C26.6588 26.432 25.1468 26.048 23.8028 25.28C22.4588 24.512 21.3908 23.432 20.5988 22.04C19.8308 20.624 19.4468 18.968 19.4468 17.072C19.4468 15.176 19.8428 13.532 20.6348 12.14C21.4268 10.724 22.4948 9.632 23.8388 8.864C25.2068 8.096 26.7308 7.712 28.4108 7.712C30.0908 7.712 31.6028 8.096 32.9468 8.864C34.2908 9.632 35.3468 10.724 36.1148 12.14C36.9068 13.532 37.3028 15.176 37.3028 17.072C37.3028 18.968 36.9068 20.624 36.1148 22.04C35.3228 23.432 34.2428 24.512 32.8748 25.28C31.5308 26.048 30.0188 26.432 28.3388 26.432ZM28.3388 23.84C29.3708 23.84 30.3308 23.588 31.2188 23.084C32.1068 22.58 32.8268 21.824 33.3788 20.816C33.9308 19.808 34.2068 18.56 34.2068 17.072C34.2068 15.584 33.9308 14.336 33.3788 13.328C32.8508 12.32 32.1428 11.564 31.2548 11.06C30.3668 10.556 29.4188 10.304 28.4108 10.304C27.3788 10.304 26.4188 10.556 25.5308 11.06C24.6428 11.564 23.9228 12.32 23.3708 13.328C22.8188 14.336 22.5428 15.584 22.5428 17.072C22.5428 18.56 22.8188 19.808 23.3708 20.816C23.9228 21.824 24.6308 22.58 25.4948 23.084C26.3828 23.588 27.3308 23.84 28.3388 23.84ZM48.0234 26.432C45.9114 26.432 44.2314 25.796 42.9834 24.524C41.7354 23.228 41.1114 21.248 41.1114 18.584V8.144H44.1354V18.26C44.1354 21.98 45.6594 23.84 48.7074 23.84C50.2674 23.84 51.5514 23.288 52.5594 22.184C53.5914 21.056 54.1074 19.46 54.1074 17.396V8.144H57.1314V26H54.3954L54.1794 22.796C53.6274 23.924 52.7994 24.812 51.6954 25.46C50.6154 26.108 49.3914 26.432 48.0234 26.432ZM62.109 26V8.144H64.845L65.097 11.564C65.649 10.388 66.489 9.452 67.617 8.756C68.745 8.06 70.137 7.712 71.793 7.712V10.88H70.965C69.909 10.88 68.937 11.072 68.049 11.456C67.161 11.816 66.453 12.44 65.925 13.328C65.397 14.216 65.133 15.44 65.133 17V26H62.109ZM84.7145 26V8.144H87.4505L87.6665 10.736C88.2425 9.776 89.0105 9.032 89.9705 8.504C90.9305 7.976 92.0105 7.712 93.2105 7.712C94.6265 7.712 95.8385 8 96.8465 8.576C97.8785 9.152 98.6705 10.028 99.2225 11.204C99.8465 10.124 100.698 9.272 101.778 8.648C102.882 8.024 104.07 7.712 105.342 7.712C107.478 7.712 109.182 8.36 110.454 9.656C111.726 10.928 112.362 12.896 112.362 15.56V26H109.374V15.884C109.374 14.036 109.002 12.644 108.258 11.708C107.514 10.772 106.446 10.304 105.054 10.304C103.614 10.304 102.414 10.868 101.454 11.996C100.518 13.1 100.05 14.684 100.05 16.748V26H97.0265V15.884C97.0265 14.036 96.6545 12.644 95.9105 11.708C95.1665 10.772 94.0985 10.304 92.7065 10.304C91.2905 10.304 90.1025 10.868 89.1425 11.996C88.2065 13.1 87.7385 14.684 87.7385 16.748V26H84.7145ZM125.054 26.432C123.374 26.432 121.862 26.048 120.518 25.28C119.174 24.512 118.106 23.432 117.314 22.04C116.546 20.624 116.162 18.968 116.162 17.072C116.162 15.176 116.558 13.532 117.35 12.14C118.142 10.724 119.21 9.632 120.554 8.864C121.922 8.096 123.446 7.712 125.126 7.712C126.806 7.712 128.318 8.096 129.662 8.864C131.006 9.632 132.062 10.724 132.83 12.14C133.622 13.532 134.018 15.176 134.018 17.072C134.018 18.968 133.622 20.624 132.83 22.04C132.038 23.432 130.958 24.512 129.59 25.28C128.246 26.048 126.734 26.432 125.054 26.432ZM125.054 23.84C126.086 23.84 127.046 23.588 127.934 23.084C128.822 22.58 129.542 21.824 130.094 20.816C130.646 19.808 130.922 18.56 130.922 17.072C130.922 15.584 130.646 14.336 130.094 13.328C129.566 12.32 128.858 11.564 127.97 11.06C127.082 10.556 126.134 10.304 125.126 10.304C124.094 10.304 123.134 10.556 122.246 11.06C121.358 11.564 120.638 12.32 120.086 13.328C119.534 14.336 119.258 15.584 119.258 17.072C119.258 18.56 119.534 19.808 120.086 20.816C120.638 21.824 121.346 22.58 122.21 23.084C123.098 23.588 124.046 23.84 125.054 23.84ZM145.062 26.432C142.926 26.432 141.15 25.892 139.734 24.812C138.318 23.732 137.49 22.268 137.25 20.42H140.346C140.538 21.356 141.03 22.172 141.822 22.868C142.638 23.54 143.73 23.876 145.098 23.876C146.37 23.876 147.306 23.612 147.906 23.084C148.506 22.532 148.806 21.884 148.806 21.14C148.806 20.06 148.41 19.34 147.618 18.98C146.85 18.62 145.758 18.296 144.342 18.008C143.382 17.816 142.422 17.54 141.462 17.18C140.502 16.82 139.698 16.316 139.05 15.668C138.402 14.996 138.078 14.12 138.078 13.04C138.078 11.48 138.654 10.208 139.806 9.224C140.982 8.216 142.566 7.712 144.558 7.712C146.454 7.712 148.002 8.192 149.202 9.152C150.426 10.088 151.134 11.432 151.326 13.184H148.338C148.218 12.272 147.822 11.564 147.15 11.06C146.502 10.532 145.626 10.268 144.522 10.268C143.442 10.268 142.602 10.496 142.002 10.952C141.426 11.408 141.138 12.008 141.138 12.752C141.138 13.472 141.51 14.036 142.254 14.444C143.022 14.852 144.054 15.2 145.35 15.488C146.454 15.728 147.498 16.028 148.482 16.388C149.49 16.724 150.306 17.24 150.93 17.936C151.578 18.608 151.902 19.592 151.902 20.888C151.926 22.496 151.314 23.828 150.066 24.884C148.842 25.916 147.174 26.432 145.062 26.432ZM162.47 26C160.838 26 159.554 25.604 158.618 24.812C157.682 24.02 157.214 22.592 157.214 20.528V10.7H154.118V8.144H157.214L157.61 3.86H160.238V8.144H165.494V10.7H160.238V20.528C160.238 21.656 160.466 22.424 160.922 22.832C161.378 23.216 162.182 23.408 163.334 23.408H165.206V26H162.47ZM179.835 26V10.7H177.135V8.144H179.835V5.048C179.835 3.32 180.267 2.06 181.131 1.268C181.995 0.475999 183.255 0.079999 184.911 0.079999H186.711V2.672H185.379C184.467 2.672 183.819 2.864 183.435 3.248C183.051 3.608 182.859 4.232 182.859 5.12V8.144H187.251V10.7H182.859V26H179.835ZM190.851 26V8.144H193.587L193.839 11.564C194.391 10.388 195.231 9.452 196.359 8.756C197.487 8.06 198.879 7.712 200.535 7.712V10.88H199.707C198.651 10.88 197.679 11.072 196.791 11.456C195.903 11.816 195.195 12.44 194.667 13.328C194.139 14.216 193.875 15.44 193.875 17V26H190.851ZM211.289 26.432C209.585 26.432 208.073 26.048 206.753 25.28C205.433 24.488 204.389 23.396 203.621 22.004C202.877 20.612 202.505 18.968 202.505 17.072C202.505 15.2 202.877 13.568 203.621 12.176C204.365 10.76 205.397 9.668 206.717 8.9C208.061 8.108 209.609 7.712 211.361 7.712C213.089 7.712 214.577 8.108 215.825 8.9C217.097 9.668 218.069 10.688 218.741 11.96C219.413 13.232 219.749 14.6 219.749 16.064C219.749 16.328 219.737 16.592 219.713 16.856C219.713 17.12 219.713 17.42 219.713 17.756H205.493C205.565 19.124 205.877 20.264 206.429 21.176C207.005 22.064 207.713 22.736 208.553 23.192C209.417 23.648 210.329 23.876 211.289 23.876C212.537 23.876 213.581 23.588 214.421 23.012C215.261 22.436 215.873 21.656 216.257 20.672H219.245C218.765 22.328 217.841 23.708 216.473 24.812C215.129 25.892 213.401 26.432 211.289 26.432ZM211.289 10.268C209.849 10.268 208.565 10.712 207.437 11.6C206.333 12.464 205.697 13.736 205.529 15.416H216.761C216.689 13.808 216.137 12.548 215.105 11.636C214.073 10.724 212.801 10.268 211.289 10.268ZM238.409 33.92V23.048C237.833 23.912 237.005 24.692 235.925 25.388C234.845 26.084 233.489 26.432 231.857 26.432C230.081 26.432 228.521 26.024 227.177 25.208C225.857 24.392 224.825 23.276 224.081 21.86C223.361 20.444 223.001 18.836 223.001 17.036C223.001 15.236 223.373 13.64 224.117 12.248C224.861 10.832 225.893 9.728 227.213 8.936C228.533 8.12 230.093 7.712 231.893 7.712C233.357 7.712 234.653 8.012 235.781 8.612C236.909 9.212 237.785 10.052 238.409 11.132L238.697 8.144H241.433V33.92H238.409ZM232.181 23.804C233.381 23.804 234.437 23.528 235.349 22.976C236.285 22.4 237.005 21.608 237.509 20.6C238.037 19.592 238.301 18.416 238.301 17.072C238.301 15.728 238.037 14.552 237.509 13.544C237.005 12.536 236.285 11.756 235.349 11.204C234.437 10.628 233.381 10.34 232.181 10.34C231.005 10.34 229.949 10.628 229.013 11.204C228.101 11.756 227.381 12.536 226.853 13.544C226.349 14.552 226.097 15.728 226.097 17.072C226.097 18.416 226.349 19.592 226.853 20.6C227.381 21.608 228.101 22.4 229.013 22.976C229.949 23.528 231.005 23.804 232.181 23.804ZM252.879 26.432C250.767 26.432 249.087 25.796 247.839 24.524C246.591 23.228 245.967 21.248 245.967 18.584V8.144H248.991V18.26C248.991 21.98 250.515 23.84 253.563 23.84C255.123 23.84 256.407 23.288 257.415 22.184C258.447 21.056 258.963 19.46 258.963 17.396V8.144H261.987V26H259.251L259.035 22.796C258.483 23.924 257.655 24.812 256.551 25.46C255.471 26.108 254.247 26.432 252.879 26.432ZM274.992 26.432C273.288 26.432 271.776 26.048 270.456 25.28C269.136 24.488 268.092 23.396 267.324 22.004C266.58 20.612 266.208 18.968 266.208 17.072C266.208 15.2 266.58 13.568 267.324 12.176C268.068 10.76 269.1 9.668 270.42 8.9C271.764 8.108 273.312 7.712 275.064 7.712C276.792 7.712 278.28 8.108 279.528 8.9C280.8 9.668 281.772 10.688 282.444 11.96C283.116 13.232 283.452 14.6 283.452 16.064C283.452 16.328 283.44 16.592 283.416 16.856C283.416 17.12 283.416 17.42 283.416 17.756H269.196C269.268 19.124 269.58 20.264 270.132 21.176C270.708 22.064 271.416 22.736 272.256 23.192C273.12 23.648 274.032 23.876 274.992 23.876C276.24 23.876 277.284 23.588 278.124 23.012C278.964 22.436 279.576 21.656 279.96 20.672H282.948C282.468 22.328 281.544 23.708 280.176 24.812C278.832 25.892 277.104 26.432 274.992 26.432ZM274.992 10.268C273.552 10.268 272.268 10.712 271.14 11.6C270.036 12.464 269.4 13.736 269.232 15.416H280.464C280.392 13.808 279.84 12.548 278.808 11.636C277.776 10.724 276.504 10.268 274.992 10.268ZM287.461 26V8.144H290.197L290.377 11.348C290.953 10.22 291.781 9.332 292.861 8.684C293.941 8.036 295.165 7.712 296.533 7.712C298.645 7.712 300.325 8.36 301.573 9.656C302.845 10.928 303.481 12.896 303.481 15.56V26H300.457V15.884C300.457 12.164 298.921 10.304 295.849 10.304C294.313 10.304 293.029 10.868 291.997 11.996C290.989 13.1 290.485 14.684 290.485 16.748V26H287.461ZM315.118 26C313.486 26 312.202 25.604 311.266 24.812C310.33 24.02 309.862 22.592 309.862 20.528V10.7H306.766V8.144H309.862L310.258 3.86H312.886V8.144H318.142V10.7H312.886V20.528C312.886 21.656 313.114 22.424 313.57 22.832C314.026 23.216 314.83 23.408 315.982 23.408H317.854V26H315.118ZM10.692 73.432C8.988 73.432 7.452 73.048 6.084 72.28C4.74 71.488 3.672 70.396 2.88 69.004C2.112 67.588 1.728 65.944 1.728 64.072C1.728 62.2 2.112 60.568 2.88 59.176C3.672 57.76 4.74 56.668 6.084 55.9C7.452 55.108 8.988 54.712 10.692 54.712C12.804 54.712 14.58 55.264 16.02 56.368C17.484 57.472 18.408 58.948 18.792 60.796H15.696C15.456 59.692 14.868 58.84 13.932 58.24C12.996 57.616 11.904 57.304 10.656 57.304C9.648 57.304 8.7 57.556 7.812 58.06C6.924 58.564 6.204 59.32 5.652 60.328C5.1 61.336 4.824 62.584 4.824 64.072C4.824 65.56 5.1 66.808 5.652 67.816C6.204 68.824 6.924 69.592 7.812 70.12C8.7 70.624 9.648 70.876 10.656 70.876C11.904 70.876 12.996 70.576 13.932 69.976C14.868 69.352 15.456 68.476 15.696 67.348H18.792C18.432 69.148 17.52 70.612 16.056 71.74C14.592 72.868 12.804 73.432 10.692 73.432ZM31.1513 73.432C29.4713 73.432 27.9593 73.048 26.6153 72.28C25.2713 71.512 24.2033 70.432 23.4113 69.04C22.6433 67.624 22.2593 65.968 22.2593 64.072C22.2593 62.176 22.6553 60.532 23.4473 59.14C24.2393 57.724 25.3073 56.632 26.6513 55.864C28.0193 55.096 29.5433 54.712 31.2233 54.712C32.9033 54.712 34.4153 55.096 35.7593 55.864C37.1033 56.632 38.1593 57.724 38.9273 59.14C39.7193 60.532 40.1153 62.176 40.1153 64.072C40.1153 65.968 39.7193 67.624 38.9273 69.04C38.1353 70.432 37.0553 71.512 35.6873 72.28C34.3433 73.048 32.8313 73.432 31.1513 73.432ZM31.1513 70.84C32.1833 70.84 33.1433 70.588 34.0313 70.084C34.9193 69.58 35.6393 68.824 36.1913 67.816C36.7433 66.808 37.0193 65.56 37.0193 64.072C37.0193 62.584 36.7433 61.336 36.1913 60.328C35.6633 59.32 34.9553 58.564 34.0673 58.06C33.1793 57.556 32.2313 57.304 31.2233 57.304C30.1913 57.304 29.2313 57.556 28.3433 58.06C27.4553 58.564 26.7353 59.32 26.1833 60.328C25.6313 61.336 25.3553 62.584 25.3553 64.072C25.3553 65.56 25.6313 66.808 26.1833 67.816C26.7353 68.824 27.4433 69.58 28.3073 70.084C29.1953 70.588 30.1433 70.84 31.1513 70.84ZM44.3199 73V47.08H47.3439V73H44.3199ZM60.4364 73.432C58.7564 73.432 57.2444 73.048 55.9004 72.28C54.5564 71.512 53.4884 70.432 52.6964 69.04C51.9284 67.624 51.5444 65.968 51.5444 64.072C51.5444 62.176 51.9404 60.532 52.7324 59.14C53.5244 57.724 54.5924 56.632 55.9364 55.864C57.3044 55.096 58.8284 54.712 60.5084 54.712C62.1884 54.712 63.7004 55.096 65.0444 55.864C66.3884 56.632 67.4444 57.724 68.2124 59.14C69.0044 60.532 69.4004 62.176 69.4004 64.072C69.4004 65.968 69.0044 67.624 68.2124 69.04C67.4204 70.432 66.3404 71.512 64.9724 72.28C63.6284 73.048 62.1164 73.432 60.4364 73.432ZM60.4364 70.84C61.4684 70.84 62.4284 70.588 63.3164 70.084C64.2044 69.58 64.9244 68.824 65.4764 67.816C66.0284 66.808 66.3044 65.56 66.3044 64.072C66.3044 62.584 66.0284 61.336 65.4764 60.328C64.9484 59.32 64.2404 58.564 63.3524 58.06C62.4644 57.556 61.5164 57.304 60.5084 57.304C59.4764 57.304 58.5164 57.556 57.6284 58.06C56.7404 58.564 56.0204 59.32 55.4684 60.328C54.9164 61.336 54.6404 62.584 54.6404 64.072C54.6404 65.56 54.9164 66.808 55.4684 67.816C56.0204 68.824 56.7284 69.58 57.5924 70.084C58.4804 70.588 59.4284 70.84 60.4364 70.84ZM73.6051 73V55.144H76.3411L76.5931 58.564C77.1451 57.388 77.9851 56.452 79.1131 55.756C80.2411 55.06 81.6331 54.712 83.2891 54.712V57.88H82.4611C81.4051 57.88 80.4331 58.072 79.5451 58.456C78.6571 58.816 77.9491 59.44 77.4211 60.328C76.8931 61.216 76.6291 62.44 76.6291 64V73H73.6051ZM98.0466 51.184C97.4466 51.184 96.9426 50.992 96.5346 50.608C96.1506 50.2 95.9586 49.696 95.9586 49.096C95.9586 48.52 96.1506 48.04 96.5346 47.656C96.9426 47.272 97.4466 47.08 98.0466 47.08C98.6226 47.08 99.1146 47.272 99.5226 47.656C99.9306 48.04 100.135 48.52 100.135 49.096C100.135 49.696 99.9306 50.2 99.5226 50.608C99.1146 50.992 98.6226 51.184 98.0466 51.184ZM96.5346 73V55.144H99.5586V73H96.5346ZM111.664 73.432C109.528 73.432 107.752 72.892 106.336 71.812C104.92 70.732 104.092 69.268 103.852 67.42H106.948C107.14 68.356 107.632 69.172 108.424 69.868C109.24 70.54 110.332 70.876 111.7 70.876C112.972 70.876 113.908 70.612 114.508 70.084C115.108 69.532 115.408 68.884 115.408 68.14C115.408 67.06 115.012 66.34 114.22 65.98C113.452 65.62 112.36 65.296 110.944 65.008C109.984 64.816 109.024 64.54 108.064 64.18C107.104 63.82 106.3 63.316 105.652 62.668C105.004 61.996 104.68 61.12 104.68 60.04C104.68 58.48 105.256 57.208 106.408 56.224C107.584 55.216 109.168 54.712 111.16 54.712C113.056 54.712 114.604 55.192 115.804 56.152C117.028 57.088 117.736 58.432 117.928 60.184H114.94C114.82 59.272 114.424 58.564 113.752 58.06C113.104 57.532 112.228 57.268 111.124 57.268C110.044 57.268 109.204 57.496 108.604 57.952C108.028 58.408 107.74 59.008 107.74 59.752C107.74 60.472 108.112 61.036 108.856 61.444C109.624 61.852 110.656 62.2 111.952 62.488C113.056 62.728 114.1 63.028 115.084 63.388C116.092 63.724 116.908 64.24 117.532 64.936C118.18 65.608 118.504 66.592 118.504 67.888C118.528 69.496 117.916 70.828 116.668 71.884C115.444 72.916 113.776 73.432 111.664 73.432ZM123.868 73.18C123.268 73.18 122.764 72.988 122.356 72.604C121.972 72.196 121.78 71.704 121.78 71.128C121.78 70.552 121.972 70.072 122.356 69.688C122.764 69.28 123.268 69.076 123.868 69.076C124.444 69.076 124.924 69.28 125.308 69.688C125.716 70.072 125.92 70.552 125.92 71.128C125.92 71.704 125.716 72.196 125.308 72.604C124.924 72.988 124.444 73.18 123.868 73.18ZM123.868 58.816C123.268 58.816 122.764 58.624 122.356 58.24C121.972 57.832 121.78 57.34 121.78 56.764C121.78 56.188 121.972 55.708 122.356 55.324C122.764 54.916 123.268 54.712 123.868 54.712C124.444 54.712 124.924 54.916 125.308 55.324C125.716 55.708 125.92 56.188 125.92 56.764C125.92 57.34 125.716 57.832 125.308 58.24C124.924 58.624 124.444 58.816 123.868 58.816Z" fill="black"/>
</svg>
