<svg width="700" height="95" viewBox="0 0 700 95" fill="none" xmlns="http://www.w3.org/2000/svg">
<path d="M11.0164 95C8.34974 95 6.21641 94.3333 4.61641 93C3.08307 91.6667 2.31641 89.9667 2.31641 87.9C2.31641 86.0333 2.98307 84.5333 4.31641 83.4C5.64974 82.2667 7.14974 81.7 8.81641 81.7C10.4831 81.7 11.8831 82.0333 13.0164 82.7C14.1497 83.4333 15.1497 84.4667 16.0164 85.8L16.7164 86.6C18.1831 88.6 19.6497 88.5667 21.1164 86.5C21.7164 85.5 22.3831 84.1667 23.1164 82.5C23.9164 80.9 24.8164 78.7333 25.8164 76L6.41641 29.6C5.94974 28.3333 5.44974 27.3333 4.91641 26.6C4.38307 25.8 3.51641 25.1333 2.31641 24.6L0.516406 23.9V22.9H25.4164V23.8L23.4164 24.6C21.9497 25.0667 21.1831 25.8333 21.1164 26.9C21.1164 27.9 21.3831 29.1667 21.9164 30.7L32.3164 57.7L42.2164 30.4C42.7497 28.8667 42.9497 27.6 42.8164 26.6C42.6831 25.5333 41.8497 24.8 40.3164 24.4L38.2164 23.9V22.9H52.1164V23.9L49.9164 24.6C48.3831 25.0667 47.3164 25.7333 46.7164 26.6C46.1164 27.4667 45.5497 28.6667 45.0164 30.2L28.9164 74.1C26.3164 81.1 23.7164 86.3333 21.1164 89.8C18.5164 93.2667 15.1497 95 11.0164 95ZM78.093 72.5C73.0263 72.5 68.6263 71.4667 64.893 69.4C61.1596 67.2667 58.2596 64.2667 56.193 60.4C54.193 56.5333 53.193 52 53.193 46.8C53.193 41.6 54.2596 37.1 56.393 33.3C58.593 29.5 61.5596 26.5667 65.293 24.5C69.093 22.4333 73.3596 21.4 78.093 21.4C82.8263 21.4 87.0596 22.4333 90.793 24.5C94.5263 26.5 97.4596 29.4 99.593 33.2C101.793 37 102.893 41.5333 102.893 46.8C102.893 52.0667 101.86 56.6333 99.793 60.5C97.793 64.3 94.9263 67.2667 91.193 69.4C87.5263 71.4667 83.1596 72.5 78.093 72.5ZM78.093 70.5C80.4263 70.5 82.293 69.8333 83.693 68.5C85.093 67.1667 86.093 64.8 86.693 61.4C87.3596 58 87.693 53.2 87.693 47C87.693 40.7333 87.3596 35.9 86.693 32.5C86.093 29.1 85.093 26.7333 83.693 25.4C82.293 24.0667 80.4263 23.4 78.093 23.4C75.7596 23.4 73.8596 24.0667 72.393 25.4C70.993 26.7333 69.9596 29.1 69.293 32.5C68.693 35.9 68.393 40.7333 68.393 47C68.393 53.2 68.693 58 69.293 61.4C69.9596 64.8 70.993 67.1667 72.393 68.5C73.8596 69.8333 75.7596 70.5 78.093 70.5ZM124.995 72.5C122.395 72.5 119.995 72 117.795 71C115.661 70 113.961 68.4 112.695 66.2C111.495 63.9333 110.928 60.9667 110.995 57.3L111.295 31.6C111.295 30.0667 111.028 28.9667 110.495 28.3C109.961 27.6333 109.128 27.1667 107.995 26.9L106.795 26.5V25.5L124.695 22L125.695 23L125.195 37.2V61.3C125.195 63.4333 125.795 65 126.995 66C128.261 67 129.828 67.5 131.695 67.5C133.561 67.5 135.228 67.2333 136.695 66.7C138.161 66.1667 139.628 65.3667 141.095 64.3L141.495 31.7C141.495 30.1667 141.261 29.1 140.795 28.5C140.328 27.8333 139.461 27.3667 138.195 27.1L137.195 26.8V25.8L154.695 22L155.695 23L155.395 37.2V64.3C155.395 65.7667 155.595 66.9 155.995 67.7C156.395 68.5 157.261 69.1667 158.595 69.7L159.595 70V71L142.095 72L141.195 66.1C138.995 67.9 136.595 69.4333 133.995 70.7C131.461 71.9 128.461 72.5 124.995 72.5ZM163.633 71V70L165.133 69.6C166.466 69.2 167.366 68.6 167.833 67.8C168.366 67 168.633 65.9667 168.633 64.7V33.4C168.633 31.9333 168.366 30.8667 167.833 30.2C167.366 29.4667 166.466 28.9667 165.133 28.7L163.633 28.3V27.3L180.833 21.5L181.833 22.5L182.733 31.1V31.9C183.666 30.0333 184.866 28.3333 186.333 26.8C187.866 25.2 189.533 23.9 191.333 22.9C193.199 21.9 195.033 21.4 196.833 21.4C199.366 21.4 201.299 22.1 202.633 23.5C203.966 24.9 204.633 26.6667 204.633 28.8C204.633 31.0667 203.966 32.8333 202.633 34.1C201.366 35.3 199.833 35.9 198.033 35.9C195.233 35.9 192.766 34.5 190.633 31.7L190.433 31.5C189.766 30.5667 188.999 30.0667 188.133 30C187.266 29.8667 186.466 30.2667 185.733 31.2C185.066 31.8 184.499 32.5333 184.033 33.4C183.633 34.2 183.233 35.1333 182.833 36.2V64.1C182.833 66.7667 183.999 68.4333 186.333 69.1L189.533 70V71H163.633ZM251.951 71.3L234.251 28.8C233.317 26.5333 231.717 25.0333 229.451 24.3L228.051 23.9V22.9H253.951V23.9L252.151 24.3C249.551 24.9667 248.751 26.7 249.751 29.5L260.251 57.4L270.051 29.7C270.584 28.3667 270.717 27.2667 270.451 26.4C270.184 25.5333 269.384 24.9 268.051 24.5L265.551 23.9V22.9H280.051V23.9L277.151 24.6C275.884 24.9333 274.884 25.4333 274.151 26.1C273.484 26.7667 272.917 27.7667 272.451 29.1L257.751 71.3H251.951ZM294.578 16.2C292.311 16.2 290.378 15.5 288.778 14.1C287.245 12.6333 286.478 10.8 286.478 8.6C286.478 6.33333 287.245 4.5 288.778 3.1C290.378 1.7 292.311 0.999995 294.578 0.999995C296.845 0.999995 298.745 1.7 300.278 3.1C301.811 4.5 302.578 6.33333 302.578 8.6C302.578 10.8 301.811 12.6333 300.278 14.1C298.745 15.5 296.845 16.2 294.578 16.2ZM282.778 71V70L284.178 69.6C285.511 69.2 286.411 68.6 286.878 67.8C287.411 67 287.678 65.9333 287.678 64.6V33.3C287.678 31.9 287.411 30.8667 286.878 30.2C286.411 29.4667 285.511 28.9667 284.178 28.7L282.778 28.4V27.4L301.078 21.5L302.078 22.5L301.778 36.7V64.7C301.778 66.0333 302.011 67.1 302.478 67.9C303.011 68.7 303.911 69.3 305.178 69.7L306.178 70V71H282.778ZM327.705 72.3L310.805 71V70L311.805 69.8C314.405 69.2 315.705 67.5333 315.705 64.8V11.3C315.705 9.9 315.472 8.83333 315.005 8.1C314.605 7.36666 313.739 6.86666 312.405 6.59999L311.005 6.2V5.19999L328.805 0.899997L330.005 1.8L329.605 15.9V26C331.805 24.4667 334.205 23.3333 336.805 22.6C339.405 21.8 342.039 21.4 344.705 21.4C348.505 21.4 351.872 22.3 354.805 24.1C357.739 25.8333 360.039 28.5667 361.705 32.3C363.439 35.9667 364.305 40.7 364.305 46.5C364.305 52.3 363.339 57.1333 361.405 61C359.539 64.8 357.005 67.6667 353.805 69.6C350.672 71.5333 347.205 72.5 343.405 72.5C340.939 72.5 338.439 72.1667 335.905 71.5C333.439 70.8333 331.239 69.9 329.305 68.7L327.705 72.3ZM338.405 69.1C340.539 69.1 342.405 68.4333 344.005 67.1C345.605 65.7667 346.872 63.5 347.805 60.3C348.739 57.0333 349.205 52.5667 349.205 46.9C349.205 41.2333 348.772 36.8667 347.905 33.8C347.039 30.7333 345.805 28.6 344.205 27.4C342.672 26.2 340.805 25.6 338.605 25.6C335.472 25.6 332.572 26.4667 329.905 28.2V66.6C331.172 67.4 332.472 68.0333 333.805 68.5C335.139 68.9 336.672 69.1 338.405 69.1ZM394.397 21.4C398.73 21.4 402.43 22.3 405.497 24.1C408.564 25.8333 410.897 28.2333 412.497 31.3C414.164 34.3 414.997 37.7333 414.997 41.6C414.997 42.3333 414.964 43.1 414.897 43.9C414.83 44.6333 414.697 45.3 414.497 45.9H384.697C384.764 53.1 386.03 58.3 388.497 61.5C391.03 64.6333 394.764 66.2 399.697 66.2C403.03 66.2 405.73 65.6667 407.797 64.6C409.864 63.5333 411.797 61.9667 413.597 59.9L414.597 60.8C412.53 64.4667 409.764 67.3333 406.297 69.4C402.897 71.4667 398.797 72.5 393.997 72.5C389.264 72.5 385.064 71.5 381.397 69.5C377.73 67.4333 374.864 64.5 372.797 60.7C370.73 56.9 369.697 52.3667 369.697 47.1C369.697 41.6333 370.897 37 373.297 33.2C375.697 29.3333 378.764 26.4 382.497 24.4C386.297 22.4 390.264 21.4 394.397 21.4ZM394.097 23.4C392.164 23.4 390.497 24 389.097 25.2C387.764 26.3333 386.697 28.4 385.897 31.4C385.164 34.3333 384.764 38.5 384.697 43.9H401.797C402.464 36.6333 402.197 31.4 400.997 28.2C399.797 25 397.497 23.4 394.097 23.4ZM466.558 72.5C462.024 72.5 457.891 71.5333 454.158 69.6C450.491 67.6 447.558 64.7333 445.358 61C443.224 57.2 442.158 52.5667 442.158 47.1C442.158 41.7 443.324 37.1 445.658 33.3C448.058 29.4333 451.224 26.5 455.158 24.5C459.158 22.4333 463.524 21.4 468.258 21.4C472.124 21.4 475.391 22.0333 478.058 23.3C480.724 24.5667 482.758 26.2333 484.158 28.3C485.558 30.3 486.258 32.4 486.258 34.6C486.258 36.4667 485.691 37.9333 484.558 39C483.424 40 481.958 40.5 480.158 40.5C478.224 40.5 476.658 39.8 475.458 38.4C474.258 37 473.558 35.1667 473.358 32.9C473.291 31.4333 473.324 30.2 473.458 29.2C473.591 28.1333 473.591 27.0667 473.458 26C473.191 24.8667 472.758 24.1333 472.158 23.8C471.624 23.4 470.858 23.2 469.858 23.2C465.791 23.2 462.624 24.9667 460.358 28.5C458.158 32.0333 457.058 37.6667 457.058 45.4C457.058 52.1333 458.291 57.3 460.758 60.9C463.291 64.4333 467.158 66.2 472.358 66.2C475.491 66.2 478.024 65.6333 479.958 64.5C481.891 63.3667 483.758 61.6667 485.558 59.4L486.558 60.2C484.891 64.1333 482.324 67.1667 478.858 69.3C475.391 71.4333 471.291 72.5 466.558 72.5ZM489.323 71V70L490.523 69.6C492.923 68.8 494.123 67.1333 494.123 64.6V11.2C494.123 9.8 493.89 8.76667 493.423 8.1C492.957 7.43333 492.057 6.93333 490.723 6.59999L489.223 6.2V5.19999L506.823 0.899997L508.423 1.8L508.023 15.9V28.4C510.357 26.4667 512.857 24.8333 515.523 23.5C518.257 22.1 521.257 21.4 524.523 21.4C528.857 21.4 532.29 22.6333 534.823 25.1C537.423 27.5667 538.723 31.3667 538.723 36.5V64.7C538.723 66.0333 538.99 67.1 539.523 67.9C540.057 68.7 540.99 69.3 542.323 69.7L543.123 70V71H519.723V70L520.923 69.7C523.323 68.9 524.523 67.2 524.523 64.6V33.2C524.523 30.5333 524.057 28.7 523.123 27.7C522.257 26.7 520.69 26.2 518.423 26.2C516.957 26.2 515.357 26.5 513.623 27.1C511.89 27.6333 510.123 28.6 508.323 30V64.8C508.323 67.4 509.523 69.0667 511.923 69.8L512.723 70V71H489.323ZM572.131 21.4C576.465 21.4 580.165 22.3 583.231 24.1C586.298 25.8333 588.631 28.2333 590.231 31.3C591.898 34.3 592.731 37.7333 592.731 41.6C592.731 42.3333 592.698 43.1 592.631 43.9C592.565 44.6333 592.431 45.3 592.231 45.9H562.431C562.498 53.1 563.765 58.3 566.231 61.5C568.765 64.6333 572.498 66.2 577.431 66.2C580.765 66.2 583.465 65.6667 585.531 64.6C587.598 63.5333 589.531 61.9667 591.331 59.9L592.331 60.8C590.265 64.4667 587.498 67.3333 584.031 69.4C580.631 71.4667 576.531 72.5 571.731 72.5C566.998 72.5 562.798 71.5 559.131 69.5C555.465 67.4333 552.598 64.5 550.531 60.7C548.465 56.9 547.431 52.3667 547.431 47.1C547.431 41.6333 548.631 37 551.031 33.2C553.431 29.3333 556.498 26.4 560.231 24.4C564.031 22.4 567.998 21.4 572.131 21.4ZM571.831 23.4C569.898 23.4 568.231 24 566.831 25.2C565.498 26.3333 564.431 28.4 563.631 31.4C562.898 34.3333 562.498 38.5 562.431 43.9H579.531C580.198 36.6333 579.931 31.4 578.731 28.2C577.531 25 575.231 23.4 571.831 23.4ZM622.515 72.5C617.982 72.5 613.848 71.5333 610.115 69.6C606.448 67.6 603.515 64.7333 601.315 61C599.182 57.2 598.115 52.5667 598.115 47.1C598.115 41.7 599.282 37.1 601.615 33.3C604.015 29.4333 607.182 26.5 611.115 24.5C615.115 22.4333 619.482 21.4 624.215 21.4C628.082 21.4 631.348 22.0333 634.015 23.3C636.682 24.5667 638.715 26.2333 640.115 28.3C641.515 30.3 642.215 32.4 642.215 34.6C642.215 36.4667 641.648 37.9333 640.515 39C639.382 40 637.915 40.5 636.115 40.5C634.182 40.5 632.615 39.8 631.415 38.4C630.215 37 629.515 35.1667 629.315 32.9C629.248 31.4333 629.282 30.2 629.415 29.2C629.548 28.1333 629.548 27.0667 629.415 26C629.148 24.8667 628.715 24.1333 628.115 23.8C627.582 23.4 626.815 23.2 625.815 23.2C621.748 23.2 618.582 24.9667 616.315 28.5C614.115 32.0333 613.015 37.6667 613.015 45.4C613.015 52.1333 614.248 57.3 616.715 60.9C619.248 64.4333 623.115 66.2 628.315 66.2C631.448 66.2 633.982 65.6333 635.915 64.5C637.848 63.3667 639.715 61.6667 641.515 59.4L642.515 60.2C640.848 64.1333 638.282 67.1667 634.815 69.3C631.348 71.4333 627.248 72.5 622.515 72.5ZM645.18 71V70L646.68 69.5C648.947 68.7667 650.08 67.1333 650.08 64.6V11.1C650.08 9.76666 649.814 8.76667 649.28 8.1C648.747 7.43333 647.814 6.89999 646.48 6.5L645.18 6.2V5.19999L663.48 0.899997L664.68 1.8L664.38 15.8V64.6C664.38 67.2667 665.48 68.9333 667.68 69.6L669.08 70V71H645.18ZM682.28 71L664.48 46L682.98 28.9C683.847 28.1 684.347 27.2667 684.48 26.4C684.68 25.4667 684.114 24.8 682.78 24.4L681.08 23.9V22.9H695.98V23.9L692.98 24.7C691.514 25.1667 690.314 25.7333 689.38 26.4C688.514 27 687.447 27.8667 686.18 29L674.98 39.5L692.88 64.4C693.947 65.8667 694.947 67 695.88 67.8C696.814 68.6 698.014 69.2667 699.48 69.8L699.88 70V71H682.28Z" fill="black"/>
</svg>
