<svg width="237" height="37" viewBox="0 0 237 37" fill="none" xmlns="http://www.w3.org/2000/svg">
<path d="M12.7918 36.15L3.9418 14.9C3.47513 13.7667 2.67513 13.0167 1.5418 12.65L0.841797 12.45V11.95H13.7918V12.45L12.8918 12.65C11.5918 12.9833 11.1918 13.85 11.6918 15.25L16.9418 29.2L21.8418 15.35C22.1085 14.6833 22.1751 14.1333 22.0418 13.7C21.9085 13.2667 21.5085 12.95 20.8418 12.75L19.5918 12.45V11.95H26.8418V12.45L25.3918 12.8C24.7585 12.9667 24.2585 13.2167 23.8918 13.55C23.5585 13.8833 23.2751 14.3833 23.0418 15.05L15.6918 36.15H12.7918ZM34.1055 8.6C32.9721 8.6 32.0055 8.25 31.2055 7.55C30.4388 6.81667 30.0555 5.9 30.0555 4.8C30.0555 3.66666 30.4388 2.75 31.2055 2.05C32.0055 1.35 32.9721 0.999998 34.1055 0.999998C35.2388 0.999998 36.1888 1.35 36.9555 2.05C37.7221 2.75 38.1055 3.66666 38.1055 4.8C38.1055 5.9 37.7221 6.81667 36.9555 7.55C36.1888 8.25 35.2388 8.6 34.1055 8.6ZM28.2055 36V35.5L28.9055 35.3C29.5721 35.1 30.0221 34.8 30.2555 34.4C30.5221 34 30.6555 33.4667 30.6555 32.8V17.15C30.6555 16.45 30.5221 15.9333 30.2555 15.6C30.0221 15.2333 29.5721 14.9833 28.9055 14.85L28.2055 14.7V14.2L37.3555 11.25L37.8555 11.75L37.7055 18.85V32.85C37.7055 33.5167 37.8221 34.05 38.0555 34.45C38.3221 34.85 38.7721 35.15 39.4055 35.35L39.9055 35.5V36H28.2055ZM50.6691 36.65L42.2191 36V35.5L42.7191 35.4C44.0191 35.1 44.6691 34.2667 44.6691 32.9V6.15C44.6691 5.45 44.5525 4.91667 44.3191 4.55C44.1191 4.18333 43.6858 3.93333 43.0191 3.8L42.3191 3.6V3.1L51.2191 0.949998L51.8191 1.4L51.6191 8.45V13.5C52.7191 12.7333 53.9191 12.1667 55.2191 11.8C56.5191 11.4 57.8358 11.2 59.1691 11.2C61.0691 11.2 62.7525 11.65 64.2191 12.55C65.6858 13.4167 66.8358 14.7833 67.6691 16.65C68.5358 18.4833 68.9691 20.85 68.9691 23.75C68.9691 26.65 68.4858 29.0667 67.5191 31C66.5858 32.9 65.3191 34.3333 63.7191 35.3C62.1525 36.2667 60.4191 36.75 58.5191 36.75C57.2858 36.75 56.0358 36.5833 54.7691 36.25C53.5358 35.9167 52.4358 35.45 51.4691 34.85L50.6691 36.65ZM56.0191 35.05C57.0858 35.05 58.0191 34.7167 58.8191 34.05C59.6191 33.3833 60.2525 32.25 60.7191 30.65C61.1858 29.0167 61.4191 26.7833 61.4191 23.95C61.4191 21.1167 61.2025 18.9333 60.7691 17.4C60.3358 15.8667 59.7191 14.8 58.9191 14.2C58.1525 13.6 57.2191 13.3 56.1191 13.3C54.5525 13.3 53.1025 13.7333 51.7691 14.6V33.8C52.4025 34.2 53.0525 34.5167 53.7191 34.75C54.3858 34.95 55.1525 35.05 56.0191 35.05ZM84.0148 11.2C86.1815 11.2 88.0315 11.65 89.5648 12.55C91.0982 13.4167 92.2648 14.6167 93.0648 16.15C93.8982 17.65 94.3148 19.3667 94.3148 21.3C94.3148 21.6667 94.2982 22.05 94.2648 22.45C94.2315 22.8167 94.1648 23.15 94.0648 23.45H79.1648C79.1982 27.05 79.8315 29.65 81.0648 31.25C82.3315 32.8167 84.1982 33.6 86.6648 33.6C88.3315 33.6 89.6815 33.3333 90.7148 32.8C91.7482 32.2667 92.7148 31.4833 93.6148 30.45L94.1148 30.9C93.0815 32.7333 91.6982 34.1667 89.9648 35.2C88.2648 36.2333 86.2148 36.75 83.8148 36.75C81.4482 36.75 79.3482 36.25 77.5148 35.25C75.6815 34.2167 74.2482 32.75 73.2148 30.85C72.1815 28.95 71.6648 26.6833 71.6648 24.05C71.6648 21.3167 72.2648 19 73.4648 17.1C74.6648 15.1667 76.1982 13.7 78.0648 12.7C79.9648 11.7 81.9482 11.2 84.0148 11.2ZM83.8648 12.2C82.8982 12.2 82.0648 12.5 81.3648 13.1C80.6982 13.6667 80.1648 14.7 79.7648 16.2C79.3982 17.6667 79.1982 19.75 79.1648 22.45H87.7148C88.0482 18.8167 87.9148 16.2 87.3148 14.6C86.7148 13 85.5648 12.2 83.8648 12.2ZM120.095 36.75C117.829 36.75 115.762 36.2667 113.895 35.3C112.062 34.3 110.595 32.8667 109.495 31C108.429 29.1 107.895 26.7833 107.895 24.05C107.895 21.35 108.479 19.05 109.645 17.15C110.845 15.2167 112.429 13.75 114.395 12.75C116.395 11.7167 118.579 11.2 120.945 11.2C122.879 11.2 124.512 11.5167 125.845 12.15C127.179 12.7833 128.195 13.6167 128.895 14.65C129.595 15.65 129.945 16.7 129.945 17.8C129.945 18.7333 129.662 19.4667 129.095 20C128.529 20.5 127.795 20.75 126.895 20.75C125.929 20.75 125.145 20.4 124.545 19.7C123.945 19 123.595 18.0833 123.495 16.95C123.462 16.2167 123.479 15.6 123.545 15.1C123.612 14.5667 123.612 14.0333 123.545 13.5C123.412 12.9333 123.195 12.5667 122.895 12.4C122.629 12.2 122.245 12.1 121.745 12.1C119.712 12.1 118.129 12.9833 116.995 14.75C115.895 16.5167 115.345 19.3333 115.345 23.2C115.345 26.5667 115.962 29.15 117.195 30.95C118.462 32.7167 120.395 33.6 122.995 33.6C124.562 33.6 125.829 33.3167 126.795 32.75C127.762 32.1833 128.695 31.3333 129.595 30.2L130.095 30.6C129.262 32.5667 127.979 34.0833 126.245 35.15C124.512 36.2167 122.462 36.75 120.095 36.75ZM131.478 36V35.5L132.078 35.3C133.278 34.9 133.878 34.0667 133.878 32.8V6.1C133.878 5.4 133.761 4.88333 133.528 4.55C133.295 4.21666 132.845 3.96666 132.178 3.8L131.428 3.6V3.1L140.228 0.949998L141.028 1.4L140.828 8.45V14.7C141.995 13.7333 143.245 12.9167 144.578 12.25C145.945 11.55 147.445 11.2 149.078 11.2C151.245 11.2 152.961 11.8167 154.228 13.05C155.528 14.2833 156.178 16.1833 156.178 18.75V32.85C156.178 33.5167 156.311 34.05 156.578 34.45C156.845 34.85 157.311 35.15 157.978 35.35L158.378 35.5V36H146.678V35.5L147.278 35.35C148.478 34.95 149.078 34.1 149.078 32.8V17.1C149.078 15.7667 148.845 14.85 148.378 14.35C147.945 13.85 147.161 13.6 146.028 13.6C145.295 13.6 144.495 13.75 143.628 14.05C142.761 14.3167 141.878 14.8 140.978 15.5V32.9C140.978 34.2 141.578 35.0333 142.778 35.4L143.178 35.5V36H131.478ZM172.882 11.2C175.049 11.2 176.899 11.65 178.432 12.55C179.965 13.4167 181.132 14.6167 181.932 16.15C182.765 17.65 183.182 19.3667 183.182 21.3C183.182 21.6667 183.165 22.05 183.132 22.45C183.099 22.8167 183.032 23.15 182.932 23.45H168.032C168.065 27.05 168.699 29.65 169.932 31.25C171.199 32.8167 173.065 33.6 175.532 33.6C177.199 33.6 178.549 33.3333 179.582 32.8C180.615 32.2667 181.582 31.4833 182.482 30.45L182.982 30.9C181.949 32.7333 180.565 34.1667 178.832 35.2C177.132 36.2333 175.082 36.75 172.682 36.75C170.315 36.75 168.215 36.25 166.382 35.25C164.549 34.2167 163.115 32.75 162.082 30.85C161.049 28.95 160.532 26.6833 160.532 24.05C160.532 21.3167 161.132 19 162.332 17.1C163.532 15.1667 165.065 13.7 166.932 12.7C168.832 11.7 170.815 11.2 172.882 11.2ZM172.732 12.2C171.765 12.2 170.932 12.5 170.232 13.1C169.565 13.6667 169.032 14.7 168.632 16.2C168.265 17.6667 168.065 19.75 168.032 22.45H176.582C176.915 18.8167 176.782 16.2 176.182 14.6C175.582 13 174.432 12.2 172.732 12.2ZM198.074 36.75C195.807 36.75 193.74 36.2667 191.874 35.3C190.04 34.3 188.574 32.8667 187.474 31C186.407 29.1 185.874 26.7833 185.874 24.05C185.874 21.35 186.457 19.05 187.624 17.15C188.824 15.2167 190.407 13.75 192.374 12.75C194.374 11.7167 196.557 11.2 198.924 11.2C200.857 11.2 202.49 11.5167 203.824 12.15C205.157 12.7833 206.174 13.6167 206.874 14.65C207.574 15.65 207.924 16.7 207.924 17.8C207.924 18.7333 207.64 19.4667 207.074 20C206.507 20.5 205.774 20.75 204.874 20.75C203.907 20.75 203.124 20.4 202.524 19.7C201.924 19 201.574 18.0833 201.474 16.95C201.44 16.2167 201.457 15.6 201.524 15.1C201.59 14.5667 201.59 14.0333 201.524 13.5C201.39 12.9333 201.174 12.5667 200.874 12.4C200.607 12.2 200.224 12.1 199.724 12.1C197.69 12.1 196.107 12.9833 194.974 14.75C193.874 16.5167 193.324 19.3333 193.324 23.2C193.324 26.5667 193.94 29.15 195.174 30.95C196.44 32.7167 198.374 33.6 200.974 33.6C202.54 33.6 203.807 33.3167 204.774 32.75C205.74 32.1833 206.674 31.3333 207.574 30.2L208.074 30.6C207.24 32.5667 205.957 34.0833 204.224 35.15C202.49 36.2167 200.44 36.75 198.074 36.75ZM209.407 36V35.5L210.157 35.25C211.29 34.8833 211.857 34.0667 211.857 32.8V6.05C211.857 5.38333 211.723 4.88333 211.457 4.55C211.19 4.21666 210.723 3.95 210.057 3.75L209.407 3.6V3.1L218.557 0.949998L219.157 1.4L219.007 8.4V32.8C219.007 34.1333 219.557 34.9667 220.657 35.3L221.357 35.5V36H209.407ZM227.957 36L219.057 23.5L228.307 14.95C228.74 14.55 228.99 14.1333 229.057 13.7C229.157 13.2333 228.873 12.9 228.207 12.7L227.357 12.45V11.95H234.807V12.45L233.307 12.85C232.573 13.0833 231.973 13.3667 231.507 13.7C231.073 14 230.54 14.4333 229.907 15L224.307 20.25L233.257 32.7C233.79 33.4333 234.29 34 234.757 34.4C235.223 34.8 235.823 35.1333 236.557 35.4L236.757 35.5V36H227.957Z" fill="black"/>
</svg>
