<svg width="50" height="20" viewBox="0 0 50 20" fill="none" xmlns="http://www.w3.org/2000/svg">
<path d="M5.0579 19L0.169898 6.104H2.4579L6.3319 16.894L10.2319 6.104H12.4679L7.5799 19H5.0579ZM16.2245 3.244C15.7912 3.244 15.4272 3.10533 15.1325 2.828C14.8552 2.53333 14.7165 2.16933 14.7165 1.736C14.7165 1.32 14.8552 0.973332 15.1325 0.695999C15.4272 0.418666 15.7912 0.279999 16.2245 0.279999C16.6405 0.279999 16.9958 0.418666 17.2905 0.695999C17.5852 0.973332 17.7325 1.32 17.7325 1.736C17.7325 2.16933 17.5852 2.53333 17.2905 2.828C16.9958 3.10533 16.6405 3.244 16.2245 3.244ZM15.1325 19V6.104H17.3165V19H15.1325ZM28.0092 19.312C26.9519 19.312 26.0072 19.0953 25.1752 18.662C24.3605 18.2287 23.7365 17.622 23.3032 16.842L23.0952 19H21.1192V0.279999H23.3032V8.236C23.7192 7.612 24.3085 7.04867 25.0712 6.546C25.8512 6.04333 26.8392 5.792 28.0352 5.792C29.3179 5.792 30.4359 6.08667 31.3892 6.676C32.3425 7.26533 33.0792 8.07133 33.5992 9.094C34.1365 10.1167 34.4052 11.278 34.4052 12.578C34.4052 13.878 34.1365 15.0393 33.5992 16.062C33.0792 17.0673 32.3339 17.8647 31.3632 18.454C30.4099 19.026 29.2919 19.312 28.0092 19.312ZM27.7752 17.414C28.6419 17.414 29.4045 17.2147 30.0632 16.816C30.7219 16.4 31.2419 15.828 31.6232 15.1C32.0045 14.372 32.1952 13.5227 32.1952 12.552C32.1952 11.5813 32.0045 10.732 31.6232 10.004C31.2419 9.276 30.7219 8.71267 30.0632 8.314C29.4045 7.898 28.6419 7.69 27.7752 7.69C26.9085 7.69 26.1459 7.898 25.4872 8.314C24.8285 8.71267 24.3085 9.276 23.9272 10.004C23.5459 10.732 23.3552 11.5813 23.3552 12.552C23.3552 13.5227 23.5459 14.372 23.9272 15.1C24.3085 15.828 24.8285 16.4 25.4872 16.816C26.1459 17.2147 26.9085 17.414 27.7752 17.414ZM43.2434 19.312C42.0127 19.312 40.9207 19.0347 39.9674 18.48C39.014 17.908 38.26 17.1193 37.7054 16.114C37.168 15.1087 36.8994 13.9213 36.8994 12.552C36.8994 11.2 37.168 10.0213 37.7054 9.016C38.2427 7.99333 38.988 7.20467 39.9414 6.65C40.912 6.078 42.03 5.792 43.2954 5.792C44.5434 5.792 45.618 6.078 46.5194 6.65C47.438 7.20467 48.14 7.94133 48.6254 8.86C49.1107 9.77867 49.3534 10.7667 49.3534 11.824C49.3534 12.0147 49.3447 12.2053 49.3274 12.396C49.3274 12.5867 49.3274 12.8033 49.3274 13.046H39.0574C39.1094 14.034 39.3347 14.8573 39.7334 15.516C40.1494 16.1573 40.6607 16.6427 41.2674 16.972C41.8914 17.3013 42.55 17.466 43.2434 17.466C44.1447 17.466 44.8987 17.258 45.5054 16.842C46.112 16.426 46.554 15.8627 46.8314 15.152H48.9894C48.6427 16.348 47.9754 17.3447 46.9874 18.142C46.0167 18.922 44.7687 19.312 43.2434 19.312ZM43.2434 7.638C42.2034 7.638 41.276 7.95867 40.4614 8.6C39.664 9.224 39.2047 10.1427 39.0834 11.356H47.1954C47.1434 10.1947 46.7447 9.28467 45.9994 8.626C45.254 7.96733 44.3354 7.638 43.2434 7.638Z" fill="#828282"/>
</svg>
