<svg width="128" height="17" viewBox="0 0 128 17" fill="none" xmlns="http://www.w3.org/2000/svg">
<path d="M6.9886 16.312C5.75794 16.312 4.6486 16.0347 3.6606 15.48C2.68994 14.908 1.9186 14.1193 1.3466 13.114C0.791935 12.0913 0.514602 10.904 0.514602 9.552C0.514602 8.2 0.791935 7.02133 1.3466 6.016C1.9186 4.99333 2.68994 4.20467 3.6606 3.65C4.6486 3.078 5.75794 2.792 6.9886 2.792C8.51394 2.792 9.7966 3.19067 10.8366 3.988C11.8939 4.78533 12.5613 5.85133 12.8386 7.186H10.6026C10.4293 6.38867 10.0046 5.77333 9.3286 5.34C8.6526 4.88933 7.86394 4.664 6.9626 4.664C6.2346 4.664 5.54994 4.846 4.9086 5.21C4.26727 5.574 3.74727 6.12 3.3486 6.848C2.94993 7.576 2.7506 8.47733 2.7506 9.552C2.7506 10.6267 2.94993 11.528 3.3486 12.256C3.74727 12.984 4.26727 13.5387 4.9086 13.92C5.54994 14.284 6.2346 14.466 6.9626 14.466C7.86394 14.466 8.6526 14.2493 9.3286 13.816C10.0046 13.3653 10.4293 12.7327 10.6026 11.918H12.8386C12.5786 13.218 11.9199 14.2753 10.8626 15.09C9.80527 15.9047 8.51394 16.312 6.9886 16.312ZM21.7647 16.312C20.5514 16.312 19.4594 16.0347 18.4887 15.48C17.5181 14.9253 16.7467 14.1453 16.1747 13.14C15.6201 12.1173 15.3427 10.9213 15.3427 9.552C15.3427 8.18267 15.6287 6.99533 16.2007 5.99C16.7727 4.96733 17.5441 4.17867 18.5147 3.624C19.5027 3.06933 20.6034 2.792 21.8167 2.792C23.0301 2.792 24.1221 3.06933 25.0927 3.624C26.0634 4.17867 26.8261 4.96733 27.3807 5.99C27.9527 6.99533 28.2387 8.18267 28.2387 9.552C28.2387 10.9213 27.9527 12.1173 27.3807 13.14C26.8087 14.1453 26.0287 14.9253 25.0407 15.48C24.0701 16.0347 22.9781 16.312 21.7647 16.312ZM21.7647 14.44C22.5101 14.44 23.2034 14.258 23.8447 13.894C24.4861 13.53 25.0061 12.984 25.4047 12.256C25.8034 11.528 26.0027 10.6267 26.0027 9.552C26.0027 8.47733 25.8034 7.576 25.4047 6.848C25.0234 6.12 24.5121 5.574 23.8707 5.21C23.2294 4.846 22.5447 4.664 21.8167 4.664C21.0714 4.664 20.3781 4.846 19.7367 5.21C19.0954 5.574 18.5754 6.12 18.1767 6.848C17.7781 7.576 17.5787 8.47733 17.5787 9.552C17.5787 10.6267 17.7781 11.528 18.1767 12.256C18.5754 12.984 19.0867 13.53 19.7107 13.894C20.3521 14.258 21.0367 14.44 21.7647 14.44ZM31.2754 16V3.104H33.2514L33.4074 4.976C33.8234 4.28267 34.3781 3.74533 35.0714 3.364C35.7648 2.98267 36.5448 2.792 37.4114 2.792C38.4341 2.792 39.3094 3 40.0374 3.416C40.7828 3.832 41.3548 4.46467 41.7534 5.314C42.2041 4.534 42.8194 3.91867 43.5994 3.468C44.3968 3.01733 45.2548 2.792 46.1734 2.792C47.7161 2.792 48.9468 3.26 49.8654 4.196C50.7841 5.11467 51.2434 6.536 51.2434 8.46V16H49.0854V8.694C49.0854 7.35933 48.8168 6.354 48.2794 5.678C47.7421 5.002 46.9708 4.664 45.9654 4.664C44.9254 4.664 44.0588 5.07133 43.3654 5.886C42.6894 6.68333 42.3514 7.82733 42.3514 9.318V16H40.1674V8.694C40.1674 7.35933 39.8988 6.354 39.3614 5.678C38.8241 5.002 38.0528 4.664 37.0474 4.664C36.0248 4.664 35.1668 5.07133 34.4734 5.886C33.7974 6.68333 33.4594 7.82733 33.4594 9.318V16H31.2754ZM54.5333 16V3.104H56.5093L56.6653 4.976C57.0813 4.28267 57.6359 3.74533 58.3293 3.364C59.0226 2.98267 59.8026 2.792 60.6693 2.792C61.6919 2.792 62.5673 3 63.2953 3.416C64.0406 3.832 64.6126 4.46467 65.0113 5.314C65.4619 4.534 66.0773 3.91867 66.8573 3.468C67.6546 3.01733 68.5126 2.792 69.4313 2.792C70.9739 2.792 72.2046 3.26 73.1233 4.196C74.0419 5.11467 74.5013 6.536 74.5013 8.46V16H72.3433V8.694C72.3433 7.35933 72.0746 6.354 71.5373 5.678C70.9999 5.002 70.2286 4.664 69.2233 4.664C68.1833 4.664 67.3166 5.07133 66.6233 5.886C65.9473 6.68333 65.6093 7.82733 65.6093 9.318V16H63.4253V8.694C63.4253 7.35933 63.1566 6.354 62.6193 5.678C62.0819 5.002 61.3106 4.664 60.3053 4.664C59.2826 4.664 58.4246 5.07133 57.7313 5.886C57.0553 6.68333 56.7173 7.82733 56.7173 9.318V16H54.5333ZM83.5891 16.312C82.3584 16.312 81.2664 16.0347 80.3131 15.48C79.3597 14.908 78.6057 14.1193 78.0511 13.114C77.5137 12.1087 77.2451 10.9213 77.2451 9.552C77.2451 8.2 77.5137 7.02133 78.0511 6.016C78.5884 4.99333 79.3337 4.20467 80.2871 3.65C81.2577 3.078 82.3757 2.792 83.6411 2.792C84.8891 2.792 85.9637 3.078 86.8651 3.65C87.7837 4.20467 88.4857 4.94133 88.9711 5.86C89.4564 6.77867 89.6991 7.76667 89.6991 8.824C89.6991 9.01467 89.6904 9.20533 89.6731 9.396C89.6731 9.58667 89.6731 9.80333 89.6731 10.046H79.4031C79.4551 11.034 79.6804 11.8573 80.0791 12.516C80.4951 13.1573 81.0064 13.6427 81.6131 13.972C82.2371 14.3013 82.8957 14.466 83.5891 14.466C84.4904 14.466 85.2444 14.258 85.8511 13.842C86.4577 13.426 86.8997 12.8627 87.1771 12.152H89.3351C88.9884 13.348 88.3211 14.3447 87.3331 15.142C86.3624 15.922 85.1144 16.312 83.5891 16.312ZM83.5891 4.638C82.5491 4.638 81.6217 4.95867 80.8071 5.6C80.0097 6.224 79.5504 7.14267 79.4291 8.356H87.5411C87.4891 7.19467 87.0904 6.28467 86.3451 5.626C85.5997 4.96733 84.6811 4.638 83.5891 4.638ZM92.5938 16V3.104H94.5698L94.6998 5.418C95.1158 4.60333 95.7138 3.962 96.4938 3.494C97.2738 3.026 98.1578 2.792 99.1458 2.792C100.671 2.792 101.884 3.26 102.786 4.196C103.704 5.11467 104.164 6.536 104.164 8.46V16H101.98V8.694C101.98 6.00733 100.87 4.664 98.6518 4.664C97.5425 4.664 96.6151 5.07133 95.8698 5.886C95.1418 6.68333 94.7778 7.82733 94.7778 9.318V16H92.5938ZM112.569 16C111.39 16 110.463 15.714 109.787 15.142C109.111 14.57 108.773 13.5387 108.773 12.048V4.95H106.537V3.104H108.773L109.059 0.00999975H110.957V3.104H114.753V4.95H110.957V12.048C110.957 12.8627 111.121 13.4173 111.451 13.712C111.78 13.9893 112.361 14.128 113.193 14.128H114.545V16H112.569ZM122.467 16.312C120.925 16.312 119.642 15.922 118.619 15.142C117.597 14.362 116.999 13.3047 116.825 11.97H119.061C119.2 12.646 119.555 13.2353 120.127 13.738C120.717 14.2233 121.505 14.466 122.493 14.466C123.412 14.466 124.088 14.2753 124.521 13.894C124.955 13.4953 125.171 13.0273 125.171 12.49C125.171 11.71 124.885 11.19 124.313 10.93C123.759 10.67 122.97 10.436 121.947 10.228C121.254 10.0893 120.561 9.89 119.867 9.63C119.174 9.37 118.593 9.006 118.125 8.538C117.657 8.05267 117.423 7.42 117.423 6.64C117.423 5.51333 117.839 4.59467 118.671 3.884C119.521 3.156 120.665 2.792 122.103 2.792C123.473 2.792 124.591 3.13867 125.457 3.832C126.341 4.508 126.853 5.47867 126.991 6.744H124.833C124.747 6.08533 124.461 5.574 123.975 5.21C123.507 4.82867 122.875 4.638 122.077 4.638C121.297 4.638 120.691 4.80267 120.257 5.132C119.841 5.46133 119.633 5.89467 119.633 6.432C119.633 6.952 119.902 7.35933 120.439 7.654C120.994 7.94867 121.739 8.2 122.675 8.408C123.473 8.58133 124.227 8.798 124.937 9.058C125.665 9.30067 126.255 9.67333 126.705 10.176C127.173 10.6613 127.407 11.372 127.407 12.308C127.425 13.4693 126.983 14.4313 126.081 15.194C125.197 15.9393 123.993 16.312 122.467 16.312Z" fill="#828282"/>
</svg>
