<svg width="50" height="20" viewBox="0 0 50 20" fill="none" xmlns="http://www.w3.org/2000/svg">
<path d="M0.319391 19V0.279999H2.50339V19H0.319391ZM7.40906 3.244C6.97573 3.244 6.61173 3.10533 6.31706 2.828C6.03973 2.53333 5.90106 2.16933 5.90106 1.736C5.90106 1.32 6.03973 0.973332 6.31706 0.695999C6.61173 0.418666 6.97573 0.279999 7.40906 0.279999C7.82506 0.279999 8.1804 0.418666 8.47506 0.695999C8.76973 0.973332 8.91706 1.32 8.91706 1.736C8.91706 2.16933 8.76973 2.53333 8.47506 2.828C8.1804 3.10533 7.82506 3.244 7.40906 3.244ZM6.31706 19V6.104H8.50106V19H6.31706ZM12.3038 19V0.279999H14.4878V11.538L19.7658 6.104H22.4438L16.7238 11.928L23.1718 19H20.3898L14.4878 12.318V19H12.3038ZM30.2639 19.312C29.0332 19.312 27.9412 19.0347 26.9879 18.48C26.0345 17.908 25.2805 17.1193 24.7259 16.114C24.1885 15.1087 23.9199 13.9213 23.9199 12.552C23.9199 11.2 24.1885 10.0213 24.7259 9.016C25.2632 7.99333 26.0085 7.20467 26.9619 6.65C27.9325 6.078 29.0505 5.792 30.3159 5.792C31.5639 5.792 32.6385 6.078 33.5399 6.65C34.4585 7.20467 35.1605 7.94133 35.6459 8.86C36.1312 9.77867 36.3739 10.7667 36.3739 11.824C36.3739 12.0147 36.3652 12.2053 36.3479 12.396C36.3479 12.5867 36.3479 12.8033 36.3479 13.046H26.0779C26.1299 14.034 26.3552 14.8573 26.7539 15.516C27.1699 16.1573 27.6812 16.6427 28.2879 16.972C28.9119 17.3013 29.5705 17.466 30.2639 17.466C31.1652 17.466 31.9192 17.258 32.5259 16.842C33.1325 16.426 33.5745 15.8627 33.8519 15.152H36.0099C35.6632 16.348 34.9959 17.3447 34.0079 18.142C33.0372 18.922 31.7892 19.312 30.2639 19.312ZM30.2639 7.638C29.2239 7.638 28.2965 7.95867 27.4819 8.6C26.6845 9.224 26.2252 10.1427 26.1039 11.356H34.2159C34.1639 10.1947 33.7652 9.28467 33.0199 8.626C32.2745 7.96733 31.3559 7.638 30.2639 7.638ZM44.2086 19.312C42.6659 19.312 41.3833 18.922 40.3606 18.142C39.3379 17.362 38.7399 16.3047 38.5666 14.97H40.8026C40.9413 15.646 41.2966 16.2353 41.8686 16.738C42.4579 17.2233 43.2466 17.466 44.2346 17.466C45.1533 17.466 45.8293 17.2753 46.2626 16.894C46.6959 16.4953 46.9126 16.0273 46.9126 15.49C46.9126 14.71 46.6266 14.19 46.0546 13.93C45.4999 13.67 44.7113 13.436 43.6886 13.228C42.9953 13.0893 42.3019 12.89 41.6086 12.63C40.9153 12.37 40.3346 12.006 39.8666 11.538C39.3986 11.0527 39.1646 10.42 39.1646 9.64C39.1646 8.51333 39.5806 7.59467 40.4126 6.884C41.2619 6.156 42.4059 5.792 43.8446 5.792C45.2139 5.792 46.3319 6.13867 47.1986 6.832C48.0826 7.508 48.5939 8.47867 48.7326 9.744H46.5746C46.4879 9.08533 46.2019 8.574 45.7166 8.21C45.2486 7.82867 44.6159 7.638 43.8186 7.638C43.0386 7.638 42.4319 7.80267 41.9986 8.132C41.5826 8.46133 41.3746 8.89467 41.3746 9.432C41.3746 9.952 41.6433 10.3593 42.1806 10.654C42.7353 10.9487 43.4806 11.2 44.4166 11.408C45.2139 11.5813 45.9679 11.798 46.6786 12.058C47.4066 12.3007 47.9959 12.6733 48.4466 13.176C48.9146 13.6613 49.1486 14.372 49.1486 15.308C49.1659 16.4693 48.7239 17.4313 47.8226 18.194C46.9386 18.9393 45.7339 19.312 44.2086 19.312Z" fill="#828282"/>
</svg>
