<svg width="309" height="89" viewBox="0 0 309 89" fill="none" xmlns="http://www.w3.org/2000/svg">
<g filter="url(#filter0_d_435_408)">
<g filter="url(#filter1_d_435_408)">
<rect x="10" y="10" width="289" height="68.1455" rx="15" fill="#BFD597"/>
</g>
<path d="M48.9364 53.42C47.4664 53.42 46.2531 53.175 45.2964 52.685C44.3398 52.195 43.6281 51.5533 43.1614 50.76C42.6948 49.9433 42.4614 49.0567 42.4614 48.1C42.4614 46.42 43.1148 45.09 44.4214 44.11C45.7281 43.13 47.5948 42.64 50.0214 42.64H54.5714V42.325C54.5714 40.9717 54.1981 39.9567 53.4514 39.28C52.7281 38.6033 51.7831 38.265 50.6164 38.265C49.5898 38.265 48.6914 38.5217 47.9214 39.035C47.1748 39.525 46.7198 40.26 46.5564 41.24H42.8464C42.9631 39.98 43.3831 38.9067 44.1064 38.02C44.8531 37.11 45.7864 36.4217 46.9064 35.955C48.0498 35.465 49.2981 35.22 50.6514 35.22C53.0781 35.22 54.9564 35.8617 56.2864 37.145C57.6164 38.405 58.2814 40.1317 58.2814 42.325V53H55.0614L54.7464 50.025C54.2564 50.9817 53.5448 51.7867 52.6114 52.44C51.6781 53.0933 50.4531 53.42 48.9364 53.42ZM49.6714 50.41C50.6748 50.41 51.5148 50.1767 52.1914 49.71C52.8914 49.22 53.4281 48.5783 53.8014 47.785C54.1981 46.9917 54.4431 46.1167 54.5364 45.16H50.4064C48.9364 45.16 47.8864 45.4167 47.2564 45.93C46.6498 46.4433 46.3464 47.085 46.3464 47.855C46.3464 48.6483 46.6381 49.2783 47.2214 49.745C47.8281 50.1883 48.6448 50.41 49.6714 50.41ZM62.6072 53V35.64H65.8972L66.1772 38.685C66.7139 37.6117 67.4955 36.7717 68.5222 36.165C69.5722 35.535 70.7739 35.22 72.1272 35.22C74.2272 35.22 75.8722 35.8733 77.0622 37.18C78.2755 38.4867 78.8822 40.435 78.8822 43.025V53H75.2072V43.41C75.2072 40.05 73.8305 38.37 71.0772 38.37C69.7005 38.37 68.5572 38.86 67.6472 39.84C66.7605 40.82 66.3172 42.22 66.3172 44.04V53H62.6072ZM89.1317 53.42C87.6617 53.42 86.4484 53.175 85.4917 52.685C84.5351 52.195 83.8234 51.5533 83.3567 50.76C82.8901 49.9433 82.6567 49.0567 82.6567 48.1C82.6567 46.42 83.3101 45.09 84.6167 44.11C85.9234 43.13 87.7901 42.64 90.2167 42.64H94.7667V42.325C94.7667 40.9717 94.3934 39.9567 93.6467 39.28C92.9234 38.6033 91.9784 38.265 90.8117 38.265C89.7851 38.265 88.8867 38.5217 88.1167 39.035C87.3701 39.525 86.9151 40.26 86.7517 41.24H83.0417C83.1584 39.98 83.5784 38.9067 84.3017 38.02C85.0484 37.11 85.9817 36.4217 87.1017 35.955C88.2451 35.465 89.4934 35.22 90.8467 35.22C93.2734 35.22 95.1517 35.8617 96.4817 37.145C97.8117 38.405 98.4767 40.1317 98.4767 42.325V53H95.2567L94.9417 50.025C94.4517 50.9817 93.7401 51.7867 92.8067 52.44C91.8734 53.0933 90.6484 53.42 89.1317 53.42ZM89.8667 50.41C90.8701 50.41 91.7101 50.1767 92.3867 49.71C93.0867 49.22 93.6234 48.5783 93.9967 47.785C94.3934 46.9917 94.6384 46.1167 94.7317 45.16H90.6017C89.1317 45.16 88.0817 45.4167 87.4517 45.93C86.8451 46.4433 86.5417 47.085 86.5417 47.855C86.5417 48.6483 86.8334 49.2783 87.4167 49.745C88.0234 50.1883 88.8401 50.41 89.8667 50.41ZM102.803 53V27.8H106.513V53H102.803ZM113.241 60.7L117.406 51.565H116.391L109.531 35.64H113.556L118.876 48.485L124.441 35.64H128.361L117.161 60.7H113.241ZM130.256 53V49.99L139.531 38.72H130.396V35.64H143.731V38.65L134.386 49.92H143.906V53H130.256ZM155.835 53.42C154.131 53.42 152.615 53.0467 151.285 52.3C149.978 51.53 148.951 50.4683 148.205 49.115C147.458 47.7617 147.085 46.1867 147.085 44.39C147.085 42.57 147.446 40.9717 148.17 39.595C148.916 38.2183 149.943 37.145 151.25 36.375C152.58 35.605 154.12 35.22 155.87 35.22C157.573 35.22 159.055 35.605 160.315 36.375C161.575 37.1217 162.555 38.125 163.255 39.385C163.955 40.645 164.305 42.0333 164.305 43.55C164.305 43.7833 164.293 44.04 164.27 44.32C164.27 44.5767 164.258 44.8683 164.235 45.195H150.725C150.841 46.875 151.39 48.1583 152.37 49.045C153.373 49.9083 154.528 50.34 155.835 50.34C156.885 50.34 157.76 50.1067 158.46 49.64C159.183 49.15 159.72 48.4967 160.07 47.68H163.78C163.313 49.3133 162.38 50.6783 160.98 51.775C159.603 52.8717 157.888 53.42 155.835 53.42ZM155.835 38.265C154.598 38.265 153.501 38.6383 152.545 39.385C151.588 40.1083 151.005 41.205 150.795 42.675H160.595C160.525 41.3217 160.046 40.2483 159.16 39.455C158.273 38.6617 157.165 38.265 155.835 38.265ZM176.972 60.7V35.64H180.297L180.682 38.335C181.242 37.5183 182.012 36.795 182.992 36.165C183.972 35.535 185.232 35.22 186.772 35.22C188.452 35.22 189.934 35.6167 191.217 36.41C192.501 37.2033 193.504 38.2883 194.227 39.665C194.974 41.0417 195.347 42.605 195.347 44.355C195.347 46.105 194.974 47.6683 194.227 49.045C193.504 50.3983 192.501 51.4717 191.217 52.265C189.934 53.035 188.441 53.42 186.737 53.42C185.384 53.42 184.182 53.1517 183.132 52.615C182.106 52.0783 181.289 51.32 180.682 50.34V60.7H176.972ZM186.107 50.2C187.694 50.2 189.001 49.6633 190.027 48.59C191.054 47.4933 191.567 46.07 191.567 44.32C191.567 43.1767 191.334 42.1617 190.867 41.275C190.401 40.3883 189.759 39.7 188.942 39.21C188.126 38.6967 187.181 38.44 186.107 38.44C184.521 38.44 183.214 38.9883 182.187 40.085C181.184 41.1817 180.682 42.5933 180.682 44.32C180.682 46.07 181.184 47.4933 182.187 48.59C183.214 49.6633 184.521 50.2 186.107 50.2ZM207.48 53.42C205.823 53.42 204.33 53.0467 203 52.3C201.693 51.53 200.655 50.4683 199.885 49.115C199.115 47.7383 198.73 46.14 198.73 44.32C198.73 42.5 199.115 40.9133 199.885 39.56C200.678 38.1833 201.74 37.1217 203.07 36.375C204.4 35.605 205.882 35.22 207.515 35.22C209.172 35.22 210.653 35.605 211.96 36.375C213.29 37.1217 214.34 38.1833 215.11 39.56C215.903 40.9133 216.3 42.5 216.3 44.32C216.3 46.14 215.903 47.7383 215.11 49.115C214.34 50.4683 213.29 51.53 211.96 52.3C210.63 53.0467 209.137 53.42 207.48 53.42ZM207.48 50.235C208.367 50.235 209.183 50.0133 209.93 49.57C210.7 49.1267 211.318 48.4733 211.785 47.61C212.252 46.7233 212.485 45.6267 212.485 44.32C212.485 43.0133 212.252 41.9283 211.785 41.065C211.342 40.1783 210.735 39.5133 209.965 39.07C209.218 38.6267 208.402 38.405 207.515 38.405C206.628 38.405 205.8 38.6267 205.03 39.07C204.283 39.5133 203.677 40.1783 203.21 41.065C202.743 41.9283 202.51 43.0133 202.51 44.32C202.51 45.6267 202.743 46.7233 203.21 47.61C203.677 48.4733 204.283 49.1267 205.03 49.57C205.777 50.0133 206.593 50.235 207.48 50.235ZM227.242 53.42C225.049 53.42 223.241 52.8833 221.817 51.81C220.394 50.7367 219.577 49.3133 219.367 47.54H223.112C223.299 48.3333 223.742 49.0217 224.442 49.605C225.142 50.165 226.064 50.445 227.207 50.445C228.327 50.445 229.144 50.2117 229.657 49.745C230.171 49.2783 230.427 48.7417 230.427 48.135C230.427 47.2483 230.066 46.6533 229.342 46.35C228.642 46.0233 227.662 45.7317 226.402 45.475C225.422 45.265 224.442 44.985 223.462 44.635C222.506 44.285 221.701 43.795 221.047 43.165C220.417 42.5117 220.102 41.6367 220.102 40.54C220.102 39.0233 220.686 37.7633 221.852 36.76C223.019 35.7333 224.652 35.22 226.752 35.22C228.689 35.22 230.252 35.6867 231.442 36.62C232.656 37.5533 233.367 38.8717 233.577 40.575H230.007C229.891 39.8283 229.541 39.245 228.957 38.825C228.397 38.405 227.639 38.195 226.682 38.195C225.749 38.195 225.026 38.3933 224.512 38.79C223.999 39.1633 223.742 39.6533 223.742 40.26C223.742 40.8667 224.092 41.345 224.792 41.695C225.516 42.045 226.461 42.36 227.627 42.64C228.794 42.8967 229.867 43.2 230.847 43.55C231.851 43.8767 232.656 44.3667 233.262 45.02C233.869 45.6733 234.172 46.63 234.172 47.89C234.196 49.4767 233.577 50.795 232.317 51.845C231.081 52.895 229.389 53.42 227.242 53.42ZM244.853 53C243.15 53 241.796 52.5917 240.793 51.775C239.79 50.935 239.288 49.4533 239.288 47.33V38.755H236.313V35.64H239.288L239.743 31.23H242.998V35.64H247.898V38.755H242.998V47.33C242.998 48.2867 243.196 48.9517 243.593 49.325C244.013 49.675 244.725 49.85 245.728 49.85H247.723V53H244.853ZM258.653 53.42C256.46 53.42 254.652 52.8833 253.228 51.81C251.805 50.7367 250.988 49.3133 250.778 47.54H254.523C254.71 48.3333 255.153 49.0217 255.853 49.605C256.553 50.165 257.475 50.445 258.618 50.445C259.738 50.445 260.555 50.2117 261.068 49.745C261.582 49.2783 261.838 48.7417 261.838 48.135C261.838 47.2483 261.477 46.6533 260.753 46.35C260.053 46.0233 259.073 45.7317 257.813 45.475C256.833 45.265 255.853 44.985 254.873 44.635C253.917 44.285 253.112 43.795 252.458 43.165C251.828 42.5117 251.513 41.6367 251.513 40.54C251.513 39.0233 252.097 37.7633 253.263 36.76C254.43 35.7333 256.063 35.22 258.163 35.22C260.1 35.22 261.663 35.6867 262.853 36.62C264.067 37.5533 264.778 38.8717 264.988 40.575H261.418C261.302 39.8283 260.952 39.245 260.368 38.825C259.808 38.405 259.05 38.195 258.093 38.195C257.16 38.195 256.437 38.3933 255.923 38.79C255.41 39.1633 255.153 39.6533 255.153 40.26C255.153 40.8667 255.503 41.345 256.203 41.695C256.927 42.045 257.872 42.36 259.038 42.64C260.205 42.8967 261.278 43.2 262.258 43.55C263.262 43.8767 264.067 44.3667 264.673 45.02C265.28 45.6733 265.583 46.63 265.583 47.89C265.607 49.4767 264.988 50.795 263.728 51.845C262.492 52.895 260.8 53.42 258.653 53.42Z" fill="#FCF7F3"/>
</g>
<defs>
<filter id="filter0_d_435_408" x="6" y="10" width="297" height="76.1455" filterUnits="userSpaceOnUse" color-interpolation-filters="sRGB">
<feFlood flood-opacity="0" result="BackgroundImageFix"/>
<feColorMatrix in="SourceAlpha" type="matrix" values="0 0 0 0 0 0 0 0 0 0 0 0 0 0 0 0 0 0 127 0" result="hardAlpha"/>
<feOffset dy="4"/>
<feGaussianBlur stdDeviation="2"/>
<feComposite in2="hardAlpha" operator="out"/>
<feColorMatrix type="matrix" values="0 0 0 0 0 0 0 0 0 0 0 0 0 0 0 0 0 0 0.25 0"/>
<feBlend mode="normal" in2="BackgroundImageFix" result="effect1_dropShadow_435_408"/>
<feBlend mode="normal" in="SourceGraphic" in2="effect1_dropShadow_435_408" result="shape"/>
</filter>
<filter id="filter1_d_435_408" x="0" y="0" width="309" height="88.1455" filterUnits="userSpaceOnUse" color-interpolation-filters="sRGB">
<feFlood flood-opacity="0" result="BackgroundImageFix"/>
<feColorMatrix in="SourceAlpha" type="matrix" values="0 0 0 0 0 0 0 0 0 0 0 0 0 0 0 0 0 0 127 0" result="hardAlpha"/>
<feOffset/>
<feGaussianBlur stdDeviation="5"/>
<feComposite in2="hardAlpha" operator="out"/>
<feColorMatrix type="matrix" values="0 0 0 0 0 0 0 0 0 0 0 0 0 0 0 0 0 0 0.25 0"/>
<feBlend mode="normal" in2="BackgroundImageFix" result="effect1_dropShadow_435_408"/>
<feBlend mode="normal" in="SourceGraphic" in2="effect1_dropShadow_435_408" result="shape"/>
</filter>
</defs>
</svg>
