<svg width="400" height="28" viewBox="0 0 400 28" fill="none" xmlns="http://www.w3.org/2000/svg">
<path d="M2.36 4.032C1.89333 4.032 1.50133 3.88267 1.184 3.584C0.885333 3.26667 0.736 2.87467 0.736 2.408C0.736 1.96 0.885333 1.58667 1.184 1.288C1.50133 0.989332 1.89333 0.839999 2.36 0.839999C2.808 0.839999 3.19067 0.989332 3.508 1.288C3.82533 1.58667 3.984 1.96 3.984 2.408C3.984 2.87467 3.82533 3.26667 3.508 3.584C3.19067 3.88267 2.808 4.032 2.36 4.032ZM1.184 21V7.112H3.536V21H1.184ZM12.9512 21.336C11.2899 21.336 9.90855 20.916 8.80722 20.076C7.70589 19.236 7.06189 18.0973 6.87522 16.66H9.28322C9.43255 17.388 9.81522 18.0227 10.4312 18.564C11.0659 19.0867 11.9152 19.348 12.9792 19.348C13.9686 19.348 14.6966 19.1427 15.1632 18.732C15.6299 18.3027 15.8632 17.7987 15.8632 17.22C15.8632 16.38 15.5552 15.82 14.9392 15.54C14.3419 15.26 13.4926 15.008 12.3912 14.784C11.6446 14.6347 10.8979 14.42 10.1512 14.14C9.40455 13.86 8.77922 13.468 8.27522 12.964C7.77122 12.4413 7.51922 11.76 7.51922 10.92C7.51922 9.70667 7.96722 8.71733 8.86322 7.952C9.77789 7.168 11.0099 6.776 12.5592 6.776C14.0339 6.776 15.2379 7.14933 16.1712 7.896C17.1232 8.624 17.6739 9.66933 17.8232 11.032H15.4992C15.4059 10.3227 15.0979 9.772 14.5752 9.38C14.0712 8.96933 13.3899 8.764 12.5312 8.764C11.6912 8.764 11.0379 8.94133 10.5712 9.296C10.1232 9.65067 9.89922 10.1173 9.89922 10.696C9.89922 11.256 10.1886 11.6947 10.7672 12.012C11.3646 12.3293 12.1672 12.6 13.1752 12.824C14.0339 13.0107 14.8459 13.244 15.6112 13.524C16.3952 13.7853 17.0299 14.1867 17.5152 14.728C18.0192 15.2507 18.2712 16.016 18.2712 17.024C18.2899 18.2747 17.8139 19.3107 16.8432 20.132C15.8912 20.9347 14.5939 21.336 12.9512 21.336ZM30.5534 27.16L33.9974 19.656H33.1854L27.6694 7.112H30.2174L34.8094 17.92L39.6814 7.112H42.1174L33.0174 27.16H30.5534ZM49.6155 21.336C48.3088 21.336 47.1328 21.0373 46.0875 20.44C45.0421 19.8427 44.2115 19.0027 43.5955 17.92C42.9981 16.8187 42.6995 15.5307 42.6995 14.056C42.6995 12.5813 43.0075 11.3027 43.6235 10.22C44.2395 9.11867 45.0701 8.26933 46.1155 7.672C47.1795 7.07467 48.3648 6.776 49.6715 6.776C50.9781 6.776 52.1541 7.07467 53.1995 7.672C54.2448 8.26933 55.0661 9.11867 55.6635 10.22C56.2795 11.3027 56.5875 12.5813 56.5875 14.056C56.5875 15.5307 56.2795 16.8187 55.6635 17.92C55.0475 19.0027 54.2075 19.8427 53.1435 20.44C52.0981 21.0373 50.9221 21.336 49.6155 21.336ZM49.6155 19.32C50.4181 19.32 51.1648 19.124 51.8555 18.732C52.5461 18.34 53.1061 17.752 53.5355 16.968C53.9648 16.184 54.1795 15.2133 54.1795 14.056C54.1795 12.8987 53.9648 11.928 53.5355 11.144C53.1248 10.36 52.5741 9.772 51.8835 9.38C51.1928 8.988 50.4555 8.792 49.6715 8.792C48.8688 8.792 48.1221 8.988 47.4315 9.38C46.7408 9.772 46.1808 10.36 45.7515 11.144C45.3221 11.928 45.1075 12.8987 45.1075 14.056C45.1075 15.2133 45.3221 16.184 45.7515 16.968C46.1808 17.752 46.7315 18.34 47.4035 18.732C48.0941 19.124 48.8315 19.32 49.6155 19.32ZM64.9258 21.336C63.2831 21.336 61.9764 20.8413 61.0058 19.852C60.0351 18.844 59.5498 17.304 59.5498 15.232V7.112H61.9018V14.98C61.9018 17.8733 63.0871 19.32 65.4578 19.32C66.6711 19.32 67.6698 18.8907 68.4538 18.032C69.2564 17.1547 69.6578 15.9133 69.6578 14.308V7.112H72.0098V21H69.8818L69.7138 18.508C69.2844 19.3853 68.6404 20.076 67.7818 20.58C66.9418 21.084 65.9898 21.336 64.9258 21.336ZM75.8812 21V7.112H78.0092L78.2052 9.772C78.6346 8.85733 79.2879 8.12933 80.1652 7.588C81.0426 7.04667 82.1252 6.776 83.4132 6.776V9.24H82.7692C81.9479 9.24 81.1919 9.38933 80.5012 9.688C79.8106 9.968 79.2599 10.4533 78.8492 11.144C78.4386 11.8347 78.2332 12.7867 78.2332 14V21H75.8812ZM93.4633 21V7.112H95.5913L95.7593 9.128C96.2073 8.38133 96.8046 7.80267 97.5513 7.392C98.2979 6.98133 99.1379 6.776 100.071 6.776C101.173 6.776 102.115 7 102.899 7.448C103.702 7.896 104.318 8.57733 104.747 9.492C105.233 8.652 105.895 7.98933 106.735 7.504C107.594 7.01867 108.518 6.776 109.507 6.776C111.169 6.776 112.494 7.28 113.483 8.288C114.473 9.27733 114.967 10.808 114.967 12.88V21H112.643V13.132C112.643 11.6947 112.354 10.612 111.775 9.884C111.197 9.156 110.366 8.792 109.283 8.792C108.163 8.792 107.23 9.23067 106.483 10.108C105.755 10.9667 105.391 12.1987 105.391 13.804V21H103.039V13.132C103.039 11.6947 102.75 10.612 102.171 9.884C101.593 9.156 100.762 8.792 99.6793 8.792C98.5779 8.792 97.6539 9.23067 96.9073 10.108C96.1793 10.9667 95.8153 12.1987 95.8153 13.804V21H93.4633ZM124.838 21.336C123.531 21.336 122.355 21.0373 121.31 20.44C120.265 19.8427 119.434 19.0027 118.818 17.92C118.221 16.8187 117.922 15.5307 117.922 14.056C117.922 12.5813 118.23 11.3027 118.846 10.22C119.462 9.11867 120.293 8.26933 121.338 7.672C122.402 7.07467 123.587 6.776 124.894 6.776C126.201 6.776 127.377 7.07467 128.422 7.672C129.467 8.26933 130.289 9.11867 130.886 10.22C131.502 11.3027 131.81 12.5813 131.81 14.056C131.81 15.5307 131.502 16.8187 130.886 17.92C130.27 19.0027 129.43 19.8427 128.366 20.44C127.321 21.0373 126.145 21.336 124.838 21.336ZM124.838 19.32C125.641 19.32 126.387 19.124 127.078 18.732C127.769 18.34 128.329 17.752 128.758 16.968C129.187 16.184 129.402 15.2133 129.402 14.056C129.402 12.8987 129.187 11.928 128.758 11.144C128.347 10.36 127.797 9.772 127.106 9.38C126.415 8.988 125.678 8.792 124.894 8.792C124.091 8.792 123.345 8.988 122.654 9.38C121.963 9.772 121.403 10.36 120.974 11.144C120.545 11.928 120.33 12.8987 120.33 14.056C120.33 15.2133 120.545 16.184 120.974 16.968C121.403 17.752 121.954 18.34 122.626 18.732C123.317 19.124 124.054 19.32 124.838 19.32ZM140.4 21.336C138.739 21.336 137.358 20.916 136.256 20.076C135.155 19.236 134.511 18.0973 134.324 16.66H136.732C136.882 17.388 137.264 18.0227 137.88 18.564C138.515 19.0867 139.364 19.348 140.428 19.348C141.418 19.348 142.146 19.1427 142.612 18.732C143.079 18.3027 143.312 17.7987 143.312 17.22C143.312 16.38 143.004 15.82 142.388 15.54C141.791 15.26 140.942 15.008 139.84 14.784C139.094 14.6347 138.347 14.42 137.6 14.14C136.854 13.86 136.228 13.468 135.724 12.964C135.22 12.4413 134.968 11.76 134.968 10.92C134.968 9.70667 135.416 8.71733 136.312 7.952C137.227 7.168 138.459 6.776 140.008 6.776C141.483 6.776 142.687 7.14933 143.62 7.896C144.572 8.624 145.123 9.66933 145.272 11.032H142.948C142.855 10.3227 142.547 9.772 142.024 9.38C141.52 8.96933 140.839 8.764 139.98 8.764C139.14 8.764 138.487 8.94133 138.02 9.296C137.572 9.65067 137.348 10.1173 137.348 10.696C137.348 11.256 137.638 11.6947 138.216 12.012C138.814 12.3293 139.616 12.6 140.624 12.824C141.483 13.0107 142.295 13.244 143.06 13.524C143.844 13.7853 144.479 14.1867 144.964 14.728C145.468 15.2507 145.72 16.016 145.72 17.024C145.739 18.2747 145.263 19.3107 144.292 20.132C143.34 20.9347 142.043 21.336 140.4 21.336ZM153.94 21C152.67 21 151.672 20.692 150.944 20.076C150.216 19.46 149.852 18.3493 149.852 16.744V9.1H147.444V7.112H149.852L150.16 3.78H152.204V7.112H156.292V9.1H152.204V16.744C152.204 17.6213 152.381 18.2187 152.736 18.536C153.09 18.8347 153.716 18.984 154.612 18.984H156.068V21H153.94ZM173.074 21.336C171.748 21.336 170.554 21.0373 169.49 20.44C168.444 19.824 167.614 18.9747 166.998 17.892C166.4 16.7907 166.102 15.512 166.102 14.056C166.102 12.6 166.4 11.3307 166.998 10.248C167.614 9.14667 168.444 8.29733 169.49 7.7C170.554 7.084 171.748 6.776 173.074 6.776C174.716 6.776 176.098 7.20533 177.218 8.064C178.356 8.92267 179.075 10.0707 179.374 11.508H176.966C176.779 10.6493 176.322 9.98667 175.594 9.52C174.866 9.03467 174.016 8.792 173.046 8.792C172.262 8.792 171.524 8.988 170.834 9.38C170.143 9.772 169.583 10.36 169.154 11.144C168.724 11.928 168.51 12.8987 168.51 14.056C168.51 15.2133 168.724 16.184 169.154 16.968C169.583 17.752 170.143 18.3493 170.834 18.76C171.524 19.152 172.262 19.348 173.046 19.348C174.016 19.348 174.866 19.1147 175.594 18.648C176.322 18.1627 176.779 17.4813 176.966 16.604H179.374C179.094 18.004 178.384 19.1427 177.246 20.02C176.107 20.8973 174.716 21.336 173.074 21.336ZM188.987 21.336C187.68 21.336 186.504 21.0373 185.459 20.44C184.413 19.8427 183.583 19.0027 182.967 17.92C182.369 16.8187 182.071 15.5307 182.071 14.056C182.071 12.5813 182.379 11.3027 182.995 10.22C183.611 9.11867 184.441 8.26933 185.487 7.672C186.551 7.07467 187.736 6.776 189.043 6.776C190.349 6.776 191.525 7.07467 192.571 7.672C193.616 8.26933 194.437 9.11867 195.035 10.22C195.651 11.3027 195.959 12.5813 195.959 14.056C195.959 15.5307 195.651 16.8187 195.035 17.92C194.419 19.0027 193.579 19.8427 192.515 20.44C191.469 21.0373 190.293 21.336 188.987 21.336ZM188.987 19.32C189.789 19.32 190.536 19.124 191.227 18.732C191.917 18.34 192.477 17.752 192.907 16.968C193.336 16.184 193.551 15.2133 193.551 14.056C193.551 12.8987 193.336 11.928 192.907 11.144C192.496 10.36 191.945 9.772 191.255 9.38C190.564 8.988 189.827 8.792 189.043 8.792C188.24 8.792 187.493 8.988 186.803 9.38C186.112 9.772 185.552 10.36 185.123 11.144C184.693 11.928 184.479 12.8987 184.479 14.056C184.479 15.2133 184.693 16.184 185.123 16.968C185.552 17.752 186.103 18.34 186.775 18.732C187.465 19.124 188.203 19.32 188.987 19.32ZM199.229 21V7.112H201.357L201.525 9.128C201.973 8.38133 202.57 7.80267 203.317 7.392C204.064 6.98133 204.904 6.776 205.837 6.776C206.938 6.776 207.881 7 208.665 7.448C209.468 7.896 210.084 8.57733 210.513 9.492C210.998 8.652 211.661 7.98933 212.501 7.504C213.36 7.01867 214.284 6.776 215.273 6.776C216.934 6.776 218.26 7.28 219.249 8.288C220.238 9.27733 220.733 10.808 220.733 12.88V21H218.409V13.132C218.409 11.6947 218.12 10.612 217.541 9.884C216.962 9.156 216.132 8.792 215.049 8.792C213.929 8.792 212.996 9.23067 212.249 10.108C211.521 10.9667 211.157 12.1987 211.157 13.804V21H208.805V13.132C208.805 11.6947 208.516 10.612 207.937 9.884C207.358 9.156 206.528 8.792 205.445 8.792C204.344 8.792 203.42 9.23067 202.673 10.108C201.945 10.9667 201.581 12.1987 201.581 13.804V21H199.229ZM224.276 21V7.112H226.404L226.572 9.128C227.02 8.38133 227.617 7.80267 228.364 7.392C229.11 6.98133 229.95 6.776 230.884 6.776C231.985 6.776 232.928 7 233.712 7.448C234.514 7.896 235.13 8.57733 235.56 9.492C236.045 8.652 236.708 7.98933 237.548 7.504C238.406 7.01867 239.33 6.776 240.32 6.776C241.981 6.776 243.306 7.28 244.296 8.288C245.285 9.27733 245.78 10.808 245.78 12.88V21H243.456V13.132C243.456 11.6947 243.166 10.612 242.588 9.884C242.009 9.156 241.178 8.792 240.096 8.792C238.976 8.792 238.042 9.23067 237.296 10.108C236.568 10.9667 236.204 12.1987 236.204 13.804V21H233.852V13.132C233.852 11.6947 233.562 10.612 232.984 9.884C232.405 9.156 231.574 8.792 230.492 8.792C229.39 8.792 228.466 9.23067 227.72 10.108C226.992 10.9667 226.628 12.1987 226.628 13.804V21H224.276ZM255.567 21.336C254.241 21.336 253.065 21.0373 252.039 20.44C251.012 19.824 250.2 18.9747 249.603 17.892C249.024 16.8093 248.735 15.5307 248.735 14.056C248.735 12.6 249.024 11.3307 249.603 10.248C250.181 9.14667 250.984 8.29733 252.011 7.7C253.056 7.084 254.26 6.776 255.623 6.776C256.967 6.776 258.124 7.084 259.095 7.7C260.084 8.29733 260.84 9.09067 261.363 10.08C261.885 11.0693 262.147 12.1333 262.147 13.272C262.147 13.4773 262.137 13.6827 262.119 13.888C262.119 14.0933 262.119 14.3267 262.119 14.588H251.059C251.115 15.652 251.357 16.5387 251.787 17.248C252.235 17.9387 252.785 18.4613 253.439 18.816C254.111 19.1707 254.82 19.348 255.567 19.348C256.537 19.348 257.349 19.124 258.003 18.676C258.656 18.228 259.132 17.6213 259.431 16.856H261.755C261.381 18.144 260.663 19.2173 259.599 20.076C258.553 20.916 257.209 21.336 255.567 21.336ZM255.567 8.764C254.447 8.764 253.448 9.10933 252.571 9.8C251.712 10.472 251.217 11.4613 251.087 12.768H259.823C259.767 11.5173 259.337 10.5373 258.535 9.828C257.732 9.11867 256.743 8.764 255.567 8.764ZM265.264 21V7.112H267.392L267.532 9.604C267.98 8.72667 268.624 8.036 269.464 7.532C270.304 7.028 271.256 6.776 272.32 6.776C273.963 6.776 275.269 7.28 276.24 8.288C277.229 9.27733 277.724 10.808 277.724 12.88V21H275.372V13.132C275.372 10.2387 274.177 8.792 271.788 8.792C270.593 8.792 269.595 9.23067 268.792 10.108C268.008 10.9667 267.616 12.1987 267.616 13.804V21H265.264ZM286.775 21C285.506 21 284.507 20.692 283.779 20.076C283.051 19.46 282.687 18.3493 282.687 16.744V9.1H280.279V7.112H282.687L282.995 3.78H285.039V7.112H289.127V9.1H285.039V16.744C285.039 17.6213 285.217 18.2187 285.571 18.536C285.926 18.8347 286.551 18.984 287.447 18.984H288.903V21H286.775ZM297.977 21.336C296.651 21.336 295.475 21.0373 294.449 20.44C293.422 19.824 292.61 18.9747 292.013 17.892C291.434 16.8093 291.145 15.5307 291.145 14.056C291.145 12.6 291.434 11.3307 292.013 10.248C292.591 9.14667 293.394 8.29733 294.421 7.7C295.466 7.084 296.67 6.776 298.033 6.776C299.377 6.776 300.534 7.084 301.505 7.7C302.494 8.29733 303.25 9.09067 303.773 10.08C304.295 11.0693 304.557 12.1333 304.557 13.272C304.557 13.4773 304.547 13.6827 304.529 13.888C304.529 14.0933 304.529 14.3267 304.529 14.588H293.469C293.525 15.652 293.767 16.5387 294.197 17.248C294.645 17.9387 295.195 18.4613 295.849 18.816C296.521 19.1707 297.23 19.348 297.977 19.348C298.947 19.348 299.759 19.124 300.413 18.676C301.066 18.228 301.542 17.6213 301.841 16.856H304.165C303.791 18.144 303.073 19.2173 302.009 20.076C300.963 20.916 299.619 21.336 297.977 21.336ZM297.977 8.764C296.857 8.764 295.858 9.10933 294.981 9.8C294.122 10.472 293.627 11.4613 293.497 12.768H302.233C302.177 11.5173 301.747 10.5373 300.945 9.828C300.142 9.11867 299.153 8.764 297.977 8.764ZM313.974 21.336C312.593 21.336 311.38 21.0187 310.334 20.384C309.308 19.7493 308.505 18.8813 307.926 17.78C307.366 16.6787 307.086 15.428 307.086 14.028C307.086 12.628 307.376 11.3867 307.954 10.304C308.533 9.20267 309.336 8.344 310.362 7.728C311.389 7.09333 312.602 6.776 314.002 6.776C315.141 6.776 316.149 7.00933 317.026 7.476C317.904 7.94267 318.585 8.596 319.07 9.436V0.839999H321.422V21H319.294L319.07 18.704C318.622 19.376 317.978 19.9827 317.138 20.524C316.298 21.0653 315.244 21.336 313.974 21.336ZM314.226 19.292C315.16 19.292 315.981 19.0773 316.69 18.648C317.418 18.2 317.978 17.584 318.37 16.8C318.781 16.016 318.986 15.1013 318.986 14.056C318.986 13.0107 318.781 12.096 318.37 11.312C317.978 10.528 317.418 9.92133 316.69 9.492C315.981 9.044 315.16 8.82 314.226 8.82C313.312 8.82 312.49 9.044 311.762 9.492C311.053 9.92133 310.493 10.528 310.082 11.312C309.69 12.096 309.494 13.0107 309.494 14.056C309.494 15.1013 309.69 16.016 310.082 16.8C310.493 17.584 311.053 18.2 311.762 18.648C312.49 19.0773 313.312 19.292 314.226 19.292ZM335.466 21L331.406 7.112H333.758L336.698 18.004L339.946 7.112H342.606L345.882 18.004L348.794 7.112H351.174L347.114 21H344.706L341.29 9.548L337.874 21H335.466ZM359.584 21.336C358.278 21.336 357.102 21.0373 356.056 20.44C355.011 19.8427 354.18 19.0027 353.564 17.92C352.967 16.8187 352.668 15.5307 352.668 14.056C352.668 12.5813 352.976 11.3027 353.592 10.22C354.208 9.11867 355.039 8.26933 356.084 7.672C357.148 7.07467 358.334 6.776 359.64 6.776C360.947 6.776 362.123 7.07467 363.168 7.672C364.214 8.26933 365.035 9.11867 365.632 10.22C366.248 11.3027 366.556 12.5813 366.556 14.056C366.556 15.5307 366.248 16.8187 365.632 17.92C365.016 19.0027 364.176 19.8427 363.112 20.44C362.067 21.0373 360.891 21.336 359.584 21.336ZM359.584 19.32C360.387 19.32 361.134 19.124 361.824 18.732C362.515 18.34 363.075 17.752 363.504 16.968C363.934 16.184 364.148 15.2133 364.148 14.056C364.148 12.8987 363.934 11.928 363.504 11.144C363.094 10.36 362.543 9.772 361.852 9.38C361.162 8.988 360.424 8.792 359.64 8.792C358.838 8.792 358.091 8.988 357.4 9.38C356.71 9.772 356.15 10.36 355.72 11.144C355.291 11.928 355.076 12.8987 355.076 14.056C355.076 15.2133 355.291 16.184 355.72 16.968C356.15 17.752 356.7 18.34 357.372 18.732C358.063 19.124 358.8 19.32 359.584 19.32ZM369.827 21V7.112H371.955L372.151 9.772C372.58 8.85733 373.233 8.12933 374.111 7.588C374.988 7.04667 376.071 6.776 377.359 6.776V9.24H376.715C375.893 9.24 375.137 9.38933 374.447 9.688C373.756 9.968 373.205 10.4533 372.795 11.144C372.384 11.8347 372.179 12.7867 372.179 14V21H369.827ZM385.779 21.336C384.398 21.336 383.184 21.0187 382.139 20.384C381.112 19.7493 380.31 18.8813 379.731 17.78C379.171 16.6787 378.891 15.428 378.891 14.028C378.891 12.628 379.18 11.3867 379.759 10.304C380.338 9.20267 381.14 8.344 382.167 7.728C383.194 7.09333 384.407 6.776 385.807 6.776C386.946 6.776 387.954 7.00933 388.831 7.476C389.708 7.94267 390.39 8.596 390.875 9.436V0.839999H393.227V21H391.099L390.875 18.704C390.427 19.376 389.783 19.9827 388.943 20.524C388.103 21.0653 387.048 21.336 385.779 21.336ZM386.031 19.292C386.964 19.292 387.786 19.0773 388.495 18.648C389.223 18.2 389.783 17.584 390.175 16.8C390.586 16.016 390.791 15.1013 390.791 14.056C390.791 13.0107 390.586 12.096 390.175 11.312C389.783 10.528 389.223 9.92133 388.495 9.492C387.786 9.044 386.964 8.82 386.031 8.82C385.116 8.82 384.295 9.044 383.567 9.492C382.858 9.92133 382.298 10.528 381.887 11.312C381.495 12.096 381.299 13.0107 381.299 14.056C381.299 15.1013 381.495 16.016 381.887 16.8C382.298 17.584 382.858 18.2 383.567 18.648C384.295 19.0773 385.116 19.292 386.031 19.292ZM397.873 21.14C397.406 21.14 397.014 20.9907 396.697 20.692C396.398 20.3747 396.249 19.992 396.249 19.544C396.249 19.096 396.398 18.7227 396.697 18.424C397.014 18.1067 397.406 17.948 397.873 17.948C398.321 17.948 398.694 18.1067 398.993 18.424C399.31 18.7227 399.469 19.096 399.469 19.544C399.469 19.992 399.31 20.3747 398.993 20.692C398.694 20.9907 398.321 21.14 397.873 21.14Z" fill="black"/>
</svg>
