<svg width="455" height="28" viewBox="0 0 455 28" fill="none" xmlns="http://www.w3.org/2000/svg">
<path d="M2.36 4.032C1.89333 4.032 1.50133 3.88267 1.184 3.584C0.885333 3.26667 0.736 2.87467 0.736 2.408C0.736 1.96 0.885333 1.58667 1.184 1.288C1.50133 0.989332 1.89333 0.839999 2.36 0.839999C2.808 0.839999 3.19067 0.989332 3.508 1.288C3.82533 1.58667 3.984 1.96 3.984 2.408C3.984 2.87467 3.82533 3.26667 3.508 3.584C3.19067 3.88267 2.808 4.032 2.36 4.032ZM1.184 21V7.112H3.536V21H1.184ZM12.9512 21.336C11.2899 21.336 9.90855 20.916 8.80722 20.076C7.70589 19.236 7.06189 18.0973 6.87522 16.66H9.28322C9.43255 17.388 9.81522 18.0227 10.4312 18.564C11.0659 19.0867 11.9152 19.348 12.9792 19.348C13.9686 19.348 14.6966 19.1427 15.1632 18.732C15.6299 18.3027 15.8632 17.7987 15.8632 17.22C15.8632 16.38 15.5552 15.82 14.9392 15.54C14.3419 15.26 13.4926 15.008 12.3912 14.784C11.6446 14.6347 10.8979 14.42 10.1512 14.14C9.40455 13.86 8.77922 13.468 8.27522 12.964C7.77122 12.4413 7.51922 11.76 7.51922 10.92C7.51922 9.70667 7.96722 8.71733 8.86322 7.952C9.77789 7.168 11.0099 6.776 12.5592 6.776C14.0339 6.776 15.2379 7.14933 16.1712 7.896C17.1232 8.624 17.6739 9.66933 17.8232 11.032H15.4992C15.4059 10.3227 15.0979 9.772 14.5752 9.38C14.0712 8.96933 13.3899 8.764 12.5312 8.764C11.6912 8.764 11.0379 8.94133 10.5712 9.296C10.1232 9.65067 9.89922 10.1173 9.89922 10.696C9.89922 11.256 10.1886 11.6947 10.7672 12.012C11.3646 12.3293 12.1672 12.6 13.1752 12.824C14.0339 13.0107 14.8459 13.244 15.6112 13.524C16.3952 13.7853 17.0299 14.1867 17.5152 14.728C18.0192 15.2507 18.2712 16.016 18.2712 17.024C18.2899 18.2747 17.8139 19.3107 16.8432 20.132C15.8912 20.9347 14.5939 21.336 12.9512 21.336ZM30.5534 27.16L33.9974 19.656H33.1854L27.6694 7.112H30.2174L34.8094 17.92L39.6814 7.112H42.1174L33.0174 27.16H30.5534ZM49.6155 21.336C48.3088 21.336 47.1328 21.0373 46.0875 20.44C45.0421 19.8427 44.2115 19.0027 43.5955 17.92C42.9981 16.8187 42.6995 15.5307 42.6995 14.056C42.6995 12.5813 43.0075 11.3027 43.6235 10.22C44.2395 9.11867 45.0701 8.26933 46.1155 7.672C47.1795 7.07467 48.3648 6.776 49.6715 6.776C50.9781 6.776 52.1541 7.07467 53.1995 7.672C54.2448 8.26933 55.0661 9.11867 55.6635 10.22C56.2795 11.3027 56.5875 12.5813 56.5875 14.056C56.5875 15.5307 56.2795 16.8187 55.6635 17.92C55.0475 19.0027 54.2075 19.8427 53.1435 20.44C52.0981 21.0373 50.9221 21.336 49.6155 21.336ZM49.6155 19.32C50.4181 19.32 51.1648 19.124 51.8555 18.732C52.5461 18.34 53.1061 17.752 53.5355 16.968C53.9648 16.184 54.1795 15.2133 54.1795 14.056C54.1795 12.8987 53.9648 11.928 53.5355 11.144C53.1248 10.36 52.5741 9.772 51.8835 9.38C51.1928 8.988 50.4555 8.792 49.6715 8.792C48.8688 8.792 48.1221 8.988 47.4315 9.38C46.7408 9.772 46.1808 10.36 45.7515 11.144C45.3221 11.928 45.1075 12.8987 45.1075 14.056C45.1075 15.2133 45.3221 16.184 45.7515 16.968C46.1808 17.752 46.7315 18.34 47.4035 18.732C48.0941 19.124 48.8315 19.32 49.6155 19.32ZM64.9258 21.336C63.2831 21.336 61.9764 20.8413 61.0058 19.852C60.0351 18.844 59.5498 17.304 59.5498 15.232V7.112H61.9018V14.98C61.9018 17.8733 63.0871 19.32 65.4578 19.32C66.6711 19.32 67.6698 18.8907 68.4538 18.032C69.2564 17.1547 69.6578 15.9133 69.6578 14.308V7.112H72.0098V21H69.8818L69.7138 18.508C69.2844 19.3853 68.6404 20.076 67.7818 20.58C66.9418 21.084 65.9898 21.336 64.9258 21.336ZM75.8812 21V7.112H78.0092L78.2052 9.772C78.6346 8.85733 79.2879 8.12933 80.1652 7.588C81.0426 7.04667 82.1252 6.776 83.4132 6.776V9.24H82.7692C81.9479 9.24 81.1919 9.38933 80.5012 9.688C79.8106 9.968 79.2599 10.4533 78.8492 11.144C78.4386 11.8347 78.2332 12.7867 78.2332 14V21H75.8812ZM93.4633 21V7.112H95.5913L95.7593 9.128C96.2073 8.38133 96.8046 7.80267 97.5513 7.392C98.2979 6.98133 99.1379 6.776 100.071 6.776C101.173 6.776 102.115 7 102.899 7.448C103.702 7.896 104.318 8.57733 104.747 9.492C105.233 8.652 105.895 7.98933 106.735 7.504C107.594 7.01867 108.518 6.776 109.507 6.776C111.169 6.776 112.494 7.28 113.483 8.288C114.473 9.27733 114.967 10.808 114.967 12.88V21H112.643V13.132C112.643 11.6947 112.354 10.612 111.775 9.884C111.197 9.156 110.366 8.792 109.283 8.792C108.163 8.792 107.23 9.23067 106.483 10.108C105.755 10.9667 105.391 12.1987 105.391 13.804V21H103.039V13.132C103.039 11.6947 102.75 10.612 102.171 9.884C101.593 9.156 100.762 8.792 99.6793 8.792C98.5779 8.792 97.6539 9.23067 96.9073 10.108C96.1793 10.9667 95.8153 12.1987 95.8153 13.804V21H93.4633ZM124.838 21.336C123.531 21.336 122.355 21.0373 121.31 20.44C120.265 19.8427 119.434 19.0027 118.818 17.92C118.221 16.8187 117.922 15.5307 117.922 14.056C117.922 12.5813 118.23 11.3027 118.846 10.22C119.462 9.11867 120.293 8.26933 121.338 7.672C122.402 7.07467 123.587 6.776 124.894 6.776C126.201 6.776 127.377 7.07467 128.422 7.672C129.467 8.26933 130.289 9.11867 130.886 10.22C131.502 11.3027 131.81 12.5813 131.81 14.056C131.81 15.5307 131.502 16.8187 130.886 17.92C130.27 19.0027 129.43 19.8427 128.366 20.44C127.321 21.0373 126.145 21.336 124.838 21.336ZM124.838 19.32C125.641 19.32 126.387 19.124 127.078 18.732C127.769 18.34 128.329 17.752 128.758 16.968C129.187 16.184 129.402 15.2133 129.402 14.056C129.402 12.8987 129.187 11.928 128.758 11.144C128.347 10.36 127.797 9.772 127.106 9.38C126.415 8.988 125.678 8.792 124.894 8.792C124.091 8.792 123.345 8.988 122.654 9.38C121.963 9.772 121.403 10.36 120.974 11.144C120.545 11.928 120.33 12.8987 120.33 14.056C120.33 15.2133 120.545 16.184 120.974 16.968C121.403 17.752 121.954 18.34 122.626 18.732C123.317 19.124 124.054 19.32 124.838 19.32ZM140.4 21.336C138.739 21.336 137.358 20.916 136.256 20.076C135.155 19.236 134.511 18.0973 134.324 16.66H136.732C136.882 17.388 137.264 18.0227 137.88 18.564C138.515 19.0867 139.364 19.348 140.428 19.348C141.418 19.348 142.146 19.1427 142.612 18.732C143.079 18.3027 143.312 17.7987 143.312 17.22C143.312 16.38 143.004 15.82 142.388 15.54C141.791 15.26 140.942 15.008 139.84 14.784C139.094 14.6347 138.347 14.42 137.6 14.14C136.854 13.86 136.228 13.468 135.724 12.964C135.22 12.4413 134.968 11.76 134.968 10.92C134.968 9.70667 135.416 8.71733 136.312 7.952C137.227 7.168 138.459 6.776 140.008 6.776C141.483 6.776 142.687 7.14933 143.62 7.896C144.572 8.624 145.123 9.66933 145.272 11.032H142.948C142.855 10.3227 142.547 9.772 142.024 9.38C141.52 8.96933 140.839 8.764 139.98 8.764C139.14 8.764 138.487 8.94133 138.02 9.296C137.572 9.65067 137.348 10.1173 137.348 10.696C137.348 11.256 137.638 11.6947 138.216 12.012C138.814 12.3293 139.616 12.6 140.624 12.824C141.483 13.0107 142.295 13.244 143.06 13.524C143.844 13.7853 144.479 14.1867 144.964 14.728C145.468 15.2507 145.72 16.016 145.72 17.024C145.739 18.2747 145.263 19.3107 144.292 20.132C143.34 20.9347 142.043 21.336 140.4 21.336ZM153.94 21C152.67 21 151.672 20.692 150.944 20.076C150.216 19.46 149.852 18.3493 149.852 16.744V9.1H147.444V7.112H149.852L150.16 3.78H152.204V7.112H156.292V9.1H152.204V16.744C152.204 17.6213 152.381 18.2187 152.736 18.536C153.09 18.8347 153.716 18.984 154.612 18.984H156.068V21H153.94ZM171.758 21.336C170.115 21.336 168.808 20.8413 167.838 19.852C166.867 18.844 166.382 17.304 166.382 15.232V7.112H168.734V14.98C168.734 17.8733 169.919 19.32 172.29 19.32C173.503 19.32 174.502 18.8907 175.286 18.032C176.088 17.1547 176.49 15.9133 176.49 14.308V7.112H178.842V21H176.714L176.546 18.508C176.116 19.3853 175.472 20.076 174.614 20.58C173.774 21.084 172.822 21.336 171.758 21.336ZM188.033 21.336C186.372 21.336 184.991 20.916 183.889 20.076C182.788 19.236 182.144 18.0973 181.957 16.66H184.365C184.515 17.388 184.897 18.0227 185.513 18.564C186.148 19.0867 186.997 19.348 188.061 19.348C189.051 19.348 189.779 19.1427 190.245 18.732C190.712 18.3027 190.945 17.7987 190.945 17.22C190.945 16.38 190.637 15.82 190.021 15.54C189.424 15.26 188.575 15.008 187.473 14.784C186.727 14.6347 185.98 14.42 185.233 14.14C184.487 13.86 183.861 13.468 183.357 12.964C182.853 12.4413 182.601 11.76 182.601 10.92C182.601 9.70667 183.049 8.71733 183.945 7.952C184.86 7.168 186.092 6.776 187.641 6.776C189.116 6.776 190.32 7.14933 191.253 7.896C192.205 8.624 192.756 9.66933 192.905 11.032H190.581C190.488 10.3227 190.18 9.772 189.657 9.38C189.153 8.96933 188.472 8.764 187.613 8.764C186.773 8.764 186.12 8.94133 185.653 9.296C185.205 9.65067 184.981 10.1173 184.981 10.696C184.981 11.256 185.271 11.6947 185.849 12.012C186.447 12.3293 187.249 12.6 188.257 12.824C189.116 13.0107 189.928 13.244 190.693 13.524C191.477 13.7853 192.112 14.1867 192.597 14.728C193.101 15.2507 193.353 16.016 193.353 17.024C193.372 18.2747 192.896 19.3107 191.925 20.132C190.973 20.9347 189.676 21.336 188.033 21.336ZM202.957 21.336C201.632 21.336 200.456 21.0373 199.429 20.44C198.403 19.824 197.591 18.9747 196.993 17.892C196.415 16.8093 196.125 15.5307 196.125 14.056C196.125 12.6 196.415 11.3307 196.993 10.248C197.572 9.14667 198.375 8.29733 199.401 7.7C200.447 7.084 201.651 6.776 203.013 6.776C204.357 6.776 205.515 7.084 206.485 7.7C207.475 8.29733 208.231 9.09067 208.753 10.08C209.276 11.0693 209.537 12.1333 209.537 13.272C209.537 13.4773 209.528 13.6827 209.509 13.888C209.509 14.0933 209.509 14.3267 209.509 14.588H198.449C198.505 15.652 198.748 16.5387 199.177 17.248C199.625 17.9387 200.176 18.4613 200.829 18.816C201.501 19.1707 202.211 19.348 202.957 19.348C203.928 19.348 204.74 19.124 205.393 18.676C206.047 18.228 206.523 17.6213 206.821 16.856H209.145C208.772 18.144 208.053 19.2173 206.989 20.076C205.944 20.916 204.6 21.336 202.957 21.336ZM202.957 8.764C201.837 8.764 200.839 9.10933 199.961 9.8C199.103 10.472 198.608 11.4613 198.477 12.768H207.213C207.157 11.5173 206.728 10.5373 205.925 9.828C205.123 9.11867 204.133 8.764 202.957 8.764ZM218.955 21.336C217.573 21.336 216.36 21.0187 215.315 20.384C214.288 19.7493 213.485 18.8813 212.907 17.78C212.347 16.6787 212.067 15.428 212.067 14.028C212.067 12.628 212.356 11.3867 212.935 10.304C213.513 9.20267 214.316 8.344 215.343 7.728C216.369 7.09333 217.583 6.776 218.983 6.776C220.121 6.776 221.129 7.00933 222.007 7.476C222.884 7.94267 223.565 8.596 224.051 9.436V0.839999H226.403V21H224.275L224.051 18.704C223.603 19.376 222.959 19.9827 222.119 20.524C221.279 21.0653 220.224 21.336 218.955 21.336ZM219.207 19.292C220.14 19.292 220.961 19.0773 221.671 18.648C222.399 18.2 222.959 17.584 223.351 16.8C223.761 16.016 223.967 15.1013 223.967 14.056C223.967 13.0107 223.761 12.096 223.351 11.312C222.959 10.528 222.399 9.92133 221.671 9.492C220.961 9.044 220.14 8.82 219.207 8.82C218.292 8.82 217.471 9.044 216.743 9.492C216.033 9.92133 215.473 10.528 215.063 11.312C214.671 12.096 214.475 13.0107 214.475 14.056C214.475 15.1013 214.671 16.016 215.063 16.8C215.473 17.584 216.033 18.2 216.743 18.648C217.471 19.0773 218.292 19.292 219.207 19.292ZM240.447 21L236.387 7.112H238.739L241.679 18.004L244.927 7.112H247.587L250.863 18.004L253.775 7.112H256.155L252.095 21H249.687L246.271 9.548L242.855 21H240.447ZM264.565 21.336C263.258 21.336 262.082 21.0373 261.037 20.44C259.991 19.8427 259.161 19.0027 258.545 17.92C257.947 16.8187 257.649 15.5307 257.649 14.056C257.649 12.5813 257.957 11.3027 258.573 10.22C259.189 9.11867 260.019 8.26933 261.065 7.672C262.129 7.07467 263.314 6.776 264.621 6.776C265.927 6.776 267.103 7.07467 268.149 7.672C269.194 8.26933 270.015 9.11867 270.613 10.22C271.229 11.3027 271.537 12.5813 271.537 14.056C271.537 15.5307 271.229 16.8187 270.613 17.92C269.997 19.0027 269.157 19.8427 268.093 20.44C267.047 21.0373 265.871 21.336 264.565 21.336ZM264.565 19.32C265.367 19.32 266.114 19.124 266.805 18.732C267.495 18.34 268.055 17.752 268.485 16.968C268.914 16.184 269.129 15.2133 269.129 14.056C269.129 12.8987 268.914 11.928 268.485 11.144C268.074 10.36 267.523 9.772 266.833 9.38C266.142 8.988 265.405 8.792 264.621 8.792C263.818 8.792 263.071 8.988 262.381 9.38C261.69 9.772 261.13 10.36 260.701 11.144C260.271 11.928 260.057 12.8987 260.057 14.056C260.057 15.2133 260.271 16.184 260.701 16.968C261.13 17.752 261.681 18.34 262.353 18.732C263.043 19.124 263.781 19.32 264.565 19.32ZM274.807 21V7.112H276.935L277.131 9.772C277.56 8.85733 278.214 8.12933 279.091 7.588C279.968 7.04667 281.051 6.776 282.339 6.776V9.24H281.695C280.874 9.24 280.118 9.38933 279.427 9.688C278.736 9.968 278.186 10.4533 277.775 11.144C277.364 11.8347 277.159 12.7867 277.159 14V21H274.807ZM290.759 21.336C289.378 21.336 288.165 21.0187 287.119 20.384C286.093 19.7493 285.29 18.8813 284.711 17.78C284.151 16.6787 283.871 15.428 283.871 14.028C283.871 12.628 284.161 11.3867 284.739 10.304C285.318 9.20267 286.121 8.344 287.147 7.728C288.174 7.09333 289.387 6.776 290.787 6.776C291.926 6.776 292.934 7.00933 293.811 7.476C294.689 7.94267 295.37 8.596 295.855 9.436V0.839999H298.207V21H296.079L295.855 18.704C295.407 19.376 294.763 19.9827 293.923 20.524C293.083 21.0653 292.029 21.336 290.759 21.336ZM291.011 19.292C291.945 19.292 292.766 19.0773 293.475 18.648C294.203 18.2 294.763 17.584 295.155 16.8C295.566 16.016 295.771 15.1013 295.771 14.056C295.771 13.0107 295.566 12.096 295.155 11.312C294.763 10.528 294.203 9.92133 293.475 9.492C292.766 9.044 291.945 8.82 291.011 8.82C290.097 8.82 289.275 9.044 288.547 9.492C287.838 9.92133 287.278 10.528 286.867 11.312C286.475 12.096 286.279 13.0107 286.279 14.056C286.279 15.1013 286.475 16.016 286.867 16.8C287.278 17.584 287.838 18.2 288.547 18.648C289.275 19.0773 290.097 19.292 291.011 19.292ZM310.88 4.032C310.413 4.032 310.021 3.88267 309.704 3.584C309.405 3.26667 309.256 2.87467 309.256 2.408C309.256 1.96 309.405 1.58667 309.704 1.288C310.021 0.989332 310.413 0.839999 310.88 0.839999C311.328 0.839999 311.71 0.989332 312.028 1.288C312.345 1.58667 312.504 1.96 312.504 2.408C312.504 2.87467 312.345 3.26667 312.028 3.584C311.71 3.88267 311.328 4.032 310.88 4.032ZM309.704 21V7.112H312.056V21H309.704ZM316.151 21V7.112H318.279L318.419 9.604C318.867 8.72667 319.511 8.036 320.351 7.532C321.191 7.028 322.143 6.776 323.207 6.776C324.849 6.776 326.156 7.28 327.127 8.288C328.116 9.27733 328.611 10.808 328.611 12.88V21H326.259V13.132C326.259 10.2387 325.064 8.792 322.675 8.792C321.48 8.792 320.481 9.23067 319.679 10.108C318.895 10.9667 318.503 12.1987 318.503 13.804V21H316.151ZM345.968 21.336C344.643 21.336 343.448 21.0373 342.384 20.44C341.339 19.824 340.508 18.9747 339.892 17.892C339.295 16.7907 338.996 15.512 338.996 14.056C338.996 12.6 339.295 11.3307 339.892 10.248C340.508 9.14667 341.339 8.29733 342.384 7.7C343.448 7.084 344.643 6.776 345.968 6.776C347.611 6.776 348.992 7.20533 350.112 8.064C351.251 8.92267 351.97 10.0707 352.268 11.508H349.86C349.674 10.6493 349.216 9.98667 348.488 9.52C347.76 9.03467 346.911 8.792 345.94 8.792C345.156 8.792 344.419 8.988 343.728 9.38C343.038 9.772 342.478 10.36 342.048 11.144C341.619 11.928 341.404 12.8987 341.404 14.056C341.404 15.2133 341.619 16.184 342.048 16.968C342.478 17.752 343.038 18.3493 343.728 18.76C344.419 19.152 345.156 19.348 345.94 19.348C346.911 19.348 347.76 19.1147 348.488 18.648C349.216 18.1627 349.674 17.4813 349.86 16.604H352.268C351.988 18.004 351.279 19.1427 350.14 20.02C349.002 20.8973 347.611 21.336 345.968 21.336ZM360.173 21.336C359.016 21.336 358.054 21.14 357.289 20.748C356.524 20.356 355.954 19.8333 355.581 19.18C355.208 18.5267 355.021 17.8173 355.021 17.052C355.021 15.6333 355.562 14.5413 356.645 13.776C357.728 13.0107 359.202 12.628 361.069 12.628H364.821V12.46C364.821 11.2467 364.504 10.332 363.869 9.716C363.234 9.08133 362.385 8.764 361.321 8.764C360.406 8.764 359.613 8.99733 358.941 9.464C358.288 9.912 357.877 10.5747 357.709 11.452H355.301C355.394 10.444 355.73 9.59467 356.309 8.904C356.906 8.21333 357.644 7.69067 358.521 7.336C359.398 6.96267 360.332 6.776 361.321 6.776C363.262 6.776 364.718 7.29867 365.689 8.344C366.678 9.37067 367.173 10.7427 367.173 12.46V21H365.073L364.933 18.508C364.541 19.292 363.962 19.964 363.197 20.524C362.45 21.0653 361.442 21.336 360.173 21.336ZM360.537 19.348C361.433 19.348 362.198 19.1147 362.833 18.648C363.486 18.1813 363.981 17.5747 364.317 16.828C364.653 16.0813 364.821 15.2973 364.821 14.476V14.448H361.265C359.884 14.448 358.904 14.6907 358.325 15.176C357.765 15.6427 357.485 16.2307 357.485 16.94C357.485 17.668 357.746 18.256 358.269 18.704C358.81 19.1333 359.566 19.348 360.537 19.348ZM370.702 27.16V7.112H372.83L373.054 9.408C373.502 8.736 374.136 8.12933 374.958 7.588C375.798 7.04667 376.862 6.776 378.15 6.776C379.531 6.776 380.735 7.09333 381.762 7.728C382.788 8.36267 383.582 9.23067 384.142 10.332C384.72 11.4333 385.01 12.684 385.01 14.084C385.01 15.484 384.72 16.7347 384.142 17.836C383.582 18.9187 382.779 19.7773 381.734 20.412C380.707 21.028 379.503 21.336 378.122 21.336C376.983 21.336 375.966 21.1027 375.07 20.636C374.192 20.1693 373.52 19.516 373.054 18.676V27.16H370.702ZM377.87 19.292C378.803 19.292 379.624 19.0773 380.334 18.648C381.043 18.2 381.603 17.584 382.014 16.8C382.424 16.016 382.63 15.1013 382.63 14.056C382.63 13.0107 382.424 12.096 382.014 11.312C381.603 10.528 381.043 9.92133 380.334 9.492C379.624 9.044 378.803 8.82 377.87 8.82C376.936 8.82 376.115 9.044 375.406 9.492C374.696 9.92133 374.136 10.528 373.726 11.312C373.315 12.096 373.11 13.0107 373.11 14.056C373.11 15.1013 373.315 16.016 373.726 16.8C374.136 17.584 374.696 18.2 375.406 18.648C376.115 19.0773 376.936 19.292 377.87 19.292ZM393.225 21C391.955 21 390.957 20.692 390.229 20.076C389.501 19.46 389.137 18.3493 389.137 16.744V9.1H386.729V7.112H389.137L389.445 3.78H391.489V7.112H395.577V9.1H391.489V16.744C391.489 17.6213 391.666 18.2187 392.021 18.536C392.375 18.8347 393.001 18.984 393.897 18.984H395.353V21H393.225ZM399.993 4.032C399.526 4.032 399.134 3.88267 398.817 3.584C398.518 3.26667 398.369 2.87467 398.369 2.408C398.369 1.96 398.518 1.58667 398.817 1.288C399.134 0.989332 399.526 0.839999 399.993 0.839999C400.441 0.839999 400.823 0.989332 401.141 1.288C401.458 1.58667 401.617 1.96 401.617 2.408C401.617 2.87467 401.458 3.26667 401.141 3.584C400.823 3.88267 400.441 4.032 399.993 4.032ZM398.817 21V7.112H401.169V21H398.817ZM411.592 21.336C410.285 21.336 409.109 21.0373 408.064 20.44C407.019 19.8427 406.188 19.0027 405.572 17.92C404.975 16.8187 404.676 15.5307 404.676 14.056C404.676 12.5813 404.984 11.3027 405.6 10.22C406.216 9.11867 407.047 8.26933 408.092 7.672C409.156 7.07467 410.341 6.776 411.648 6.776C412.955 6.776 414.131 7.07467 415.176 7.672C416.221 8.26933 417.043 9.11867 417.64 10.22C418.256 11.3027 418.564 12.5813 418.564 14.056C418.564 15.5307 418.256 16.8187 417.64 17.92C417.024 19.0027 416.184 19.8427 415.12 20.44C414.075 21.0373 412.899 21.336 411.592 21.336ZM411.592 19.32C412.395 19.32 413.141 19.124 413.832 18.732C414.523 18.34 415.083 17.752 415.512 16.968C415.941 16.184 416.156 15.2133 416.156 14.056C416.156 12.8987 415.941 11.928 415.512 11.144C415.101 10.36 414.551 9.772 413.86 9.38C413.169 8.988 412.432 8.792 411.648 8.792C410.845 8.792 410.099 8.988 409.408 9.38C408.717 9.772 408.157 10.36 407.728 11.144C407.299 11.928 407.084 12.8987 407.084 14.056C407.084 15.2133 407.299 16.184 407.728 16.968C408.157 17.752 408.708 18.34 409.38 18.732C410.071 19.124 410.808 19.32 411.592 19.32ZM421.834 21V7.112H423.962L424.102 9.604C424.55 8.72667 425.194 8.036 426.034 7.532C426.874 7.028 427.826 6.776 428.89 6.776C430.533 6.776 431.84 7.28 432.81 8.288C433.8 9.27733 434.294 10.808 434.294 12.88V21H431.942V13.132C431.942 10.2387 430.748 8.792 428.358 8.792C427.164 8.792 426.165 9.23067 425.362 10.108C424.578 10.9667 424.186 12.1987 424.186 13.804V21H421.834ZM443.178 21.336C441.516 21.336 440.135 20.916 439.034 20.076C437.932 19.236 437.288 18.0973 437.102 16.66H439.51C439.659 17.388 440.042 18.0227 440.658 18.564C441.292 19.0867 442.142 19.348 443.206 19.348C444.195 19.348 444.923 19.1427 445.39 18.732C445.856 18.3027 446.09 17.7987 446.09 17.22C446.09 16.38 445.782 15.82 445.166 15.54C444.568 15.26 443.719 15.008 442.618 14.784C441.871 14.6347 441.124 14.42 440.378 14.14C439.631 13.86 439.006 13.468 438.502 12.964C437.998 12.4413 437.746 11.76 437.746 10.92C437.746 9.70667 438.194 8.71733 439.09 7.952C440.004 7.168 441.236 6.776 442.786 6.776C444.26 6.776 445.464 7.14933 446.398 7.896C447.35 8.624 447.9 9.66933 448.05 11.032H445.726C445.632 10.3227 445.324 9.772 444.802 9.38C444.298 8.96933 443.616 8.764 442.758 8.764C441.918 8.764 441.264 8.94133 440.798 9.296C440.35 9.65067 440.126 10.1173 440.126 10.696C440.126 11.256 440.415 11.6947 440.994 12.012C441.591 12.3293 442.394 12.6 443.402 12.824C444.26 13.0107 445.072 13.244 445.838 13.524C446.622 13.7853 447.256 14.1867 447.742 14.728C448.246 15.2507 448.498 16.016 448.498 17.024C448.516 18.2747 448.04 19.3107 447.07 20.132C446.118 20.9347 444.82 21.336 443.178 21.336ZM452.67 21.14C452.203 21.14 451.811 20.9907 451.494 20.692C451.195 20.3747 451.046 19.992 451.046 19.544C451.046 19.096 451.195 18.7227 451.494 18.424C451.811 18.1067 452.203 17.948 452.67 17.948C453.118 17.948 453.491 18.1067 453.79 18.424C454.107 18.7227 454.266 19.096 454.266 19.544C454.266 19.992 454.107 20.3747 453.79 20.692C453.491 20.9907 453.118 21.14 452.67 21.14Z" fill="black"/>
</svg>
