<svg width="876" height="108" viewBox="0 0 876 108" fill="none" xmlns="http://www.w3.org/2000/svg">
<g filter="url(#filter0_d_469_196)">
<rect x="4" width="868" height="100" rx="50" fill="#F6F6F6"/>
</g>
<path d="M72 75C58.1929 75 47 63.8071 47 50C47 36.1929 58.1929 25 72 25C85.8071 25 97 36.1929 97 50C96.9848 63.8008 85.8008 74.9848 72 75ZM72 30C60.9543 30 52 38.9543 52 50C52 61.0457 60.9543 70 72 70C83.0457 70 92 61.0457 92 50C91.9876 38.9594 83.0406 30.0124 72 30ZM67 65C66.965 65 66.65 64.9875 64.5 64.9875H62V64.9275C62 64.9 62 64.865 62 64.8225C62 64.74 62 64.6275 62.0175 64.49C62.045 64.1175 62.0875 63.7625 62.1475 63.41C62.3347 62.2719 62.6885 61.1675 63.1975 60.1325C63.8924 58.7034 64.9534 57.4837 66.2725 56.5975L66.3075 56.575L66.3475 56.545L66.385 56.525H66.4H66.4175H66.43H66.4475L66.475 56.5075C68.137 55.4926 70.0528 54.9698 72 55C74.024 54.9462 76.0178 55.499 77.725 56.5875C79.0429 57.475 80.1036 58.6943 80.8 60.1225C81.3109 61.1565 81.664 62.2613 81.8475 63.4C81.9275 63.87 81.9625 64.2475 81.9775 64.48C81.9775 64.59 81.9925 64.7 81.995 64.8125C81.995 64.855 81.995 64.89 81.995 64.9175V64.9675C81.995 64.9675 81.895 64.9675 79.495 64.9675C77.23 64.9675 76.995 64.9675 76.995 64.9675C76.995 64.9675 76.995 64.895 76.995 64.82C76.995 64.6825 76.9625 64.47 76.9175 64.205C76.8127 63.5571 76.6139 62.928 76.3275 62.3375C76.0179 61.6884 75.5428 61.1322 74.95 60.725C74.0591 60.1992 73.0332 59.947 72 60C70.9643 59.9545 69.9382 60.2154 69.05 60.75C68.458 61.1581 67.9831 61.714 67.6725 62.3625C67.3866 62.9532 67.1879 63.5823 67.0825 64.23C67.047 64.4336 67.022 64.6389 67.0075 64.845C67.0075 64.915 67.0075 64.965 67.0075 64.99H67V65ZM63.25 50C61.1789 50 59.5 48.3211 59.5 46.25C59.5 44.1789 61.1789 42.5 63.25 42.5C65.3211 42.5 67 44.1789 67 46.25C67 48.3211 65.3211 50 63.25 50ZM80.7325 49.965C78.6711 49.965 77 48.2939 77 46.2325C77 44.1711 78.6711 42.5 80.7325 42.5C82.7939 42.5 84.465 44.1711 84.465 46.2325C84.4622 48.2928 82.7928 49.9622 80.7325 49.965Z" fill="#A5C9D7"/>
<defs>
<filter id="filter0_d_469_196" x="0" y="0" width="876" height="108" filterUnits="userSpaceOnUse" color-interpolation-filters="sRGB">
<feFlood flood-opacity="0" result="BackgroundImageFix"/>
<feColorMatrix in="SourceAlpha" type="matrix" values="0 0 0 0 0 0 0 0 0 0 0 0 0 0 0 0 0 0 127 0" result="hardAlpha"/>
<feOffset dy="4"/>
<feGaussianBlur stdDeviation="2"/>
<feComposite in2="hardAlpha" operator="out"/>
<feColorMatrix type="matrix" values="0 0 0 0 0 0 0 0 0 0 0 0 0 0 0 0 0 0 0.25 0"/>
<feBlend mode="normal" in2="BackgroundImageFix" result="effect1_dropShadow_469_196"/>
<feBlend mode="normal" in="SourceGraphic" in2="effect1_dropShadow_469_196" result="shape"/>
</filter>
</defs>
</svg>
